<svg width="12" height="10" viewBox="0 0 12 10" fill="none" xmlns="http://www.w3.org/2000/svg">
<path fill-rule="evenodd" clip-rule="evenodd" d="M12 5C12 5.18941 11.921 5.37106 11.7804 5.50499C11.6397 5.63892 11.449 5.71416 11.2501 5.71416L2.56155 5.71416L5.7817 8.77932C5.85142 8.84572 5.90673 8.92455 5.94446 9.0113C5.9822 9.09805 6.00162 9.19104 6.00162 9.28494C6.00162 9.37884 5.9822 9.47183 5.94446 9.55858C5.90673 9.64534 5.85142 9.72417 5.7817 9.79056C5.71197 9.85696 5.6292 9.90964 5.5381 9.94557C5.447 9.98151 5.34936 10 5.25075 10C5.15215 10 5.05451 9.98151 4.96341 9.94557C4.87231 9.90964 4.78954 9.85696 4.71981 9.79056L0.220316 5.50562C0.150479 5.43928 0.0950709 5.36048 0.0572654 5.27371C0.01946 5.18695 2.22663e-07 5.09394 2.18557e-07 5C2.14451e-07 4.90606 0.01946 4.81305 0.0572654 4.72629C0.0950709 4.63952 0.150479 4.56072 0.220316 4.49438L4.71981 0.209436C4.86063 0.0753363 5.05161 -2.20813e-07 5.25075 -2.29518e-07C5.4499 -2.38223e-07 5.64088 0.0753363 5.7817 0.209436C5.92251 0.343535 6.00162 0.525414 6.00162 0.715059C6.00162 0.904704 5.92251 1.08658 5.7817 1.22068L2.56155 4.28584L11.2501 4.28584C11.449 4.28584 11.6397 4.36108 11.7804 4.49502C11.921 4.62895 12 4.81059 12 5Z" fill="#268AFF"/>
</svg>
