<svg width="60" height="84" viewBox="0 0 60 84" fill="none" xmlns="http://www.w3.org/2000/svg">
<path d="M40.618 40.0341V39.8425C51.282 38.1296 56.6158 32.922 56.6158 24.2235C56.6158 18.5715 54.3682 14.5565 49.8768 12.175C46.4631 10.3645 41.7473 9.24419 35.7366 8.80692V0H29.2477V8.60093H22.9502V0H16.4613V8.60093H0.673166L0.713627 16.1249L9.1705 16.1285C10.4874 16.1285 11.5542 17.1766 11.5542 18.4739V63.6216C11.5542 64.9153 10.4874 65.967 9.16682 65.967H0.669487L0 75.2762H16.4539V84H22.9428V75.2762H29.1705C29.1926 75.2762 29.2183 75.2762 29.2404 75.2762V84H35.7293V75.0522C42.5382 74.5607 47.9823 73.2561 52.0508 71.1347C57.3515 68.3738 60 63.5312 60 56.6071C60.0074 47.1461 53.5442 41.6205 40.618 40.0341ZM23.0458 16.1249C31.1091 16.1249 44.6092 16.1249 44.6092 25.6871C44.6092 35.2494 31.1054 35.2494 23.0458 35.2494V16.1249ZM23.0458 65.3418V45.4657C32.4995 45.4657 48.3318 45.4657 48.3318 55.4037C48.3318 65.3418 32.4995 65.3418 23.0458 65.3418Z" fill="#F99545"/>
</svg>
