<svg width="20" height="21" viewBox="0 0 20 21" fill="none" xmlns="http://www.w3.org/2000/svg">
<path d="M19.701 12.4207C18.3652 17.7784 12.9383 21.0389 7.57996 19.7031C2.224 18.3673 -1.03668 12.9404 0.299446 7.58297C1.63462 2.22451 7.06112 -1.03653 12.418 0.299288C17.7761 1.6351 21.0365 7.06256 19.7007 12.4207H19.701Z" fill="#F68621"/>
<path d="M12.2414 8.55673C11.932 9.79611 10.0224 9.16651 9.40265 9.01223L9.94895 6.82109C10.5687 6.97565 12.5639 7.26383 12.2414 8.55673ZM11.9023 12.0921C11.5628 13.4548 9.26885 12.7184 8.52467 12.5335L9.12731 10.1177C9.87108 10.3035 12.2561 10.671 11.9026 12.0921H11.9023ZM14.4097 8.57628C14.6086 7.24563 13.5953 6.53019 12.2099 6.05296L12.6593 4.25023L11.5616 3.97672L11.124 5.73218C10.836 5.6602 10.5396 5.59229 10.2452 5.5252L10.6859 3.75834L9.58917 3.48509L9.13953 5.287C8.9007 5.23268 8.66632 5.1789 8.43873 5.1224L8.44001 5.1167L6.9267 4.73887L6.63482 5.9109L7.43174 6.10892C7.87619 6.22001 7.95683 6.51417 7.94314 6.74722L7.42962 8.80879L6.71174 11.6855C6.65731 11.8205 6.51949 12.0231 6.20881 11.9462L5.41126 11.7471L4.86642 13.0036L6.29475 13.3595C6.56045 13.426 6.82079 13.4958 7.07671 13.5613L6.62262 15.3849L7.71862 15.6584L8.16869 13.8546C8.4678 13.9358 8.75851 14.0108 9.04286 14.0814L8.5947 15.8771L9.69198 16.1503L10.1461 14.3305C12.0173 14.6847 13.4246 14.5418 14.0163 12.8496C14.4936 11.4869 13.9929 10.7011 13.0084 10.1881C13.7253 10.0224 14.2653 9.55057 14.4094 8.57628H14.4097Z" fill="white"/>
</svg>
