<svg width="20" height="14" viewBox="0 0 20 14" fill="none" xmlns="http://www.w3.org/2000/svg">
<g clip-path="url(#clip0_2820_13475)">
<mask id="mask0_2820_13475" style="mask-type:alpha" maskUnits="userSpaceOnUse" x="0" y="0" width="20" height="14">
<path d="M18.0952 0H1.90476C0.852791 0 0 0.835735 0 1.86667V12.1333C0 13.1643 0.852791 14 1.90476 14H18.0952C19.1472 14 20 13.1643 20 12.1333V1.86667C20 0.835735 19.1472 0 18.0952 0Z" fill="white"/>
</mask>
<g mask="url(#mask0_2820_13475)">
<path d="M18.0952 0H1.90476C0.852791 0 0 0.835735 0 1.86667V12.1333C0 13.1643 0.852791 14 1.90476 14H18.0952C19.1472 14 20 13.1643 20 12.1333V1.86667C20 0.835735 19.1472 0 18.0952 0Z" fill="#009C34"/>
<path fill-rule="evenodd" clip-rule="evenodd" d="M9.99997 1.86664L17.1428 6.99997L9.99997 12.1333L2.85712 6.99997" fill="#F8E23D"/>
<path d="M10 10.2667C11.841 10.2667 13.3334 8.80413 13.3334 7C13.3334 5.19587 11.841 3.73334 10 3.73334C8.15907 3.73334 6.66669 5.19587 6.66669 7C6.66669 8.80413 8.15907 10.2667 10 10.2667Z" fill="#002478"/>
<path fill-rule="evenodd" clip-rule="evenodd" d="M8.57141 8.40002V9.33336H9.52379V8.40002H8.57141ZM10.4762 8.40002V9.33336H11.4286V8.40002H10.4762Z" fill="#91A1C3"/>
<path d="M7.61902 5.59998C7.61902 5.59998 9.77521 5.97331 11.3295 6.62478L13.3333 7.46664" stroke="#C9D0E0"/>
<path d="M18.0952 0.466675H1.90477C1.11579 0.466675 0.476196 1.09348 0.476196 1.86667V12.1333C0.476196 12.9065 1.11579 13.5333 1.90477 13.5333H18.0952C18.8842 13.5333 19.5238 12.9065 19.5238 12.1333V1.86667C19.5238 1.09348 18.8842 0.466675 18.0952 0.466675Z" stroke="black" stroke-opacity="0.1"/>
</g>
</g>
<defs>
<clipPath id="clip0_2820_13475">
<rect width="20" height="14" fill="white"/>
</clipPath>
</defs>
</svg>
