<svg width="369" height="119" viewBox="0 0 369 119" fill="none" xmlns="http://www.w3.org/2000/svg">
<path d="M57.8306 109.455V116H56.8398V110.445H56.8014L55.2354 111.468V110.522L56.8686 109.455H57.8306ZM62.9854 116H61.9371L64.2926 109.455H65.4335L67.789 116H66.7407L64.8902 110.643H64.8391L62.9854 116ZM63.1612 113.437H66.5617V114.268H63.1612V113.437ZM71.9473 113.964V111.091H72.9061V116H71.9664V115.15H71.9153C71.8024 115.412 71.6213 115.63 71.372 115.805C71.1248 115.978 70.8169 116.064 70.4483 116.064C70.133 116.064 69.8539 115.995 69.611 115.856C69.3702 115.716 69.1806 115.508 69.0421 115.233C68.9057 114.958 68.8375 114.618 68.8375 114.213V111.091H69.7931V114.098C69.7931 114.433 69.8858 114.699 70.0712 114.897C70.2566 115.096 70.4973 115.195 70.7935 115.195C70.9725 115.195 71.1504 115.15 71.3272 115.06C71.5062 114.971 71.6543 114.836 71.7715 114.654C71.8908 114.473 71.9494 114.243 71.9473 113.964ZM76.4283 117.943C76.0384 117.943 75.7028 117.892 75.4216 117.79C75.1424 117.688 74.9145 117.552 74.7376 117.384C74.5608 117.216 74.4287 117.031 74.3413 116.831L75.1627 116.492C75.2202 116.586 75.2969 116.685 75.3928 116.789C75.4908 116.896 75.6229 116.987 75.7891 117.061C75.9574 117.136 76.1737 117.173 76.4379 117.173C76.8001 117.173 77.0995 117.085 77.336 116.908C77.5725 116.733 77.6907 116.454 77.6907 116.07V115.105H77.63C77.5725 115.21 77.4894 115.326 77.3807 115.453C77.2742 115.581 77.1272 115.692 76.9397 115.786C76.7522 115.88 76.5082 115.926 76.2078 115.926C75.82 115.926 75.4706 115.836 75.1595 115.655C74.8505 115.472 74.6055 115.202 74.4244 114.846C74.2454 114.488 74.1559 114.048 74.1559 113.526C74.1559 113.004 74.2444 112.557 74.4212 112.184C74.6002 111.811 74.8452 111.526 75.1563 111.327C75.4674 111.127 75.82 111.027 76.2142 111.027C76.5189 111.027 76.765 111.078 76.9525 111.18C77.14 111.281 77.2859 111.398 77.3903 111.532C77.4969 111.666 77.5789 111.784 77.6364 111.887H77.7067V111.091H78.6432V116.109C78.6432 116.531 78.5451 116.877 78.3491 117.147C78.1531 117.418 77.8878 117.618 77.5533 117.748C77.2209 117.878 76.8459 117.943 76.4283 117.943ZM76.4187 115.134C76.6936 115.134 76.9258 115.07 77.1155 114.942C77.3072 114.812 77.4521 114.627 77.5501 114.386C77.6503 114.143 77.7003 113.852 77.7003 113.513C77.7003 113.183 77.6513 112.892 77.5533 112.641C77.4553 112.39 77.3115 112.194 77.1219 112.053C76.9322 111.91 76.6978 111.839 76.4187 111.839C76.1311 111.839 75.8914 111.913 75.6996 112.062C75.5079 112.21 75.363 112.41 75.265 112.663C75.1691 112.917 75.1211 113.2 75.1211 113.513C75.1211 113.835 75.1701 114.118 75.2682 114.36C75.3662 114.603 75.5111 114.793 75.7028 114.929C75.8967 115.066 76.1353 115.134 76.4187 115.134Z" fill="#707C94"/>
<path d="M105.831 109.455V116H104.84V110.445H104.801L103.235 111.468V110.522L104.869 109.455H105.831ZM110.985 116H109.937L112.293 109.455H113.434L115.789 116H114.741L112.89 110.643H112.839L110.985 116ZM111.161 113.437H114.562V114.268H111.161V113.437ZM119.947 113.964V111.091H120.906V116H119.966V115.15H119.915C119.802 115.412 119.621 115.63 119.372 115.805C119.125 115.978 118.817 116.064 118.448 116.064C118.133 116.064 117.854 115.995 117.611 115.856C117.37 115.716 117.181 115.508 117.042 115.233C116.906 114.958 116.838 114.618 116.838 114.213V111.091H117.793V114.098C117.793 114.433 117.886 114.699 118.071 114.897C118.257 115.096 118.497 115.195 118.794 115.195C118.972 115.195 119.15 115.15 119.327 115.06C119.506 114.971 119.654 114.836 119.771 114.654C119.891 114.473 119.949 114.243 119.947 113.964ZM124.428 117.943C124.038 117.943 123.703 117.892 123.422 117.79C123.142 117.688 122.914 117.552 122.738 117.384C122.561 117.216 122.429 117.031 122.341 116.831L123.163 116.492C123.22 116.586 123.297 116.685 123.393 116.789C123.491 116.896 123.623 116.987 123.789 117.061C123.957 117.136 124.174 117.173 124.438 117.173C124.8 117.173 125.099 117.085 125.336 116.908C125.572 116.733 125.691 116.454 125.691 116.07V115.105H125.63C125.572 115.21 125.489 115.326 125.381 115.453C125.274 115.581 125.127 115.692 124.94 115.786C124.752 115.88 124.508 115.926 124.208 115.926C123.82 115.926 123.471 115.836 123.159 115.655C122.851 115.472 122.606 115.202 122.424 114.846C122.245 114.488 122.156 114.048 122.156 113.526C122.156 113.004 122.244 112.557 122.421 112.184C122.6 111.811 122.845 111.526 123.156 111.327C123.467 111.127 123.82 111.027 124.214 111.027C124.519 111.027 124.765 111.078 124.952 111.18C125.14 111.281 125.286 111.398 125.39 111.532C125.497 111.666 125.579 111.784 125.636 111.887H125.707V111.091H126.643V116.109C126.643 116.531 126.545 116.877 126.349 117.147C126.153 117.418 125.888 117.618 125.553 117.748C125.221 117.878 124.846 117.943 124.428 117.943ZM124.419 115.134C124.694 115.134 124.926 115.07 125.115 114.942C125.307 114.812 125.452 114.627 125.55 114.386C125.65 114.143 125.7 113.852 125.7 113.513C125.7 113.183 125.651 112.892 125.553 112.641C125.455 112.39 125.311 112.194 125.122 112.053C124.932 111.91 124.698 111.839 124.419 111.839C124.131 111.839 123.891 111.913 123.7 112.062C123.508 112.21 123.363 112.41 123.265 112.663C123.169 112.917 123.121 113.2 123.121 113.513C123.121 113.835 123.17 114.118 123.268 114.36C123.366 114.603 123.511 114.793 123.703 114.929C123.897 115.066 124.135 115.134 124.419 115.134Z" fill="#707C94"/>
<path d="M201.831 109.455V116H200.84V110.445H200.801L199.235 111.468V110.522L200.869 109.455H201.831ZM206.985 116H205.937L208.293 109.455H209.434L211.789 116H210.741L208.89 110.643H208.839L206.985 116ZM207.161 113.437H210.562V114.268H207.161V113.437ZM215.947 113.964V111.091H216.906V116H215.966V115.15H215.915C215.802 115.412 215.621 115.63 215.372 115.805C215.125 115.978 214.817 116.064 214.448 116.064C214.133 116.064 213.854 115.995 213.611 115.856C213.37 115.716 213.181 115.508 213.042 115.233C212.906 114.958 212.838 114.618 212.838 114.213V111.091H213.793V114.098C213.793 114.433 213.886 114.699 214.071 114.897C214.257 115.096 214.497 115.195 214.794 115.195C214.972 115.195 215.15 115.15 215.327 115.06C215.506 114.971 215.654 114.836 215.771 114.654C215.891 114.473 215.949 114.243 215.947 113.964ZM220.428 117.943C220.038 117.943 219.703 117.892 219.422 117.79C219.142 117.688 218.914 117.552 218.738 117.384C218.561 117.216 218.429 117.031 218.341 116.831L219.163 116.492C219.22 116.586 219.297 116.685 219.393 116.789C219.491 116.896 219.623 116.987 219.789 117.061C219.957 117.136 220.174 117.173 220.438 117.173C220.8 117.173 221.099 117.085 221.336 116.908C221.572 116.733 221.691 116.454 221.691 116.07V115.105H221.63C221.572 115.21 221.489 115.326 221.381 115.453C221.274 115.581 221.127 115.692 220.94 115.786C220.752 115.88 220.508 115.926 220.208 115.926C219.82 115.926 219.471 115.836 219.159 115.655C218.851 115.472 218.606 115.202 218.424 114.846C218.245 114.488 218.156 114.048 218.156 113.526C218.156 113.004 218.244 112.557 218.421 112.184C218.6 111.811 218.845 111.526 219.156 111.327C219.467 111.127 219.82 111.027 220.214 111.027C220.519 111.027 220.765 111.078 220.952 111.18C221.14 111.281 221.286 111.398 221.39 111.532C221.497 111.666 221.579 111.784 221.636 111.887H221.707V111.091H222.643V116.109C222.643 116.531 222.545 116.877 222.349 117.147C222.153 117.418 221.888 117.618 221.553 117.748C221.221 117.878 220.846 117.943 220.428 117.943ZM220.419 115.134C220.694 115.134 220.926 115.07 221.115 114.942C221.307 114.812 221.452 114.627 221.55 114.386C221.65 114.143 221.7 113.852 221.7 113.513C221.7 113.183 221.651 112.892 221.553 112.641C221.455 112.39 221.311 112.194 221.122 112.053C220.932 111.91 220.698 111.839 220.419 111.839C220.131 111.839 219.891 111.913 219.7 112.062C219.508 112.21 219.363 112.41 219.265 112.663C219.169 112.917 219.121 113.2 219.121 113.513C219.121 113.835 219.17 114.118 219.268 114.36C219.366 114.603 219.511 114.793 219.703 114.929C219.897 115.066 220.135 115.134 220.419 115.134Z" fill="#707C94"/>
<path d="M297.831 109.455V116H296.84V110.445H296.801L295.235 111.468V110.522L296.869 109.455H297.831ZM302.985 116H301.937L304.293 109.455H305.434L307.789 116H306.741L304.89 110.643H304.839L302.985 116ZM303.161 113.437H306.562V114.268H303.161V113.437ZM311.947 113.964V111.091H312.906V116H311.966V115.15H311.915C311.802 115.412 311.621 115.63 311.372 115.805C311.125 115.978 310.817 116.064 310.448 116.064C310.133 116.064 309.854 115.995 309.611 115.856C309.37 115.716 309.181 115.508 309.042 115.233C308.906 114.958 308.838 114.618 308.838 114.213V111.091H309.793V114.098C309.793 114.433 309.886 114.699 310.071 114.897C310.257 115.096 310.497 115.195 310.794 115.195C310.972 115.195 311.15 115.15 311.327 115.06C311.506 114.971 311.654 114.836 311.771 114.654C311.891 114.473 311.949 114.243 311.947 113.964ZM316.428 117.943C316.038 117.943 315.703 117.892 315.422 117.79C315.142 117.688 314.914 117.552 314.738 117.384C314.561 117.216 314.429 117.031 314.341 116.831L315.163 116.492C315.22 116.586 315.297 116.685 315.393 116.789C315.491 116.896 315.623 116.987 315.789 117.061C315.957 117.136 316.174 117.173 316.438 117.173C316.8 117.173 317.099 117.085 317.336 116.908C317.572 116.733 317.691 116.454 317.691 116.07V115.105H317.63C317.572 115.21 317.489 115.326 317.381 115.453C317.274 115.581 317.127 115.692 316.94 115.786C316.752 115.88 316.508 115.926 316.208 115.926C315.82 115.926 315.471 115.836 315.159 115.655C314.851 115.472 314.606 115.202 314.424 114.846C314.245 114.488 314.156 114.048 314.156 113.526C314.156 113.004 314.244 112.557 314.421 112.184C314.6 111.811 314.845 111.526 315.156 111.327C315.467 111.127 315.82 111.027 316.214 111.027C316.519 111.027 316.765 111.078 316.952 111.18C317.14 111.281 317.286 111.398 317.39 111.532C317.497 111.666 317.579 111.784 317.636 111.887H317.707V111.091H318.643V116.109C318.643 116.531 318.545 116.877 318.349 117.147C318.153 117.418 317.888 117.618 317.553 117.748C317.221 117.878 316.846 117.943 316.428 117.943ZM316.419 115.134C316.694 115.134 316.926 115.07 317.115 114.942C317.307 114.812 317.452 114.627 317.55 114.386C317.65 114.143 317.7 113.852 317.7 113.513C317.7 113.183 317.651 112.892 317.553 112.641C317.455 112.39 317.311 112.194 317.122 112.053C316.932 111.91 316.698 111.839 316.419 111.839C316.131 111.839 315.891 111.913 315.7 112.062C315.508 112.21 315.363 112.41 315.265 112.663C315.169 112.917 315.121 113.2 315.121 113.513C315.121 113.835 315.17 114.118 315.268 114.36C315.366 114.603 315.511 114.793 315.703 114.929C315.897 115.066 316.135 115.134 316.419 115.134Z" fill="#707C94"/>
<path d="M153.831 109.455V116H152.84V110.445H152.801L151.235 111.468V110.522L152.869 109.455H153.831ZM158.985 116H157.937L160.293 109.455H161.434L163.789 116H162.741L160.89 110.643H160.839L158.985 116ZM159.161 113.437H162.562V114.268H159.161V113.437ZM167.947 113.964V111.091H168.906V116H167.966V115.15H167.915C167.802 115.412 167.621 115.63 167.372 115.805C167.125 115.978 166.817 116.064 166.448 116.064C166.133 116.064 165.854 115.995 165.611 115.856C165.37 115.716 165.181 115.508 165.042 115.233C164.906 114.958 164.838 114.618 164.838 114.213V111.091H165.793V114.098C165.793 114.433 165.886 114.699 166.071 114.897C166.257 115.096 166.497 115.195 166.794 115.195C166.972 115.195 167.15 115.15 167.327 115.06C167.506 114.971 167.654 114.836 167.771 114.654C167.891 114.473 167.949 114.243 167.947 113.964ZM172.428 117.943C172.038 117.943 171.703 117.892 171.422 117.79C171.142 117.688 170.914 117.552 170.738 117.384C170.561 117.216 170.429 117.031 170.341 116.831L171.163 116.492C171.22 116.586 171.297 116.685 171.393 116.789C171.491 116.896 171.623 116.987 171.789 117.061C171.957 117.136 172.174 117.173 172.438 117.173C172.8 117.173 173.099 117.085 173.336 116.908C173.572 116.733 173.691 116.454 173.691 116.07V115.105H173.63C173.572 115.21 173.489 115.326 173.381 115.453C173.274 115.581 173.127 115.692 172.94 115.786C172.752 115.88 172.508 115.926 172.208 115.926C171.82 115.926 171.471 115.836 171.159 115.655C170.851 115.472 170.606 115.202 170.424 114.846C170.245 114.488 170.156 114.048 170.156 113.526C170.156 113.004 170.244 112.557 170.421 112.184C170.6 111.811 170.845 111.526 171.156 111.327C171.467 111.127 171.82 111.027 172.214 111.027C172.519 111.027 172.765 111.078 172.952 111.18C173.14 111.281 173.286 111.398 173.39 111.532C173.497 111.666 173.579 111.784 173.636 111.887H173.707V111.091H174.643V116.109C174.643 116.531 174.545 116.877 174.349 117.147C174.153 117.418 173.888 117.618 173.553 117.748C173.221 117.878 172.846 117.943 172.428 117.943ZM172.419 115.134C172.694 115.134 172.926 115.07 173.115 114.942C173.307 114.812 173.452 114.627 173.55 114.386C173.65 114.143 173.7 113.852 173.7 113.513C173.7 113.183 173.651 112.892 173.553 112.641C173.455 112.39 173.311 112.194 173.122 112.053C172.932 111.91 172.698 111.839 172.419 111.839C172.131 111.839 171.891 111.913 171.7 112.062C171.508 112.21 171.363 112.41 171.265 112.663C171.169 112.917 171.121 113.2 171.121 113.513C171.121 113.835 171.17 114.118 171.268 114.36C171.366 114.603 171.511 114.793 171.703 114.929C171.897 115.066 172.135 115.134 172.419 115.134Z" fill="#707C94"/>
<path d="M249.831 109.455V116H248.84V110.445H248.801L247.235 111.468V110.522L248.869 109.455H249.831ZM254.985 116H253.937L256.293 109.455H257.434L259.789 116H258.741L256.89 110.643H256.839L254.985 116ZM255.161 113.437H258.562V114.268H255.161V113.437ZM263.947 113.964V111.091H264.906V116H263.966V115.15H263.915C263.802 115.412 263.621 115.63 263.372 115.805C263.125 115.978 262.817 116.064 262.448 116.064C262.133 116.064 261.854 115.995 261.611 115.856C261.37 115.716 261.181 115.508 261.042 115.233C260.906 114.958 260.838 114.618 260.838 114.213V111.091H261.793V114.098C261.793 114.433 261.886 114.699 262.071 114.897C262.257 115.096 262.497 115.195 262.794 115.195C262.972 115.195 263.15 115.15 263.327 115.06C263.506 114.971 263.654 114.836 263.771 114.654C263.891 114.473 263.949 114.243 263.947 113.964ZM268.428 117.943C268.038 117.943 267.703 117.892 267.422 117.79C267.142 117.688 266.914 117.552 266.738 117.384C266.561 117.216 266.429 117.031 266.341 116.831L267.163 116.492C267.22 116.586 267.297 116.685 267.393 116.789C267.491 116.896 267.623 116.987 267.789 117.061C267.957 117.136 268.174 117.173 268.438 117.173C268.8 117.173 269.099 117.085 269.336 116.908C269.572 116.733 269.691 116.454 269.691 116.07V115.105H269.63C269.572 115.21 269.489 115.326 269.381 115.453C269.274 115.581 269.127 115.692 268.94 115.786C268.752 115.88 268.508 115.926 268.208 115.926C267.82 115.926 267.471 115.836 267.159 115.655C266.851 115.472 266.606 115.202 266.424 114.846C266.245 114.488 266.156 114.048 266.156 113.526C266.156 113.004 266.244 112.557 266.421 112.184C266.6 111.811 266.845 111.526 267.156 111.327C267.467 111.127 267.82 111.027 268.214 111.027C268.519 111.027 268.765 111.078 268.952 111.18C269.14 111.281 269.286 111.398 269.39 111.532C269.497 111.666 269.579 111.784 269.636 111.887H269.707V111.091H270.643V116.109C270.643 116.531 270.545 116.877 270.349 117.147C270.153 117.418 269.888 117.618 269.553 117.748C269.221 117.878 268.846 117.943 268.428 117.943ZM268.419 115.134C268.694 115.134 268.926 115.07 269.115 114.942C269.307 114.812 269.452 114.627 269.55 114.386C269.65 114.143 269.7 113.852 269.7 113.513C269.7 113.183 269.651 112.892 269.553 112.641C269.455 112.39 269.311 112.194 269.122 112.053C268.932 111.91 268.698 111.839 268.419 111.839C268.131 111.839 267.891 111.913 267.7 112.062C267.508 112.21 267.363 112.41 267.265 112.663C267.169 112.917 267.121 113.2 267.121 113.513C267.121 113.835 267.17 114.118 267.268 114.36C267.366 114.603 267.511 114.793 267.703 114.929C267.897 115.066 268.135 115.134 268.419 115.134Z" fill="#707C94"/>
<path d="M344.831 109.455V116H343.84V110.445H343.801L342.235 111.468V110.522L343.869 109.455H344.831ZM349.985 116H348.937L351.293 109.455H352.434L354.789 116H353.741L351.89 110.643H351.839L349.985 116ZM350.161 113.437H353.562V114.268H350.161V113.437ZM358.947 113.964V111.091H359.906V116H358.966V115.15H358.915C358.802 115.412 358.621 115.63 358.372 115.805C358.125 115.978 357.817 116.064 357.448 116.064C357.133 116.064 356.854 115.995 356.611 115.856C356.37 115.716 356.181 115.508 356.042 115.233C355.906 114.958 355.838 114.618 355.838 114.213V111.091H356.793V114.098C356.793 114.433 356.886 114.699 357.071 114.897C357.257 115.096 357.497 115.195 357.794 115.195C357.972 115.195 358.15 115.15 358.327 115.06C358.506 114.971 358.654 114.836 358.771 114.654C358.891 114.473 358.949 114.243 358.947 113.964ZM363.428 117.943C363.038 117.943 362.703 117.892 362.422 117.79C362.142 117.688 361.914 117.552 361.738 117.384C361.561 117.216 361.429 117.031 361.341 116.831L362.163 116.492C362.22 116.586 362.297 116.685 362.393 116.789C362.491 116.896 362.623 116.987 362.789 117.061C362.957 117.136 363.174 117.173 363.438 117.173C363.8 117.173 364.099 117.085 364.336 116.908C364.572 116.733 364.691 116.454 364.691 116.07V115.105H364.63C364.572 115.21 364.489 115.326 364.381 115.453C364.274 115.581 364.127 115.692 363.94 115.786C363.752 115.88 363.508 115.926 363.208 115.926C362.82 115.926 362.471 115.836 362.159 115.655C361.851 115.472 361.606 115.202 361.424 114.846C361.245 114.488 361.156 114.048 361.156 113.526C361.156 113.004 361.244 112.557 361.421 112.184C361.6 111.811 361.845 111.526 362.156 111.327C362.467 111.127 362.82 111.027 363.214 111.027C363.519 111.027 363.765 111.078 363.952 111.18C364.14 111.281 364.286 111.398 364.39 111.532C364.497 111.666 364.579 111.784 364.636 111.887H364.707V111.091H365.643V116.109C365.643 116.531 365.545 116.877 365.349 117.147C365.153 117.418 364.888 117.618 364.553 117.748C364.221 117.878 363.846 117.943 363.428 117.943ZM363.419 115.134C363.694 115.134 363.926 115.07 364.115 114.942C364.307 114.812 364.452 114.627 364.55 114.386C364.65 114.143 364.7 113.852 364.7 113.513C364.7 113.183 364.651 112.892 364.553 112.641C364.455 112.39 364.311 112.194 364.122 112.053C363.932 111.91 363.698 111.839 363.419 111.839C363.131 111.839 362.891 111.913 362.7 112.062C362.508 112.21 362.363 112.41 362.265 112.663C362.169 112.917 362.121 113.2 362.121 113.513C362.121 113.835 362.17 114.118 362.268 114.36C362.366 114.603 362.511 114.793 362.703 114.929C362.897 115.066 363.135 115.134 363.419 115.134Z" fill="#707C94"/>
<path d="M3.84152 28.4545V35H2.85075V29.4453H2.8124L1.24635 30.468V29.522L2.87952 28.4545H3.84152ZM7.95263 35.0895C7.55206 35.0895 7.19197 35.0128 6.87237 34.8594C6.5549 34.7038 6.30135 34.4908 6.11172 34.2202C5.92209 33.9496 5.82088 33.6406 5.80809 33.2933H6.7669C6.79034 33.5746 6.91498 33.8058 7.14084 33.9869C7.36669 34.168 7.63729 34.2585 7.95263 34.2585C8.20405 34.2585 8.4267 34.201 8.62059 34.0859C8.81662 33.9688 8.97003 33.8079 9.08082 33.6033C9.19375 33.3988 9.25021 33.1655 9.25021 32.9034C9.25021 32.6371 9.19268 32.3995 9.07763 32.1907C8.96257 31.9819 8.80383 31.8178 8.60142 31.6985C8.40113 31.5792 8.17102 31.5185 7.91108 31.5163C7.71292 31.5163 7.51371 31.5504 7.31342 31.6186C7.11314 31.6868 6.95121 31.7763 6.82763 31.8871L5.92315 31.7528L6.29069 28.4545H9.88942V29.3015H7.11207L6.90433 31.1328H6.94268C7.07052 31.0092 7.23991 30.9059 7.45085 30.8228C7.66392 30.7397 7.8919 30.6982 8.1348 30.6982C8.53324 30.6982 8.888 30.793 9.19907 30.9826C9.51229 31.1722 9.75838 31.4311 9.93736 31.7592C10.1185 32.0852 10.208 32.4602 10.2058 32.8842C10.208 33.3082 10.1121 33.6864 9.91818 34.0188C9.72642 34.3512 9.46008 34.6133 9.11917 34.805C8.7804 34.9947 8.39155 35.0895 7.95263 35.0895ZM13.8319 35.1087C13.327 35.1065 12.8955 34.9734 12.5375 34.7092C12.1796 34.445 11.9058 34.0604 11.7162 33.5554C11.5265 33.0504 11.4317 32.4421 11.4317 31.7305C11.4317 31.021 11.5265 30.4148 11.7162 29.9119C11.9079 29.4091 12.1828 29.0256 12.5407 28.7614C12.9008 28.4972 13.3312 28.3651 13.8319 28.3651C14.3326 28.3651 14.762 28.4982 15.1199 28.7646C15.4779 29.0288 15.7517 29.4123 15.9413 29.9151C16.1331 30.4158 16.229 31.021 16.229 31.7305C16.229 32.4442 16.1341 33.0536 15.9445 33.5586C15.7549 34.0614 15.4811 34.446 15.1231 34.7124C14.7652 34.9766 14.3348 35.1087 13.8319 35.1087ZM13.8319 34.2553C14.2751 34.2553 14.6214 34.0391 14.8706 33.6065C15.1221 33.174 15.2478 32.5487 15.2478 31.7305C15.2478 31.1871 15.1902 30.728 15.0752 30.353C14.9623 29.9759 14.7993 29.6903 14.5862 29.4964C14.3753 29.3004 14.1238 29.2024 13.8319 29.2024C13.3909 29.2024 13.0446 29.4197 12.7932 29.8544C12.5418 30.2891 12.415 30.9144 12.4129 31.7305C12.4129 32.2759 12.4694 32.7372 12.5823 33.1143C12.6973 33.4893 12.8603 33.7738 13.0713 33.9677C13.2822 34.1594 13.5358 34.2553 13.8319 34.2553ZM18.5615 34.1051L18.5135 34.4535C18.4816 34.7092 18.4272 34.9755 18.3505 35.2525C18.276 35.5316 18.1982 35.7905 18.1172 36.0291C18.0384 36.2678 17.9734 36.4574 17.9223 36.598H17.2447C17.2724 36.4659 17.3108 36.2869 17.3598 36.0611C17.4088 35.8374 17.4567 35.587 17.5036 35.31C17.5505 35.033 17.5856 34.7507 17.6091 34.4631L17.641 34.1051H18.5615ZM22.1197 35.1087C21.6147 35.1065 21.1832 34.9734 20.8253 34.7092C20.4673 34.445 20.1935 34.0604 20.0039 33.5554C19.8143 33.0504 19.7195 32.4421 19.7195 31.7305C19.7195 31.021 19.8143 30.4148 20.0039 29.9119C20.1957 29.4091 20.4705 29.0256 20.8285 28.7614C21.1886 28.4972 21.619 28.3651 22.1197 28.3651C22.6204 28.3651 23.0497 28.4982 23.4077 28.7646C23.7656 29.0288 24.0394 29.4123 24.229 29.9151C24.4208 30.4158 24.5167 31.021 24.5167 31.7305C24.5167 32.4442 24.4219 33.0536 24.2322 33.5586C24.0426 34.0614 23.7688 34.446 23.4109 34.7124C23.0529 34.9766 22.6225 35.1087 22.1197 35.1087ZM22.1197 34.2553C22.5628 34.2553 22.9091 34.0391 23.1584 33.6065C23.4098 33.174 23.5355 32.5487 23.5355 31.7305C23.5355 31.1871 23.478 30.728 23.3629 30.353C23.25 29.9759 23.087 29.6903 22.8739 29.4964C22.663 29.3004 22.4116 29.2024 22.1197 29.2024C21.6786 29.2024 21.3324 29.4197 21.081 29.8544C20.8295 30.2891 20.7028 30.9144 20.7006 31.7305C20.7006 32.2759 20.7571 32.7372 20.87 33.1143C20.9851 33.4893 21.1481 33.7738 21.359 33.9677C21.57 34.1594 21.8235 34.2553 22.1197 34.2553ZM28.1092 35.1087C27.6043 35.1065 27.1728 34.9734 26.8148 34.7092C26.4569 34.445 26.1831 34.0604 25.9935 33.5554C25.8038 33.0504 25.709 32.4421 25.709 31.7305C25.709 31.021 25.8038 30.4148 25.9935 29.9119C26.1852 29.4091 26.4601 29.0256 26.818 28.7614C27.1781 28.4972 27.6085 28.3651 28.1092 28.3651C28.6099 28.3651 29.0393 28.4982 29.3972 28.7646C29.7552 29.0288 30.029 29.4123 30.2186 29.9151C30.4104 30.4158 30.5063 31.021 30.5063 31.7305C30.5063 32.4442 30.4114 33.0536 30.2218 33.5586C30.0322 34.0614 29.7584 34.446 29.4004 34.7124C29.0425 34.9766 28.6121 35.1087 28.1092 35.1087ZM28.1092 34.2553C28.5524 34.2553 28.8987 34.0391 29.1479 33.6065C29.3994 33.174 29.5251 32.5487 29.5251 31.7305C29.5251 31.1871 29.4675 30.728 29.3525 30.353C29.2396 29.9759 29.0766 29.6903 28.8635 29.4964C28.6526 29.3004 28.4011 29.2024 28.1092 29.2024C27.6682 29.2024 27.322 29.4197 27.0705 29.8544C26.8191 30.2891 26.6923 30.9144 26.6902 31.7305C26.6902 32.2759 26.7467 32.7372 26.8596 33.1143C26.9746 33.4893 27.1376 33.7738 27.3486 33.9677C27.5595 34.1594 27.8131 34.2553 28.1092 34.2553ZM34.0988 35.1087C33.5938 35.1065 33.1624 34.9734 32.8044 34.7092C32.4465 34.445 32.1727 34.0604 31.983 33.5554C31.7934 33.0504 31.6986 32.4421 31.6986 31.7305C31.6986 31.021 31.7934 30.4148 31.983 29.9119C32.1748 29.4091 32.4497 29.0256 32.8076 28.7614C33.1677 28.4972 33.5981 28.3651 34.0988 28.3651C34.5995 28.3651 35.0289 28.4982 35.3868 28.7646C35.7448 29.0288 36.0186 29.4123 36.2082 29.9151C36.3999 30.4158 36.4958 31.021 36.4958 31.7305C36.4958 32.4442 36.401 33.0536 36.2114 33.5586C36.0217 34.0614 35.748 34.446 35.39 34.7124C35.032 34.9766 34.6016 35.1087 34.0988 35.1087ZM34.0988 34.2553C34.542 34.2553 34.8882 34.0391 35.1375 33.6065C35.3889 33.174 35.5146 32.5487 35.5146 31.7305C35.5146 31.1871 35.4571 30.728 35.3421 30.353C35.2291 29.9759 35.0661 29.6903 34.8531 29.4964C34.6421 29.3004 34.3907 29.2024 34.0988 29.2024C33.6578 29.2024 33.3115 29.4197 33.0601 29.8544C32.8087 30.2891 32.6819 30.9144 32.6798 31.7305C32.6798 32.2759 32.7362 32.7372 32.8492 33.1143C32.9642 33.4893 33.1272 33.7738 33.3382 33.9677C33.5491 34.1594 33.8026 34.2553 34.0988 34.2553Z" fill="#707C94"/>
<path d="M4.11293 49.4545V56H3.12216V50.4453H3.08381L1.51776 51.468V50.522L3.15092 49.4545H4.11293ZM8.34229 56.1087C7.83732 56.1065 7.40585 55.9734 7.0479 55.7092C6.68994 55.445 6.41615 55.0604 6.22652 54.5554C6.03689 54.0504 5.94207 53.4421 5.94207 52.7305C5.94207 52.021 6.03689 51.4148 6.22652 50.9119C6.41828 50.4091 6.69314 50.0256 7.05109 49.7614C7.41118 49.4972 7.84158 49.3651 8.34229 49.3651C8.843 49.3651 9.27233 49.4982 9.63028 49.7646C9.98824 50.0288 10.262 50.4123 10.4517 50.9151C10.6434 51.4158 10.7393 52.021 10.7393 52.7305C10.7393 53.4442 10.6445 54.0536 10.4549 54.5586C10.2652 55.0614 9.99143 55.446 9.63348 55.7124C9.27553 55.9766 8.84513 56.1087 8.34229 56.1087ZM8.34229 55.2553C8.78547 55.2553 9.1317 55.0391 9.38099 54.6065C9.63241 54.174 9.75812 53.5487 9.75812 52.7305C9.75812 52.1871 9.7006 51.728 9.58554 51.353C9.47261 50.9759 9.30962 50.6903 9.09655 50.4964C8.88561 50.3004 8.63419 50.2024 8.34229 50.2024C7.90124 50.2024 7.555 50.4197 7.30358 50.8544C7.05216 51.2891 6.92538 51.9144 6.92325 52.7305C6.92325 53.2759 6.97972 53.7372 7.09264 54.1143C7.2077 54.4893 7.3707 54.7738 7.58163 54.9677C7.79257 55.1594 8.04612 55.2553 8.34229 55.2553ZM14.3319 56.1087C13.8269 56.1065 13.3954 55.9734 13.0375 55.7092C12.6795 55.445 12.4057 55.0604 12.2161 54.5554C12.0265 54.0504 11.9316 53.4421 11.9316 52.7305C11.9316 52.021 12.0265 51.4148 12.2161 50.9119C12.4079 50.4091 12.6827 50.0256 13.0407 49.7614C13.4007 49.4972 13.8311 49.3651 14.3319 49.3651C14.8326 49.3651 15.2619 49.4982 15.6199 49.7646C15.9778 50.0288 16.2516 50.4123 16.4412 50.9151C16.633 51.4158 16.7289 52.021 16.7289 52.7305C16.7289 53.4442 16.6341 54.0536 16.4444 54.5586C16.2548 55.0614 15.981 55.446 15.6231 55.7124C15.2651 55.9766 14.8347 56.1087 14.3319 56.1087ZM14.3319 55.2553C14.775 55.2553 15.1213 55.0391 15.3706 54.6065C15.622 54.174 15.7477 53.5487 15.7477 52.7305C15.7477 52.1871 15.6902 51.728 15.5751 51.353C15.4622 50.9759 15.2992 50.6903 15.0861 50.4964C14.8752 50.3004 14.6238 50.2024 14.3319 50.2024C13.8908 50.2024 13.5446 50.4197 13.2931 50.8544C13.0417 51.2891 12.915 51.9144 12.9128 52.7305C12.9128 53.2759 12.9693 53.7372 13.0822 54.1143C13.1973 54.4893 13.3603 54.7738 13.5712 54.9677C13.7821 55.1594 14.0357 55.2553 14.3319 55.2553ZM19.0614 55.1051L19.0135 55.4535C18.9815 55.7092 18.9272 55.9755 18.8505 56.2525C18.7759 56.5316 18.6981 56.7905 18.6171 57.0291C18.5383 57.2678 18.4733 57.4574 18.4222 57.598H17.7446C17.7723 57.4659 17.8107 57.2869 17.8597 57.0611C17.9087 56.8374 17.9566 56.587 18.0035 56.31C18.0504 56.033 18.0855 55.7507 18.109 55.4631L18.1409 55.1051H19.0614ZM22.6196 56.1087C22.1146 56.1065 21.6832 55.9734 21.3252 55.7092C20.9672 55.445 20.6935 55.0604 20.5038 54.5554C20.3142 54.0504 20.2194 53.4421 20.2194 52.7305C20.2194 52.021 20.3142 51.4148 20.5038 50.9119C20.6956 50.4091 20.9704 50.0256 21.3284 49.7614C21.6885 49.4972 22.1189 49.3651 22.6196 49.3651C23.1203 49.3651 23.5496 49.4982 23.9076 49.7646C24.2655 50.0288 24.5393 50.4123 24.729 50.9151C24.9207 51.4158 25.0166 52.021 25.0166 52.7305C25.0166 53.4442 24.9218 54.0536 24.7322 54.5586C24.5425 55.0614 24.2687 55.446 23.9108 55.7124C23.5528 55.9766 23.1224 56.1087 22.6196 56.1087ZM22.6196 55.2553C23.0628 55.2553 23.409 55.0391 23.6583 54.6065C23.9097 54.174 24.0354 53.5487 24.0354 52.7305C24.0354 52.1871 23.9779 51.728 23.8628 51.353C23.7499 50.9759 23.5869 50.6903 23.3739 50.4964C23.1629 50.3004 22.9115 50.2024 22.6196 50.2024C22.1785 50.2024 21.8323 50.4197 21.5809 50.8544C21.3295 51.2891 21.2027 51.9144 21.2006 52.7305C21.2006 53.2759 21.257 53.7372 21.3699 54.1143C21.485 54.4893 21.648 54.7738 21.8589 54.9677C22.0699 55.1594 22.3234 55.2553 22.6196 55.2553ZM28.6092 56.1087C28.1042 56.1065 27.6727 55.9734 27.3148 55.7092C26.9568 55.445 26.683 55.0604 26.4934 54.5554C26.3038 54.0504 26.2089 53.4421 26.2089 52.7305C26.2089 52.021 26.3038 51.4148 26.4934 50.9119C26.6852 50.4091 26.96 50.0256 27.318 49.7614C27.6781 49.4972 28.1085 49.3651 28.6092 49.3651C29.1099 49.3651 29.5392 49.4982 29.8972 49.7646C30.2551 50.0288 30.5289 50.4123 30.7185 50.9151C30.9103 51.4158 31.0062 52.021 31.0062 52.7305C31.0062 53.4442 30.9114 54.0536 30.7217 54.5586C30.5321 55.0614 30.2583 55.446 29.9004 55.7124C29.5424 55.9766 29.112 56.1087 28.6092 56.1087ZM28.6092 55.2553C29.0523 55.2553 29.3986 55.0391 29.6479 54.6065C29.8993 54.174 30.025 53.5487 30.025 52.7305C30.025 52.1871 29.9675 51.728 29.8524 51.353C29.7395 50.9759 29.5765 50.6903 29.3634 50.4964C29.1525 50.3004 28.9011 50.2024 28.6092 50.2024C28.1681 50.2024 27.8219 50.4197 27.5705 50.8544C27.319 51.2891 27.1923 51.9144 27.1901 52.7305C27.1901 53.2759 27.2466 53.7372 27.3595 54.1143C27.4746 54.4893 27.6376 54.7738 27.8485 54.9677C28.0594 55.1594 28.313 55.2553 28.6092 55.2553ZM34.5987 56.1087C34.0938 56.1065 33.6623 55.9734 33.3043 55.7092C32.9464 55.445 32.6726 55.0604 32.483 54.5554C32.2933 54.0504 32.1985 53.4421 32.1985 52.7305C32.1985 52.021 32.2933 51.4148 32.483 50.9119C32.6747 50.4091 32.9496 50.0256 33.3075 49.7614C33.6676 49.4972 34.098 49.3651 34.5987 49.3651C35.0994 49.3651 35.5288 49.4982 35.8867 49.7646C36.2447 50.0288 36.5185 50.4123 36.7081 50.9151C36.8999 51.4158 36.9957 52.021 36.9957 52.7305C36.9957 53.4442 36.9009 54.0536 36.7113 54.5586C36.5217 55.0614 36.2479 55.446 35.8899 55.7124C35.532 55.9766 35.1016 56.1087 34.5987 56.1087ZM34.5987 55.2553C35.0419 55.2553 35.3881 55.0391 35.6374 54.6065C35.8889 54.174 36.0146 53.5487 36.0146 52.7305C36.0146 52.1871 35.957 51.728 35.842 51.353C35.7291 50.9759 35.5661 50.6903 35.353 50.4964C35.1421 50.3004 34.8906 50.2024 34.5987 50.2024C34.1577 50.2024 33.8114 50.4197 33.56 50.8544C33.3086 51.2891 33.1818 51.9144 33.1797 52.7305C33.1797 53.2759 33.2362 53.7372 33.3491 54.1143C33.4641 54.4893 33.6271 54.7738 33.8381 54.9677C34.049 55.1594 34.3026 55.2553 34.5987 55.2553Z" fill="#707C94"/>
<path d="M36.0988 98.1087C35.5938 98.1065 35.1624 97.9734 34.8044 97.7092C34.4465 97.445 34.1727 97.0604 33.983 96.5554C33.7934 96.0504 33.6986 95.4421 33.6986 94.7305C33.6986 94.021 33.7934 93.4148 33.983 92.9119C34.1748 92.4091 34.4497 92.0256 34.8076 91.7614C35.1677 91.4972 35.5981 91.3651 36.0988 91.3651C36.5995 91.3651 37.0289 91.4982 37.3868 91.7646C37.7448 92.0288 38.0186 92.4123 38.2082 92.9151C38.3999 93.4158 38.4958 94.021 38.4958 94.7305C38.4958 95.4442 38.401 96.0536 38.2114 96.5586C38.0218 97.0614 37.748 97.446 37.39 97.7124C37.032 97.9766 36.6017 98.1087 36.0988 98.1087ZM36.0988 97.2553C36.542 97.2553 36.8882 97.0391 37.1375 96.6065C37.3889 96.174 37.5146 95.5487 37.5146 94.7305C37.5146 94.1871 37.4571 93.728 37.3421 93.353C37.2291 92.9759 37.0661 92.6903 36.8531 92.4964C36.6421 92.3004 36.3907 92.2024 36.0988 92.2024C35.6578 92.2024 35.3115 92.4197 35.0601 92.8544C34.8087 93.2891 34.6819 93.9144 34.6798 94.7305C34.6798 95.2759 34.7362 95.7372 34.8492 96.1143C34.9642 96.4893 35.1272 96.7738 35.3382 96.9677C35.5491 97.1594 35.8026 97.2553 36.0988 97.2553Z" fill="#707C94"/>
<rect x="51" y="24" width="1" height="75" fill="#485666"/>
<rect x="52" y="98" width="317" height="1" fill="#485666"/>
<rect opacity="0.35" x="52" y="77" width="317" height="1" fill="#485666"/>
<rect opacity="0.35" x="52" y="56" width="317" height="1" fill="#485666"/>
<rect opacity="0.35" x="52" y="35" width="317" height="1" fill="#485666"/>
<path d="M64 34H56V98H64V34Z" fill="#1976D2"/>
<path d="M78 54H70V98H78V54Z" fill="#019371"/>
<path d="M304 42H296V98H304V42Z" fill="#1976D2"/>
<path d="M318 67H310V98H318V67Z" fill="#019371"/>
<path d="M352 48H344V98H352V48Z" fill="#1976D2"/>
<path d="M366 46H358V98H366V46Z" fill="#019371"/>
<path d="M208 59H200V98H208V59Z" fill="#1976D2"/>
<path d="M222 69H214V98H222V69Z" fill="#019371"/>
<path d="M256 39H248V98H256V39Z" fill="#1976D2"/>
<path d="M270 35H262V98H270V35Z" fill="#019371"/>
<path d="M160 62H152V98H160V62Z" fill="#1976D2"/>
<path d="M174 48H166V98H174V48Z" fill="#019371"/>
<path d="M112 69H104V98H112V69Z" fill="#1976D2"/>
<path d="M126 62H118V98H126V62Z" fill="#019371"/>
<path d="M9.95263 77.0895C9.55206 77.0895 9.19197 77.0128 8.87237 76.8594C8.5549 76.7038 8.30135 76.4908 8.11172 76.2202C7.92209 75.9496 7.82088 75.6406 7.8081 75.2933H8.7669C8.79034 75.5746 8.91499 75.8058 9.14084 75.9869C9.36669 76.168 9.63729 76.2585 9.95263 76.2585C10.204 76.2585 10.4267 76.201 10.6206 76.0859C10.8166 75.9688 10.97 75.8079 11.0808 75.6033C11.1938 75.3988 11.2502 75.1655 11.2502 74.9034C11.2502 74.6371 11.1927 74.3995 11.0776 74.1907C10.9626 73.9819 10.8038 73.8178 10.6014 73.6985C10.4011 73.5792 10.171 73.5185 9.91108 73.5163C9.71293 73.5163 9.51371 73.5504 9.31342 73.6186C9.11314 73.6868 8.95121 73.7763 8.82763 73.8871L7.92315 73.7528L8.2907 70.4545H11.8894V71.3015H9.11207L8.90433 73.1328H8.94269C9.07053 73.0092 9.23992 72.9059 9.45085 72.8228C9.66392 72.7397 9.8919 72.6982 10.1348 72.6982C10.5332 72.6982 10.888 72.793 11.1991 72.9826C11.5123 73.1722 11.7584 73.4311 11.9374 73.7592C12.1185 74.0852 12.208 74.4602 12.2058 74.8842C12.208 75.3082 12.1121 75.6864 11.9182 76.0188C11.7264 76.3512 11.4601 76.6133 11.1192 76.805C10.7804 76.9947 10.3915 77.0895 9.95263 77.0895ZM15.8319 77.1087C15.327 77.1065 14.8955 76.9734 14.5375 76.7092C14.1796 76.445 13.9058 76.0604 13.7162 75.5554C13.5265 75.0504 13.4317 74.4421 13.4317 73.7305C13.4317 73.021 13.5265 72.4148 13.7162 71.9119C13.9079 71.4091 14.1828 71.0256 14.5407 70.7614C14.9008 70.4972 15.3312 70.3651 15.8319 70.3651C16.3326 70.3651 16.762 70.4982 17.1199 70.7646C17.4779 71.0288 17.7517 71.4123 17.9413 71.9151C18.1331 72.4158 18.229 73.021 18.229 73.7305C18.229 74.4442 18.1341 75.0536 17.9445 75.5586C17.7549 76.0614 17.4811 76.446 17.1231 76.7124C16.7652 76.9766 16.3348 77.1087 15.8319 77.1087ZM15.8319 76.2553C16.2751 76.2553 16.6214 76.0391 16.8706 75.6065C17.1221 75.174 17.2478 74.5487 17.2478 73.7305C17.2478 73.1871 17.1902 72.728 17.0752 72.353C16.9623 71.9759 16.7993 71.6903 16.5862 71.4964C16.3753 71.3004 16.1238 71.2024 15.8319 71.2024C15.3909 71.2024 15.0446 71.4197 14.7932 71.8544C14.5418 72.2891 14.415 72.9144 14.4129 73.7305C14.4129 74.2759 14.4694 74.7372 14.5823 75.1143C14.6973 75.4893 14.8603 75.7738 15.0713 75.9677C15.2822 76.1594 15.5358 76.2553 15.8319 76.2553ZM20.5615 76.1051L20.5135 76.4535C20.4816 76.7092 20.4272 76.9755 20.3505 77.2525C20.276 77.5316 20.1982 77.7905 20.1172 78.0291C20.0384 78.2678 19.9734 78.4574 19.9223 78.598H19.2447C19.2724 78.4659 19.3108 78.2869 19.3598 78.0611C19.4088 77.8374 19.4567 77.587 19.5036 77.31C19.5505 77.033 19.5856 76.7507 19.6091 76.4631L19.641 76.1051H20.5615ZM24.1197 77.1087C23.6147 77.1065 23.1832 76.9734 22.8253 76.7092C22.4673 76.445 22.1935 76.0604 22.0039 75.5554C21.8143 75.0504 21.7195 74.4421 21.7195 73.7305C21.7195 73.021 21.8143 72.4148 22.0039 71.9119C22.1957 71.4091 22.4705 71.0256 22.8285 70.7614C23.1886 70.4972 23.619 70.3651 24.1197 70.3651C24.6204 70.3651 25.0497 70.4982 25.4077 70.7646C25.7656 71.0288 26.0394 71.4123 26.229 71.9151C26.4208 72.4158 26.5167 73.021 26.5167 73.7305C26.5167 74.4442 26.4219 75.0536 26.2322 75.5586C26.0426 76.0614 25.7688 76.446 25.4109 76.7124C25.0529 76.9766 24.6225 77.1087 24.1197 77.1087ZM24.1197 76.2553C24.5629 76.2553 24.9091 76.0391 25.1584 75.6065C25.4098 75.174 25.5355 74.5487 25.5355 73.7305C25.5355 73.1871 25.478 72.728 25.3629 72.353C25.25 71.9759 25.087 71.6903 24.8739 71.4964C24.663 71.3004 24.4116 71.2024 24.1197 71.2024C23.6786 71.2024 23.3324 71.4197 23.081 71.8544C22.8295 72.2891 22.7028 72.9144 22.7006 73.7305C22.7006 74.2759 22.7571 74.7372 22.87 75.1143C22.9851 75.4893 23.1481 75.7738 23.359 75.9677C23.57 76.1594 23.8235 76.2553 24.1197 76.2553ZM30.1092 77.1087C29.6043 77.1065 29.1728 76.9734 28.8149 76.7092C28.4569 76.445 28.1831 76.0604 27.9935 75.5554C27.8038 75.0504 27.709 74.4421 27.709 73.7305C27.709 73.021 27.8038 72.4148 27.9935 71.9119C28.1852 71.4091 28.4601 71.0256 28.818 70.7614C29.1781 70.4972 29.6085 70.3651 30.1092 70.3651C30.61 70.3651 31.0393 70.4982 31.3972 70.7646C31.7552 71.0288 32.029 71.4123 32.2186 71.9151C32.4104 72.4158 32.5063 73.021 32.5063 73.7305C32.5063 74.4442 32.4114 75.0536 32.2218 75.5586C32.0322 76.0614 31.7584 76.446 31.4004 76.7124C31.0425 76.9766 30.6121 77.1087 30.1092 77.1087ZM30.1092 76.2553C30.5524 76.2553 30.8987 76.0391 31.1479 75.6065C31.3994 75.174 31.5251 74.5487 31.5251 73.7305C31.5251 73.1871 31.4675 72.728 31.3525 72.353C31.2396 71.9759 31.0766 71.6903 30.8635 71.4964C30.6526 71.3004 30.4011 71.2024 30.1092 71.2024C29.6682 71.2024 29.322 71.4197 29.0705 71.8544C28.8191 72.2891 28.6923 72.9144 28.6902 73.7305C28.6902 74.2759 28.7467 74.7372 28.8596 75.1143C28.9747 75.4893 29.1376 75.7738 29.3486 75.9677C29.5595 76.1594 29.8131 76.2553 30.1092 76.2553ZM36.0988 77.1087C35.5938 77.1065 35.1624 76.9734 34.8044 76.7092C34.4465 76.445 34.1727 76.0604 33.983 75.5554C33.7934 75.0504 33.6986 74.4421 33.6986 73.7305C33.6986 73.021 33.7934 72.4148 33.983 71.9119C34.1748 71.4091 34.4497 71.0256 34.8076 70.7614C35.1677 70.4972 35.5981 70.3651 36.0988 70.3651C36.5995 70.3651 37.0289 70.4982 37.3868 70.7646C37.7448 71.0288 38.0186 71.4123 38.2082 71.9151C38.3999 72.4158 38.4958 73.021 38.4958 73.7305C38.4958 74.4442 38.401 75.0536 38.2114 75.5586C38.0218 76.0614 37.748 76.446 37.39 76.7124C37.032 76.9766 36.6017 77.1087 36.0988 77.1087ZM36.0988 76.2553C36.542 76.2553 36.8882 76.0391 37.1375 75.6065C37.3889 75.174 37.5146 74.5487 37.5146 73.7305C37.5146 73.1871 37.4571 72.728 37.3421 72.353C37.2291 71.9759 37.0661 71.6903 36.8531 71.4964C36.6421 71.3004 36.3907 71.2024 36.0988 71.2024C35.6578 71.2024 35.3115 71.4197 35.0601 71.8544C34.8087 72.2891 34.6819 72.9144 34.6798 73.7305C34.6798 74.2759 34.7362 74.7372 34.8492 75.1143C34.9642 75.4893 35.1272 75.7738 35.3382 75.9677C35.5491 76.1594 35.8026 76.2553 36.0988 76.2553Z" fill="#707C94"/>
<path d="M20.5234 5.60156H19.3047C19.2578 5.34115 19.1706 5.11198 19.043 4.91406C18.9154 4.71615 18.7591 4.54818 18.5742 4.41016C18.3893 4.27214 18.1823 4.16797 17.9531 4.09766C17.7266 4.02734 17.4857 3.99219 17.2305 3.99219C16.7695 3.99219 16.3568 4.10807 15.9922 4.33984C15.6302 4.57161 15.3438 4.91146 15.1328 5.35937C14.9245 5.80729 14.8203 6.35417 14.8203 7C14.8203 7.65104 14.9245 8.20052 15.1328 8.64844C15.3438 9.09635 15.6315 9.4349 15.9961 9.66406C16.3607 9.89323 16.7708 10.0078 17.2266 10.0078C17.4792 10.0078 17.7188 9.97396 17.9453 9.90625C18.1745 9.83594 18.3815 9.73307 18.5664 9.59766C18.7513 9.46224 18.9076 9.29687 19.0352 9.10156C19.1654 8.90365 19.2552 8.67708 19.3047 8.42188L20.5234 8.42578C20.4583 8.81901 20.332 9.18099 20.1445 9.51172C19.9596 9.83984 19.7214 10.1237 19.4297 10.3633C19.1406 10.6003 18.8099 10.7839 18.4375 10.9141C18.0651 11.0443 17.6589 11.1094 17.2188 11.1094C16.526 11.1094 15.9089 10.9453 15.3672 10.6172C14.8255 10.2865 14.3984 9.8138 14.0859 9.19922C13.776 8.58464 13.6211 7.85156 13.6211 7C13.6211 6.14583 13.7773 5.41276 14.0898 4.80078C14.4023 4.1862 14.8294 3.71484 15.3711 3.38672C15.9128 3.05599 16.5286 2.89062 17.2188 2.89062C17.6432 2.89062 18.0391 2.95182 18.4063 3.07422C18.776 3.19401 19.1081 3.37109 19.4023 3.60547C19.6966 3.83724 19.9401 4.12109 20.1328 4.45703C20.3255 4.79036 20.4557 5.17187 20.5234 5.60156ZM25.8948 8.51172V5H27.0667V11H25.9182V9.96094H25.8557C25.7177 10.2813 25.4964 10.5482 25.1917 10.7617C24.8896 10.9727 24.5133 11.0781 24.0628 11.0781C23.6774 11.0781 23.3362 10.9935 23.0393 10.8242C22.7451 10.6523 22.5133 10.3984 22.344 10.0625C22.1774 9.72656 22.094 9.3112 22.094 8.81641V5H23.262V8.67578C23.262 9.08464 23.3753 9.41016 23.6018 9.65234C23.8284 9.89453 24.1227 10.0156 24.4846 10.0156C24.7034 10.0156 24.9208 9.96094 25.137 9.85156C25.3557 9.74219 25.5367 9.57682 25.68 9.35547C25.8258 9.13411 25.8974 8.85286 25.8948 8.51172ZM28.856 11V5H29.9849V5.95312H30.0474C30.1568 5.63021 30.3495 5.3763 30.6255 5.19141C30.9042 5.00391 31.2193 4.91016 31.5709 4.91016C31.6438 4.91016 31.7297 4.91276 31.8287 4.91797C31.9302 4.92318 32.0097 4.92969 32.067 4.9375V6.05469C32.0201 6.04167 31.9367 6.02734 31.817 6.01172C31.6972 5.99349 31.5774 5.98437 31.4576 5.98437C31.1815 5.98437 30.9354 6.04297 30.7193 6.16016C30.5058 6.27474 30.3365 6.4349 30.2115 6.64062C30.0865 6.84375 30.024 7.07552 30.024 7.33594V11H28.856ZM33.2977 11V5H34.4266V5.95312H34.4891C34.5985 5.63021 34.7912 5.3763 35.0672 5.19141C35.3459 5.00391 35.661 4.91016 36.0125 4.91016C36.0855 4.91016 36.1714 4.91276 36.2704 4.91797C36.3719 4.92318 36.4513 4.92969 36.5086 4.9375V6.05469C36.4618 6.04167 36.3784 6.02734 36.2586 6.01172C36.1388 5.99349 36.019 5.98437 35.8993 5.98437C35.6232 5.98437 35.3771 6.04297 35.161 6.16016C34.9474 6.27474 34.7782 6.4349 34.6532 6.64062C34.5282 6.84375 34.4657 7.07552 34.4657 7.33594V11H33.2977ZM40.1105 11.1211C39.5193 11.1211 39.0102 10.9948 38.5831 10.7422C38.1586 10.487 37.8305 10.1289 37.5987 9.66797C37.3696 9.20443 37.255 8.66146 37.255 8.03906C37.255 7.42448 37.3696 6.88281 37.5987 6.41406C37.8305 5.94531 38.1534 5.57943 38.5675 5.31641C38.9842 5.05339 39.4711 4.92188 40.0284 4.92188C40.367 4.92188 40.6951 4.97786 41.0128 5.08984C41.3305 5.20182 41.6157 5.3776 41.8683 5.61719C42.1209 5.85677 42.3201 6.16797 42.4659 6.55078C42.6118 6.93099 42.6847 7.39323 42.6847 7.9375V8.35156H37.9152V7.47656H41.5402C41.5402 7.16927 41.4777 6.89714 41.3527 6.66016C41.2277 6.42057 41.0519 6.23177 40.8253 6.09375C40.6014 5.95573 40.3383 5.88672 40.0362 5.88672C39.7081 5.88672 39.4217 5.96745 39.1769 6.12891C38.9347 6.28776 38.7472 6.49609 38.6144 6.75391C38.4842 7.00911 38.4191 7.28646 38.4191 7.58594V8.26953C38.4191 8.67057 38.4894 9.01172 38.63 9.29297C38.7732 9.57422 38.9724 9.78906 39.2277 9.9375C39.4829 10.0833 39.781 10.1562 40.1222 10.1562C40.3435 10.1562 40.5454 10.125 40.7277 10.0625C40.9099 9.9974 41.0675 9.90104 41.2003 9.77344C41.3331 9.64583 41.4347 9.48828 41.505 9.30078L42.6105 9.5C42.5219 9.82552 42.3631 10.1107 42.1339 10.3555C41.9073 10.5977 41.6222 10.7865 41.2784 10.9219C40.9373 11.0547 40.548 11.1211 40.1105 11.1211ZM45.3686 7.4375V11H44.2006V5H45.3217V5.97656H45.3959C45.5339 5.65885 45.7501 5.40365 46.0443 5.21094C46.3412 5.01823 46.7149 4.92188 47.1654 4.92188C47.5743 4.92188 47.9324 5.00781 48.2396 5.17969C48.5469 5.34896 48.7852 5.60156 48.9545 5.9375C49.1238 6.27344 49.2084 6.6888 49.2084 7.18359V11H48.0404V7.32422C48.0404 6.88932 47.9271 6.54948 47.7006 6.30469C47.474 6.05729 47.1628 5.93359 46.767 5.93359C46.4962 5.93359 46.2553 5.99219 46.0443 6.10937C45.836 6.22656 45.6706 6.39844 45.5482 6.625C45.4285 6.84896 45.3686 7.11979 45.3686 7.4375ZM53.7956 5V5.9375H50.5182V5H53.7956ZM51.3971 3.5625H52.5651V9.23828C52.5651 9.46484 52.599 9.63542 52.6667 9.75C52.7344 9.86198 52.8216 9.9388 52.9284 9.98047C53.0378 10.0195 53.1563 10.0391 53.2839 10.0391C53.3776 10.0391 53.4596 10.0326 53.53 10.0195C53.6003 10.0065 53.655 9.99609 53.694 9.98828L53.905 10.9531C53.8373 10.9792 53.7409 11.0052 53.6159 11.0313C53.4909 11.0599 53.3346 11.0755 53.1471 11.0781C52.8399 11.0833 52.5534 11.0286 52.2878 10.9141C52.0221 10.7995 51.8073 10.6224 51.6432 10.3828C51.4792 10.1432 51.3971 9.84245 51.3971 9.48047V3.5625ZM59.2082 11H57.927L60.8059 3H62.2004L65.0793 11H63.7981L61.5364 4.45312H61.4739L59.2082 11ZM59.4231 7.86719H63.5793V8.88281H59.4231V7.86719ZM70.814 6.46484L69.7554 6.65234C69.7111 6.51693 69.6408 6.38802 69.5445 6.26562C69.4507 6.14323 69.3231 6.04297 69.1616 5.96484C69.0002 5.88672 68.7984 5.84766 68.5562 5.84766C68.2254 5.84766 67.9494 5.92187 67.728 6.07031C67.5067 6.21615 67.396 6.40495 67.396 6.63672C67.396 6.83724 67.4702 6.9987 67.6187 7.12109C67.7671 7.24349 68.0067 7.34375 68.3374 7.42187L69.2905 7.64062C69.8426 7.76823 70.2541 7.96484 70.5249 8.23047C70.7958 8.49609 70.9312 8.84115 70.9312 9.26563C70.9312 9.625 70.827 9.94531 70.6187 10.2266C70.4129 10.5052 70.1252 10.724 69.7554 10.8828C69.3882 11.0417 68.9624 11.1211 68.478 11.1211C67.8062 11.1211 67.258 10.9779 66.8335 10.6914C66.409 10.4023 66.1486 9.99219 66.0523 9.46094L67.1812 9.28906C67.2515 9.58333 67.396 9.80599 67.6148 9.95703C67.8335 10.1055 68.1187 10.1797 68.4702 10.1797C68.853 10.1797 69.159 10.1003 69.3882 9.94141C69.6174 9.77995 69.732 9.58333 69.732 9.35156C69.732 9.16406 69.6616 9.00651 69.521 8.87891C69.383 8.7513 69.1708 8.65495 68.8843 8.58984L67.8687 8.36719C67.3088 8.23958 66.8947 8.03646 66.6265 7.75781C66.3609 7.47917 66.228 7.1263 66.228 6.69922C66.228 6.34505 66.327 6.03516 66.5249 5.76953C66.7228 5.50391 66.9963 5.29687 67.3452 5.14844C67.6942 4.9974 68.0939 4.92188 68.5445 4.92188C69.1929 4.92188 69.7033 5.0625 70.0757 5.34375C70.4481 5.6224 70.6942 5.99609 70.814 6.46484ZM76.9314 6.46484L75.8729 6.65234C75.8286 6.51693 75.7583 6.38802 75.6619 6.26562C75.5682 6.14323 75.4406 6.04297 75.2791 5.96484C75.1176 5.88672 74.9158 5.84766 74.6736 5.84766C74.3429 5.84766 74.0669 5.92187 73.8455 6.07031C73.6242 6.21615 73.5135 6.40495 73.5135 6.63672C73.5135 6.83724 73.5877 6.9987 73.7361 7.12109C73.8846 7.24349 74.1242 7.34375 74.4549 7.42187L75.408 7.64062C75.9601 7.76823 76.3716 7.96484 76.6424 8.23047C76.9132 8.49609 77.0486 8.84115 77.0486 9.26563C77.0486 9.625 76.9445 9.94531 76.7361 10.2266C76.5304 10.5052 76.2426 10.724 75.8729 10.8828C75.5057 11.0417 75.0799 11.1211 74.5955 11.1211C73.9236 11.1211 73.3755 10.9779 72.951 10.6914C72.5265 10.4023 72.2661 9.99219 72.1697 9.46094L73.2986 9.28906C73.3689 9.58333 73.5135 9.80599 73.7322 9.95703C73.951 10.1055 74.2361 10.1797 74.5877 10.1797C74.9705 10.1797 75.2765 10.1003 75.5057 9.94141C75.7348 9.77995 75.8494 9.58333 75.8494 9.35156C75.8494 9.16406 75.7791 9.00651 75.6385 8.87891C75.5005 8.7513 75.2882 8.65495 75.0018 8.58984L73.9861 8.36719C73.4262 8.23958 73.0122 8.03646 72.7439 7.75781C72.4783 7.47917 72.3455 7.1263 72.3455 6.69922C72.3455 6.34505 72.4445 6.03516 72.6424 5.76953C72.8403 5.50391 73.1137 5.29687 73.4627 5.14844C73.8117 4.9974 74.2114 4.92188 74.6619 4.92188C75.3104 4.92188 75.8208 5.0625 76.1932 5.34375C76.5656 5.6224 76.8117 5.99609 76.9314 6.46484ZM81.1387 11.1211C80.5476 11.1211 80.0385 10.9948 79.6114 10.7422C79.1869 10.487 78.8588 10.1289 78.627 9.66797C78.3979 9.20443 78.2833 8.66146 78.2833 8.03906C78.2833 7.42448 78.3979 6.88281 78.627 6.41406C78.8588 5.94531 79.1817 5.57943 79.5958 5.31641C80.0124 5.05339 80.4994 4.92188 81.0567 4.92188C81.3953 4.92188 81.7234 4.97786 82.0411 5.08984C82.3588 5.20182 82.644 5.3776 82.8966 5.61719C83.1492 5.85677 83.3484 6.16797 83.4942 6.55078C83.6401 6.93099 83.713 7.39323 83.713 7.9375V8.35156H78.9434V7.47656H82.5684C82.5684 7.16927 82.5059 6.89714 82.3809 6.66016C82.2559 6.42057 82.0802 6.23177 81.8536 6.09375C81.6296 5.95573 81.3666 5.88672 81.0645 5.88672C80.7364 5.88672 80.4499 5.96745 80.2052 6.12891C79.963 6.28776 79.7755 6.49609 79.6427 6.75391C79.5124 7.00911 79.4473 7.28646 79.4473 7.58594V8.26953C79.4473 8.67057 79.5177 9.01172 79.6583 9.29297C79.8015 9.57422 80.0007 9.78906 80.2559 9.9375C80.5111 10.0833 80.8093 10.1562 81.1505 10.1562C81.3718 10.1562 81.5736 10.125 81.7559 10.0625C81.9382 9.9974 82.0958 9.90104 82.2286 9.77344C82.3614 9.64583 82.463 9.48828 82.5333 9.30078L83.6387 9.5C83.5502 9.82552 83.3914 10.1107 83.1622 10.3555C82.9356 10.5977 82.6505 10.7865 82.3067 10.9219C81.9656 11.0547 81.5762 11.1211 81.1387 11.1211ZM88.0296 5V5.9375H84.7523V5H88.0296ZM85.6312 3.5625H86.7992V9.23828C86.7992 9.46484 86.833 9.63542 86.9007 9.75C86.9684 9.86198 87.0557 9.9388 87.1625 9.98047C87.2718 10.0195 87.3903 10.0391 87.5179 10.0391C87.6117 10.0391 87.6937 10.0326 87.764 10.0195C87.8343 10.0065 87.889 9.99609 87.9281 9.98828L88.139 10.9531C88.0713 10.9792 87.975 11.0052 87.85 11.0313C87.725 11.0599 87.5687 11.0755 87.3812 11.0781C87.0739 11.0833 86.7875 11.0286 86.5218 10.9141C86.2562 10.7995 86.0414 10.6224 85.8773 10.3828C85.7132 10.1432 85.6312 9.84245 85.6312 9.48047V3.5625ZM92.7665 11V3H95.6962C96.2639 3 96.734 3.09375 97.1064 3.28125C97.4788 3.46615 97.7574 3.71745 97.9423 4.03516C98.1272 4.35026 98.2197 4.70573 98.2197 5.10156C98.2197 5.4349 98.1585 5.71615 98.0361 5.94531C97.9137 6.17187 97.7496 6.35417 97.5439 6.49219C97.3407 6.6276 97.1168 6.72656 96.872 6.78906V6.86719C97.1376 6.88021 97.3967 6.96615 97.6493 7.125C97.9045 7.28125 98.1155 7.50391 98.2822 7.79297C98.4488 8.08203 98.5322 8.43359 98.5322 8.84766C98.5322 9.25651 98.4358 9.6237 98.2431 9.94922C98.053 10.2721 97.7587 10.5286 97.3603 10.7187C96.9618 10.9062 96.4527 11 95.8329 11H92.7665ZM93.9736 9.96484H95.7157C96.2939 9.96484 96.7079 9.85286 96.9579 9.62891C97.2079 9.40495 97.3329 9.125 97.3329 8.78906C97.3329 8.53646 97.2691 8.30469 97.1415 8.09375C97.0139 7.88281 96.8316 7.71484 96.5947 7.58984C96.3603 7.46484 96.0816 7.40234 95.7587 7.40234H93.9736V9.96484ZM93.9736 6.46094H95.5907C95.8616 6.46094 96.1051 6.40885 96.3212 6.30469C96.54 6.20052 96.7131 6.05469 96.8407 5.86719C96.971 5.67708 97.0361 5.45312 97.0361 5.19531C97.0361 4.86458 96.9202 4.58724 96.6884 4.36328C96.4566 4.13932 96.1012 4.02734 95.622 4.02734H93.9736V6.46094ZM101.836 11.1328C101.456 11.1328 101.112 11.0625 100.805 10.9219C100.498 10.7786 100.254 10.5716 100.074 10.3008C99.8973 10.0299 99.8088 9.69792 99.8088 9.30469C99.8088 8.96615 99.8739 8.6875 100.004 8.46875C100.134 8.25 100.31 8.07682 100.531 7.94922C100.753 7.82161 101 7.72526 101.274 7.66016C101.547 7.59505 101.826 7.54557 102.11 7.51172C102.469 7.47005 102.761 7.4362 102.985 7.41016C103.209 7.38151 103.371 7.33594 103.473 7.27344C103.574 7.21094 103.625 7.10937 103.625 6.96875V6.94141C103.625 6.60026 103.529 6.33594 103.336 6.14844C103.146 5.96094 102.862 5.86719 102.485 5.86719C102.091 5.86719 101.781 5.95443 101.555 6.12891C101.331 6.30078 101.176 6.49219 101.09 6.70312L99.9924 6.45312C100.123 6.08854 100.313 5.79427 100.563 5.57031C100.815 5.34375 101.106 5.17969 101.434 5.07812C101.762 4.97396 102.107 4.92188 102.469 4.92188C102.709 4.92188 102.962 4.95052 103.231 5.00781C103.502 5.0625 103.754 5.16406 103.988 5.3125C104.225 5.46094 104.419 5.67318 104.571 5.94922C104.722 6.22266 104.797 6.57813 104.797 7.01563V11H103.656V10.1797H103.61C103.534 10.3307 103.421 10.4792 103.27 10.625C103.119 10.7708 102.925 10.8919 102.688 10.9883C102.451 11.0846 102.167 11.1328 101.836 11.1328ZM102.09 10.1953C102.413 10.1953 102.689 10.1315 102.918 10.0039C103.15 9.8763 103.326 9.70964 103.446 9.50391C103.568 9.29557 103.629 9.07292 103.629 8.83594V8.0625C103.587 8.10417 103.507 8.14323 103.387 8.17969C103.27 8.21354 103.136 8.24349 102.985 8.26953C102.834 8.29297 102.686 8.3151 102.543 8.33594C102.4 8.35417 102.28 8.36979 102.184 8.38281C101.957 8.41146 101.75 8.45964 101.563 8.52734C101.378 8.59505 101.229 8.69271 101.117 8.82031C101.008 8.94531 100.953 9.11198 100.953 9.32031C100.953 9.60937 101.06 9.82812 101.274 9.97656C101.487 10.1224 101.759 10.1953 102.09 10.1953ZM107.741 3V11H106.573V3H107.741ZM111.278 11.1328C110.898 11.1328 110.554 11.0625 110.247 10.9219C109.94 10.7786 109.696 10.5716 109.516 10.3008C109.339 10.0299 109.251 9.69792 109.251 9.30469C109.251 8.96615 109.316 8.6875 109.446 8.46875C109.576 8.25 109.752 8.07682 109.973 7.94922C110.195 7.82161 110.442 7.72526 110.716 7.66016C110.989 7.59505 111.268 7.54557 111.552 7.51172C111.911 7.47005 112.203 7.4362 112.427 7.41016C112.65 7.38151 112.813 7.33594 112.915 7.27344C113.016 7.21094 113.067 7.10937 113.067 6.96875V6.94141C113.067 6.60026 112.971 6.33594 112.778 6.14844C112.588 5.96094 112.304 5.86719 111.927 5.86719C111.533 5.86719 111.223 5.95443 110.997 6.12891C110.773 6.30078 110.618 6.49219 110.532 6.70312L109.434 6.45312C109.565 6.08854 109.755 5.79427 110.005 5.57031C110.257 5.34375 110.548 5.17969 110.876 5.07812C111.204 4.97396 111.549 4.92188 111.911 4.92188C112.15 4.92188 112.404 4.95052 112.673 5.00781C112.943 5.0625 113.196 5.16406 113.43 5.3125C113.667 5.46094 113.861 5.67318 114.012 5.94922C114.164 6.22266 114.239 6.57813 114.239 7.01563V11H113.098V10.1797H113.052C112.976 10.3307 112.863 10.4792 112.712 10.625C112.561 10.7708 112.367 10.8919 112.13 10.9883C111.893 11.0846 111.609 11.1328 111.278 11.1328ZM111.532 10.1953C111.855 10.1953 112.131 10.1315 112.36 10.0039C112.592 9.8763 112.768 9.70964 112.887 9.50391C113.01 9.29557 113.071 9.07292 113.071 8.83594V8.0625C113.029 8.10417 112.949 8.14323 112.829 8.17969C112.712 8.21354 112.578 8.24349 112.427 8.26953C112.275 8.29297 112.128 8.3151 111.985 8.33594C111.842 8.35417 111.722 8.36979 111.626 8.38281C111.399 8.41146 111.192 8.45964 111.005 8.52734C110.82 8.59505 110.671 8.69271 110.559 8.82031C110.45 8.94531 110.395 9.11198 110.395 9.32031C110.395 9.60937 110.502 9.82812 110.716 9.97656C110.929 10.1224 111.201 10.1953 111.532 10.1953ZM117.183 7.4375V11H116.015V5H117.136V5.97656H117.21C117.348 5.65885 117.564 5.40365 117.858 5.21094C118.155 5.01823 118.529 4.92188 118.98 4.92188C119.388 4.92188 119.746 5.00781 120.054 5.17969C120.361 5.34896 120.599 5.60156 120.769 5.9375C120.938 6.27344 121.022 6.6888 121.022 7.18359V11H119.855V7.32422C119.855 6.88932 119.741 6.54948 119.515 6.30469C119.288 6.05729 118.977 5.93359 118.581 5.93359C118.31 5.93359 118.069 5.99219 117.858 6.10937C117.65 6.22656 117.485 6.39844 117.362 6.625C117.243 6.84896 117.183 7.11979 117.183 7.4375ZM125.336 11.1211C124.756 11.1211 124.256 10.9896 123.836 10.7266C123.42 10.4609 123.099 10.0951 122.875 9.62891C122.651 9.16276 122.539 8.62891 122.539 8.02734C122.539 7.41797 122.654 6.88021 122.883 6.41406C123.112 5.94531 123.435 5.57943 123.852 5.31641C124.269 5.05339 124.759 4.92188 125.325 4.92188C125.78 4.92188 126.187 5.00651 126.543 5.17578C126.9 5.34245 127.188 5.57682 127.407 5.87891C127.628 6.18099 127.759 6.53385 127.801 6.9375H126.664C126.602 6.65625 126.459 6.41406 126.235 6.21094C126.013 6.00781 125.716 5.90625 125.344 5.90625C125.019 5.90625 124.733 5.99219 124.489 6.16406C124.246 6.33333 124.058 6.57552 123.922 6.89062C123.787 7.20312 123.719 7.57292 123.719 8C123.719 8.4375 123.785 8.8151 123.918 9.13281C124.051 9.45052 124.239 9.69661 124.481 9.87109C124.726 10.0456 125.013 10.1328 125.344 10.1328C125.565 10.1328 125.766 10.0924 125.946 10.0117C126.128 9.92839 126.28 9.8099 126.403 9.65625C126.528 9.5026 126.615 9.31771 126.664 9.10156H127.801C127.759 9.48958 127.633 9.83594 127.422 10.1406C127.211 10.4453 126.929 10.6849 126.575 10.8594C126.223 11.0339 125.81 11.1211 125.336 11.1211ZM131.856 11.1211C131.265 11.1211 130.756 10.9948 130.329 10.7422C129.904 10.487 129.576 10.1289 129.344 9.66797C129.115 9.20443 129.001 8.66146 129.001 8.03906C129.001 7.42448 129.115 6.88281 129.344 6.41406C129.576 5.94531 129.899 5.57943 130.313 5.31641C130.73 5.05339 131.217 4.92188 131.774 4.92188C132.113 4.92188 132.441 4.97786 132.758 5.08984C133.076 5.20182 133.361 5.3776 133.614 5.61719C133.866 5.85677 134.066 6.16797 134.212 6.55078C134.357 6.93099 134.43 7.39323 134.43 7.9375V8.35156H129.661V7.47656H133.286C133.286 7.16927 133.223 6.89714 133.098 6.66016C132.973 6.42057 132.797 6.23177 132.571 6.09375C132.347 5.95573 132.084 5.88672 131.782 5.88672C131.454 5.88672 131.167 5.96745 130.922 6.12891C130.68 6.28776 130.493 6.49609 130.36 6.75391C130.23 7.00911 130.165 7.28646 130.165 7.58594V8.26953C130.165 8.67057 130.235 9.01172 130.376 9.29297C130.519 9.57422 130.718 9.78906 130.973 9.9375C131.228 10.0833 131.527 10.1562 131.868 10.1562C132.089 10.1562 132.291 10.125 132.473 10.0625C132.656 9.9974 132.813 9.90104 132.946 9.77344C133.079 9.64583 133.18 9.48828 133.251 9.30078L134.356 9.5C134.268 9.82552 134.109 10.1107 133.879 10.3555C133.653 10.5977 133.368 10.7865 133.024 10.9219C132.683 11.0547 132.294 11.1211 131.856 11.1211Z" fill="#9EA5B4"/>
<path d="M267.523 5.60156H266.305C266.258 5.34115 266.171 5.11198 266.043 4.91406C265.915 4.71615 265.759 4.54818 265.574 4.41016C265.389 4.27214 265.182 4.16797 264.953 4.09766C264.727 4.02734 264.486 3.99219 264.23 3.99219C263.77 3.99219 263.357 4.10807 262.992 4.33984C262.63 4.57161 262.344 4.91146 262.133 5.35937C261.924 5.80729 261.82 6.35417 261.82 7C261.82 7.65104 261.924 8.20052 262.133 8.64844C262.344 9.09635 262.632 9.4349 262.996 9.66406C263.361 9.89323 263.771 10.0078 264.227 10.0078C264.479 10.0078 264.719 9.97396 264.945 9.90625C265.174 9.83594 265.382 9.73307 265.566 9.59766C265.751 9.46224 265.908 9.29687 266.035 9.10156C266.165 8.90365 266.255 8.67708 266.305 8.42188L267.523 8.42578C267.458 8.81901 267.332 9.18099 267.145 9.51172C266.96 9.83984 266.721 10.1237 266.43 10.3633C266.141 10.6003 265.81 10.7839 265.438 10.9141C265.065 11.0443 264.659 11.1094 264.219 11.1094C263.526 11.1094 262.909 10.9453 262.367 10.6172C261.826 10.2865 261.398 9.8138 261.086 9.19922C260.776 8.58464 260.621 7.85156 260.621 7C260.621 6.14583 260.777 5.41276 261.09 4.80078C261.402 4.1862 261.829 3.71484 262.371 3.38672C262.913 3.05599 263.529 2.89062 264.219 2.89062C264.643 2.89062 265.039 2.95182 265.406 3.07422C265.776 3.19401 266.108 3.37109 266.402 3.60547C266.697 3.83724 266.94 4.12109 267.133 4.45703C267.326 4.79036 267.456 5.17187 267.523 5.60156ZM272.895 8.51172V5H274.067V11H272.918V9.96094H272.856C272.718 10.2813 272.496 10.5482 272.192 10.7617C271.89 10.9727 271.513 11.0781 271.063 11.0781C270.677 11.0781 270.336 10.9935 270.039 10.8242C269.745 10.6523 269.513 10.3984 269.344 10.0625C269.177 9.72656 269.094 9.3112 269.094 8.81641V5H270.262V8.67578C270.262 9.08464 270.375 9.41016 270.602 9.65234C270.828 9.89453 271.123 10.0156 271.485 10.0156C271.703 10.0156 271.921 9.96094 272.137 9.85156C272.356 9.74219 272.537 9.57682 272.68 9.35547C272.826 9.13411 272.897 8.85286 272.895 8.51172ZM275.856 11V5H276.985V5.95312H277.047C277.157 5.63021 277.35 5.3763 277.626 5.19141C277.904 5.00391 278.219 4.91016 278.571 4.91016C278.644 4.91016 278.73 4.91276 278.829 4.91797C278.93 4.92318 279.01 4.92969 279.067 4.9375V6.05469C279.02 6.04167 278.937 6.02734 278.817 6.01172C278.697 5.99349 278.577 5.98437 278.458 5.98437C278.182 5.98437 277.935 6.04297 277.719 6.16016C277.506 6.27474 277.336 6.4349 277.211 6.64062C277.086 6.84375 277.024 7.07552 277.024 7.33594V11H275.856ZM280.298 11V5H281.427V5.95312H281.489C281.598 5.63021 281.791 5.3763 282.067 5.19141C282.346 5.00391 282.661 4.91016 283.013 4.91016C283.085 4.91016 283.171 4.91276 283.27 4.91797C283.372 4.92318 283.451 4.92969 283.509 4.9375V6.05469C283.462 6.04167 283.378 6.02734 283.259 6.01172C283.139 5.99349 283.019 5.98437 282.899 5.98437C282.623 5.98437 282.377 6.04297 282.161 6.16016C281.947 6.27474 281.778 6.4349 281.653 6.64062C281.528 6.84375 281.466 7.07552 281.466 7.33594V11H280.298ZM287.11 11.1211C286.519 11.1211 286.01 10.9948 285.583 10.7422C285.159 10.487 284.831 10.1289 284.599 9.66797C284.37 9.20443 284.255 8.66146 284.255 8.03906C284.255 7.42448 284.37 6.88281 284.599 6.41406C284.831 5.94531 285.153 5.57943 285.567 5.31641C285.984 5.05339 286.471 4.92188 287.028 4.92188C287.367 4.92188 287.695 4.97786 288.013 5.08984C288.331 5.20182 288.616 5.3776 288.868 5.61719C289.121 5.85677 289.32 6.16797 289.466 6.55078C289.612 6.93099 289.685 7.39323 289.685 7.9375V8.35156H284.915V7.47656H288.54C288.54 7.16927 288.478 6.89714 288.353 6.66016C288.228 6.42057 288.052 6.23177 287.825 6.09375C287.601 5.95573 287.338 5.88672 287.036 5.88672C286.708 5.88672 286.422 5.96745 286.177 6.12891C285.935 6.28776 285.747 6.49609 285.614 6.75391C285.484 7.00911 285.419 7.28646 285.419 7.58594V8.26953C285.419 8.67057 285.489 9.01172 285.63 9.29297C285.773 9.57422 285.972 9.78906 286.228 9.9375C286.483 10.0833 286.781 10.1562 287.122 10.1562C287.344 10.1562 287.545 10.125 287.728 10.0625C287.91 9.9974 288.067 9.90104 288.2 9.77344C288.333 9.64583 288.435 9.48828 288.505 9.30078L289.61 9.5C289.522 9.82552 289.363 10.1107 289.134 10.3555C288.907 10.5977 288.622 10.7865 288.278 10.9219C287.937 11.0547 287.548 11.1211 287.11 11.1211ZM292.369 7.4375V11H291.201V5H292.322V5.97656H292.396C292.534 5.65885 292.75 5.40365 293.044 5.21094C293.341 5.01823 293.715 4.92188 294.165 4.92188C294.574 4.92188 294.932 5.00781 295.24 5.17969C295.547 5.34896 295.785 5.60156 295.954 5.9375C296.124 6.27344 296.208 6.6888 296.208 7.18359V11H295.04V7.32422C295.04 6.88932 294.927 6.54948 294.701 6.30469C294.474 6.05729 294.163 5.93359 293.767 5.93359C293.496 5.93359 293.255 5.99219 293.044 6.10937C292.836 6.22656 292.671 6.39844 292.548 6.625C292.428 6.84896 292.369 7.11979 292.369 7.4375ZM300.796 5V5.9375H297.518V5H300.796ZM298.397 3.5625H299.565V9.23828C299.565 9.46484 299.599 9.63542 299.667 9.75C299.734 9.86198 299.822 9.9388 299.928 9.98047C300.038 10.0195 300.156 10.0391 300.284 10.0391C300.378 10.0391 300.46 10.0326 300.53 10.0195C300.6 10.0065 300.655 9.99609 300.694 9.98828L300.905 10.9531C300.837 10.9792 300.741 11.0052 300.616 11.0313C300.491 11.0599 300.335 11.0755 300.147 11.0781C299.84 11.0833 299.553 11.0286 299.288 10.9141C299.022 10.7995 298.807 10.6224 298.643 10.3828C298.479 10.1432 298.397 9.84245 298.397 9.48047V3.5625ZM306.208 11H304.927L307.806 3H309.2L312.079 11H310.798L308.536 4.45312H308.474L306.208 11ZM306.423 7.86719H310.579V8.88281H306.423V7.86719ZM317.814 6.46484L316.755 6.65234C316.711 6.51693 316.641 6.38802 316.544 6.26562C316.451 6.14323 316.323 6.04297 316.162 5.96484C316 5.88672 315.798 5.84766 315.556 5.84766C315.225 5.84766 314.949 5.92187 314.728 6.07031C314.507 6.21615 314.396 6.40495 314.396 6.63672C314.396 6.83724 314.47 6.9987 314.619 7.12109C314.767 7.24349 315.007 7.34375 315.337 7.42187L316.291 7.64062C316.843 7.76823 317.254 7.96484 317.525 8.23047C317.796 8.49609 317.931 8.84115 317.931 9.26563C317.931 9.625 317.827 9.94531 317.619 10.2266C317.413 10.5052 317.125 10.724 316.755 10.8828C316.388 11.0417 315.962 11.1211 315.478 11.1211C314.806 11.1211 314.258 10.9779 313.834 10.6914C313.409 10.4023 313.149 9.99219 313.052 9.46094L314.181 9.28906C314.251 9.58333 314.396 9.80599 314.615 9.95703C314.834 10.1055 315.119 10.1797 315.47 10.1797C315.853 10.1797 316.159 10.1003 316.388 9.94141C316.617 9.77995 316.732 9.58333 316.732 9.35156C316.732 9.16406 316.662 9.00651 316.521 8.87891C316.383 8.7513 316.171 8.65495 315.884 8.58984L314.869 8.36719C314.309 8.23958 313.895 8.03646 313.626 7.75781C313.361 7.47917 313.228 7.1263 313.228 6.69922C313.228 6.34505 313.327 6.03516 313.525 5.76953C313.723 5.50391 313.996 5.29687 314.345 5.14844C314.694 4.9974 315.094 4.92188 315.544 4.92188C316.193 4.92188 316.703 5.0625 317.076 5.34375C317.448 5.6224 317.694 5.99609 317.814 6.46484ZM323.931 6.46484L322.873 6.65234C322.829 6.51693 322.758 6.38802 322.662 6.26562C322.568 6.14323 322.441 6.04297 322.279 5.96484C322.118 5.88672 321.916 5.84766 321.674 5.84766C321.343 5.84766 321.067 5.92187 320.846 6.07031C320.624 6.21615 320.513 6.40495 320.513 6.63672C320.513 6.83724 320.588 6.9987 320.736 7.12109C320.885 7.24349 321.124 7.34375 321.455 7.42187L322.408 7.64062C322.96 7.76823 323.372 7.96484 323.642 8.23047C323.913 8.49609 324.049 8.84115 324.049 9.26563C324.049 9.625 323.944 9.94531 323.736 10.2266C323.53 10.5052 323.243 10.724 322.873 10.8828C322.506 11.0417 322.08 11.1211 321.596 11.1211C320.924 11.1211 320.375 10.9779 319.951 10.6914C319.526 10.4023 319.266 9.99219 319.17 9.46094L320.299 9.28906C320.369 9.58333 320.513 9.80599 320.732 9.95703C320.951 10.1055 321.236 10.1797 321.588 10.1797C321.971 10.1797 322.276 10.1003 322.506 9.94141C322.735 9.77995 322.849 9.58333 322.849 9.35156C322.849 9.16406 322.779 9.00651 322.638 8.87891C322.5 8.7513 322.288 8.65495 322.002 8.58984L320.986 8.36719C320.426 8.23958 320.012 8.03646 319.744 7.75781C319.478 7.47917 319.346 7.1263 319.346 6.69922C319.346 6.34505 319.444 6.03516 319.642 5.76953C319.84 5.50391 320.114 5.29687 320.463 5.14844C320.812 4.9974 321.211 4.92188 321.662 4.92188C322.31 4.92188 322.821 5.0625 323.193 5.34375C323.566 5.6224 323.812 5.99609 323.931 6.46484ZM328.139 11.1211C327.548 11.1211 327.038 10.9948 326.611 10.7422C326.187 10.487 325.859 10.1289 325.627 9.66797C325.398 9.20443 325.283 8.66146 325.283 8.03906C325.283 7.42448 325.398 6.88281 325.627 6.41406C325.859 5.94531 326.182 5.57943 326.596 5.31641C327.012 5.05339 327.499 4.92188 328.057 4.92188C328.395 4.92188 328.723 4.97786 329.041 5.08984C329.359 5.20182 329.644 5.3776 329.897 5.61719C330.149 5.85677 330.348 6.16797 330.494 6.55078C330.64 6.93099 330.713 7.39323 330.713 7.9375V8.35156H325.943V7.47656H329.568C329.568 7.16927 329.506 6.89714 329.381 6.66016C329.256 6.42057 329.08 6.23177 328.854 6.09375C328.63 5.95573 328.367 5.88672 328.065 5.88672C327.736 5.88672 327.45 5.96745 327.205 6.12891C326.963 6.28776 326.775 6.49609 326.643 6.75391C326.512 7.00911 326.447 7.28646 326.447 7.58594V8.26953C326.447 8.67057 326.518 9.01172 326.658 9.29297C326.802 9.57422 327.001 9.78906 327.256 9.9375C327.511 10.0833 327.809 10.1562 328.15 10.1562C328.372 10.1562 328.574 10.125 328.756 10.0625C328.938 9.9974 329.096 9.90104 329.229 9.77344C329.361 9.64583 329.463 9.48828 329.533 9.30078L330.639 9.5C330.55 9.82552 330.391 10.1107 330.162 10.3555C329.936 10.5977 329.65 10.7865 329.307 10.9219C328.966 11.0547 328.576 11.1211 328.139 11.1211ZM335.03 5V5.9375H331.752V5H335.03ZM332.631 3.5625H333.799V9.23828C333.799 9.46484 333.833 9.63542 333.901 9.75C333.968 9.86198 334.056 9.9388 334.162 9.98047C334.272 10.0195 334.39 10.0391 334.518 10.0391C334.612 10.0391 334.694 10.0326 334.764 10.0195C334.834 10.0065 334.889 9.99609 334.928 9.98828L335.139 10.9531C335.071 10.9792 334.975 11.0052 334.85 11.0313C334.725 11.0599 334.569 11.0755 334.381 11.0781C334.074 11.0833 333.787 11.0286 333.522 10.9141C333.256 10.7995 333.041 10.6224 332.877 10.3828C332.713 10.1432 332.631 9.84245 332.631 9.48047V3.5625ZM340.466 3L342.692 9.51562H342.782L345.009 3H346.313L343.434 11H342.04L339.161 3H340.466ZM348.75 11.1328C348.37 11.1328 348.026 11.0625 347.719 10.9219C347.412 10.7786 347.168 10.5716 346.988 10.3008C346.811 10.0299 346.723 9.69792 346.723 9.30469C346.723 8.96615 346.788 8.6875 346.918 8.46875C347.048 8.25 347.224 8.07682 347.446 7.94922C347.667 7.82161 347.914 7.72526 348.188 7.66016C348.461 7.59505 348.74 7.54557 349.024 7.51172C349.383 7.47005 349.675 7.4362 349.899 7.41016C350.123 7.38151 350.285 7.33594 350.387 7.27344C350.488 7.21094 350.539 7.10937 350.539 6.96875V6.94141C350.539 6.60026 350.443 6.33594 350.25 6.14844C350.06 5.96094 349.776 5.86719 349.399 5.86719C349.005 5.86719 348.696 5.95443 348.469 6.12891C348.245 6.30078 348.09 6.49219 348.004 6.70312L346.906 6.45312C347.037 6.08854 347.227 5.79427 347.477 5.57031C347.729 5.34375 348.02 5.17969 348.348 5.07812C348.676 4.97396 349.021 4.92188 349.383 4.92188C349.623 4.92188 349.877 4.95052 350.145 5.00781C350.416 5.0625 350.668 5.16406 350.903 5.3125C351.14 5.46094 351.334 5.67318 351.485 5.94922C351.636 6.22266 351.711 6.57813 351.711 7.01563V11H350.571V10.1797H350.524C350.448 10.3307 350.335 10.4792 350.184 10.625C350.033 10.7708 349.839 10.8919 349.602 10.9883C349.365 11.0846 349.081 11.1328 348.75 11.1328ZM349.004 10.1953C349.327 10.1953 349.603 10.1315 349.832 10.0039C350.064 9.8763 350.24 9.70964 350.36 9.50391C350.482 9.29557 350.543 9.07292 350.543 8.83594V8.0625C350.502 8.10417 350.421 8.14323 350.301 8.17969C350.184 8.21354 350.05 8.24349 349.899 8.26953C349.748 8.29297 349.6 8.3151 349.457 8.33594C349.314 8.35417 349.194 8.36979 349.098 8.38281C348.871 8.41146 348.664 8.45964 348.477 8.52734C348.292 8.59505 348.143 8.69271 348.031 8.82031C347.922 8.94531 347.867 9.11198 347.867 9.32031C347.867 9.60937 347.974 9.82812 348.188 9.97656C348.401 10.1224 348.673 10.1953 349.004 10.1953ZM354.655 3V11H353.487V3H354.655ZM360.247 8.51172V5H361.419V11H360.27V9.96094H360.208C360.07 10.2813 359.848 10.5482 359.544 10.7617C359.242 10.9727 358.865 11.0781 358.415 11.0781C358.029 11.0781 357.688 10.9935 357.391 10.8242C357.097 10.6523 356.865 10.3984 356.696 10.0625C356.529 9.72656 356.446 9.3112 356.446 8.81641V5H357.614V8.67578C357.614 9.08464 357.727 9.41016 357.954 9.65234C358.18 9.89453 358.475 10.0156 358.837 10.0156C359.055 10.0156 359.273 9.96094 359.489 9.85156C359.708 9.74219 359.889 9.57682 360.032 9.35547C360.178 9.13411 360.249 8.85286 360.247 8.51172ZM365.794 11.1211C365.203 11.1211 364.694 10.9948 364.267 10.7422C363.842 10.487 363.514 10.1289 363.282 9.66797C363.053 9.20443 362.939 8.66146 362.939 8.03906C362.939 7.42448 363.053 6.88281 363.282 6.41406C363.514 5.94531 363.837 5.57943 364.251 5.31641C364.668 5.05339 365.155 4.92188 365.712 4.92188C366.05 4.92188 366.379 4.97786 366.696 5.08984C367.014 5.20182 367.299 5.3776 367.552 5.61719C367.804 5.85677 368.004 6.16797 368.149 6.55078C368.295 6.93099 368.368 7.39323 368.368 7.9375V8.35156H363.599V7.47656H367.224C367.224 7.16927 367.161 6.89714 367.036 6.66016C366.911 6.42057 366.735 6.23177 366.509 6.09375C366.285 5.95573 366.022 5.88672 365.72 5.88672C365.392 5.88672 365.105 5.96745 364.86 6.12891C364.618 6.28776 364.431 6.49609 364.298 6.75391C364.168 7.00911 364.103 7.28646 364.103 7.58594V8.26953C364.103 8.67057 364.173 9.01172 364.314 9.29297C364.457 9.57422 364.656 9.78906 364.911 9.9375C365.166 10.0833 365.465 10.1562 365.806 10.1562C366.027 10.1562 366.229 10.125 366.411 10.0625C366.593 9.9974 366.751 9.90104 366.884 9.77344C367.017 9.64583 367.118 9.48828 367.189 9.30078L368.294 9.5C368.205 9.82552 368.047 10.1107 367.817 10.3555C367.591 10.5977 367.306 10.7865 366.962 10.9219C366.621 11.0547 366.231 11.1211 365.794 11.1211Z" fill="#9EA5B4"/>
<circle cx="252" cy="7" r="4" fill="#019371"/>
<circle cx="5" cy="7" r="4" fill="#1976D2"/>
</svg>
