<svg width="168" height="80" viewBox="0 0 168 80" fill="none" xmlns="http://www.w3.org/2000/svg">
<path fill-rule="evenodd" clip-rule="evenodd" d="M63.7293 79.3591C62.8455 79.8313 61.8462 80.0469 60.8453 79.9812C59.8444 79.9156 58.8822 79.5714 58.0682 78.9879C57.2541 78.4044 56.6211 77.605 56.2412 76.6808C55.8612 75.7566 55.7497 74.7447 55.9192 73.7604L59.7931 51.4418L43.3871 35.6281C42.6764 34.9321 42.1749 34.0524 41.9391 33.088C41.7033 32.1237 41.7425 31.1129 42.0523 30.1695C42.3621 29.2262 42.9302 28.3876 43.6927 27.7482C44.4552 27.1088 45.3818 26.6939 46.3682 26.5503L69.0492 23.2935L79.1802 2.97001C79.6289 2.07749 80.3183 1.32693 81.1711 0.802382C82.024 0.277832 83.0067 0 84.0092 0C85.0117 0 85.9944 0.277832 86.8473 0.802382C87.7001 1.32693 88.3895 2.07749 88.8382 2.97001L98.9692 23.2935L121.65 26.5503C122.637 26.6937 123.564 27.1084 124.326 27.7478C125.089 28.3872 125.657 29.2258 125.967 30.1692C126.277 31.1127 126.316 32.1235 126.08 33.088C125.844 34.0524 125.342 34.9321 124.632 35.6281L108.217 51.433L112.09 73.7517C112.262 74.7365 112.151 75.7494 111.772 76.6748C111.393 77.6002 110.76 78.4008 109.946 78.9854C109.131 79.57 108.168 79.915 107.167 79.9811C106.165 80.0472 105.165 79.8316 104.28 79.3591L84.0004 68.8328L63.7293 79.3591ZM10.857 79.6858C10.4198 79.9195 9.92535 80.0263 9.43012 79.9939C8.9349 79.9615 8.45878 79.7912 8.056 79.5025C7.65323 79.2138 7.34 78.8183 7.152 78.361C6.96401 77.9038 6.90881 77.4031 6.99269 76.9161L8.90934 65.8741L0.79195 58.0505C0.440199 57.7062 0.191985 57.2709 0.0752529 56.7938C-0.0414795 56.3166 -0.0220922 55.8165 0.131231 55.3497C0.284554 54.8829 0.565724 54.468 0.943083 54.1516C1.32044 53.8353 1.779 53.6302 2.26713 53.5593L13.4893 51.948L18.5019 41.8931C18.724 41.4516 19.0651 41.0803 19.4871 40.8208C19.909 40.5614 20.3952 40.4239 20.8912 40.4239C21.3872 40.4239 21.8733 40.5614 22.2953 40.8208C22.7173 41.0803 23.0584 41.4516 23.2805 41.8931L28.2931 51.948L39.5155 53.5593C40.0036 53.6302 40.4622 53.8354 40.8395 54.1517C41.2168 54.4681 41.4979 54.883 41.6512 55.3498C41.8045 55.8165 41.8239 56.3167 41.7071 56.7938C41.5904 57.271 41.3422 57.7062 40.9904 58.0505L32.8687 65.8697L34.7853 76.9118C34.8702 77.3991 34.8157 77.9003 34.6281 78.3583C34.4405 78.8163 34.1274 79.2125 33.7244 79.5018C33.3215 79.7911 32.8449 79.9617 32.3492 79.9943C31.8535 80.0268 31.3586 79.9199 30.921 79.6858L20.8869 74.4783L10.857 79.6858ZM137.075 79.6858C136.637 79.9195 136.143 80.0263 135.648 79.9939C135.153 79.9615 134.676 79.7912 134.274 79.5025C133.871 79.2138 133.558 78.8183 133.37 78.361C133.182 77.9038 133.126 77.4031 133.21 76.9161L135.127 65.8741L127.01 58.0505C126.658 57.7062 126.41 57.2709 126.293 56.7938C126.176 56.3166 126.196 55.8165 126.349 55.3497C126.502 54.8829 126.783 54.468 127.161 54.1516C127.538 53.8353 127.997 53.6302 128.485 53.5593L139.707 51.948L144.72 41.8931C144.942 41.4516 145.283 41.0803 145.705 40.8208C146.127 40.5614 146.613 40.4239 147.109 40.4239C147.605 40.4239 148.091 40.5614 148.513 40.8208C148.935 41.0803 149.276 41.4516 149.498 41.8931L154.511 51.948L165.733 53.5593C166.221 53.6303 166.68 53.8355 167.057 54.1518C167.434 54.4681 167.715 54.883 167.869 55.3498C168.022 55.8165 168.041 56.3166 167.925 56.7938C167.808 57.2709 167.56 57.7062 167.208 58.0505L159.086 65.8697L161.003 76.9118C161.088 77.3991 161.033 77.9003 160.846 78.3582C160.658 78.8161 160.345 79.2122 159.942 79.5015C159.539 79.7907 159.062 79.9614 158.567 79.994C158.071 80.0266 157.576 79.9198 157.139 79.6858L147.105 74.4783L137.075 79.6858Z" fill="url(#paint0_linear_1108_4749)"/>
<path fill-rule="evenodd" clip-rule="evenodd" d="M92.6697 37.4989C93.2315 38.0582 93.2315 38.9651 92.6697 39.5244L83.3732 48.7798C82.8116 49.339 81.901 49.3392 81.3391 48.7802L75.7559 43.2261C75.1939 42.667 75.1935 41.7601 75.7551 41.2005C76.3167 40.641 77.2276 40.6406 77.7897 41.1997L82.3556 45.7419L90.6351 37.4989C91.197 36.9395 92.1078 36.9395 92.6697 37.4989Z" fill="white"/>
<defs>
<linearGradient id="paint0_linear_1108_4749" x1="0" y1="45.8333" x2="168" y2="45.8333" gradientUnits="userSpaceOnUse">
<stop stop-color="#1976D2"/>
<stop offset="1" stop-color="#009470"/>
</linearGradient>
</defs>
</svg>
