<svg width="64" height="64" viewBox="0 0 64 64" fill="none" xmlns="http://www.w3.org/2000/svg">
<g clip-path="url(#clip0_2370_14309)">
<path d="M31.752 8.06405C31.8304 8.02106 31.9186 7.99902 32.008 8.00005C32.0961 7.9997 32.1828 8.02172 32.26 8.06405C32.3515 8.1189 32.4262 8.19775 32.476 8.29205L59.904 54.9601C60.048 55.2001 60.044 55.4561 59.912 55.6921C59.8613 55.7889 59.787 55.8714 59.696 55.9321C59.6168 55.9806 59.5248 56.0043 59.432 56.0001H4.58403C4.49118 56.0046 4.39914 55.9809 4.32003 55.9321C4.22904 55.8714 4.15477 55.7889 4.10403 55.6921C4.03811 55.581 4.00399 55.454 4.0054 55.3249C4.00681 55.1958 4.0437 55.0696 4.11203 54.9601L31.536 8.29205C31.586 8.19787 31.6607 8.11906 31.752 8.06405ZM35.928 6.26405C35.5321 5.57431 34.9611 5.00125 34.2729 4.60274C33.5846 4.20423 32.8033 3.99438 32.008 3.99438C31.2127 3.99438 30.4315 4.20423 29.7432 4.60274C29.0549 5.00125 28.484 5.57431 28.088 6.26405L0.660028 52.9321C-1.16797 56.0441 1.02403 60.0001 4.58003 60.0001H59.432C62.988 60.0001 65.184 56.0401 63.352 52.9321L35.928 6.26405Z" fill="#EA0312"/>
<path d="M28.008 48.0001C28.008 47.4748 28.1115 46.9546 28.3125 46.4693C28.5135 45.984 28.8082 45.5431 29.1796 45.1716C29.551 44.8002 29.992 44.5056 30.4773 44.3045C30.9626 44.1035 31.4827 44.0001 32.008 44.0001C32.5333 44.0001 33.0535 44.1035 33.5388 44.3045C34.0241 44.5056 34.465 44.8002 34.8365 45.1716C35.2079 45.5431 35.5025 45.984 35.7035 46.4693C35.9046 46.9546 36.008 47.4748 36.008 48.0001C36.008 49.0609 35.5866 50.0783 34.8365 50.8285C34.0863 51.5786 33.0689 52.0001 32.008 52.0001C30.9472 52.0001 29.9297 51.5786 29.1796 50.8285C28.4295 50.0783 28.008 49.0609 28.008 48.0001ZM28.4 23.9801C28.3468 23.4754 28.4002 22.9652 28.5568 22.4826C28.7135 21.9999 28.9698 21.5556 29.3093 21.1784C29.6488 20.8012 30.0637 20.4996 30.5273 20.2932C30.9908 20.0867 31.4926 19.9801 32 19.9801C32.5075 19.9801 33.0092 20.0867 33.4728 20.2932C33.9363 20.4996 34.3513 20.8012 34.6908 21.1784C35.0302 21.5556 35.2866 21.9999 35.4432 22.4826C35.5999 22.9652 35.6533 23.4754 35.6 23.9801L34.2 38.008C34.153 38.5591 33.9008 39.0725 33.4935 39.4466C33.0861 39.8207 32.5531 40.0283 32 40.0283C31.4469 40.0283 30.914 39.8207 30.5066 39.4466C30.0992 39.0725 29.8471 38.5591 29.8 38.008L28.4 23.9801Z" fill="#EA0312"/>
</g>
<defs>
<clipPath id="clip0_2370_14309">
<rect width="64" height="64" fill="white"/>
</clipPath>
</defs>
</svg>
