<svg width="16" height="18" viewBox="0 0 16 18" fill="none" xmlns="http://www.w3.org/2000/svg">
<path fill-rule="evenodd" clip-rule="evenodd" d="M36.9048 4.76438L36.7349 3.95775H34.3746V13.5225H37.1016V7.03125C37.7468 6.1875 38.8353 6.35175 39.1818 6.45919V3.95888C38.8184 3.82838 37.5432 3.58875 36.9048 4.76325V4.76438ZM31.4316 1.5885L28.7676 2.15438L28.7564 10.908C28.7564 12.5224 29.9703 13.7166 31.5903 13.7166C32.4818 13.7166 33.1405 13.5467 33.5056 13.3549V11.133C33.1557 11.2725 31.4339 11.7731 31.4339 10.1655V6.28425H33.5056V3.95719H31.4339L31.4316 1.5885ZM24.0438 6.73313C24.0438 6.30675 24.3981 6.1425 24.9708 6.1425C25.9186 6.16302 26.8488 6.40374 27.6876 6.84563V4.275C26.8227 3.93491 25.9001 3.7653 24.9708 3.7755C22.7635 3.7755 21.2824 4.932 21.2824 6.8625C21.2824 9.88313 25.4309 9.39263 25.4309 10.6948C25.4309 11.2044 24.9921 11.3619 24.3829 11.3619C23.4796 11.3619 22.3129 10.9884 21.3978 10.4901V13.0944C22.3399 13.5042 23.3556 13.718 24.3829 13.7228C26.6515 13.7228 28.2153 12.6023 28.2153 10.6374C28.2153 7.37719 24.0432 7.95994 24.0432 6.732L24.0438 6.73313ZM5.8075 5.35219C5.8075 4.58156 6.44875 4.28344 7.48488 4.28344C9.19971 4.32049 10.8824 4.7559 12.4 5.55525V0.903377C10.8351 0.288403 9.16613 -0.0181619 7.48488 0.00056482C3.49113 0.00056482 0.8125 2.0925 0.8125 5.58563C0.8125 11.0509 8.31738 10.1633 8.31738 12.519C8.31738 13.4404 7.52988 13.7261 6.42175 13.7261C4.78769 13.7261 2.67719 13.05 1.02175 12.15V16.8626C2.72613 17.6042 4.5636 17.9912 6.42231 18C10.5269 18 13.3563 15.9722 13.3563 12.4183C13.3563 6.51994 5.8075 7.5735 5.8075 5.35331V5.35219Z" fill="#6772E5"/>
</svg>
