<svg width="18" height="18" viewBox="0 0 18 18" fill="none" xmlns="http://www.w3.org/2000/svg">
<path d="M9 18C13.9706 18 18 13.9706 18 9C18 4.02944 13.9706 0 9 0C4.02944 0 0 4.02944 0 9C0 13.9706 4.02944 18 9 18Z" fill="#0052FF"/>
<path d="M9.09598 5.70037C10.4415 5.70037 11.5089 6.51731 11.9143 7.73218H14.625C14.1339 5.13479 11.9569 3.375 9.11763 3.375C5.8933 3.375 3.375 5.7843 3.375 9.01077C3.375 12.2372 5.83036 14.625 9.11763 14.625C11.8933 14.625 14.1136 12.8652 14.6051 10.2463H11.9141C11.5297 11.4614 10.4632 12.2996 9.11674 12.2996C7.25893 12.2996 5.95692 10.8958 5.95692 9.01077C5.95781 7.1042 7.23884 5.70037 9.09598 5.70037Z" fill="white"/>
</svg>
