<svg width="48" height="48" viewBox="0 0 48 48" fill="none" xmlns="http://www.w3.org/2000/svg">
<path d="M24 48C37.2548 48 48 37.2548 48 24C48 10.7452 37.2548 0 24 0C10.7452 0 0 10.7452 0 24C0 37.2548 10.7452 48 24 48Z" fill="#5848D5"/>
<path d="M12.0051 28.1907C12.0051 27.7361 12.0144 27.2767 12.0004 26.822C11.9816 25.9361 12.0426 25.0642 12.1926 24.1876C12.4457 22.7298 12.9051 21.3517 13.6551 20.0767C14.916 17.9345 16.6926 16.3642 18.9332 15.3048C19.9269 14.8361 20.9676 14.5032 22.0597 14.3392C22.6269 14.2548 23.1941 14.1845 23.7707 14.1892C26.2222 14.2079 28.505 14.8126 30.5675 16.1673C32.5879 17.4939 34.1066 19.247 35.016 21.5017C35.4426 22.5611 35.7097 23.6673 35.8457 24.8017C36.0004 26.0532 36.0097 27.3095 35.9863 28.5657C35.9722 29.2454 35.9769 29.9251 35.9676 30.6001C35.9629 30.8954 35.9535 31.1907 35.8738 31.4814C35.5691 32.6064 34.2847 33.1173 33.3426 32.4939C32.9207 32.2173 32.7144 31.8095 32.6394 31.322C32.5879 30.9939 32.5597 30.6657 32.5597 30.3329C32.5597 28.9689 32.5597 27.6001 32.5597 26.2361C32.5597 25.7017 32.391 25.2236 32.0254 24.8298C31.3879 24.1454 30.4035 24.1173 29.6863 24.7501C29.2832 25.1064 29.1004 25.5611 29.0629 26.0861C29.0488 26.2829 29.0441 26.4798 29.0441 26.672C29.0394 28.1767 29.0488 29.6814 29.0347 31.1907C29.0254 32.0439 28.3785 32.6954 27.5066 32.7564C26.6722 32.8126 25.9363 32.2407 25.7957 31.4157C25.7582 31.1907 25.7441 30.9611 25.7441 30.7267C25.7441 29.2126 25.7488 27.6986 25.7441 26.1845C25.7394 25.6736 25.5707 25.2236 25.2144 24.8486C24.4972 24.0939 23.4144 24.1173 22.7207 24.8907C22.3785 25.2704 22.2285 25.7111 22.2285 26.2126C22.2285 27.7079 22.2238 29.2079 22.2285 30.7032C22.2285 31.0876 22.1816 31.4673 22.0222 31.8236C21.7457 32.4376 21.1644 32.7986 20.4941 32.7751C19.8566 32.7564 19.3129 32.3532 19.0691 31.7111C18.9707 31.4579 18.9285 31.1907 18.9285 30.9189C18.9332 29.4704 18.9332 28.022 18.9238 26.5736C18.9238 26.2501 18.9097 25.9267 18.816 25.6173C18.5957 24.9048 18.1222 24.4501 17.3863 24.3282C16.641 24.2064 16.0879 24.5579 15.6707 25.1579C15.4738 25.4439 15.4082 25.7673 15.4082 26.1095C15.4082 27.4876 15.4129 28.8611 15.4129 30.2345C15.4129 30.6376 15.4222 31.0454 15.3285 31.4439C15.1785 32.1048 14.541 32.8314 13.5754 32.7611C12.9144 32.7095 12.2769 32.1611 12.0894 31.4626C12.0238 31.2142 12.0051 30.9564 12.0051 30.6986C12.0097 29.8642 12.0097 29.0251 12.0051 28.1907C12.0051 28.1907 12.0097 28.1907 12.0051 28.1907Z" fill="white"/>
</svg>
