<svg width="83" height="34" viewBox="0 0 83 34" fill="none" xmlns="http://www.w3.org/2000/svg">
<path d="M1.9 16.3583L1 19.1447V34H82V1L81.1 2.01772L81.0997 2.018C80.1997 3.03581 78.3998 5.07107 76.6 7.19931C74.8 9.32775 73 11.5492 71.2 11.1846C69.4 10.8201 67.6 7.86953 65.8 7.59994C64 7.33034 62.2 9.74172 60.4 10.4233C58.6 11.1048 56.8 10.0566 55 9.00275L54.9896 8.99664C53.1931 7.94486 51.3965 6.89307 49.6 8.69034C47.8 10.4911 46 15.1519 44.2 14.2846C42.4 13.4172 40.6 7.02171 38.8 4.10395C37 1.18618 35.2 1.74616 33.4 5.58249C31.6 9.41883 29.8 16.5315 28 19.4086C26.2 22.2858 24.4 20.9273 22.6 20.4988C20.8 20.0702 19 20.5715 17.2 18.2236C15.4 15.8757 13.6 10.6786 11.8 7.57094C10 4.46324 8.2 3.44494 6.4 5.72213C4.6 7.99931 2.8 13.572 1.9 16.3583Z" fill="url(#paint0_linear_809_4218)"/>
<path d="M1 19.1447L1.9 16.3583C2.8 13.572 4.6 7.99931 6.4 5.72213C8.2 3.44494 10 4.46324 11.8 7.57094C13.6 10.6786 15.4 15.8757 17.2 18.2236C19 20.5715 20.8 20.0702 22.6 20.4988C24.4 20.9273 26.2 22.2858 28 19.4086C29.8 16.5315 31.6 9.41883 33.4 5.58249C35.2 1.74616 37 1.18618 38.8 4.10395C40.6 7.02171 42.4 13.4172 44.2 14.2846C46 15.1519 47.8 10.4911 49.6 8.69034C51.4 6.8896 53.2 7.94894 55 9.00275C56.8 10.0566 58.6 11.1048 60.4 10.4233C62.2 9.74172 64 7.33035 65.8 7.59994C67.6 7.86953 69.4 10.8201 71.2 11.1846C73 11.5492 74.8 9.32775 76.6 7.19931C78.4 5.07087 80.2 3.03543 81.1 2.01772L82 1" stroke="#13D802"/>
<defs>
<linearGradient id="paint0_linear_809_4218" x1="41.5" y1="1" x2="41.5" y2="34" gradientUnits="userSpaceOnUse">
<stop stop-color="#17AD37" stop-opacity="0.6"/>
<stop offset="1" stop-color="#17AD37" stop-opacity="0"/>
</linearGradient>
</defs>
</svg>
