<svg width="31" height="20" viewBox="0 0 31 20" fill="none" xmlns="http://www.w3.org/2000/svg">
<g clip-path="url(#clip0_1094_14064)">
<path d="M28.4167 0H2.58333C1.1566 0 0 1.11929 0 2.5V17.5C0 18.8807 1.1566 20 2.58333 20H28.4167C29.8434 20 31 18.8807 31 17.5V2.5C31 1.11929 29.8434 0 28.4167 0Z" fill="#252525"/>
<path d="M11.625 16.25C15.1918 16.25 18.0833 13.4518 18.0833 10C18.0833 6.54822 15.1918 3.75 11.625 3.75C8.05812 3.75 5.16663 6.54822 5.16663 10C5.16663 13.4518 8.05812 16.25 11.625 16.25Z" fill="#EB001B"/>
<path d="M19.375 16.25C22.9418 16.25 25.8333 13.4518 25.8333 10C25.8333 6.54822 22.9418 3.75 19.375 3.75C15.8081 3.75 12.9166 6.54822 12.9166 10C12.9166 13.4518 15.8081 16.25 19.375 16.25Z" fill="#F79E1B"/>
<path fill-rule="evenodd" clip-rule="evenodd" d="M15.5 4.99951C17.0686 6.13977 18.0833 7.9552 18.0833 9.99997C18.0833 12.0447 17.0686 13.8602 15.5 15.0004C13.9313 13.8602 12.9166 12.0447 12.9166 9.99997C12.9166 7.9552 13.9313 6.13977 15.5 4.99951V4.99951Z" fill="#FF5F00"/>
</g>
<defs>
<clipPath id="clip0_1094_14064">
<rect width="31" height="20" fill="white"/>
</clipPath>
</defs>
</svg>
