<svg width="12" height="10" viewBox="0 0 12 10" fill="none" xmlns="http://www.w3.org/2000/svg">
<path fill-rule="evenodd" clip-rule="evenodd" d="M-2.18557e-07 5C-2.26836e-07 5.18941 0.0790079 5.37106 0.219644 5.50499C0.360281 5.63892 0.551025 5.71416 0.749916 5.71416L9.43845 5.71416L6.2183 8.77932C6.14858 8.84572 6.09327 8.92455 6.05554 9.0113C6.0178 9.09805 5.99838 9.19104 5.99838 9.28494C5.99838 9.37884 6.0178 9.47183 6.05554 9.55858C6.09327 9.64534 6.14858 9.72417 6.2183 9.79056C6.28803 9.85696 6.3708 9.90964 6.4619 9.94557C6.553 9.98151 6.65064 10 6.74925 10C6.84785 10 6.94549 9.98151 7.03659 9.94557C7.12769 9.90964 7.21046 9.85696 7.28019 9.79056L11.7797 5.50562C11.8495 5.43928 11.9049 5.36048 11.9427 5.27371C11.9805 5.18695 12 5.09394 12 5C12 4.90606 11.9805 4.81305 11.9427 4.72629C11.9049 4.63952 11.8495 4.56072 11.7797 4.49438L7.28019 0.209436C7.13937 0.0753363 6.94839 -2.20813e-07 6.74925 -2.29518e-07C6.5501 -2.38223e-07 6.35912 0.0753363 6.2183 0.209436C6.07749 0.343535 5.99838 0.525414 5.99838 0.715059C5.99838 0.904704 6.07749 1.08658 6.2183 1.22068L9.43845 4.28584L0.749916 4.28584C0.551025 4.28584 0.360281 4.36108 0.219644 4.49502C0.0790079 4.62895 -2.10278e-07 4.81059 -2.18557e-07 5Z" fill="#268AFF"/>
</svg>
