<svg width="30" height="26" viewBox="0 0 30 26" fill="none" xmlns="http://www.w3.org/2000/svg">
<path fill-rule="evenodd" clip-rule="evenodd" d="M14.2929 12.2929C14.6834 11.9024 15.3166 11.9024 15.7071 12.2929L20.7071 17.2929C21.0976 17.6834 21.0976 18.3166 20.7071 18.7071C20.3166 19.0976 19.6834 19.0976 19.2929 18.7071L15 14.4142L10.7071 18.7071C10.3166 19.0976 9.68342 19.0976 9.29289 18.7071C8.90237 18.3166 8.90237 17.6834 9.29289 17.2929L14.2929 12.2929Z" fill="#268AFF"/>
<path fill-rule="evenodd" clip-rule="evenodd" d="M10.8382 0.761366C12.4998 0.700146 14.1536 1.0164 15.6754 1.68636C17.1972 2.35632 18.5473 3.36255 19.6242 4.62939C20.5319 5.69723 21.2257 6.9268 21.6705 8.25084H22.4998C24.1106 8.2519 25.6758 8.78934 26.9472 9.77833C28.2185 10.7673 29.1244 12.1516 29.5217 13.7125C29.919 15.2735 29.7852 16.9224 29.1413 18.3988C28.4974 19.8753 27.3802 21.0953 25.966 21.8663C25.4811 22.1307 24.8737 21.9519 24.6093 21.467C24.345 20.9821 24.5238 20.3747 25.0087 20.1103C26.0328 19.552 26.8418 18.6686 27.308 17.5994C27.7743 16.5302 27.8712 15.3362 27.5835 14.2059C27.2958 13.0755 26.6398 12.0731 25.7192 11.357C24.7985 10.6408 23.6656 10.2516 22.4992 10.2508H20.9248C20.4689 10.2508 20.0708 9.94251 19.9567 9.50114C19.6161 8.18404 18.9815 6.96127 18.1004 5.92476C17.2192 4.88825 16.1146 4.06497 14.8695 3.51683C13.6244 2.96868 12.2713 2.70992 10.9118 2.76001C9.55231 2.8101 8.22186 3.16773 7.02049 3.80602C5.81911 4.4443 4.77806 5.34663 3.97561 6.44517C3.17316 7.54371 2.63019 8.80987 2.38751 10.1485C2.14484 11.4871 2.20878 12.8632 2.57453 14.1736C2.94027 15.4839 3.59831 16.6942 4.49916 17.7136C4.86488 18.1275 4.82587 18.7595 4.41202 19.1252C3.99818 19.4909 3.36621 19.4519 3.0005 19.038C1.89945 17.7921 1.09519 16.3128 0.648163 14.7113C0.201139 13.1098 0.122991 11.4278 0.419592 9.7917C0.716193 8.15564 1.37983 6.60811 2.3606 5.26545C3.34137 3.92279 4.61376 2.81995 6.08211 2.03982C7.55046 1.25969 9.17656 0.822585 10.8382 0.761366Z" fill="#268AFF"/>
<path fill-rule="evenodd" clip-rule="evenodd" d="M14.295 12.2908C14.3904 12.196 14.5001 12.1243 14.6172 12.0759L14.295 12.2908ZM15.705 12.2908C15.5242 12.1111 15.2751 12 15 12C14.8644 12 14.7351 12.027 14.6172 12.0759M15.705 12.2908C15.7058 12.2916 15.7067 12.2925 15.7075 12.2933L15.705 12.2908ZM14 15.4142L10.7071 18.7071C10.3166 19.0976 9.68342 19.0976 9.29289 18.7071C8.90237 18.3166 8.90237 17.6834 9.29289 17.2929L14.2925 12.2933M14 15.4142V24.25C14 24.8023 14.4477 25.25 15 25.25C15.5523 25.25 16 24.8023 16 24.25V15.4142L19.2929 18.7071C19.6834 19.0976 20.3166 19.0976 20.7071 18.7071C21.0976 18.3166 21.0976 17.6834 20.7071 17.2929L15.7075 12.2933" fill="#2589FF"/>
</svg>
