<svg width="66" height="60" viewBox="0 0 66 60" fill="none" xmlns="http://www.w3.org/2000/svg">
<path d="M0 8.57143C0 6.29814 0.862011 4.11797 2.3964 2.51051C3.93079 0.903059 6.01186 0 8.18182 0H63.4091C63.9516 0 64.4718 0.225765 64.8554 0.627628C65.239 1.02949 65.4545 1.57454 65.4545 2.14286C65.4545 2.71118 65.239 3.25622 64.8554 3.65809C64.4718 4.05995 63.9516 4.28571 63.4091 4.28571H61.3636V12.8571C62.4486 12.8571 63.4892 13.3087 64.2563 14.1124C65.0235 14.9161 65.4545 16.0062 65.4545 17.1429V53.5714C65.4545 55.2764 64.808 56.9115 63.6572 58.1171C62.5065 59.3227 60.9456 60 59.3182 60H10.2273C7.51483 60 4.91348 58.8712 2.9955 56.8619C1.07751 54.8525 0 52.1273 0 49.2857L0 8.57143ZM4.09091 15.9943V49.2857C4.09091 50.9907 4.73742 52.6258 5.88821 53.8314C7.039 55.037 8.59981 55.7143 10.2273 55.7143H59.3182C59.8607 55.7143 60.3809 55.4885 60.7645 55.0867C61.1481 54.6848 61.3636 54.1397 61.3636 53.5714V17.1429H8.18182C6.74534 17.1448 5.33393 16.7485 4.09091 15.9943ZM4.09091 8.57143C4.09091 9.70807 4.52191 10.7982 5.28911 11.6019C6.0563 12.4056 7.09684 12.8571 8.18182 12.8571H57.2727V4.28571H8.18182C7.09684 4.28571 6.0563 4.73724 5.28911 5.54097C4.52191 6.3447 4.09091 7.43479 4.09091 8.57143Z" fill="url(#paint0_linear_809_4267)"/>
<defs>
<linearGradient id="paint0_linear_809_4267" x1="0" y1="34.375" x2="65.4545" y2="34.375" gradientUnits="userSpaceOnUse">
<stop stop-color="#1976D2"/>
<stop offset="1" stop-color="#009470"/>
</linearGradient>
</defs>
</svg>
