<svg width="48" height="48" viewBox="0 0 48 48" fill="none" xmlns="http://www.w3.org/2000/svg">
<path fill-rule="evenodd" clip-rule="evenodd" d="M24 0C37.2562 0 48 10.7438 48 24C48 37.2562 37.2562 48 24 48C10.7438 48 0 37.2562 0 24C0 10.7438 10.7438 0 24 0Z" fill="url(#paint0_radial_2015_18)"/>
<path d="M15.2532 18.5343C20.0813 13.8187 27.9188 13.8187 32.7469 18.5343L33.3282 19.1062C33.5719 19.3405 33.5719 19.7249 33.3282 19.9593L31.3407 21.8999C31.2188 22.0218 31.0219 22.0218 30.9 21.8999L30.1032 21.1218C26.7282 17.8312 21.2719 17.8312 17.8969 21.1218L17.0438 21.9562C16.9219 22.078 16.725 22.078 16.6032 21.9562L14.6157 20.0155C14.3719 19.7812 14.3719 19.3968 14.6157 19.1624L15.2532 18.5343ZM36.8626 22.5468L38.6344 24.2718C38.8782 24.5062 38.8782 24.8905 38.6344 25.1249L30.6563 32.9155C30.4125 33.1499 30.0188 33.1499 29.7844 32.9155L24.1219 27.3843C24.0657 27.328 23.9625 27.328 23.9063 27.3843L18.2438 32.9155C18 33.1499 17.6063 33.1499 17.3719 32.9155L9.36567 25.1249C9.12192 24.8905 9.12192 24.5062 9.36567 24.2718L11.1375 22.5468C11.3813 22.3124 11.7751 22.3124 12.0094 22.5468L17.6719 28.078C17.7282 28.1343 17.8313 28.1343 17.8875 28.078L23.5501 22.5468C23.7938 22.3124 24.1875 22.3124 24.4219 22.5468L30.0844 28.078C30.1407 28.1343 30.2438 28.1343 30.3001 28.078L35.9625 22.5468C36.225 22.3124 36.6188 22.3124 36.8626 22.5468Z" fill="white"/>
<defs>
<radialGradient id="paint0_radial_2015_18" cx="0" cy="0" r="1" gradientUnits="userSpaceOnUse" gradientTransform="translate(0.000148773 24.0007) scale(48)">
<stop stop-color="#5D9DF6"/>
<stop offset="1" stop-color="#006FFF"/>
</radialGradient>
</defs>
</svg>
