<svg width="290" height="240" viewBox="0 0 290 240" fill="none" xmlns="http://www.w3.org/2000/svg">
<path d="M72.366 185.311H280.505C281.697 185.311 282.877 185.077 283.978 184.622C285.08 184.167 286.08 183.5 286.923 182.66C287.766 181.819 288.435 180.821 288.891 179.722C289.347 178.624 289.582 177.447 289.581 176.258V56.2071C289.583 55.4047 289.476 54.6059 289.263 53.8321C288.741 51.9142 287.601 50.221 286.018 49.014C284.435 47.807 282.497 47.1533 280.505 47.1538H199.209C197.312 50.3402 196.143 53.9044 195.786 57.5928C194.777 68.3156 200.941 78.2287 206.457 87.4907C211.972 96.7526 217.232 107.521 214.311 117.894C212.336 124.889 206.984 129.952 200.343 132.987C193.961 135.803 186.942 136.869 180.009 136.075C175.846 135.551 171.744 134.617 167.765 133.287C162.546 131.597 157.449 129.405 152.361 127.189C152.357 127.189 152.357 127.189 152.352 127.185C152.265 127.147 152.173 127.106 152.085 127.068C148.147 125.352 144.213 123.633 140.221 122.118C135.543 120.293 130.688 118.959 125.734 118.136C118.205 116.959 110.614 117.384 103.898 120.79C92.9506 126.338 87.0836 138.325 82.493 149.686C77.8564 161.173 73.7009 173.044 72.366 185.311Z" fill="#2589FF"/>
<path d="M0.418579 139.385V176.258C0.418515 177.447 0.653239 178.624 1.10936 179.722C1.56548 180.821 2.23406 181.819 3.07692 182.66C3.91977 183.5 4.92039 184.167 6.02165 184.622C7.1229 185.077 8.30323 185.311 9.4952 185.311H44.0943C44.6927 179.747 44.1906 174.204 41.9936 169.033C37.2063 157.755 25.6231 151.085 14.5796 145.73C9.93878 143.48 5.21843 141.309 0.418579 139.385Z" fill="#515D70"/>
<path d="M36.6777 176.796V176.796C36.6777 179.197 37.634 181.5 39.3362 183.198C41.0383 184.896 43.347 185.849 45.7543 185.849H80.3534C80.9518 180.286 80.4497 174.743 78.2527 169.571C77.1272 166.92 74.4981 163.982 71.0723 161.016C57.6317 149.375 36.6777 159.042 36.6777 176.796Z" fill="#77838E"/>
<path d="M0 176.257V56.207C0.00285313 53.6961 1.00414 51.2888 2.78419 49.5134C4.56424 47.7379 6.9777 46.7392 9.49507 46.7363H280.505C283.022 46.7392 285.436 47.7379 287.216 49.5134C288.996 51.2888 289.997 53.6961 290 56.207V176.257C289.997 178.768 288.996 181.176 287.216 182.951C285.436 184.727 283.022 185.725 280.505 185.728H9.49507C6.97766 185.725 4.56418 184.727 2.78413 182.951C1.00407 181.176 0.00280992 178.768 0 176.257ZM9.49507 47.5711C7.19958 47.5737 4.99884 48.4843 3.37568 50.1033C1.75252 51.7223 0.839505 53.9174 0.836941 56.207V176.257C0.839463 178.547 1.75245 180.742 3.37562 182.361C4.99878 183.98 7.19955 184.891 9.49507 184.894H280.505C282.8 184.891 285.001 183.98 286.624 182.361C288.248 180.742 289.161 178.547 289.163 176.257V56.207C289.16 53.9174 288.247 51.7223 286.624 50.1033C285.001 48.4843 282.8 47.5737 280.505 47.5711H9.49507Z" fill="#77838E"/>
<path d="M89.6824 185.015H101.99C104.094 177.946 107.133 170.452 109.907 163.624C115.23 150.531 122.03 136.716 134.722 130.323C140.142 127.594 146.05 126.527 152.085 126.585C160.421 126.664 168.991 128.896 176.837 131.854C180.047 133.061 183.227 134.389 186.395 135.745C198.33 140.861 210.135 146.432 222.969 147.938C239.21 149.842 258.305 142.595 262.741 126.984C266.126 115.032 260.029 102.623 253.635 91.9491C247.241 81.2749 240.093 69.8539 241.261 57.4953C241.265 57.4538 241.269 57.4082 241.277 57.3667C241.717 52.9277 244.374 49.7376 248.086 47.6924H231.925C231.711 59.2212 238.398 69.3976 244.416 79.4454C250.81 90.1155 256.907 102.528 253.522 114.48C249.086 130.087 212.356 111.792 196.115 109.884C191.528 109.349 198.814 111.253 194.441 109.884C187.582 107.739 186.822 127.411 180.147 124.524C175.992 122.723 171.832 120.935 167.618 119.346C165.873 118.687 164.091 118.068 162.287 117.496C162.283 117.496 162.283 117.496 162.279 117.492C150.168 113.667 136.924 112.178 125.734 117.708C125.658 117.745 125.579 117.782 125.503 117.82C112.811 124.208 106.011 138.023 100.688 151.116C96.29 161.939 91.85 173.598 89.6824 185.015Z" fill="#515D70"/>
<path d="M89.8161 98.9683H9.76625C9.11033 98.9683 8.48127 99.2282 8.01746 99.6908C7.55365 100.153 7.29309 100.781 7.29309 101.435C7.29309 102.089 7.55365 102.717 8.01746 103.179C8.48127 103.642 9.11033 103.902 9.76625 103.902H89.8161C90.472 103.902 91.1011 103.642 91.5649 103.179C92.0287 102.717 92.2893 102.089 92.2893 101.435C92.2893 100.781 92.0287 100.153 91.5649 99.6908C91.1011 99.2282 90.472 98.9683 89.8161 98.9683Z" fill="#515D70"/>
<path d="M34.6417 85.1367H9.82205C9.16613 85.1367 8.53707 85.3966 8.07326 85.8592C7.60945 86.3218 7.34888 86.9493 7.34888 87.6035C7.34888 88.2578 7.60945 88.8852 8.07326 89.3478C8.53707 89.8104 9.16613 90.0703 9.82205 90.0703H34.6417C35.2976 90.0703 35.9267 89.8104 36.3905 89.3478C36.8543 88.8852 37.1149 88.2578 37.1149 87.6035C37.1149 86.9493 36.8543 86.3218 36.3905 85.8592C35.9267 85.3966 35.2976 85.1367 34.6417 85.1367H34.6417Z" fill="#515D70"/>
<path d="M130.353 229.535L125.279 229.493L123.034 209.52L130.521 209.583L130.353 229.535Z" fill="#FFB6B6"/>
<path d="M114.102 237.581C114.098 238.181 114.332 238.758 114.754 239.186C115.175 239.614 115.75 239.858 116.351 239.864L126.438 239.947L128.204 236.377L128.852 239.966L132.658 240L131.697 227.202L130.373 227.114L124.972 226.743L123.229 226.626L123.199 230.248L115.096 235.729C114.793 235.935 114.544 236.211 114.371 236.533C114.197 236.856 114.105 237.215 114.102 237.581Z" fill="black"/>
<path d="M181.825 229.535L176.751 229.493L174.506 209.52L181.993 209.583L181.825 229.535Z" fill="#FFB6B6"/>
<path d="M165.574 237.581C165.57 238.181 165.804 238.758 166.225 239.186C166.647 239.614 167.222 239.858 167.823 239.864L177.91 239.947L179.675 236.377L180.324 239.966L184.13 240L183.169 227.202L181.845 227.114L176.444 226.743L174.701 226.626L174.671 230.248L166.568 235.729C166.265 235.935 166.016 236.211 165.842 236.533C165.669 236.856 165.577 237.215 165.574 237.581Z" fill="black"/>
<path d="M124.094 69.5878L146.927 52.061C147.892 51.3156 148.525 50.2215 148.688 49.015C148.852 47.8085 148.533 46.5861 147.801 45.6118C147.422 45.1078 146.945 44.6859 146.397 44.372C145.85 44.0581 145.244 43.8587 144.617 43.7859C143.99 43.7132 143.354 43.7686 142.749 43.9488C142.144 44.129 141.582 44.4303 141.097 44.8342L117.939 63.7655L103.381 74.6772C102.661 74.2595 101.829 74.073 100.999 74.1433C100.168 74.2135 99.38 74.537 98.7404 75.0698C98.1008 75.6025 97.6411 76.3188 97.4239 77.1212C97.2066 77.9237 97.2423 78.7733 97.526 79.5548C97.8098 80.3363 98.3278 81.0118 99.0098 81.4894C99.6919 81.967 100.505 82.2236 101.338 82.2243C102.171 82.2251 102.985 81.9699 103.668 81.4936C104.35 81.0172 104.87 80.3427 105.155 79.5617L124.094 69.5878Z" fill="#FFC4C0"/>
<path d="M142.704 73.6171L141.697 96.0371L175.88 100.163C173.191 91.1539 168.78 78.6411 170.801 72.3716L142.704 73.6171Z" fill="#A0616A"/>
<path d="M162.135 32.5146H151.605L147.083 40.2327L144.928 40.114C140.729 41.7272 139.055 43.3968 136.738 47.845L128.593 54.6664L134.87 62.1795C139.206 61.4709 140.769 58.1142 139.393 51.9492C139.393 51.9492 134.645 60.2024 141.484 64.2627C141.484 64.2627 140.264 71.9128 141.484 71.8305C142.704 71.7483 145.514 70.1914 142.704 71.7483C139.894 73.3053 140.375 73.3724 140.467 73.8769C141.984 82.2144 143.24 88.4752 143.24 88.4752L172.951 91.397C172.951 91.397 171.239 73.4749 171.332 72.4559C171.425 71.4369 170.801 73.9281 171.425 71.4369C172.05 68.9458 172.986 69.88 172.05 68.9458C171.113 68.0117 178.488 67.2071 175.61 62.718L185.235 60.2136L179.855 47.46C179.855 43.1538 172.921 39.663 168.603 39.663H168.05L162.135 32.5146Z" fill="#E6E6E6"/>
<path d="M173.34 88.0108C161.716 91.9989 151.251 91.1232 142.403 83.4668C142.403 83.4668 139.913 92.6494 137.392 91.3972C134.87 90.145 136.116 93.6489 135.424 94.9335C134.689 96.2975 135.542 98.5982 133.114 99.3804C130.686 100.163 131.598 102.461 130.812 104.153C125.311 115.992 119.028 132.751 114.784 154.006C110.423 175.848 121.061 212.441 121.061 212.441L131.104 211.607L133.615 164.024L145.099 143.911C145.099 143.911 150.741 140.635 147.2 138.973C143.658 137.311 146.031 135.251 148.611 135.655C151.191 136.058 154.12 122.702 154.12 122.702C150.442 131.923 173.37 213.276 173.37 213.276L182.995 212.441L177.554 98.9104L173.34 88.0108Z" fill="black"/>
<path d="M168.384 13.1389C169.525 15.9743 172.746 21.5504 173.182 24.5923L172.985 24.3997C172.611 25.0378 172.185 25.6447 171.713 26.2145C170.866 25.3274 169.843 24.626 168.71 24.1548C169.329 25.4217 169.687 26.7992 169.764 28.2064C167.668 30.0272 162.314 28.9287 159.639 29.899C155.334 31.4568 150.764 32.0114 146.252 32.4719C144.65 32.6364 142.857 32.7362 141.735 31.7922C140.612 30.8482 141.281 29.1 140.677 27.7778C136.376 18.3595 140.345 14.9615 143.718 10.6909C144.46 9.75105 144.457 8.34858 145.36 7.45189C146.613 6.20898 148.534 5.82668 150.305 5.52044C149.845 5.54461 149.386 5.45027 148.973 5.24648C148.56 5.04269 148.207 4.73632 147.947 4.35686C147.719 3.97456 147.602 3.5369 147.607 3.09216C147.613 2.64743 147.742 2.2129 147.979 1.83649C148.613 0.789181 149.929 0.180158 151.198 0.028014C152.449 -0.0567117 153.706 0.0510239 154.924 0.347441C155.713 0.45095 156.477 0.694536 157.18 1.06668C157.512 1.24317 157.781 1.51646 157.953 1.84998C158.125 2.1835 158.191 2.56137 158.141 2.93307C158.035 3.27633 157.853 3.59133 157.608 3.85458C157.364 4.11784 157.062 4.32255 156.727 4.45346C156.216 4.66902 155.678 4.81583 155.128 4.89001C157.654 4.56304 160.22 5.01104 162.485 6.17442C165.323 7.68447 167.239 10.3049 168.384 13.1389Z" fill="black"/>
<path d="M153.016 29.035C158.619 29.035 163.161 24.5045 163.161 18.9157C163.161 13.327 158.619 8.79639 153.016 8.79639C147.413 8.79639 142.87 13.327 142.87 18.9157C142.87 24.5045 147.413 29.035 153.016 29.035Z" fill="#FFC4C0"/>
<path d="M162.778 13.4909C162.19 15.2642 160.509 15.8356 158.955 16.1919C158.465 16.3058 157.972 16.412 157.475 16.5064C157.291 16.2775 157.096 16.0532 156.892 15.8412C156.045 14.9541 155.022 14.2527 153.889 13.7816C154.379 14.7822 154.705 15.855 154.854 16.9587C153.914 17.0947 152.97 17.2057 152.02 17.292C151.217 17.4626 150.378 17.3187 149.678 16.8902C148.978 16.4617 148.469 15.7812 148.258 14.9895C147.393 16.3996 146.371 17.7277 144.973 18.2878C144.174 18.5743 143.303 18.5979 142.489 18.3551C141.676 18.1122 140.961 17.6157 140.451 16.9384C139.614 15.9196 139.147 14.551 138.812 13.23C138.415 11.6597 138.195 9.85082 138.974 8.8545C139.598 8.04816 140.674 8.03369 141.668 8.10522C143.86 8.27296 146.029 8.66519 148.141 9.27572L148.319 9.67663C147.956 7.50204 148.744 5.4098 150.2 4.66571C151.182 4.16821 152.364 4.25164 153.513 4.35256C154.988 4.41821 156.445 4.69935 157.839 5.187C159.437 5.80026 160.806 6.89113 161.759 8.31036C162.779 9.85408 163.285 11.9595 162.778 13.4909Z" fill="black"/>
<path d="M148.315 4.03287C148.415 4.00339 148.156 4.04125 148.246 4.04366C148.201 4.04107 148.157 4.03487 148.113 4.02512C148.106 4.02364 148.005 3.99148 148.072 4.0151C147.921 3.97016 147.787 3.88267 147.685 3.76319C147.446 3.46924 147.259 3.13735 147.132 2.78144C146.97 2.31111 146.711 1.88011 146.371 1.51673C146.275 1.42004 146.157 1.34742 146.027 1.30475C145.897 1.26209 145.759 1.25058 145.623 1.27117C145.488 1.29175 145.36 1.34386 145.248 1.42324C145.137 1.50263 145.046 1.60706 144.983 1.72806C144.786 2.16401 144.966 2.70115 145.107 3.12933C145.252 3.57421 145.469 3.99278 145.748 4.3689C146.216 4.98396 146.852 5.45005 147.581 5.71036C148.424 6.01586 149.344 6.04208 150.203 5.78511C150.317 5.73813 150.414 5.65922 150.484 5.558C150.553 5.45678 150.591 5.33763 150.594 5.21504C150.597 5.09246 150.564 4.97174 150.499 4.8676C150.434 4.76346 150.34 4.68039 150.229 4.62851L148.795 4.04331C148.72 4.01019 148.639 3.99223 148.556 3.99043C148.474 3.98864 148.392 4.00305 148.315 4.03286C148.238 4.06266 148.168 4.10726 148.108 4.16411C148.049 4.22097 148.001 4.28897 147.968 4.36423C147.935 4.43949 147.917 4.52053 147.915 4.60273C147.913 4.68493 147.928 4.76668 147.958 4.84331C147.987 4.91994 148.032 4.98995 148.089 5.04935C148.146 5.10874 148.214 5.15636 148.29 5.18947L149.723 5.77465L149.748 4.61806C149.57 4.66955 149.386 4.70093 149.2 4.71163C149.001 4.73144 148.801 4.72302 148.605 4.68663C148.418 4.6621 148.233 4.61725 148.056 4.55288C147.942 4.51138 147.83 4.46414 147.721 4.41133C147.681 4.39213 147.642 4.3722 147.603 4.35154C147.606 4.35303 147.439 4.25616 147.512 4.30167C147.327 4.18351 147.153 4.04837 146.993 3.89801C146.936 3.84469 146.884 3.78684 146.837 3.72505C146.755 3.62499 146.679 3.52026 146.61 3.41139C146.469 3.18085 146.357 2.93366 146.277 2.67552C146.241 2.56704 146.21 2.45673 146.185 2.34505C146.178 2.28375 146.167 2.22299 146.152 2.1632C146.098 2.02074 146.162 2.24639 146.1 2.30812L145.836 2.50232C145.787 2.51706 145.734 2.52048 145.683 2.51231C145.632 2.50415 145.583 2.48461 145.541 2.45515C145.51 2.41122 145.516 2.41851 145.561 2.47702C145.614 2.54588 145.662 2.61798 145.705 2.69289C145.8 2.86925 145.885 3.05029 145.962 3.23531C146.119 3.6288 146.319 4.00438 146.556 4.35565C146.789 4.71093 147.129 4.98383 147.526 5.13543C147.924 5.28703 148.359 5.3096 148.77 5.19993C148.924 5.13866 149.048 5.01935 149.115 4.86773C149.182 4.71611 149.187 4.54435 149.128 4.38949C149.065 4.23688 148.945 4.11451 148.793 4.04803C148.642 3.98155 148.47 3.97612 148.315 4.03287Z" fill="black"/>
<path d="M132.492 113.976C149.059 113.976 162.49 100.58 162.49 84.0551C162.49 67.5303 149.059 54.1343 132.492 54.1343C115.924 54.1343 102.494 67.5303 102.494 84.0551C102.494 100.58 115.924 113.976 132.492 113.976Z" fill="white"/>
<path d="M132.492 114.394C126.476 114.394 120.595 112.615 115.593 109.281C110.591 105.947 106.692 101.209 104.39 95.6656C102.088 90.122 101.486 84.022 102.659 78.1369C103.833 72.2519 106.73 66.8461 110.984 62.6032C115.237 58.3604 120.657 55.4709 126.557 54.3003C132.458 53.1296 138.573 53.7304 144.131 56.0266C149.689 58.3228 154.44 62.2113 157.782 67.2004C161.124 72.1895 162.908 78.055 162.908 84.0554C162.899 92.0988 159.691 99.8102 153.989 105.498C148.287 111.185 140.556 114.385 132.492 114.394ZM132.492 54.5521C126.641 54.5521 120.922 56.2824 116.058 59.5243C111.194 62.7662 107.402 67.3741 105.163 72.7651C102.925 78.1562 102.339 84.0884 103.48 89.8115C104.622 95.5346 107.439 100.792 111.576 104.918C115.712 109.044 120.983 111.854 126.721 112.992C132.459 114.131 138.406 113.546 143.811 111.313C149.216 109.08 153.836 105.299 157.086 100.447C160.336 95.5948 162.071 89.8906 162.071 84.0554C162.062 76.2333 158.943 68.7341 153.398 63.2031C147.852 57.6721 140.334 54.5609 132.492 54.5521Z" fill="#515D70"/>
<path d="M128.399 99.6273C127.881 99.6273 127.37 99.507 126.907 99.2759C126.444 99.0447 126.041 98.7091 125.73 98.2957L117.546 87.4117C117.283 87.0621 117.092 86.6642 116.983 86.2408C116.874 85.8174 116.85 85.3768 116.912 84.9441C116.974 84.5114 117.121 84.0952 117.344 83.7191C117.568 83.343 117.863 83.0145 118.213 82.7522C118.564 82.49 118.963 82.2992 119.387 82.1908C119.812 82.0823 120.254 82.0583 120.687 82.1201C121.121 82.182 121.539 82.3284 121.916 82.5511C122.293 82.7738 122.622 83.0684 122.885 83.418L128.239 90.5381L141.991 69.964C142.234 69.6004 142.546 69.288 142.91 69.0448C143.275 68.8016 143.683 68.6323 144.113 68.5466C144.543 68.4608 144.985 68.4604 145.415 68.5452C145.845 68.63 146.254 68.7985 146.618 69.0409C146.983 69.2834 147.296 69.5951 147.54 69.9583C147.784 70.3214 147.953 70.7289 148.039 71.1575C148.125 71.5861 148.126 72.0274 148.041 72.4562C147.956 72.885 147.787 73.2928 147.544 73.6565L131.176 98.1451C130.88 98.588 130.482 98.9536 130.015 99.2113C129.548 99.4691 129.025 99.6113 128.492 99.6262C128.461 99.6268 128.43 99.6273 128.399 99.6273Z" fill="#2589FF"/>
<path d="M193.296 85.0785L183.49 58.0567C183.071 56.913 182.218 55.9796 181.115 55.4576C180.013 54.9357 178.748 54.8671 177.595 55.2668C176.999 55.4735 176.451 55.7993 175.985 56.2242C175.518 56.6491 175.144 57.1642 174.884 57.7382C174.624 58.3122 174.484 58.9329 174.472 59.5627C174.46 60.1924 174.577 60.8179 174.816 61.4011L185.865 89.1587L191.866 106.308C191.248 106.865 190.817 107.599 190.632 108.41C190.447 109.22 190.516 110.068 190.831 110.837C191.146 111.607 191.69 112.261 192.391 112.711C193.091 113.162 193.914 113.386 194.746 113.354C195.579 113.321 196.382 113.034 197.045 112.531C197.708 112.028 198.2 111.334 198.454 110.542C198.708 109.75 198.711 108.9 198.464 108.106C198.216 107.313 197.73 106.614 197.07 106.106L193.296 85.0785Z" fill="#FFC4C0"/>
<path d="M178.539 46.0229L186.49 60.2143C186.49 60.2143 168.166 66.4719 168.122 65.4301C168.077 64.3883 169.032 49.9307 169.032 49.9307L178.539 46.0229Z" fill="#E6E6E6"/>
</svg>
