<svg width="20" height="14" viewBox="0 0 20 14" fill="none" xmlns="http://www.w3.org/2000/svg">
<g clip-path="url(#clip0_2820_13476)">
<mask id="mask0_2820_13476" style="mask-type:alpha" maskUnits="userSpaceOnUse" x="0" y="0" width="20" height="14">
<path d="M18.0952 0H1.90476C0.852791 0 0 0.835735 0 1.86667V12.1333C0 13.1643 0.852791 14 1.90476 14H18.0952C19.1472 14 20 13.1643 20 12.1333V1.86667C20 0.835735 19.1472 0 18.0952 0Z" fill="white"/>
</mask>
<g mask="url(#mask0_2820_13476)">
<path d="M18.0952 0H1.90476C0.852791 0 0 0.835735 0 1.86667V12.1333C0 13.1643 0.852791 14 1.90476 14H18.0952C19.1472 14 20 13.1643 20 12.1333V1.86667C20 0.835735 19.1472 0 18.0952 0Z" fill="white"/>
<path fill-rule="evenodd" clip-rule="evenodd" d="M0 0H4.7619V14H0V0ZM15.2381 0H20V14H15.2381V0ZM10 3.73333L9.04762 5.6L7.61905 4.66667V6.53333L6.66667 7.46667L8.57143 8.4H9.52381V10.2667H10.4762V8.4H11.4286L13.3333 7.46667L12.381 6.53333V4.66667L10.8571 5.6L10 3.73333Z" fill="#FF0000"/>
<path d="M18.0952 0.466675H1.90477C1.11579 0.466675 0.476196 1.09348 0.476196 1.86667V12.1333C0.476196 12.9065 1.11579 13.5333 1.90477 13.5333H18.0952C18.8842 13.5333 19.5238 12.9065 19.5238 12.1333V1.86667C19.5238 1.09348 18.8842 0.466675 18.0952 0.466675Z" stroke="black" stroke-opacity="0.1"/>
</g>
</g>
<defs>
<clipPath id="clip0_2820_13476">
<rect width="20" height="14" fill="white"/>
</clipPath>
</defs>
</svg>
