<svg width="26" height="16" viewBox="0 0 26 16" fill="none" xmlns="http://www.w3.org/2000/svg">
<g clip-path="url(#clip0_430_15571)">
<path d="M15.5567 8C15.5567 12.4178 12.0738 16 7.77833 16C3.48292 16 0 12.4178 0 8C0 3.58217 3.48292 0 7.77833 0C12.0738 0 15.5567 3.58217 15.5567 8Z" fill="#ED1C2E"/>
<path d="M18.2217 0C16.2121 0 14.3795 0.783658 13.0001 2.07057C12.7202 2.3324 12.4566 2.61653 12.2146 2.91736H13.7855C14.0003 3.18663 14.1989 3.46889 14.3795 3.76416H11.6206C11.4563 4.03714 11.3046 4.31941 11.1728 4.61096H14.8273C14.9519 4.88579 15.062 5.16806 15.1559 5.45775H10.8442C10.7539 5.73445 10.6781 6.01671 10.6185 6.30455H15.3834C15.4971 6.85051 15.5585 7.4169 15.5585 7.99814C15.5585 8.88579 15.4177 9.74187 15.1577 10.5404H10.8442C10.9381 10.8301 11.0483 11.1123 11.1728 11.3872H14.8273C14.6937 11.6787 14.5438 11.9629 14.3795 12.234H11.6206C11.8012 12.5292 11.998 12.8115 12.2146 13.0808H13.7855C13.5435 13.3816 13.2817 13.6657 13.0001 13.9276C14.3813 15.2145 16.2121 15.9981 18.2217 15.9981C22.5171 15.9981 26.0001 12.416 26.0001 7.99814C26.0001 3.58217 22.5171 0 18.2217 0Z" fill="#FCB131"/>
<path d="M24.9636 12.4605C24.9636 12.3175 25.0756 12.2024 25.2146 12.2024C25.3536 12.2024 25.4656 12.3175 25.4656 12.4605C25.4656 12.6035 25.3536 12.7186 25.2146 12.7186C25.0756 12.7186 24.9636 12.6016 24.9636 12.4605ZM25.2146 12.6555C25.3193 12.6555 25.406 12.5682 25.406 12.4587C25.406 12.3491 25.3211 12.2618 25.2146 12.2618C25.1081 12.2618 25.0232 12.3491 25.0232 12.4587C25.0232 12.5682 25.1081 12.6555 25.2146 12.6555ZM25.1803 12.5738H25.1279V12.3472H25.2218C25.2417 12.3472 25.2615 12.3472 25.2778 12.3584C25.2958 12.3714 25.3049 12.3937 25.3049 12.4159C25.3049 12.4419 25.2904 12.4661 25.267 12.4754L25.3085 12.5757H25.2507L25.2164 12.4865H25.1785V12.5738H25.1803ZM25.1803 12.4438H25.2092C25.22 12.4438 25.2308 12.4438 25.2399 12.4401C25.2489 12.4345 25.2525 12.4234 25.2525 12.4141C25.2525 12.4048 25.2471 12.3955 25.2399 12.3918C25.2308 12.3862 25.2164 12.3881 25.2074 12.3881H25.1803V12.4438Z" fill="#FCB131"/>
<path d="M5.96195 8.87643C5.87348 8.86529 5.83376 8.86343 5.77417 8.86343C5.2957 8.86343 5.05376 9.03242 5.05376 9.36668C5.05376 9.57281 5.17112 9.7028 5.35709 9.7028C5.70015 9.70094 5.94751 9.36483 5.96195 8.87643ZM6.57584 10.3472C6.4639 10.3472 5.87528 10.3472 5.87528 10.3472L5.89153 10.0055C5.67848 10.2748 5.3932 10.4048 5.00681 10.4048C4.55001 10.4048 4.23584 10.0371 4.23584 9.5041C4.23584 8.70002 4.78112 8.23205 5.7182 8.23205C5.8139 8.23205 5.93667 8.24133 6.06306 8.25805C6.08834 8.14848 6.09556 8.10206 6.09556 8.04449C6.09556 7.82536 5.94931 7.74366 5.5539 7.74366C5.14042 7.73994 4.79917 7.84579 4.66015 7.89222C4.66917 7.83836 4.77751 7.14941 4.77751 7.14941C5.1982 7.02128 5.47626 6.97485 5.78862 6.97485C6.51445 6.97485 6.89723 7.30912 6.89723 7.94236C6.89903 8.11134 6.87195 8.32119 6.82862 8.59602C6.75459 9.07142 6.59751 10.0965 6.57584 10.3472Z" fill="#003473"/>
<path d="M3.882 10.3473H3.0388L3.52269 7.22749L2.44117 10.3473H1.867L1.79478 7.2442L1.28742 10.3473H0.496582L1.15742 6.28784H2.37075L2.44478 8.56082L3.18505 6.28784H4.53561L3.882 10.3473Z" fill="#003473"/>
<path d="M19.2653 8.87643C19.1768 8.86529 19.1371 8.86343 19.0775 8.86343C18.599 8.86343 18.3571 9.03242 18.3571 9.36668C18.3571 9.57281 18.4745 9.7028 18.6604 9.7028C19.0035 9.70094 19.2509 9.36483 19.2653 8.87643ZM19.8792 10.3472C19.7672 10.3472 19.1786 10.3472 19.1786 10.3472L19.1949 10.0055C18.9818 10.2748 18.6965 10.4048 18.3102 10.4048C17.8515 10.4048 17.5392 10.0371 17.5392 9.5041C17.5392 8.70002 18.0845 8.23205 19.0215 8.23205C19.1172 8.23205 19.24 8.24133 19.3664 8.25805C19.3917 8.14848 19.3989 8.10206 19.3989 8.04449C19.3989 7.82536 19.2527 7.74366 18.8572 7.74366C18.4438 7.73994 18.1025 7.84579 17.9635 7.89222C17.9725 7.83836 18.0809 7.14941 18.0809 7.14941C18.5015 7.02128 18.7796 6.97485 19.0902 6.97485C19.816 6.97485 20.1988 7.30912 20.1988 7.94236C20.2006 8.11134 20.1735 8.32119 20.1302 8.59602C20.0579 9.07142 19.9009 10.0965 19.8792 10.3472Z" fill="#003473"/>
<path d="M10.3296 10.2972C10.0985 10.3714 9.91793 10.4049 9.72293 10.4049C9.2914 10.4049 9.05487 10.1505 9.05487 9.68063C9.04946 9.53392 9.11626 9.15138 9.17043 8.80041C9.21918 8.49214 9.53696 6.54785 9.53696 6.54785H10.3765L10.279 7.04739H10.7864L10.6727 7.84033H10.1635C10.066 8.468 9.92696 9.2498 9.92515 9.35379C9.92515 9.52464 10.0136 9.59892 10.214 9.59892C10.3097 9.59892 10.3856 9.58963 10.4415 9.56735L10.3296 10.2972Z" fill="#003473"/>
<path d="M12.9026 10.2692C12.6137 10.3602 12.3356 10.4048 12.0413 10.4029C11.1006 10.4011 10.6113 9.89784 10.6113 8.93034C10.6113 7.80313 11.2342 6.97119 12.0811 6.97119C12.7726 6.97119 13.2149 7.43544 13.2149 8.16525C13.2149 8.40666 13.1842 8.64436 13.112 8.97676H11.4401C11.3841 9.45773 11.682 9.65643 12.1695 9.65643C12.4692 9.65643 12.7401 9.59329 13.0416 9.44844L12.9026 10.2692ZM12.4313 8.31381C12.4367 8.2451 12.5198 7.72514 12.0413 7.72514C11.7741 7.72514 11.5827 7.93498 11.5051 8.31381H12.4313Z" fill="#003473"/>
<path d="M7.08326 8.08906C7.08326 8.50689 7.28006 8.79473 7.72603 9.01014C8.06728 9.17542 8.12145 9.2237 8.12145 9.37412C8.12145 9.58024 7.96978 9.67309 7.63576 9.67309C7.38298 9.67309 7.15006 9.63224 6.87923 9.5431C6.87923 9.5431 6.76909 10.2711 6.76367 10.3063C6.95506 10.349 7.12659 10.3899 7.64298 10.4048C8.53312 10.4048 8.94478 10.0556 8.94478 9.30169C8.94478 8.84858 8.77326 8.58117 8.34895 8.38247C7.99506 8.21534 7.95353 8.1782 7.95353 8.02407C7.95353 7.8458 8.09437 7.7548 8.36701 7.7548C8.53312 7.7548 8.75881 7.77337 8.97367 7.80494L9.09464 7.03985C8.87617 7.00457 8.54395 6.97486 8.35076 6.97486C7.40645 6.973 7.07964 7.47997 7.08326 8.08906Z" fill="#003473"/>
<path d="M17.0102 7.06031C17.2449 7.06031 17.4634 7.12344 17.7649 7.27943L17.9039 6.39921C17.7794 6.34907 17.3442 6.05566 16.9759 6.05566C16.4107 6.05566 15.9323 6.3435 15.5964 6.82075C15.1071 6.65362 14.9049 6.9916 14.6576 7.32772L14.4391 7.37971C14.4553 7.26829 14.4716 7.15873 14.4662 7.04731H13.6898C13.5832 8.06866 13.3973 9.10302 13.2492 10.1262L13.2113 10.3491H14.0563C14.1971 9.40757 14.2748 8.80404 14.3217 8.3955L14.6395 8.21351C14.6864 8.03152 14.8363 7.97024 15.1342 7.97767C15.0963 8.19308 15.0746 8.41964 15.0746 8.65362C15.0746 9.73254 15.6416 10.4048 16.5498 10.4048C16.7845 10.4048 16.9849 10.3732 17.2955 10.2859L17.4435 9.36114C17.1637 9.50227 16.9344 9.56913 16.7267 9.56913C16.2356 9.56913 15.9395 9.19587 15.9395 8.5812C15.9377 7.68612 16.3801 7.06031 17.0102 7.06031Z" fill="#003473"/>
<path d="M24.1602 6.28784L23.9725 7.45961C23.7414 7.14764 23.494 6.92108 23.1672 6.92108C22.7411 6.92108 22.3529 7.25349 22.1001 7.74188C21.7462 7.66574 21.3815 7.53761 21.3815 7.53761V7.54132C21.4104 7.26834 21.4212 7.10121 21.4194 7.04364H20.643C20.5383 8.065 20.3505 9.09935 20.2025 10.1226L20.1646 10.3454H21.0096C21.1233 9.58403 21.2118 8.95079 21.275 8.4494C21.5639 8.18014 21.7083 7.94801 21.999 7.96287C21.8708 8.28413 21.795 8.65367 21.795 9.03436C21.795 9.85887 22.2012 10.403 22.8151 10.403C23.1239 10.403 23.3622 10.2934 23.5933 10.039L23.5536 10.3454H24.3534L24.9962 6.28784H24.1602ZM23.104 9.58403C22.8169 9.58403 22.6707 9.36491 22.6707 8.93408C22.6707 8.28598 22.9433 7.82545 23.3261 7.82545C23.6168 7.82545 23.7739 8.052 23.7739 8.47169C23.7739 9.12535 23.4958 9.58403 23.104 9.58403Z" fill="#003473"/>
<path d="M4.12577 10.1059H3.28077L3.76466 6.98613L2.68494 10.1059H2.10897L2.03855 7.0047L1.52938 10.1059H0.740356L1.39938 6.04834H2.61452L2.64883 8.56087L3.46675 6.04834H4.77938L4.12577 10.1059Z" fill="white"/>
<path d="M6.20575 8.63513C6.11728 8.62398 6.07756 8.62213 6.01797 8.62213C5.5395 8.62213 5.29756 8.79111 5.29756 9.12352C5.29756 9.32965 5.41672 9.45964 5.60089 9.45964C5.94214 9.46149 6.19131 9.12352 6.20575 8.63513ZM6.81964 10.1059C6.7077 10.1059 6.12089 10.1059 6.12089 10.1059L6.13714 9.76419C5.92408 10.0335 5.63881 10.1634 5.25242 10.1634C4.79381 10.1634 4.48145 9.79576 4.48145 9.26094C4.48145 8.45685 5.02672 7.98889 5.96381 7.98889C6.0595 7.98889 6.18228 7.99817 6.30867 8.01488C6.33395 7.90532 6.34117 7.85889 6.34117 7.79947C6.34117 7.58034 6.19492 7.50049 5.7995 7.50049C5.38603 7.49492 5.04478 7.60077 4.90575 7.64905C4.91478 7.5952 5.02311 6.90625 5.02311 6.90625C5.44381 6.77997 5.72186 6.73169 6.03422 6.73169C6.76006 6.73169 7.14283 7.06595 7.14283 7.69919C7.14464 7.86818 7.11756 8.07802 7.07422 8.35286C6.99839 8.83197 6.84131 9.85704 6.81964 10.1059Z" fill="white"/>
<path d="M18.146 6.15786L18.0069 7.03808C17.7054 6.88209 17.4869 6.81895 17.2522 6.81895C16.6221 6.81895 16.1797 7.44662 16.1797 8.33984C16.1797 8.95637 16.4776 9.32777 16.9687 9.32777C17.1764 9.32777 17.4057 9.26092 17.6855 9.11979L17.5375 10.0446C17.2269 10.1319 17.0247 10.1634 16.7918 10.1634C15.8818 10.1634 15.3167 9.49119 15.3167 8.41227C15.3167 6.96194 16.1003 5.94801 17.2179 5.94801C17.5862 5.94616 18.0214 6.10772 18.146 6.15786Z" fill="white"/>
<path d="M19.5073 8.63513C19.4188 8.62398 19.3791 8.62213 19.3195 8.62213C18.841 8.62213 18.5991 8.79111 18.5991 9.12352C18.5991 9.32965 18.7164 9.45964 18.9024 9.45964C19.2455 9.46149 19.4946 9.12352 19.5073 8.63513ZM20.123 10.1059C20.011 10.1059 19.4224 10.1059 19.4224 10.1059L19.4387 9.76419C19.2256 10.0335 18.9403 10.1634 18.5539 10.1634C18.0953 10.1634 17.783 9.79576 17.783 9.26094C17.783 8.45685 18.3282 7.98889 19.2653 7.98889C19.361 7.98889 19.4838 7.99817 19.6084 8.01488C19.6337 7.90532 19.6409 7.85889 19.6409 7.79947C19.6409 7.58034 19.4946 7.50049 19.0992 7.50049C18.6857 7.49492 18.3463 7.60077 18.2055 7.64905C18.2145 7.5952 18.3228 6.90625 18.3228 6.90625C18.7435 6.77997 19.0216 6.73169 19.3339 6.73169C20.0598 6.73169 20.4425 7.06595 20.4425 7.69919C20.4443 7.86818 20.4173 8.07802 20.3739 8.35286C20.3017 8.83197 20.1446 9.85704 20.123 10.1059Z" fill="white"/>
<path d="M10.5717 10.0557C10.3406 10.13 10.16 10.1634 9.965 10.1634C9.53347 10.1634 9.29694 9.90714 9.29694 9.43917C9.29152 9.29247 9.35833 8.90992 9.4125 8.55895C9.46125 8.25069 9.77902 6.3064 9.77902 6.3064H10.6186L10.5211 6.80593H10.9526L10.8389 7.59888H10.4074C10.3099 8.22654 10.1708 9.00835 10.169 9.11234C10.169 9.28318 10.2575 9.35746 10.4579 9.35746C10.5536 9.35746 10.6294 9.34818 10.6854 9.3259L10.5717 10.0557Z" fill="white"/>
<path d="M13.1464 10.0297C12.8575 10.1207 12.5794 10.1634 12.2851 10.1634C11.3444 10.1634 10.8551 9.65834 10.8551 8.69084C10.8551 7.56177 11.478 6.73169 12.323 6.73169C13.0164 6.73169 13.4569 7.19594 13.4569 7.92575C13.4569 8.16716 13.4262 8.403 13.354 8.73726H11.682C11.6261 9.21637 11.924 9.41507 12.4115 9.41507C12.7112 9.41507 12.9839 9.35193 13.2854 9.20708L13.1464 10.0297ZM12.6751 8.07245C12.6805 8.00374 12.7636 7.48378 12.2851 7.48378C12.0179 7.48378 11.8265 7.69362 11.7489 8.07245H12.6751Z" fill="white"/>
<path d="M7.3252 7.84961C7.3252 8.26744 7.522 8.55527 7.96798 8.77069C8.30923 8.93596 8.36339 8.98424 8.36339 9.13466C8.36339 9.34079 8.21353 9.43364 7.8777 9.43364C7.62492 9.43364 7.392 9.39278 7.12117 9.30365C7.12117 9.30365 7.01103 10.0316 7.00562 10.065C7.197 10.1077 7.36853 10.1486 7.88492 10.1634C8.77686 10.1634 9.18673 9.81433 9.18673 9.06038C9.18673 8.60727 9.0152 8.33986 8.59089 8.14116C8.237 7.97403 8.19548 7.93689 8.19548 7.78276C8.19548 7.60448 8.33631 7.51163 8.60895 7.51163C8.77506 7.51163 9.00075 7.5302 9.21562 7.56177L9.33659 6.79668C9.11811 6.7614 8.78589 6.73169 8.5927 6.73169C7.6502 6.73169 7.32339 7.23865 7.3252 7.84961Z" fill="white"/>
<path d="M24.5917 10.1059H23.7936L23.8334 9.7995C23.6023 10.0539 23.3639 10.1635 23.0552 10.1635C22.4413 10.1635 22.035 9.61937 22.035 8.79486C22.035 7.69737 22.6652 6.77257 23.4091 6.77257C23.7359 6.77257 23.985 6.90999 24.2161 7.22197L24.4039 6.04834H25.2363L24.5917 10.1059ZM23.3459 9.34268C23.7395 9.34268 24.0157 8.88399 24.0157 8.23033C24.0157 7.81064 23.8586 7.58409 23.568 7.58409C23.1852 7.58409 22.9125 8.04463 22.9125 8.69272C22.9143 9.12541 23.0588 9.34268 23.3459 9.34268Z" fill="white"/>
<path d="M20.8831 6.80595C20.7766 7.82731 20.5906 8.86166 20.4426 9.88302L20.4047 10.1059H21.2497C21.5512 8.08729 21.6252 7.6936 22.0983 7.74374C22.1741 7.33149 22.3149 6.96937 22.4197 6.78738C22.0658 6.71124 21.869 6.91737 21.609 7.30734C21.6288 7.13836 21.6667 6.97494 21.6595 6.80595H20.8831Z" fill="white"/>
<path d="M13.9317 6.80595C13.8252 7.82731 13.6374 8.86166 13.4912 9.88302L13.4532 10.1059H14.2982C14.5998 8.08729 14.6738 7.6936 15.1469 7.74374C15.2227 7.33149 15.3635 6.96937 15.4682 6.78738C15.1144 6.71124 14.9176 6.91737 14.6594 7.30734C14.6792 7.13836 14.7171 6.97494 14.7099 6.80595H13.9317Z" fill="white"/>
<path d="M24.9637 9.84772C24.9637 9.70473 25.0757 9.5896 25.2147 9.5896C25.3537 9.5896 25.4657 9.70473 25.4657 9.84772C25.4657 9.99071 25.3537 10.1058 25.2147 10.1058C25.0757 10.1058 24.9637 9.98886 24.9637 9.84772ZM25.2147 10.0446C25.3212 10.0446 25.4061 9.95729 25.4061 9.84772C25.4061 9.74002 25.3212 9.65088 25.2147 9.65088C25.11 9.65088 25.0233 9.73816 25.0233 9.84772C25.0233 9.95543 25.1082 10.0446 25.2147 10.0446ZM25.1804 9.961H25.1281V9.73445H25.2219C25.2418 9.73445 25.2617 9.73445 25.2779 9.74559C25.296 9.75859 25.3068 9.77901 25.3068 9.8013C25.3068 9.8273 25.2924 9.85144 25.2689 9.86072L25.3086 9.961H25.2508L25.2165 9.87187H25.1786V9.961H25.1804ZM25.1804 9.83101H25.2093C25.2201 9.83101 25.231 9.83287 25.24 9.8273C25.249 9.82173 25.2526 9.81058 25.2526 9.8013C25.2526 9.79201 25.2472 9.78273 25.24 9.77716C25.231 9.77159 25.2165 9.77344 25.2075 9.77344H25.1804V9.83101Z" fill="white"/>
</g>
<defs>
<clipPath id="clip0_430_15571">
<rect width="26" height="16" fill="white"/>
</clipPath>
</defs>
</svg>
