<svg width="10" height="8" viewBox="0 0 10 8" fill="none" xmlns="http://www.w3.org/2000/svg">
<path d="M9.2559 0.735645C9.17681 0.658964 9.08263 0.598588 8.979 0.558128C8.87536 0.517668 8.76441 0.497955 8.65277 0.500168C8.54113 0.50238 8.43109 0.526473 8.32924 0.571005C8.22739 0.615537 8.13582 0.679594 8.06 0.759345L4.21427 5.52625L1.89665 3.27045C1.73922 3.12774 1.53099 3.05004 1.31584 3.05373C1.10069 3.05743 0.895405 3.14222 0.743245 3.29025C0.591085 3.43828 0.503926 3.63799 0.500129 3.8473C0.496333 4.05662 0.576196 4.25919 0.722894 4.41235L3.65286 7.26388C3.73179 7.34053 3.82579 7.40093 3.92923 7.44147C4.03268 7.48201 4.14346 7.50187 4.25496 7.49986C4.36647 7.49785 4.47642 7.47401 4.57825 7.42977C4.68008 7.38552 4.7717 7.32178 4.84766 7.24233L9.26808 1.86677C9.41878 1.71434 9.50203 1.5105 9.49996 1.29901C9.49789 1.08752 9.41066 0.885259 9.25701 0.735645H9.2559Z" fill="currentColor"/>
</svg>
