<svg width="15" height="15" viewBox="0 0 15 15" fill="none" xmlns="http://www.w3.org/2000/svg">
<path d="M14.502 1.94003C14.5954 2.03375 14.6479 2.16069 14.6479 2.29303C14.6479 2.42536 14.5954 2.5523 14.502 2.64603L13.459 3.69003L11.459 1.69003L12.502 0.646027C12.5958 0.552292 12.7229 0.499634 12.8555 0.499634C12.9881 0.499634 13.1152 0.552292 13.209 0.646027L14.502 1.93903V1.94003ZM12.752 4.39603L10.752 2.39603L3.939 9.21003C3.88396 9.26505 3.84253 9.33217 3.818 9.40603L3.013 11.82C2.9984 11.864 2.99633 11.9112 3.00701 11.9564C3.0177 12.0015 3.04072 12.0427 3.07351 12.0755C3.10629 12.1083 3.14755 12.1313 3.19267 12.142C3.23779 12.1527 3.28499 12.1506 3.329 12.136L5.743 11.331C5.81676 11.3068 5.88387 11.2657 5.939 11.211L12.752 4.39603Z" fill="white"/>
<path fill-rule="evenodd" clip-rule="evenodd" d="M0 13.5C0 13.8979 0.158035 14.2794 0.43934 14.5607C0.720644 14.842 1.10218 15 1.5 15H12.5C12.8978 15 13.2794 14.842 13.5607 14.5607C13.842 14.2794 14 13.8979 14 13.5V7.50003C14 7.36742 13.9473 7.24024 13.8536 7.14647C13.7598 7.05271 13.6326 7.00003 13.5 7.00003C13.3674 7.00003 13.2402 7.05271 13.1464 7.14647C13.0527 7.24024 13 7.36742 13 7.50003V13.5C13 13.6326 12.9473 13.7598 12.8536 13.8536C12.7598 13.9473 12.6326 14 12.5 14H1.5C1.36739 14 1.24021 13.9473 1.14645 13.8536C1.05268 13.7598 1 13.6326 1 13.5V2.50003C1 2.36742 1.05268 2.24024 1.14645 2.14647C1.24021 2.05271 1.36739 2.00003 1.5 2.00003H8C8.13261 2.00003 8.25979 1.94735 8.35355 1.85358C8.44732 1.75981 8.5 1.63264 8.5 1.50003C8.5 1.36742 8.44732 1.24024 8.35355 1.14647C8.25979 1.05271 8.13261 1.00003 8 1.00003H1.5C1.10218 1.00003 0.720644 1.15806 0.43934 1.43937C0.158035 1.72067 0 2.1022 0 2.50003V13.5Z" fill="white"/>
</svg>
