<svg width="19" height="24" viewBox="0 0 19 24" fill="none" xmlns="http://www.w3.org/2000/svg">
<path fill-rule="evenodd" clip-rule="evenodd" d="M2.34571 16.3781L2.34202 16.3834L2.33846 16.3887C2.13965 16.6865 1.69432 16.774 1.34605 16.5138C1.06726 16.3055 0.983456 15.8413 1.22085 15.4745C1.57506 14.9968 1.8323 14.4383 2.00126 13.8924C2.17716 13.324 2.25896 12.6782 2.25577 12.0447C2.25259 11.4113 2.16428 10.7664 1.98267 10.2001C1.80823 9.6561 1.54537 9.10055 1.18638 8.62689C0.9453 8.26274 1.02443 7.79765 1.3011 7.5862C1.64673 7.32206 2.09292 7.40455 2.29471 7.70009L2.29833 7.70539L2.30207 7.7106C2.74889 8.33397 3.11538 9.02656 3.33439 9.70606C3.56493 10.5054 3.71177 11.2786 3.71559 12.0365C3.71961 12.8341 3.64757 13.589 3.37094 14.3321C3.06967 15.1414 2.77793 15.7616 2.34571 16.3781ZM5.57638 17.8584L5.58511 17.8454L5.59313 17.8318C6.58346 16.1531 7.15468 14.1275 7.14405 12.0172C7.13343 9.90749 6.54215 7.88888 5.53542 6.2217C5.31726 5.85567 5.41526 5.4229 5.78299 5.14187C6.02996 4.95313 6.4936 5.01996 6.7687 5.41C7.90532 7.3179 8.59186 9.62426 8.60387 12.009C8.61629 14.4751 7.95351 16.7066 6.83514 18.6285C6.57643 19.0052 6.18035 19.1108 5.83881 18.8972C5.46854 18.6102 5.40086 18.1214 5.57638 17.8584ZM11.3737 2.90225L11.3835 2.92263L11.3948 2.94211C12.9349 5.59867 13.7908 8.66293 13.8075 11.9797C13.8242 15.2949 13 18.3673 11.488 21.0402C11.2562 21.4346 10.8649 21.5457 10.4681 21.3504C10.107 21.1014 10.01 20.6888 10.1986 20.2721C11.4845 17.856 12.2841 15.009 12.2689 11.9883C12.2537 8.98118 11.5105 6.13867 10.1126 3.72244C9.92343 3.30988 10.0171 2.89899 10.3739 2.64717C10.8044 2.42961 11.2237 2.58907 11.3737 2.90225ZM15.934 0.374066L15.9407 0.387991L15.9481 0.401504C17.8144 3.81468 18.911 7.71694 18.9323 11.9508C18.9536 16.1803 17.8986 20.091 16.0702 23.5225C15.838 23.9123 15.4484 24.0215 15.0536 23.827C14.6936 23.5788 14.5961 23.1681 14.7823 22.7527C16.5437 19.5721 17.4923 15.8873 17.4725 11.959C17.4527 8.02064 16.3836 4.35007 14.6759 1.2009C14.462 0.741188 14.6127 0.290946 14.9114 0.130847C15.3498 -0.104149 15.7814 0.0553718 15.934 0.374066Z" fill="url(#paint0_linear_1728_13150)"/>
<defs>
<linearGradient id="paint0_linear_1728_13150" x1="9.93244" y1="0.0470397" x2="10.0582" y2="23.9495" gradientUnits="userSpaceOnUse">
<stop stop-color="white" stop-opacity="0.73"/>
<stop offset="1" stop-color="white"/>
</linearGradient>
</defs>
</svg>
