<svg width="21" height="14" viewBox="0 0 21 14" fill="none" xmlns="http://www.w3.org/2000/svg">
<mask id="mask0_478_17500" style="mask-type:alpha" maskUnits="userSpaceOnUse" x="0" y="0" width="21" height="14">
<path d="M19 0H2C0.89543 0 0 0.835735 0 1.86667V12.1333C0 13.1643 0.89543 14 2 14H19C20.1046 14 21 13.1643 21 12.1333V1.86667C21 0.835735 20.1046 0 19 0Z" fill="white"/>
</mask>
<g mask="url(#mask0_478_17500)">
<path d="M19 0H2C0.89543 0 0 0.835735 0 1.86667V12.1333C0 13.1643 0.89543 14 2 14H19C20.1046 14 21 13.1643 21 12.1333V1.86667C21 0.835735 20.1046 0 19 0Z" fill="white"/>
<path fill-rule="evenodd" clip-rule="evenodd" d="M0 0H9V6.53333H0V0Z" fill="#444379"/>
<path fill-rule="evenodd" clip-rule="evenodd" d="M1 0.933105V1.86644H2V0.933105H1ZM3 0.933105V1.86644H4V0.933105H3ZM5 0.933105V1.86644H6V0.933105H5ZM7 0.933105V1.86644H8V0.933105H7ZM6 1.86644V2.79977H7V1.86644H6ZM4 1.86644V2.79977H5V1.86644H4ZM2 1.86644V2.79977H3V1.86644H2ZM1 2.79977V3.73311H2V2.79977H1ZM3 2.79977V3.73311H4V2.79977H3ZM5 2.79977V3.73311H6V2.79977H5ZM7 2.79977V3.73311H8V2.79977H7ZM1 4.66644V5.59977H2V4.66644H1ZM3 4.66644V5.59977H4V4.66644H3ZM5 4.66644V5.59977H6V4.66644H5ZM7 4.66644V5.59977H8V4.66644H7ZM6 3.73311V4.66644H7V3.73311H6ZM4 3.73311V4.66644H5V3.73311H4ZM2 3.73311V4.66644H3V3.73311H2Z" fill="#A7B6E7"/>
<path fill-rule="evenodd" clip-rule="evenodd" d="M9 0V0.933333H21V0H9ZM9 1.86667V2.8H21V1.86667H9ZM9 3.73333V4.66667H21V3.73333H9ZM9 5.6V6.53333H21V5.6H9ZM0 7.46667V8.4H21V7.46667H0ZM0 9.33333V10.2667H21V9.33333H0ZM0 11.2V12.1333H21V11.2H0ZM0 13.0667V14H21V13.0667H0Z" fill="#ED4C49"/>
<path d="M19 0.466797H2C1.17157 0.466797 0.5 1.0936 0.5 1.8668V12.1335C0.5 12.9067 1.17157 13.5335 2 13.5335H19C19.8284 13.5335 20.5 12.9067 20.5 12.1335V1.8668C20.5 1.0936 19.8284 0.466797 19 0.466797Z" stroke="black" stroke-opacity="0.1"/>
</g>
</svg>
