<svg width="144" height="192" viewBox="0 0 144 192" fill="none" xmlns="http://www.w3.org/2000/svg">
<path fill-rule="evenodd" clip-rule="evenodd" d="M16.9081 16.9966C21.9716 11.9066 28.8392 9.04712 36 9.04712C43.1608 9.04712 50.0284 11.9066 55.0919 16.9966C60.1554 22.0866 63 28.9901 63 36.1885V90.4712H9V36.1885C9 28.9901 11.8446 22.0866 16.9081 16.9966ZM108 0H36C26.4522 0 17.2955 3.8127 10.5442 10.5994C3.79285 17.386 0 26.5907 0 36.1885V90.4712C0 92.8707 0.948212 95.1718 2.63604 96.8685C4.32387 98.5651 6.61305 99.5183 9 99.5183L67.2627 99.5183V192H76.298V99.5183L135 99.5183C137.387 99.5183 139.676 98.5651 141.364 96.8685C143.052 95.1718 144 92.8707 144 90.4712V36.1885C144 26.5907 140.207 17.386 133.456 10.5994C126.705 3.8127 117.548 0 108 0ZM68.8208 21.2958C66.7194 16.6154 63.6488 12.4396 59.814 9.04712H108C115.161 9.04712 122.028 11.9066 127.092 16.9966C132.155 22.0866 135 28.9901 135 36.1885V90.4712H72V36.1885C72.0061 31.0535 70.9222 25.9762 68.8208 21.2958ZM81 49.7592H106.137L113.814 57.4854C114.233 57.9052 114.73 58.2379 115.276 58.4646C115.823 58.6912 116.409 58.8073 117 58.8063H126C127.193 58.8063 128.338 58.3297 129.182 57.4814C130.026 56.633 130.5 55.4824 130.5 54.2827V45.2356C130.5 44.0359 130.026 42.8853 129.182 42.037C128.338 41.1886 127.193 40.712 126 40.712H81V49.7592ZM41.2605 37.6037C43.5252 38.5758 45 39.2088 45 36.1885C45 33.789 44.0518 31.4879 42.364 29.7912C40.6761 28.0945 38.3869 27.1414 36 27.1414C33.6131 27.1414 31.3239 28.0945 29.636 29.7912C27.9482 31.4879 27 33.789 27 36.1885C27 39.2088 28.4748 38.5758 30.7395 37.6037C32.2194 36.9685 34.0366 36.1885 36 36.1885C37.9634 36.1885 39.7806 36.9685 41.2605 37.6037Z" fill="url(#paint0_linear_209_21748)"/>
<defs>
<linearGradient id="paint0_linear_209_21748" x1="0" y1="110" x2="144" y2="110" gradientUnits="userSpaceOnUse">
<stop stop-color="#1976D2"/>
<stop offset="1" stop-color="#85147D"/>
</linearGradient>
</defs>
</svg>
