<svg width="40" height="40" viewBox="0 0 40 40" fill="none" xmlns="http://www.w3.org/2000/svg">
<path fill-rule="evenodd" clip-rule="evenodd" d="M0 39L11.8695 6.9269C13.3756 3.18233 16.1837 1.06265 19.9164 1.00137V1L19.9999 1.00034L20.0836 1V1.00137C23.8163 1.06265 26.6244 3.18233 28.1306 6.9269L40 39L32.65 36.4789L22.5105 9.08071C21.8934 7.56543 21.1807 7.01984 19.9999 6.99581C18.8191 7.01984 18.1066 7.56543 17.4895 9.08071L7.35003 36.4789L0 39ZM25.1646 26.7873C25.1646 29.5888 22.8837 31.86 20.0697 31.86C17.2559 31.86 14.9749 29.5888 14.9749 26.7873C14.9749 23.9857 17.2559 21.7146 20.0697 21.7146C22.8837 21.7146 25.1646 23.9857 25.1646 26.7873Z" fill="#3692FE"/>
</svg>
