<svg width="40" height="40" viewBox="0 0 40 40" fill="none" xmlns="http://www.w3.org/2000/svg">
<path d="M20.0001 -0.0001297C31.0458 -0.0001297 40 8.95403 40 19.9999C40 31.0458 31.0458 40 20.0001 40C8.95447 40 0 31.0458 0 19.9999C0 8.95403 8.95447 -0.0001297 20.0001 -0.0001297Z" fill="#EBB219"/>
<path d="M14.8252 17.8516L17.8536 14.8332L18.4918 14.1949L20.005 12.6817L25.1583 17.8516L28.1585 14.8332L20.005 6.6666L11.8252 14.8332L14.8252 17.8516Z" fill="white"/>
<path d="M16.9971 19.9949L20.0093 16.9825L23.0216 19.9949L20.0093 23.0073L16.9971 19.9949Z" fill="white"/>
<path d="M25.1583 22.1548L20.0035 27.31L18.1935 25.5001L17.8601 25.1666L14.8252 22.1548L11.8252 25.1552L20.005 33.3218L28.1585 25.1552L25.1583 22.1548Z" fill="white"/>
<path d="M6.66699 20.0032L9.67925 16.9908L12.6915 20.0032L9.67925 23.0156L6.66699 20.0032Z" fill="white"/>
<path d="M27.3096 20.0017L30.322 16.9893L33.3343 20.0017L30.322 23.0142L27.3096 20.0017Z" fill="white"/>
</svg>
