<svg width="112" height="24" viewBox="0 0 112 24" fill="none" xmlns="http://www.w3.org/2000/svg">
<path fill-rule="evenodd" clip-rule="evenodd" d="M61.2798 15.2552C61.2798 15.4668 61.2586 15.6837 61.2022 15.8724C60.9641 16.6623 60.1442 17.3342 59.118 17.3342C58.2663 17.3342 57.584 16.8457 57.584 15.8213C57.584 14.2519 59.312 13.8199 61.2815 13.8287V15.2552H61.2798ZM64.3619 12.5221C64.3619 9.93363 63.2564 7.65723 59.5218 7.65723C57.6051 7.65723 56.0817 8.19503 55.2512 8.67464L55.8577 10.7553C56.6195 10.2739 57.8273 9.87897 58.9734 9.87897C60.8689 9.87368 61.1775 10.951 61.1775 11.6423V11.8045C57.0479 11.7992 54.4365 13.2292 54.4365 16.1422C54.4365 17.9231 55.7678 19.5894 58.0777 19.5894C59.5006 19.5894 60.6891 19.0234 61.4014 18.1153H61.472C61.472 18.1153 61.9428 20.0866 64.5418 19.3355C64.4078 18.512 64.3619 17.6339 64.3619 16.5812V12.5221Z" fill="white"/>
<path fill-rule="evenodd" clip-rule="evenodd" d="M0 4.12988C0 4.12988 2.69965 15.1892 3.13167 16.9843C3.63245 19.0826 4.54057 19.8514 7.15205 19.3347L8.8378 12.4755C9.26452 10.7722 9.55194 9.55905 9.82526 7.82397H9.87287C10.0668 9.57492 10.3419 10.7775 10.6928 12.4826C10.6928 12.4826 11.3787 15.5948 11.7297 17.2294C12.0806 18.8622 13.061 19.8937 15.6213 19.3347L19.6399 4.13165H16.3972L15.0253 10.7034C14.655 12.6148 14.32 14.1119 14.0643 15.861H14.0167C13.7822 14.1277 13.4859 12.6924 13.1103 10.8286L11.682 4.12988H8.30527L6.77823 10.6593C6.34445 12.643 5.94065 14.2459 5.6832 15.9369H5.63559C5.37109 14.3446 5.02019 12.3309 4.64108 10.4107C4.64108 10.4107 3.73296 5.73977 3.41556 4.12988H0Z" fill="white"/>
<path fill-rule="evenodd" clip-rule="evenodd" d="M25.7686 15.2552C25.7686 15.4668 25.751 15.6837 25.6928 15.8724C25.4547 16.6623 24.6348 17.3342 23.6104 17.3342C22.757 17.3342 22.0763 16.8457 22.0763 15.8213C22.0763 14.2519 23.8026 13.8199 25.7686 13.8287V15.2552ZM28.8526 12.5221C28.8526 9.93363 27.7488 7.65723 24.0124 7.65723C22.094 7.65723 20.5723 8.19503 19.74 8.67464L20.3501 10.7553C21.1083 10.2739 22.3179 9.87897 23.4658 9.87897C25.3595 9.87368 25.6716 10.951 25.6716 11.6423V11.8045C21.5385 11.7992 18.9307 13.2292 18.9307 16.1422C18.9307 17.9231 20.2602 19.5894 22.5683 19.5894C23.9895 19.5894 25.1797 19.0234 25.892 18.1153H25.9626C25.9626 18.1153 26.4351 20.0866 29.0359 19.3355C28.8984 18.512 28.8543 17.6339 28.8543 16.5812V12.5221H28.8526Z" fill="white"/>
<path fill-rule="evenodd" clip-rule="evenodd" d="M34.0017 16.1044V4.12988H30.916V19.3347H34.0017V16.1044Z" fill="white"/>
<path fill-rule="evenodd" clip-rule="evenodd" d="M74.3911 4.12988V15.3462C74.3911 16.889 74.6803 17.9752 75.3045 18.6365C75.8476 19.2148 76.7415 19.5886 77.8136 19.5886C78.7287 19.5886 79.6262 19.4158 80.0494 19.2589L80.0089 16.845C79.695 16.9225 79.3318 16.9825 78.8381 16.9825C77.7872 16.9825 77.4345 16.3124 77.4345 14.9212V10.6347H80.1217V7.72523H77.4345V4.12988H74.3911Z" fill="white"/>
<path fill-rule="evenodd" clip-rule="evenodd" d="M66.4214 7.90764V19.3285H69.6058V13.4779C69.6058 13.164 69.627 12.8889 69.6746 12.635C69.9109 11.4113 70.8472 10.6284 72.1943 10.6284C72.5628 10.6284 72.8273 10.6672 73.1112 10.7077V7.72073C72.8732 7.67136 72.711 7.64844 72.4112 7.64844C71.2228 7.64844 69.8721 8.41547 69.3043 10.0606H69.2162V7.90764H66.4214Z" fill="white"/>
<path fill-rule="evenodd" clip-rule="evenodd" d="M36.1611 7.91467V19.3355H39.2628V12.6368C39.2628 12.3211 39.2999 11.9896 39.4092 11.7022C39.6649 11.0286 40.2926 10.2369 41.2959 10.2369C42.5479 10.2369 43.1333 11.2967 43.1333 12.8254V19.3355H46.2333V12.5574C46.2333 12.2559 46.2756 11.8962 46.362 11.6317C46.6177 10.8646 47.293 10.2387 48.2258 10.2387C49.4954 10.2387 50.1038 11.2808 50.1038 13.0793V19.3373H53.209V12.6085C53.209 9.0608 51.4069 7.65723 49.372 7.65723C48.4709 7.65723 47.7603 7.88293 47.1184 8.27614C46.5771 8.60764 46.094 9.07844 45.6725 9.69911H45.6267C45.1347 8.46834 43.9833 7.65723 42.4774 7.65723C40.5483 7.65723 39.679 8.63409 39.1517 9.46812H39.1059V7.91643H36.1611V7.91467Z" fill="white"/>
<path fill-rule="evenodd" clip-rule="evenodd" d="M97.4317 8.07939C97.9924 8.07939 98.4544 7.78668 98.5179 7.40758L99.0733 1.1285C99.0733 0.509591 98.3451 0 97.4317 0C96.5201 0 95.7919 0.509591 95.7919 1.1285L96.3473 7.40758C96.409 7.78668 96.8745 8.07939 97.4335 8.07939H97.4317Z" fill="#F2AE48"/>
<path fill-rule="evenodd" clip-rule="evenodd" d="M94.0404 10.0378C94.3226 9.55289 94.2996 9.0045 94.0034 8.76293L88.8423 5.14114C88.3063 4.8308 87.4987 5.20462 87.0456 5.99633C86.5871 6.78805 86.6682 7.67146 87.2043 7.9818L92.919 10.6426C93.277 10.7748 93.7636 10.5192 94.0457 10.0343L94.0404 10.0378Z" fill="#F2AE48"/>
<path fill-rule="evenodd" clip-rule="evenodd" d="M100.83 10.0343C101.112 10.5192 101.597 10.7766 101.955 10.6426L107.67 7.9818C108.206 7.67146 108.283 6.78629 107.827 5.99633C107.372 5.20462 106.566 4.8308 106.028 5.14114L100.869 8.76293C100.573 9.0045 100.553 9.55112 100.832 10.0378L100.83 10.0343Z" fill="#F2AE48"/>
<path fill-rule="evenodd" clip-rule="evenodd" d="M97.4317 15.9188C97.9924 15.9188 98.4544 16.2115 98.5179 16.5889L99.0733 22.8697C99.0733 23.4886 98.3451 24 97.4317 24C96.5201 24 95.7919 23.4886 95.7919 22.8697L96.3473 16.5889C96.409 16.2115 96.8745 15.9188 97.4335 15.9188H97.4317Z" fill="#F2AE48"/>
<path fill-rule="evenodd" clip-rule="evenodd" d="M100.83 13.9609C101.112 13.4743 101.597 13.2186 101.955 13.3526L107.67 16.0117C108.206 16.322 108.284 17.2054 107.827 17.9989C107.372 18.7888 106.566 19.1644 106.028 18.8558L100.869 15.234C100.573 14.9889 100.553 14.4423 100.832 13.9574L100.83 13.9609Z" fill="#F2AE48"/>
<path fill-rule="evenodd" clip-rule="evenodd" d="M94.0406 13.9584C94.3227 14.4433 94.2998 14.9899 94.0035 15.235L88.8425 18.8515C88.3064 19.1618 87.4989 18.788 87.0457 17.9981C86.5872 17.2046 86.6684 16.3229 87.2044 16.0108L92.9191 13.3536C93.2735 13.2178 93.7602 13.4717 94.0406 13.9584Z" fill="#F2AE48"/>
<path fill-rule="evenodd" clip-rule="evenodd" d="M108.192 19.88C108.248 19.9135 108.337 19.9434 108.426 19.9434C108.541 19.9434 108.605 19.8905 108.605 19.8112C108.605 19.7354 108.555 19.693 108.43 19.649C108.271 19.589 108.169 19.5061 108.169 19.3651C108.169 19.2046 108.301 19.0829 108.513 19.0829C108.617 19.0829 108.696 19.1059 108.747 19.1341L108.702 19.2787C108.666 19.2593 108.599 19.2311 108.509 19.2311C108.395 19.2311 108.349 19.2928 108.349 19.3474C108.349 19.425 108.404 19.4585 108.534 19.5079C108.702 19.5696 108.784 19.6578 108.784 19.7971C108.784 19.954 108.668 20.0898 108.416 20.0898C108.312 20.0898 108.204 20.0616 108.151 20.0298L108.192 19.88Z" fill="#F2AE48"/>
<path fill-rule="evenodd" clip-rule="evenodd" d="M109.771 19.68C109.764 19.5549 109.757 19.4032 109.757 19.271H109.753C109.723 19.3891 109.683 19.5214 109.637 19.6448L109.496 20.068H109.358L109.228 19.6518C109.191 19.5266 109.156 19.3944 109.131 19.2727H109.129C109.126 19.3997 109.117 19.5549 109.111 19.6889L109.09 20.0803H108.925L108.99 19.1052H109.223L109.351 19.4967C109.387 19.6095 109.415 19.7259 109.441 19.8335H109.445C109.469 19.7294 109.505 19.6078 109.542 19.4949L109.676 19.1035H109.907L109.965 20.0786H109.79L109.771 19.68Z" fill="#F2AE48"/>
</svg>
