<svg width="79" height="24" viewBox="0 0 79 24" fill="none" xmlns="http://www.w3.org/2000/svg">
<path fill-rule="evenodd" clip-rule="evenodd" d="M49.0056 18.7698C44.4156 22.1848 37.7613 24 32.0297 24C23.9986 24 16.7663 21.0067 11.2932 16.0245C10.866 15.6336 11.2483 15.0979 11.7653 15.4019C17.6693 18.8676 24.9734 20.9542 32.5126 20.9542C37.5998 20.9542 43.1932 19.8901 48.3378 17.6894C49.1133 17.3582 49.7649 18.2052 49.0056 18.7698Z" fill="#FCAF17"/>
<path fill-rule="evenodd" clip-rule="evenodd" d="M50.9217 16.5747C50.3329 15.8165 47.0408 16.2146 45.5598 16.3938C45.1129 16.4481 45.0429 16.0535 45.4467 15.7676C48.0729 13.9054 52.3775 14.4447 52.8801 15.0654C53.3845 15.6952 52.749 20.0458 50.2862 22.1234C49.9075 22.4437 49.5467 22.2718 49.7154 21.8501C50.2683 20.4566 51.5105 17.333 50.9217 16.5747Z" fill="#FCAF17"/>
<path fill-rule="evenodd" clip-rule="evenodd" d="M45.6693 2.62503V0.817096C45.6711 0.540206 45.8776 0.357422 46.1235 0.357422H54.1618C54.4185 0.357422 54.6249 0.547445 54.6249 0.815287V2.36443C54.6231 2.62322 54.4059 2.96345 54.02 3.50275L49.859 9.49662C51.4028 9.46043 53.0399 9.69207 54.4418 10.4884C54.7577 10.6675 54.8439 10.9336 54.8672 11.1942V13.1233C54.8672 13.3894 54.58 13.697 54.2767 13.536C51.8013 12.2311 48.5199 12.0864 45.7842 13.5541C45.5024 13.7025 45.2116 13.3984 45.2116 13.1342V11.2991C45.2116 11.0041 45.2152 10.5028 45.5096 10.0576L50.3329 3.07927H46.1343C45.8758 3.07927 45.6711 2.89468 45.6693 2.62503Z" fill="white"/>
<path fill-rule="evenodd" clip-rule="evenodd" d="M16.3507 13.9133H13.9059C13.6725 13.8988 13.4858 13.7215 13.4697 13.497V0.845134C13.4697 0.59177 13.6815 0.389079 13.9436 0.389079H16.2197C16.4566 0.399937 16.6505 0.582721 16.6649 0.814368V2.46666H16.7097C17.3021 0.868661 18.4222 0.123047 19.9283 0.123047C21.4595 0.123047 22.4162 0.868661 23.1019 2.46666C23.6943 0.868661 25.0406 0.123047 26.4784 0.123047C27.5052 0.123047 28.6253 0.548336 29.3093 1.5075C30.0847 2.57163 29.9268 4.11715 29.9268 5.47446L29.925 13.459C29.925 13.7124 29.7131 13.9151 29.4529 13.9151H27.0098C26.7639 13.9006 26.5718 13.7034 26.5718 13.4608V6.75213C26.5718 6.22007 26.6167 4.8881 26.5018 4.38318C26.3187 3.53079 25.7712 3.29191 25.0639 3.29191C24.4698 3.29191 23.8541 3.69005 23.6028 4.3307C23.3515 4.96954 23.3766 6.03367 23.3766 6.75213V13.459C23.3766 13.7124 23.1648 13.9151 22.9045 13.9151H20.4614C20.2155 13.9006 20.0234 13.7034 20.0234 13.4608L20.0216 6.75213C20.0216 5.34234 20.2478 3.26476 18.5156 3.26476C16.7582 3.26476 16.8264 5.28805 16.8264 6.75213L16.8228 13.459C16.8228 13.7106 16.6128 13.9133 16.3507 13.9133Z" fill="white"/>
<path fill-rule="evenodd" clip-rule="evenodd" d="M61.5427 0.123047C65.1723 0.123047 67.1361 3.26657 67.1361 7.25886C67.1361 11.119 64.9676 14.1811 61.5427 14.1811C57.9813 14.1811 56.0426 11.0376 56.0426 7.12494C56.0426 3.18694 58.0046 0.123047 61.5427 0.123047ZM61.566 2.70736C59.7638 2.70736 59.6489 5.18309 59.6489 6.7268C59.6489 8.27232 59.6273 11.5751 61.5427 11.5751C63.4382 11.5751 63.5298 8.91115 63.5298 7.28782C63.5298 6.22188 63.4849 4.9442 63.1636 3.93255C62.8889 3.05302 62.3415 2.70736 61.566 2.70736Z" fill="white"/>
<path fill-rule="evenodd" clip-rule="evenodd" d="M71.8341 13.9133H69.3982C69.1541 13.8988 68.9603 13.7015 68.9603 13.459L68.9567 0.79989C68.9782 0.568243 69.181 0.387269 69.4288 0.387269H71.6959C71.9077 0.398128 72.0854 0.544717 72.1303 0.740169V2.6784H72.1752C72.8609 0.948289 73.8177 0.123047 75.5068 0.123047C76.6036 0.123047 77.6753 0.52119 78.361 1.61427C79 2.62592 79 4.3307 79 5.55589V13.5151C78.9713 13.7395 78.7738 13.9133 78.5315 13.9133H76.0795C75.8533 13.8988 75.6702 13.7305 75.645 13.5151V6.64536C75.645 5.2609 75.8048 3.23942 74.1139 3.23942C73.5215 3.23942 72.9722 3.63757 72.6994 4.25107C72.3583 5.02202 72.3098 5.79478 72.3098 6.64717V13.4608C72.3062 13.7106 72.0944 13.9133 71.8341 13.9133Z" fill="white"/>
<path fill-rule="evenodd" clip-rule="evenodd" d="M39.253 7.87057C39.253 8.83154 39.2745 9.63145 38.7952 10.4856C38.4057 11.1788 37.79 11.6059 37.1025 11.6059C36.1637 11.6059 35.6144 10.8874 35.6144 9.81785C35.6144 7.71855 37.483 7.3367 39.253 7.3367V7.87057ZM41.7176 13.8825C41.556 14.0291 41.3227 14.04 41.1396 13.9386C40.3264 13.2582 40.181 12.9451 39.7394 12.2972C38.3967 13.6744 37.4453 14.0888 35.7077 14.0888C33.6488 14.0888 32.0476 12.8075 32.0476 10.2468C32.0476 8.24519 33.1228 6.88607 34.654 6.21646C35.9806 5.63011 37.8349 5.52333 39.253 5.36408V5.04375C39.253 4.45559 39.2978 3.76245 38.955 3.25573C38.6588 2.79967 38.0862 2.61508 37.5818 2.61508C36.6501 2.61508 35.8226 3.09647 35.6162 4.09545C35.5749 4.31805 35.4133 4.53702 35.1925 4.54969L32.8231 4.2909C32.622 4.24566 32.3994 4.08459 32.4569 3.77693C33.0026 0.875915 35.6 0 37.9246 0C39.113 0 40.6711 0.320324 41.6063 1.22701C42.7982 2.34724 42.6833 3.84208 42.6833 5.47085V9.31112C42.6833 10.4657 43.159 10.9725 43.606 11.595C43.7622 11.8194 43.7963 12.0855 43.597 12.2483C43.098 12.6718 42.2094 13.45 41.723 13.888L41.7176 13.8825Z" fill="white"/>
<path fill-rule="evenodd" clip-rule="evenodd" d="M7.20536 7.87057C7.20536 8.83154 7.2269 9.63145 6.74762 10.4856C6.35809 11.1788 5.74239 11.6059 5.05488 11.6059C4.11607 11.6059 3.56678 10.8874 3.56678 9.81785C3.56678 7.71855 5.43723 7.3367 7.20536 7.3367V7.87057ZM9.66997 13.8825C9.50842 14.0291 9.27506 14.04 9.09197 13.9386C8.27881 13.2582 8.13341 12.9451 7.68823 12.2972C6.34732 13.6744 5.39594 14.0888 3.65833 14.0888C1.60119 14.0888 0 12.8075 0 10.2468C0 8.24519 1.07524 6.88607 2.60642 6.21646C3.93297 5.63011 5.78727 5.52333 7.20536 5.36408V5.04375C7.20536 4.45559 7.25024 3.76245 6.90738 3.25573C6.6112 2.79967 6.03857 2.61508 5.53416 2.61508C4.60253 2.61508 3.77142 3.09647 3.56857 4.09545C3.52729 4.31805 3.36573 4.53702 3.14494 4.54969L0.775465 4.28909C0.574418 4.24385 0.351831 4.08278 0.409273 3.77512C0.954971 0.875915 3.55242 0 5.87881 0C7.06714 0 8.62525 0.320324 9.56227 1.22701C10.7506 2.34724 10.6375 3.84208 10.6375 5.47085V9.31112C10.6375 10.4657 11.1132 10.9725 11.5602 11.595C11.7163 11.8194 11.7504 12.0855 11.5512 12.2483C11.0522 12.6718 10.1636 13.45 9.67715 13.888L9.66997 13.8825Z" fill="white"/>
</svg>
