<svg width="40" height="40" viewBox="0 0 40 40" fill="none" xmlns="http://www.w3.org/2000/svg">
<path d="M20 40C31.0457 40 40 31.0457 40 20C40 8.9543 31.0457 0 20 0C8.9543 0 0 8.9543 0 20C0 31.0457 8.9543 40 20 40Z" fill="#E6E6E6"/>
<path fill-rule="evenodd" clip-rule="evenodd" d="M30.1717 14.2025C29.0251 13.7539 27.7466 13.378 26.3668 13.0916C26.8747 13.8149 27.3648 14.5729 27.8323 15.3621C28.3407 16.2205 28.8038 17.0847 29.2208 17.9471C29.6607 16.6477 29.978 15.3887 30.1717 14.2025ZM28.4371 19.998C27.8976 18.7302 27.2476 17.441 26.4879 16.1583C25.7557 14.9221 24.9692 13.7723 24.1499 12.7215C22.8279 12.552 21.4373 12.4611 20 12.4611C18.5628 12.4611 17.1722 12.552 15.8503 12.7215C15.0314 13.7719 14.2453 14.9212 13.5134 16.1569C12.7534 17.4401 12.1032 18.7297 11.5636 19.998C12.1035 21.2673 12.7541 22.558 13.5147 23.8422C14.2469 25.0785 15.0335 26.2284 15.8529 27.2792C17.174 27.4485 18.5637 27.5393 20 27.5393C21.4364 27.5393 22.8261 27.4485 24.1473 27.2792C24.9671 26.228 25.754 25.0776 26.4866 23.8408C27.2469 22.5571 27.8973 21.2669 28.4371 19.998ZM26.3642 26.9093C26.8726 26.1854 27.3631 25.4269 27.831 24.637C28.34 23.7775 28.8037 22.9123 29.221 22.0489C29.6615 23.3497 29.9792 24.61 30.1731 25.7974C29.0254 26.2464 27.7456 26.6227 26.3642 26.9093ZM22.6991 28.998C21.8183 29.0664 20.9168 29.1018 20 29.1018C19.0832 29.1018 18.1817 29.0664 17.3009 28.998C18.1866 29.9692 19.0943 30.825 19.9998 31.5509C20.9053 30.825 21.8132 29.9693 22.6991 28.998ZM21.3005 32.5057C22.5593 31.4573 23.8028 30.1903 24.9805 28.7412C26.935 28.4506 28.7517 27.9927 30.3628 27.3969C30.5944 30.6549 29.758 32.8988 28.1907 33.8272C26.6101 34.7633 24.2134 34.4045 21.438 32.5962C21.3922 32.5664 21.3464 32.5362 21.3005 32.5057ZM18.6988 32.5055C17.4403 31.4571 16.197 30.1902 15.0197 28.7412C13.0656 28.4507 11.2492 27.9929 9.63837 27.3973C9.40721 30.6543 10.2435 32.8976 11.8106 33.8257C13.3912 34.7619 15.7878 34.4031 18.5632 32.5948C18.6084 32.5654 18.6536 32.5356 18.6988 32.5055ZM8.12413 26.7689C8.10986 26.9115 8.09737 27.0532 8.08665 27.1937C7.82137 30.673 8.64123 33.7646 11.0143 35.1701C13.3874 36.5757 16.4925 35.8088 19.4162 33.904C19.6105 33.7774 19.805 33.6452 19.9996 33.5075C20.1949 33.6457 20.3901 33.7784 20.5851 33.9054C23.5088 35.8102 26.6139 36.5771 28.987 35.1715C31.36 33.766 32.1799 30.6744 31.9146 27.1951C31.9038 27.0539 31.8913 26.9117 31.8769 26.7684C32.007 26.7079 32.1353 26.6465 32.2617 26.5841C35.3906 25.0392 37.6328 22.7583 37.6328 20.0002C37.6328 17.2421 35.3906 14.9612 32.2617 13.4163C32.1348 13.3537 32.0061 13.292 31.8756 13.2314C31.89 13.0879 31.9025 12.9454 31.9133 12.804C32.1786 9.32466 31.3587 6.23311 28.9857 4.82758C26.6126 3.42204 23.5075 4.1889 20.5838 6.09372C20.3893 6.22047 20.1945 6.35285 19.9996 6.49073C19.8055 6.35336 19.6113 6.22145 19.4175 6.09513C16.4938 4.19031 13.3887 3.42345 11.0156 4.82899C8.64252 6.23452 7.82266 9.32607 8.08794 12.8054C8.09867 12.9462 8.11119 13.088 8.12548 13.2309C7.99459 13.2917 7.8655 13.3535 7.73827 13.4163C4.6094 14.9612 2.36719 17.2421 2.36719 20.0002C2.36719 22.7583 4.6094 25.0392 7.73827 26.5841C7.86506 26.6467 7.9937 26.7083 8.12413 26.7689ZM9.82784 25.7977C10.9754 26.2467 12.255 26.6228 13.6361 26.9093C13.128 26.1859 12.6378 25.4278 12.1703 24.6384C11.661 23.7786 11.1972 22.9129 10.7797 22.0491C10.3392 23.35 10.0216 24.6103 9.82784 25.7977ZM9.87314 19.9979C9.16272 21.7695 8.65393 23.5078 8.35497 25.1457C5.43405 23.6847 3.92969 21.8217 3.92969 20.0002C3.92969 18.1784 5.43453 16.3151 8.35636 14.854C8.65516 16.4908 9.16347 18.2277 9.87314 19.9979ZM10.7799 17.9468C11.197 17.0841 11.6603 16.2195 12.169 15.3607C12.6361 14.572 13.1259 13.8145 13.6335 13.0916C12.254 13.3779 10.9757 13.7537 9.82925 14.2021C10.0229 15.3883 10.3401 16.6474 10.7799 17.9468ZM18.6987 7.49265C18.6539 7.46285 18.6092 7.43339 18.5645 7.40427C15.7891 5.59605 13.3925 5.23719 11.8118 6.17336C10.2447 7.10157 9.40837 9.34514 9.63971 12.6026C11.2495 12.0075 13.0645 11.55 15.017 11.2596C16.1951 9.80946 17.4393 8.54165 18.6987 7.49265ZM17.2982 11.0026C18.1848 10.0303 19.0934 9.1737 19.9997 8.44721C20.9062 9.17365 21.815 10.0302 22.7017 11.0026C21.8201 10.9341 20.9177 10.8986 20 10.8986C19.0823 10.8986 18.1799 10.9341 17.2982 11.0026ZM21.3007 7.49249C21.3461 7.46227 21.3914 7.43239 21.4367 7.40286C24.2121 5.59464 26.6088 5.23578 28.1894 6.17195C29.7569 7.10034 30.5932 9.34457 30.3614 12.603C28.7514 12.0078 26.9361 11.5501 24.9831 11.2596C23.8047 9.80934 22.5603 8.54146 21.3007 7.49249ZM31.6446 14.8544C34.5658 16.3155 36.0703 18.1786 36.0703 20.0002C36.0703 21.8215 34.5663 23.6843 31.6459 25.1453C31.3469 23.5074 30.838 21.7693 30.1276 19.9979C30.8372 18.2279 31.3456 16.4911 31.6446 14.8544Z" fill="#31A6E0"/>
<path d="M22.1406 22.5391H20.5469V23.6562H19.875V22.5547C19.7031 22.5547 19.5234 22.5547 19.3359 22.5469V23.6484H18.6641V22.5312C18.5078 22.5312 18.3437 22.5312 18.1875 22.5234H17.3125L17.4453 21.7188C17.4453 21.7188 17.9453 21.7266 17.9297 21.7188C18.1172 21.7188 18.1719 21.5781 18.1797 21.5V18.4766C18.1562 18.3438 18.0625 18.1797 17.7969 18.1797C17.8047 18.1719 17.3125 18.1797 17.3125 18.1797V17.4609H18.2422C18.3828 17.4609 18.5234 17.4609 18.6719 17.4531V16.3516H19.3438V17.4297C19.5234 17.4297 19.7031 17.4219 19.8828 17.4219V16.3438H20.5547V17.4453H22.1562C22.1562 17.4453 22.1562 18.2031 22.1562 18.1641H19.3672V19.5547H21.6328V20.2344H19.3672V21.6875H22.0234L22.1406 22.5391Z" fill="#103342"/>
</svg>
