<svg width="40" height="40" viewBox="0 0 40 40" fill="none" xmlns="http://www.w3.org/2000/svg">
<path fill-rule="evenodd" clip-rule="evenodd" d="M20 0C31.0459 0 40 8.95413 40 20C40 31.0459 31.0459 40 20 40C8.95467 40 0 31.0459 0 20C0 8.95413 8.95467 0 20 0Z" fill="#5D71C0"/>
<path d="M29.9938 20.2744L20.6226 16.0871V4.99942L29.9938 20.2744Z" fill="#B8C0E7"/>
<path d="M20.6224 4.99942L11.25 20.2744L20.6224 16.0871V4.99942Z" fill="white"/>
<path d="M20.6226 34.9941V27.4604L30.0004 22.0206L20.6226 34.9941Z" fill="#B8C0E7"/>
<path d="M20.6224 34.9941V27.4593L11.25 22.0206L20.6224 34.9941Z" fill="white"/>
<path d="M20.6226 25.7168V16.0902L29.9938 20.2753L20.6226 25.7168Z" fill="#7A8BCE"/>
<path d="M20.6224 25.7168L11.25 20.2753L20.6224 16.0902V25.7168Z" fill="#B8C0E7"/>
</svg>
