<svg width="40" height="40" viewBox="0 0 40 40" fill="none" xmlns="http://www.w3.org/2000/svg">
<path d="M28.046 20L40 31.9403H35.7701C35.0575 31.9403 34.3448 31.6418 33.8391 31.1366L22.7356 20L33.8851 8.84041C34.3908 8.33525 35.0805 8.03674 35.8161 8.0597H40L28.046 20ZM6.13793 8.84041C5.63218 8.33525 4.94253 8.03674 4.2069 8.0597H0L11.954 20L0 31.9403H4.22989C4.94253 31.9403 5.65517 31.6418 6.16092 31.1366L17.2874 19.977L6.13793 8.84041ZM20 22.7325L8.82759 33.8691C8.32184 34.3743 8.04598 35.0631 8.04598 35.7979V40L20 28.0597L31.954 40V35.775C31.954 35.0631 31.6782 34.3513 31.1724 33.8462L20 22.7325ZM20 17.2675L31.1724 6.13088C31.6782 5.62572 31.954 4.93685 31.954 4.20207V0L20 11.9403L8.04598 0V4.20207C8.04598 4.91389 8.32184 5.62572 8.82759 6.13088L20 17.2675Z" fill="url(#paint0_linear_1104_5445)"/>
<defs>
<linearGradient id="paint0_linear_1104_5445" x1="-0.0133379" y1="19.9957" x2="25.2783" y2="19.9957" gradientUnits="userSpaceOnUse">
<stop stop-color="#00BFFF"/>
<stop offset="1" stop-color="#6619FF"/>
</linearGradient>
</defs>
</svg>
