<svg width="293" height="192" viewBox="0 0 293 192" fill="none" xmlns="http://www.w3.org/2000/svg">
<g clip-path="url(#clip0_1293_9861)">
<path d="M203.136 168.732L217.364 187.647C219.013 189.838 216.737 192.812 214.19 191.794L176.135 176.263L203.136 168.732Z" fill="url(#paint0_linear_1293_9861)"/>
<path d="M203.136 168.732L217.364 187.647C219.013 189.838 216.737 192.812 214.19 191.794L176.135 176.263L203.136 168.732Z" fill="url(#paint1_linear_1293_9861)"/>
<path d="M269.141 76.7619L273.077 145.613C273.681 156.155 265.991 165.351 255.511 166.625L176.135 176.265C163.824 177.761 153.129 167.81 153.735 155.42L157.767 72.8606C158.31 61.7562 167.795 53.2225 178.894 53.8554L250.302 57.9237C260.455 58.5015 268.562 66.6048 269.141 76.7619Z" fill="url(#paint2_linear_1293_9861)"/>
<path d="M269.141 76.7619L273.077 145.613C273.681 156.155 265.991 165.351 255.511 166.625L176.135 176.265C163.824 177.761 153.129 167.81 153.735 155.42L157.767 72.8606C158.31 61.7562 167.795 53.2225 178.894 53.8554L250.302 57.9237C260.455 58.5015 268.562 66.6048 269.141 76.7619Z" fill="url(#paint3_linear_1293_9861)"/>
<path d="M287.985 142.237C290.75 142.237 293 139.986 293 137.221C293 134.456 290.75 132.205 287.985 132.205C285.22 132.205 282.97 134.456 282.97 137.221C282.97 139.986 285.218 142.237 287.985 142.237ZM287.985 133.752C289.897 133.752 291.453 135.309 291.453 137.221C291.453 139.133 289.897 140.69 287.985 140.69C286.073 140.69 284.517 139.133 284.517 137.221C284.517 135.309 286.073 133.752 287.985 133.752Z" fill="#019371"/>
<path d="M281.7 164.361L278.649 161.309C278.346 161.006 278.346 160.517 278.649 160.214C278.951 159.911 279.441 159.911 279.743 160.214L282.795 163.266L285.847 160.214C286.15 159.911 286.639 159.911 286.941 160.214C287.244 160.517 287.244 161.006 286.941 161.309L283.89 164.361L286.941 167.413C287.244 167.716 287.244 168.205 286.941 168.508C286.639 168.81 286.15 168.81 285.847 168.508L282.795 165.456L279.743 168.508C279.441 168.81 278.951 168.81 278.649 168.508C278.346 168.205 278.346 167.716 278.649 167.413L281.7 164.361Z" fill="#019371"/>
<path d="M260.007 187.609C262.772 187.609 265.022 185.359 265.022 182.594C265.022 179.828 262.772 177.578 260.007 177.578C257.242 177.578 254.992 179.828 254.992 182.594C254.992 185.359 257.242 187.609 260.007 187.609ZM260.007 179.125C261.919 179.125 263.476 180.681 263.476 182.594C263.476 184.506 261.919 186.063 260.007 186.063C258.095 186.063 256.539 184.506 256.539 182.594C256.539 180.679 258.095 179.125 260.007 179.125Z" fill="#019371"/>
<path d="M284.516 82.4556C287.281 82.4556 289.532 80.2052 289.532 77.4399C289.532 74.6746 287.281 72.4243 284.516 72.4243C281.752 72.4243 279.501 74.6746 279.501 77.4399C279.501 80.2052 281.752 82.4556 284.516 82.4556ZM284.516 73.9691C286.429 73.9691 287.985 75.5257 287.985 77.438C287.985 79.3503 286.429 80.9069 284.516 80.9069C282.604 80.9069 281.048 79.3503 281.048 77.438C281.048 75.5257 282.604 73.9691 284.516 73.9691Z" fill="#019371"/>
<path d="M275.919 54.5649L272.867 51.5126C272.564 51.21 272.564 50.7206 272.867 50.4179C273.17 50.1153 273.659 50.1153 273.962 50.4179L277.014 53.4702L280.065 50.4179C280.368 50.1153 280.857 50.1153 281.16 50.4179C281.463 50.7206 281.463 51.21 281.16 51.5126L278.108 54.5649L281.16 57.6171C281.463 57.9198 281.463 58.4092 281.16 58.7118C280.857 59.0145 280.368 59.0145 280.065 58.7118L277.014 55.6596L273.962 58.7118C273.659 59.0145 273.17 59.0145 272.867 58.7118C272.564 58.4092 272.564 57.9198 272.867 57.6171L275.919 54.5649Z" fill="#019371"/>
<path d="M254.291 49.2367C257.056 49.2367 259.306 46.9864 259.306 44.2211C259.306 41.4558 257.056 39.2054 254.291 39.2054C251.526 39.2054 249.276 41.4558 249.276 44.2211C249.276 46.9864 251.526 49.2367 254.291 49.2367ZM254.291 40.7522C256.203 40.7522 257.759 42.3088 257.759 44.2211C257.759 46.1334 256.203 47.69 254.291 47.69C252.379 47.69 250.822 46.1334 250.822 44.2211C250.822 42.3068 252.379 40.7522 254.291 40.7522Z" fill="#019371"/>
<g opacity="0.2">
<path d="M246.413 84.3659C247.633 82.8369 247.382 80.6003 245.851 79.3798C244.322 78.1593 242.086 78.4108 240.865 79.9419C239.645 81.4709 239.896 83.7075 241.427 84.928C242.956 86.1485 245.192 85.897 246.413 84.3659ZM241.72 80.6238C242.563 79.5665 244.11 79.3916 245.167 80.2347C246.224 81.0778 246.399 82.6246 245.556 83.682C244.713 84.7394 243.166 84.9143 242.109 84.0711C241.052 83.228 240.877 81.6812 241.72 80.6238Z" fill="white"/>
</g>
<path opacity="0.2" d="M215.322 75.2819L212.288 75.6239C211.987 75.6573 211.716 75.4411 211.683 75.1404C211.649 74.8397 211.865 74.5685 212.166 74.5351L215.2 74.1931L214.858 71.1586C214.825 70.8579 215.041 70.5867 215.342 70.5532C215.642 70.5198 215.914 70.736 215.947 71.0367L216.289 74.0713L219.323 73.7293C219.624 73.6959 219.895 73.9121 219.928 74.2128C219.962 74.5135 219.746 74.7847 219.445 74.8181L216.411 75.1601L216.753 78.1946C216.786 78.4953 216.57 78.7666 216.269 78.8C215.969 78.8334 215.697 78.6172 215.664 78.3165L215.322 75.2819Z" fill="white"/>
<path opacity="0.2" d="M237.921 142.885L235.883 140.613C235.681 140.389 235.7 140.041 235.925 139.841C236.149 139.638 236.496 139.658 236.697 139.882L238.735 142.154L241.006 140.116C241.23 139.913 241.578 139.933 241.779 140.157C241.981 140.381 241.961 140.729 241.737 140.93L239.466 142.968L241.504 145.24C241.706 145.464 241.686 145.812 241.462 146.012C241.238 146.214 240.89 146.195 240.69 145.971L238.652 143.699L236.38 145.737C236.156 145.939 235.809 145.92 235.608 145.696C235.406 145.472 235.425 145.124 235.649 144.923L237.921 142.885Z" fill="white"/>
<path opacity="0.2" d="M188.858 145.487L185.824 145.829C185.523 145.863 185.252 145.647 185.218 145.346C185.185 145.045 185.401 144.774 185.702 144.74L188.736 144.398L188.394 141.364C188.36 141.063 188.577 140.792 188.877 140.759C189.178 140.725 189.449 140.941 189.483 141.242L189.825 144.277L192.859 143.935C193.159 143.901 193.431 144.117 193.464 144.418C193.497 144.719 193.281 144.99 192.981 145.023L189.946 145.365L190.288 148.4C190.322 148.701 190.106 148.972 189.805 149.005C189.504 149.039 189.233 148.823 189.2 148.522L188.858 145.487Z" fill="white"/>
<g opacity="0.2">
<path d="M189.146 83.8314C190.367 82.3023 190.115 80.0657 188.584 78.8452C187.056 77.6247 184.819 77.8763 183.599 79.4073C182.378 80.9363 182.63 83.173 184.161 84.3935C185.69 85.614 187.926 85.3604 189.146 83.8314ZM184.454 80.0893C185.297 79.0319 186.843 78.857 187.901 79.7001C188.958 80.5433 189.133 82.09 188.29 83.1474C187.447 84.2048 185.9 84.3797 184.843 83.5365C183.786 82.6934 183.611 81.1466 184.454 80.0893Z" fill="white"/>
</g>
<g opacity="0.2">
<path d="M215.762 158.142C216.983 156.613 216.731 154.377 215.2 153.156C213.671 151.936 211.435 152.187 210.215 153.718C208.994 155.249 209.246 157.484 210.777 158.704C212.306 159.923 214.542 159.671 215.762 158.142ZM211.07 154.4C211.913 153.343 213.459 153.168 214.517 154.013C215.574 154.856 215.749 156.403 214.906 157.46C214.063 158.518 212.516 158.693 211.459 157.85C210.402 157.004 210.227 155.458 211.07 154.4Z" fill="white"/>
</g>
<g opacity="0.15">
<path opacity="0.0323" d="M42.6886 63.814L37.8662 148.146C37.1273 161.059 46.5462 172.325 59.3845 173.883L156.61 185.691C171.69 187.523 184.788 175.334 184.047 160.159L179.108 59.0341C178.444 45.4337 166.824 34.9799 153.232 35.7542L65.7672 40.7384C53.3279 41.4479 43.4 51.3751 42.6886 63.814Z" fill="black"/>
<path opacity="0.0645" d="M42.2387 63.3658L37.4163 147.698C36.6774 160.611 46.0963 171.874 58.9345 173.435L156.16 185.243C171.24 187.075 184.338 174.885 183.597 159.711L178.659 58.586C177.994 44.9856 166.374 34.5317 152.782 35.3061L65.3173 40.2903C52.8799 40.9978 42.9501 50.925 42.2387 63.3658Z" fill="black"/>
<path opacity="0.0968" d="M41.7906 62.9158L36.9681 147.248C36.2292 160.161 45.6481 171.426 58.4864 172.985L155.712 184.793C170.792 186.625 183.89 174.435 183.149 159.261L178.21 58.136C177.546 44.5355 165.926 34.0817 152.333 34.856L64.8692 39.8402C52.4298 40.5497 42.502 50.4769 41.7906 62.9158Z" fill="black"/>
<path opacity="0.129" d="M41.3426 62.4676L36.5201 146.8C35.7812 159.713 45.2001 170.978 58.0384 172.537L155.264 184.345C170.344 186.177 183.442 173.987 182.701 158.813L177.762 57.6878C177.098 44.0874 165.478 33.6336 151.885 34.4079L64.4212 39.3921C51.9818 40.1016 42.054 50.0288 41.3426 62.4676Z" fill="black"/>
<path opacity="0.1613" d="M40.8925 62.0195L36.0701 146.352C35.3312 159.265 44.7501 170.53 57.5883 172.089L154.813 183.897C169.894 185.728 182.992 173.539 182.251 158.364L177.312 57.2397C176.648 43.6393 165.028 33.1854 151.435 33.9598L63.9711 38.944C51.5318 39.6516 41.6039 49.5787 40.8925 62.0195Z" fill="black"/>
<path opacity="0.1935" d="M40.4445 61.5695L35.6221 145.902C34.8832 158.815 44.3021 170.08 57.1403 171.639L154.366 183.447C169.446 185.278 182.544 173.089 181.803 157.914L176.862 56.7897C176.198 43.1892 164.578 32.7354 150.985 33.5097L63.5211 38.4939C51.0838 39.2034 41.1559 49.1306 40.4445 61.5695Z" fill="black"/>
<path opacity="0.2258" d="M39.9944 61.1214L35.172 145.454C34.4331 158.366 43.852 169.632 56.6902 171.191L153.915 182.999C168.996 184.83 182.094 172.641 181.353 157.466L176.414 56.3416C175.75 42.7411 164.13 32.2873 150.537 33.0616L63.073 38.0458C50.6357 38.7534 40.7058 48.6805 39.9944 61.1214Z" fill="black"/>
<path opacity="0.2581" d="M39.5464 60.6713L34.724 145.006C33.9851 157.918 43.404 169.184 56.2422 170.742L153.467 182.55C168.548 184.382 181.646 172.193 180.905 157.018L175.966 55.8935C175.302 42.293 163.682 31.8392 150.089 32.6135L62.625 37.5977C50.1857 38.3053 40.2578 48.2324 39.5464 60.6713Z" fill="black"/>
<path opacity="0.2903" d="M39.0983 60.2232L34.2759 144.556C33.537 157.468 42.9559 168.734 55.7941 170.292L153.019 182.1C168.1 183.932 181.197 171.743 180.457 156.568L175.516 55.4434C174.852 41.843 163.232 31.3891 149.639 32.1635L62.1749 37.1477C49.7376 37.8572 39.8097 47.7843 39.0983 60.2232Z" fill="black"/>
<path opacity="0.3226" d="M38.6484 59.7751L33.8259 144.108C33.087 157.02 42.5059 168.286 55.3442 169.844L152.569 181.652C167.65 183.484 180.747 171.295 180.007 156.12L175.068 54.9953C174.404 41.3948 162.784 30.941 149.191 31.7153L61.7269 36.6996C49.2876 37.4071 39.3597 47.3342 38.6484 59.7751Z" fill="black"/>
<path opacity="0.3548" d="M38.2002 59.325L33.3778 143.658C32.6389 156.57 42.0578 167.836 54.8961 169.394L152.121 181.202C167.202 183.034 180.299 170.845 179.558 155.67L174.62 54.5452C173.956 40.9448 162.336 30.4909 148.743 31.2653L61.2788 36.2495C48.8395 36.959 38.9116 46.8861 38.2002 59.325Z" fill="black"/>
<path opacity="0.3871" d="M37.7503 58.8769L32.9278 143.209C32.189 156.122 41.6079 167.388 54.4461 168.946L151.671 180.754C166.752 182.586 179.849 170.397 179.109 155.222L174.17 54.0951C173.506 40.4947 161.886 30.0408 148.293 30.8152L60.8289 35.7994C48.3896 36.5089 38.4617 46.436 37.7503 58.8769Z" fill="black"/>
<path opacity="0.4194" d="M37.3023 58.4268L32.4799 142.759C31.741 155.672 41.1599 166.937 53.9981 168.496L151.223 180.304C166.304 182.136 179.401 169.946 178.661 154.772L173.722 53.647C173.058 40.0466 161.438 29.5927 147.845 30.3671L60.3809 35.3513C47.9416 36.0608 38.0137 45.9879 37.3023 58.4268Z" fill="black"/>
<path opacity="0.4516" d="M36.8542 57.9787L32.0317 142.311C31.2928 155.224 40.7117 166.487 53.55 168.048L150.775 179.856C165.856 181.688 178.953 169.498 178.212 154.324L173.274 53.1989C172.61 39.5985 160.99 29.1446 147.397 29.919L59.9328 34.9032C47.4934 35.6127 37.5656 45.5398 36.8542 57.9787Z" fill="black"/>
<path opacity="0.4839" d="M36.4042 57.5306L31.5818 141.863C30.8429 154.776 40.2618 166.041 53.1 167.6L150.325 179.408C165.406 181.24 178.503 169.05 177.762 153.876L172.824 52.7508C172.16 39.1504 160.54 28.6965 146.947 29.4709L59.4828 34.4531C47.0435 35.1626 37.1156 45.0898 36.4042 57.5306Z" fill="black"/>
<path opacity="0.5161" d="M35.9561 57.0805L31.1337 141.413C30.3948 154.326 39.8137 165.591 52.6519 167.15L149.877 178.958C164.958 180.789 178.055 168.6 177.314 153.425L172.376 52.3007C171.712 38.7003 160.092 28.2465 146.499 29.0208L59.0327 34.005C46.5954 34.7145 36.6675 44.6417 35.9561 57.0805Z" fill="black"/>
<path opacity="0.5484" d="M35.5062 56.6324L30.6837 140.965C29.9448 153.878 39.3637 165.143 52.202 166.702L149.427 178.51C164.508 180.341 177.605 168.152 176.864 152.977L171.926 51.8526C171.262 38.2522 159.642 27.7983 146.049 28.5727L58.5847 33.5569C46.1454 34.2645 36.2175 44.1916 35.5062 56.6324Z" fill="black"/>
<path opacity="0.5806" d="M35.058 56.1824L30.2356 140.515C29.4967 153.427 38.9156 164.691 51.7538 166.252L148.979 178.06C164.059 179.891 177.157 167.702 176.416 152.527L171.478 51.4026C170.814 37.8021 159.194 27.3483 145.601 28.1226L58.1366 33.1068C45.6973 33.8163 35.7694 43.7435 35.058 56.1824Z" fill="black"/>
<path opacity="0.6129" d="M34.61 55.7343L29.7876 140.067C29.0487 152.979 38.4676 164.243 51.3058 165.803L148.531 177.611C163.611 179.443 176.709 167.254 175.968 152.079L171.03 50.9545C170.366 37.354 158.746 26.9002 145.153 27.6745L57.6886 32.6587C45.2493 33.3682 35.3214 43.2954 34.61 55.7343Z" fill="black"/>
<path opacity="0.6452" d="M34.16 55.2862L29.3375 139.619C28.5986 152.531 38.0175 163.795 50.8558 165.355L148.081 177.163C163.161 178.995 176.259 166.806 175.518 151.631L170.58 50.5064C169.916 36.9059 158.296 26.4521 144.703 27.2264L57.2385 32.2106C44.7992 32.9182 34.8713 42.8453 34.16 55.2862Z" fill="black"/>
<path opacity="0.6774" d="M33.712 54.8361L28.8895 139.169C28.1506 152.081 37.5695 163.347 50.4078 164.905L147.633 176.713C162.713 178.545 175.811 166.356 175.07 151.181L170.132 50.0563C169.468 36.4559 157.848 26.002 144.255 26.7764L56.7886 31.7606C44.3512 32.4701 34.4233 42.3972 33.712 54.8361Z" fill="black"/>
<path opacity="0.7097" d="M33.2619 54.388L28.4394 138.72C27.7006 151.633 37.1195 162.899 49.9577 164.457L147.183 176.265C162.263 178.097 175.361 165.908 174.62 150.733L169.682 49.6062C169.018 36.0058 157.398 25.5519 143.805 26.3263L56.3405 31.3125C43.9011 32.02 33.9733 41.9471 33.2619 54.388Z" fill="black"/>
<path opacity="0.7419" d="M32.8139 53.9379L27.9914 138.27C27.2526 151.183 36.6715 162.447 49.5097 164.007L146.735 175.815C161.815 177.647 174.913 165.458 174.172 150.283L169.234 49.1581C168.57 35.5577 156.95 25.1038 143.357 25.8782L55.8925 30.8624C43.4532 31.5719 33.5253 41.499 32.8139 53.9379Z" fill="black"/>
<path opacity="0.7742" d="M32.3658 53.4898L27.5433 137.822C26.8044 150.735 36.2233 162 49.0616 163.559L146.287 175.367C161.367 177.199 174.465 165.009 173.724 149.835L168.786 48.71C168.121 35.1096 156.502 24.6557 142.909 25.4301L55.4444 30.4143C43.005 31.1218 33.0772 41.0509 32.3658 53.4898Z" fill="black"/>
<path opacity="0.8065" d="M31.9158 53.0417L27.0934 137.374C26.3545 150.287 35.7734 161.552 48.6116 163.111L145.837 174.919C160.917 176.751 174.015 164.561 173.274 149.387L168.336 48.2619C167.671 34.6614 156.052 24.2076 142.459 24.9819L54.9944 29.9662C42.5551 30.6737 32.6272 40.6008 31.9158 53.0417Z" fill="black"/>
<path opacity="0.8387" d="M31.4677 52.5916L26.6453 136.924C25.9064 149.837 35.3253 161.102 48.1635 162.661L145.389 174.469C160.469 176.301 173.567 164.111 172.826 148.937L167.888 47.8118C167.223 34.2114 155.603 23.7575 142.011 24.5319L54.5463 29.5161C42.107 30.2256 32.1791 40.1527 31.4677 52.5916Z" fill="black"/>
<path opacity="0.871" d="M31.0177 52.1435L26.1953 136.476C25.4564 149.389 34.8753 160.654 47.7136 162.213L144.939 174.021C160.019 175.852 173.117 163.663 172.376 148.488L167.438 47.3637C166.773 33.7633 155.154 23.3094 141.561 24.0838L54.0963 29.068C41.657 29.7755 31.7291 39.7027 31.0177 52.1435Z" fill="black"/>
<path opacity="0.9032" d="M30.5696 51.6934L25.7472 136.026C25.0083 148.938 34.4272 160.204 47.2654 161.763L144.491 173.571C159.571 175.402 172.669 163.213 171.928 148.038L166.989 46.9136C166.325 33.3132 154.705 22.8593 141.113 23.6337L53.6482 28.6179C41.2089 29.3274 31.281 39.2545 30.5696 51.6934Z" fill="black"/>
<path opacity="0.9355" d="M30.1216 51.2453L25.2992 135.578C24.5603 148.49 33.9792 159.756 46.8174 161.315L144.043 173.123C159.123 174.954 172.221 162.765 171.48 147.59L166.541 46.4655C165.877 32.8651 154.257 22.4112 140.665 23.1856L53.2002 28.1698C40.7609 28.8773 30.833 38.8064 30.1216 51.2453Z" fill="black"/>
<path opacity="0.9677" d="M29.6716 50.7972L24.8491 135.13C24.1102 148.042 33.5291 159.308 46.3674 160.866L143.593 172.674C158.673 174.506 171.771 162.317 171.03 147.142L166.091 46.0174C165.427 32.417 153.807 21.9631 140.214 22.7375L52.7501 27.7217C40.3108 28.4292 30.3829 38.3564 29.6716 50.7972Z" fill="black"/>
<path d="M29.2236 50.3472L24.4011 134.68C23.6622 147.592 33.0811 158.858 45.9194 160.416L143.145 172.224C158.225 174.056 171.323 161.867 170.582 146.692L165.641 45.5674C164.977 31.9669 153.357 21.5131 139.765 22.2874L52.3002 27.2716C39.8628 27.9811 29.9349 37.9083 29.2236 50.3472Z" fill="black"/>
</g>
<path d="M110.071 163.001L92.6444 186.169C90.6242 188.853 93.4128 192.495 96.5314 191.247L143.143 172.224L110.071 163.001Z" fill="url(#paint4_linear_1293_9861)"/>
<path d="M29.2236 50.3472L24.4011 134.68C23.6622 147.592 33.0811 158.858 45.9194 160.416L143.145 172.224C158.225 174.056 171.323 161.867 170.582 146.692L165.641 45.5674C164.977 31.9669 153.357 21.5131 139.765 22.2874L52.3002 27.2716C39.8628 27.9811 29.9349 37.9083 29.2236 50.3472Z" fill="url(#paint5_linear_1293_9861)"/>
<path d="M29.2236 50.3472L24.4011 134.68C23.6622 147.592 33.0811 158.858 45.9194 160.416L143.145 172.224C158.225 174.056 171.323 161.867 170.582 146.692L165.641 45.5674C164.977 31.9669 153.357 21.5131 139.765 22.2874L52.3002 27.2716C39.8628 27.9811 29.9349 37.9083 29.2236 50.3472Z" fill="url(#paint6_linear_1293_9861)"/>
<path d="M179.13 20.8822C175.742 20.8822 172.987 18.1267 172.987 14.7384C172.987 11.3501 175.742 8.5946 179.13 8.5946C182.518 8.5946 185.273 11.3501 185.273 14.7384C185.273 18.1247 182.516 20.8822 179.13 20.8822ZM179.13 10.4892C176.788 10.4892 174.881 12.3957 174.881 14.7384C174.881 17.0811 176.788 18.9875 179.13 18.9875C181.473 18.9875 183.379 17.0811 183.379 14.7384C183.377 12.3937 181.473 10.4892 179.13 10.4892Z" fill="#1976D2"/>
<path d="M190.268 38.5726L194.006 34.8344C194.376 34.4649 194.376 33.8635 194.006 33.494C193.637 33.1245 193.035 33.1245 192.666 33.494L188.928 37.2322L185.191 33.494C184.821 33.1245 184.22 33.1245 183.85 33.494C183.481 33.8635 183.481 34.4649 183.85 34.8344L187.588 38.5726L183.85 42.3107C183.481 42.6802 183.481 43.2816 183.85 43.6511C184.22 44.0206 184.821 44.0206 185.191 43.6511L188.928 39.9129L192.666 43.6511C193.035 44.0206 193.637 44.0206 194.006 43.6511C194.376 43.2816 194.376 42.6802 194.006 42.3107L190.268 38.5726Z" fill="#1976D2"/>
<path d="M151.035 5.35566L154.772 1.61751C155.142 1.24802 155.142 0.64661 154.772 0.277119C154.403 -0.0923729 153.802 -0.0923729 153.432 0.277119L149.694 4.01527L145.957 0.277119C145.587 -0.0923729 144.986 -0.0923729 144.616 0.277119C144.247 0.64661 144.247 1.24802 144.616 1.61751L148.354 5.35566L144.616 9.09382C144.247 9.46331 144.247 10.0647 144.616 10.4342C144.986 10.8037 145.587 10.8037 145.957 10.4342L149.694 6.69605L153.432 10.4342C153.802 10.8037 154.403 10.8037 154.772 10.4342C155.142 10.0647 155.142 9.46331 154.772 9.09382L151.035 5.35566Z" fill="#1976D2"/>
<path d="M6.14302 130.546C2.75512 130.546 0 127.789 0 124.401C0 121.012 2.75512 118.257 6.14302 118.257C9.53092 118.257 12.286 121.012 12.286 124.401C12.288 127.789 9.53092 130.546 6.14302 130.546ZM6.14302 120.154C3.80058 120.154 1.89439 122.06 1.89439 124.403C1.89439 126.745 3.80058 128.652 6.14302 128.652C8.48546 128.652 10.3916 126.745 10.3916 124.403C10.3916 122.06 8.48546 120.154 6.14302 120.154Z" fill="#1976D2"/>
<path d="M13.8424 157.645L17.5801 153.907C17.9496 153.538 17.9496 152.936 17.5801 152.567C17.2107 152.197 16.6094 152.197 16.2399 152.567L12.5022 156.305L8.76452 152.567C8.39508 152.197 7.79375 152.197 7.4243 152.567C7.05486 152.936 7.05486 153.538 7.4243 153.907L11.162 157.645L7.4243 161.383C7.05486 161.753 7.05486 162.354 7.4243 162.724C7.79375 163.093 8.39508 163.093 8.76452 162.724L12.5022 158.986L16.2399 162.724C16.6094 163.093 17.2107 163.093 17.5801 162.724C17.9496 162.354 17.9496 161.753 17.5801 161.383L13.8424 157.645Z" fill="#1976D2"/>
<path d="M40.4111 186.122C37.0232 186.122 34.2681 183.366 34.2681 179.978C34.2681 176.589 37.0232 173.834 40.4111 173.834C43.799 173.834 46.5541 176.589 46.5541 179.978C46.5541 183.364 43.799 186.122 40.4111 186.122ZM40.4111 175.729C38.0686 175.729 36.1625 177.635 36.1625 179.978C36.1625 182.32 38.0686 184.227 40.4111 184.227C42.7535 184.227 44.6597 182.32 44.6597 179.978C44.6597 177.635 42.7535 175.729 40.4111 175.729Z" fill="#1976D2"/>
<path d="M10.3917 57.3203C7.00378 57.3203 4.24866 54.5649 4.24866 51.1766C4.24866 47.7882 7.00378 45.0328 10.3917 45.0328C13.7796 45.0328 16.5347 47.7882 16.5347 51.1766C16.5347 54.5649 13.7796 57.3203 10.3917 57.3203ZM10.3917 46.9274C8.04923 46.9274 6.14305 48.8338 6.14305 51.1766C6.14305 53.5193 8.04923 55.4257 10.3917 55.4257C12.7341 55.4257 14.6403 53.5193 14.6403 51.1766C14.6403 48.8338 12.7341 46.9274 10.3917 46.9274Z" fill="#1976D2"/>
<path d="M20.9228 23.16L24.6605 19.4219C25.0299 19.0524 25.0299 18.451 24.6605 18.0815C24.291 17.712 23.6897 17.712 23.3202 18.0815L19.5825 21.8197L15.8448 18.0815C15.4754 17.712 14.8741 17.712 14.5046 18.0815C14.1352 18.451 14.1352 19.0524 14.5046 19.4219L18.2423 23.16L14.5046 26.8982C14.1352 27.2677 14.1352 27.8691 14.5046 28.2386C14.8741 28.6081 15.4754 28.6081 15.8448 28.2386L19.5825 24.5004L23.3202 28.2386C23.6897 28.6081 24.291 28.6081 24.6605 28.2386C25.0299 27.8691 25.0299 27.2677 24.6605 26.8982L20.9228 23.16Z" fill="#1976D2"/>
<path d="M47.4129 16.633C44.025 16.633 41.2699 13.8776 41.2699 10.4892C41.2699 7.10092 44.025 4.34546 47.4129 4.34546C50.8008 4.34546 53.5559 7.10092 53.5559 10.4892C53.5559 13.8756 50.8008 16.633 47.4129 16.633ZM47.4129 6.24009C45.0705 6.24009 43.1643 8.14651 43.1643 10.4892C43.1643 12.832 45.0705 14.7384 47.4129 14.7384C49.7554 14.7384 51.6615 12.832 51.6615 10.4892C51.6615 8.14651 49.7554 6.24009 47.4129 6.24009Z" fill="#1976D2"/>
<g opacity="0.2">
<path d="M131.595 139.556C133.089 141.429 132.78 144.169 130.908 145.664C129.035 147.158 126.295 146.849 124.8 144.976C123.307 143.103 123.615 140.364 125.488 138.868C127.363 137.372 130.102 137.681 131.595 139.556ZM125.849 144.139C126.883 145.434 128.777 145.648 130.072 144.615C131.368 143.581 131.582 141.686 130.548 140.391C129.514 139.096 127.62 138.882 126.325 139.915C125.03 140.949 124.816 142.844 125.849 144.139Z" fill="white"/>
</g>
<path opacity="0.2" d="M95.9223 145.869L92.2063 145.45C91.8388 145.409 91.5067 145.674 91.4654 146.042C91.4241 146.409 91.6894 146.741 92.0569 146.782L95.773 147.201L95.3544 150.918C95.3132 151.285 95.5784 151.617 95.9459 151.659C96.3134 151.7 96.6455 151.435 96.6868 151.067L97.1054 147.35L100.821 147.769C101.189 147.81 101.521 147.545 101.562 147.178C101.604 146.81 101.338 146.478 100.971 146.437L97.2547 146.018L97.6733 142.301C97.7145 141.934 97.4493 141.602 97.0818 141.56C96.7143 141.519 96.3822 141.785 96.3409 142.152L95.9223 145.869Z" fill="white"/>
<path opacity="0.2" d="M126.009 46.8527L123.511 49.6357C123.263 49.9108 123.287 50.3354 123.562 50.583C123.837 50.8306 124.262 50.8071 124.509 50.5319L127.007 47.7489L129.79 50.2469C130.065 50.4946 130.489 50.471 130.737 50.1958C130.984 49.9207 130.961 49.4962 130.686 49.2485L127.903 46.7505L130.401 43.9675C130.648 43.6924 130.625 43.2679 130.35 43.0202C130.074 42.7726 129.65 42.7962 129.402 43.0713L126.905 45.8543L124.122 43.3563C123.847 43.1087 123.422 43.1322 123.175 43.4074C122.927 43.6826 122.951 44.1071 123.226 44.3547L126.009 46.8527Z" fill="white"/>
<path opacity="0.2" d="M68.3199 46.0705L64.6039 45.6519C64.2364 45.6106 63.9043 45.8759 63.863 46.2434C63.8217 46.611 64.087 46.9431 64.4545 46.9844L68.1706 47.403L67.752 51.1196C67.7107 51.4871 67.976 51.8192 68.3435 51.8605C68.711 51.9018 69.0431 51.6364 69.0844 51.2689L69.5029 47.5524L73.219 47.971C73.5865 48.0123 73.9186 47.747 73.9599 47.3794C74.0011 47.0119 73.7358 46.6798 73.3684 46.6385L69.6523 46.2199L70.0709 42.5033C70.1121 42.1358 69.8468 41.8037 69.4794 41.7624C69.1119 41.7211 68.7798 41.9864 68.7385 42.354L68.3199 46.0705Z" fill="white"/>
<g opacity="0.2">
<path d="M71.0809 137.803C72.5744 139.676 72.2659 142.415 70.3931 143.911C68.5204 145.405 65.781 145.096 64.2855 143.223C62.792 141.35 63.1005 138.61 64.9733 137.115C66.8461 135.621 69.5855 135.93 71.0809 137.803ZM65.3329 142.388C66.3666 143.683 68.261 143.897 69.556 142.864C70.851 141.83 71.0652 139.935 70.0315 138.64C68.9979 137.345 67.1035 137.131 65.8085 138.164C64.5134 139.198 64.3012 141.093 65.3329 142.388Z" fill="white"/>
</g>
<g opacity="0.2">
<path d="M101.273 37.7923C102.767 39.6653 102.458 42.405 100.586 43.9007C98.7129 45.3944 95.9735 45.0858 94.478 43.2128C92.9845 41.3398 93.293 38.6001 95.1658 37.1044C97.0405 35.6107 99.7799 35.9193 101.273 37.7923ZM95.5274 42.3775C96.561 43.6727 98.4554 43.8869 99.7505 42.8532C101.045 41.8194 101.26 39.9247 100.226 38.6296C99.1924 37.3344 97.298 37.1201 96.0029 38.1539C94.7079 39.1858 94.4937 41.0804 95.5274 42.3775Z" fill="white"/>
</g>
<path d="M185.301 122.561C189.412 122.561 192.745 119.228 192.745 115.116C192.745 111.005 189.412 107.671 185.301 107.671C181.189 107.671 177.857 111.005 177.857 115.116C177.857 119.228 181.189 122.561 185.301 122.561Z" fill="url(#paint7_linear_1293_9861)"/>
<path d="M213.412 127.133C220.047 127.133 225.427 121.753 225.427 115.116C225.427 108.48 220.047 103.1 213.412 103.1C206.776 103.1 201.397 108.48 201.397 115.116C201.397 121.753 206.776 127.133 213.412 127.133Z" fill="url(#paint8_linear_1293_9861)"/>
<path d="M241.523 122.561C245.634 122.561 248.967 119.228 248.967 115.116C248.967 111.005 245.634 107.671 241.523 107.671C237.412 107.671 234.079 111.005 234.079 115.116C234.079 119.228 237.412 122.561 241.523 122.561Z" fill="url(#paint9_linear_1293_9861)"/>
<path d="M70.629 90.5942C69.8626 89.8965 68.7464 89.5447 67.3099 89.5447H55.1831V81.3668H69.8705C71.3601 81.3668 72.5136 81.0032 73.2977 80.2897C74.1054 79.5527 74.5141 78.5779 74.5141 77.3908C74.5141 76.2214 74.1054 75.2564 73.2977 74.5194C72.5136 73.804 71.362 73.4404 69.8705 73.4404H51.2076C49.9617 73.4404 48.9064 73.635 48.0693 74.0162C47.1516 74.4368 46.4677 75.1149 46.0373 76.0308C45.6443 76.868 45.4438 77.9372 45.4438 79.2029V109.281C45.4438 111.127 45.8978 112.555 46.7919 113.524C47.7057 114.515 48.8946 115.018 50.3272 115.018C51.7401 115.018 52.9192 114.521 53.833 113.542C54.7291 112.581 55.1831 111.148 55.1831 109.281V97.3119H67.3099C68.7229 97.3119 69.8312 96.966 70.6055 96.284C71.4112 95.5725 71.8199 94.6154 71.8199 93.4421C71.8199 92.2727 71.419 91.3155 70.629 90.5942Z" fill="url(#paint10_linear_1293_9861)"/>
<path d="M98.2844 80.7359C97.8089 79.4879 97.408 78.4659 97.0916 77.6954C96.7575 76.8837 96.3409 76.1133 95.8536 75.4058C95.323 74.6373 94.6214 74.0025 93.7666 73.517C92.8941 73.0237 91.8152 72.7722 90.5595 72.7722C89.3215 72.7722 88.2505 73.0218 87.3779 73.517C86.5192 74.0025 85.8156 74.6511 85.2851 75.4411C84.7977 76.1683 84.3359 77.0842 83.9134 78.1632C83.5125 79.1852 83.1706 80.0618 82.8876 80.787L72.8929 106.164C72.4704 107.21 72.1756 108.007 71.9889 108.607C71.7846 109.261 71.6804 109.908 71.6804 110.531C71.6804 111.71 72.1619 112.766 73.1091 113.67C74.0445 114.562 75.145 115.014 76.3771 115.014C77.8451 115.014 78.9416 114.546 79.6373 113.625C80.2111 112.864 80.8615 111.492 81.6299 109.434L83.2747 105.014H97.9052L99.548 109.334L99.5579 109.358C99.8094 109.967 100.112 110.678 100.46 111.471C100.841 112.341 101.199 112.984 101.552 113.43C101.936 113.915 102.415 114.305 102.979 114.586C103.549 114.871 104.225 115.016 104.986 115.016C106.296 115.016 107.432 114.544 108.362 113.617C109.291 112.687 109.761 111.632 109.761 110.48C109.761 109.478 109.346 107.994 108.495 105.952L98.2844 80.7359ZM95.097 97.251H86.0141L90.5143 84.704L95.097 97.251Z" fill="url(#paint11_linear_1293_9861)"/>
<path d="M152.516 111.978C152.005 111.478 151.05 110.853 149.592 110.067C148.59 109.527 147.635 108.969 146.747 108.401C149.785 104.702 151.325 99.8099 151.325 93.843C151.325 89.6332 150.541 85.9048 148.993 82.7622C147.425 79.5783 145.08 77.0881 142.026 75.3586C138.996 73.6428 135.333 72.7741 131.14 72.7741C128.052 72.7741 125.248 73.2674 122.805 74.2383C120.343 75.2171 118.223 76.6518 116.503 78.5032C114.788 80.3487 113.463 82.6109 112.563 85.2268C111.673 87.8172 111.221 90.6964 111.221 93.7899C111.221 96.8245 111.653 99.6743 112.506 102.261C113.369 104.877 114.674 107.17 116.385 109.077C118.107 110.995 120.261 112.483 122.788 113.499C125.293 114.507 128.157 115.018 131.299 115.018C134.938 115.018 138.098 114.403 140.702 113.19C141.926 114.061 143.076 114.841 144.125 115.513C145.32 116.28 146.381 116.875 147.279 117.282C148.27 117.732 149.113 117.95 149.856 117.95C150.864 117.95 151.73 117.565 152.432 116.803C153.114 116.062 153.46 115.281 153.46 114.479C153.456 113.43 153.141 112.589 152.516 111.978ZM131.032 99.3048C130.265 99.3048 129.564 99.5917 128.948 100.158C128.32 100.736 127.987 101.457 127.987 102.241C127.987 103.155 128.357 103.906 129.055 104.415C129.564 104.786 130.448 105.283 131.761 105.936C132.268 106.188 132.739 106.439 133.175 106.691C132.521 106.832 131.875 106.903 131.246 106.903C128.296 106.903 125.922 105.816 123.988 103.578C122.047 101.333 121.064 98.0391 121.064 93.786C121.064 91.685 121.334 89.7727 121.862 88.1021C122.383 86.4571 123.096 85.0971 123.981 84.0574C124.855 83.0295 125.912 82.2374 127.123 81.6989C128.341 81.1584 129.693 80.8833 131.14 80.8833C133.177 80.8833 135.001 81.3786 136.561 82.3573C138.112 83.3302 139.326 84.7944 140.171 86.7126C141.04 88.6839 141.48 91.064 141.48 93.786C141.48 95.9597 141.229 97.8897 140.733 99.521C140.334 100.832 139.749 102.011 138.99 103.033C133.584 99.3048 131.676 99.3048 131.032 99.3048Z" fill="url(#paint12_linear_1293_9861)"/>
</g>
<defs>
<linearGradient id="paint0_linear_1293_9861" x1="197.733" y1="191.99" x2="196.297" y2="173.042" gradientUnits="userSpaceOnUse">
<stop stop-color="#019371"/>
<stop offset="1" stop-color="#019371"/>
</linearGradient>
<linearGradient id="paint1_linear_1293_9861" x1="197.733" y1="191.99" x2="196.297" y2="173.042" gradientUnits="userSpaceOnUse">
<stop stop-color="#019371" stop-opacity="0.1"/>
<stop offset="1" stop-opacity="0.4"/>
</linearGradient>
<linearGradient id="paint2_linear_1293_9861" x1="220.35" y1="56.1525" x2="210.144" y2="168.404" gradientUnits="userSpaceOnUse">
<stop stop-color="#019371"/>
<stop offset="1" stop-color="#019371"/>
</linearGradient>
<linearGradient id="paint3_linear_1293_9861" x1="220.35" y1="56.1525" x2="210.144" y2="168.404" gradientUnits="userSpaceOnUse">
<stop stop-color="#019371" stop-opacity="0.1"/>
<stop offset="1" stop-opacity="0.6"/>
</linearGradient>
<linearGradient id="paint4_linear_1293_9861" x1="116.69" y1="191.488" x2="118.449" y2="168.278" gradientUnits="userSpaceOnUse">
<stop stop-color="#00BAFF"/>
<stop offset="1" stop-color="#1976D2"/>
</linearGradient>
<linearGradient id="paint5_linear_1293_9861" x1="88.9868" y1="25.1039" x2="101.488" y2="162.598" gradientUnits="userSpaceOnUse">
<stop stop-color="#1976D2"/>
<stop offset="1" stop-color="#1976D2"/>
</linearGradient>
<linearGradient id="paint6_linear_1293_9861" x1="88.9868" y1="25.1039" x2="101.488" y2="162.598" gradientUnits="userSpaceOnUse">
<stop stop-color="#019371" stop-opacity="0.1"/>
<stop offset="1" stop-opacity="0.6"/>
</linearGradient>
<linearGradient id="paint7_linear_1293_9861" x1="185.3" y1="102.732" x2="185.3" y2="126.337" gradientUnits="userSpaceOnUse">
<stop stop-color="white"/>
<stop offset="1" stop-color="#E6E6E6"/>
</linearGradient>
<linearGradient id="paint8_linear_1293_9861" x1="213.412" y1="102.732" x2="213.412" y2="126.337" gradientUnits="userSpaceOnUse">
<stop stop-color="white"/>
<stop offset="1" stop-color="#E6E6E6"/>
</linearGradient>
<linearGradient id="paint9_linear_1293_9861" x1="241.524" y1="102.732" x2="241.524" y2="126.337" gradientUnits="userSpaceOnUse">
<stop stop-color="white"/>
<stop offset="1" stop-color="#E6E6E6"/>
</linearGradient>
<linearGradient id="paint10_linear_1293_9861" x1="59.9782" y1="72.1515" x2="59.9782" y2="114.794" gradientUnits="userSpaceOnUse">
<stop stop-color="white"/>
<stop offset="1" stop-color="#E6E6E6"/>
</linearGradient>
<linearGradient id="paint11_linear_1293_9861" x1="90.7187" y1="72.1515" x2="90.7187" y2="114.794" gradientUnits="userSpaceOnUse">
<stop stop-color="white"/>
<stop offset="1" stop-color="#E6E6E6"/>
</linearGradient>
<linearGradient id="paint12_linear_1293_9861" x1="132.337" y1="72.1515" x2="132.337" y2="114.794" gradientUnits="userSpaceOnUse">
<stop stop-color="white"/>
<stop offset="1" stop-color="#E6E6E6"/>
</linearGradient>
<clipPath id="clip0_1293_9861">
<rect width="293" height="192" fill="white"/>
</clipPath>
</defs>
</svg>
