<?xml version="1.0" standalone="no"?>
<!DOCTYPE svg PUBLIC "-//W3C//DTD SVG 1.1//EN" "http://www.w3.org/Graphics/SVG/1.1/DTD/svg11.dtd" >
<svg xmlns="http://www.w3.org/2000/svg">
<metadata>Generated by IcoMoon</metadata>
<defs>
<font id="icomoon" horiz-adv-x="1024">
<font-face units-per-em="1024" ascent="960" descent="-64" />
<missing-glyph horiz-adv-x="1024" />
<glyph unicode="&#x20;" horiz-adv-x="512" d="" />
<glyph unicode="&#xe900;" glyph-name="plus" d="M512 768c23.565 0 42.667-19.103 42.667-42.667v-597.333c0-23.565-19.102-42.667-42.667-42.667s-42.667 19.102-42.667 42.667v597.333c0 23.564 19.102 42.667 42.667 42.667zM170.667 426.667c0 23.565 19.103 42.667 42.667 42.667h597.333c23.565 0 42.667-19.102 42.667-42.667s-19.102-42.667-42.667-42.667h-597.333c-23.564 0-42.667 19.102-42.667 42.667z" />
<glyph unicode="&#xe901;" glyph-name="sorting-block" d="M800-21.333c-42.432 0-83.13 16.858-113.139 46.861-30.003 30.010-46.861 70.707-46.861 113.139s16.858 83.13 46.861 113.139c30.010 30.003 70.707 46.861 113.139 46.861s83.13-16.858 113.139-46.861c30.003-30.010 46.861-70.707 46.861-113.139s-16.858-83.13-46.861-113.139c-30.010-30.003-70.707-46.861-113.139-46.861zM224 554.667c-42.435 0-83.132 16.857-113.137 46.863s-46.863 70.703-46.863 113.137c0 42.435 16.857 83.132 46.863 113.137s70.703 46.863 113.137 46.863c42.435 0 83.132-16.857 113.137-46.863s46.863-70.703 46.863-113.137c0-42.435-16.857-83.132-46.863-113.137s-70.703-46.863-113.137-46.863zM224-21.333c42.435 0 83.132 16.858 113.137 46.861 30.006 30.010 46.863 70.707 46.863 113.139s-16.857 83.13-46.863 113.139c-30.006 30.003-70.703 46.861-113.137 46.861s-83.132-16.858-113.137-46.861c-30.006-30.010-46.863-70.707-46.863-113.139s16.857-83.13 46.863-113.139c30.006-30.003 70.703-46.861 113.137-46.861zM0 714.667c0-59.409 23.6-116.384 65.608-158.392s98.983-65.608 158.392-65.608c59.409 0 116.384 23.6 158.392 65.608s65.608 98.983 65.608 158.392c0 59.409-23.6 116.384-65.608 158.392s-98.983 65.608-158.392 65.608c-59.409 0-116.384-23.6-158.392-65.608s-65.608-98.983-65.608-158.392zM576 138.667c0-59.411 23.6-116.384 65.606-158.394 42.010-42.010 98.982-65.606 158.394-65.606s116.384 23.597 158.394 65.606c42.010 42.010 65.606 98.982 65.606 158.394s-23.597 116.384-65.606 158.394c-42.010 42.006-98.982 65.606-158.394 65.606s-116.384-23.6-158.394-65.606c-42.006-42.010-65.606-98.982-65.606-158.394zM224-85.333c-59.409 0-116.384 23.597-158.392 65.606s-65.608 98.982-65.608 158.394c0 59.411 23.6 116.384 65.608 158.394 42.008 42.006 98.983 65.606 158.392 65.606s116.384-23.6 158.392-65.606c42.008-42.010 65.608-98.982 65.608-158.394s-23.6-116.384-65.608-158.394c-42.008-42.010-98.983-65.606-158.392-65.606zM800 618.667c12.608 0 25.088 2.483 36.736 7.308s22.234 11.896 31.149 20.81c8.909 8.915 15.981 19.498 20.806 31.144s7.309 24.131 7.309 36.738c0 12.607-2.483 25.091-7.309 36.738s-11.898 22.23-20.806 31.144c-8.915 8.915-19.501 15.986-31.149 20.81s-24.128 7.308-36.736 7.308c-25.459 0-49.882-10.115-67.885-28.118s-28.115-42.422-28.115-67.882c0-25.46 10.112-49.879 28.115-67.882s42.426-28.118 67.885-28.118zM800 490.667c-59.411 0-116.384 23.6-158.394 65.608-42.006 42.008-65.606 98.983-65.606 158.392s23.6 116.384 65.606 158.392c42.010 42.008 98.982 65.608 158.394 65.608s116.384-23.6 158.394-65.608c42.010-42.008 65.606-98.983 65.606-158.392s-23.597-116.384-65.606-158.392c-42.010-42.008-98.982-65.608-158.394-65.608z" />
<glyph unicode="&#xe902;" glyph-name="arrow-right" d="M0.011 426.68c0-16.974 6.743-33.253 18.745-45.254 12.002-12.003 28.281-18.746 45.255-18.746h741.504l-274.816-274.688c-5.951-5.951-10.67-13.015-13.891-20.79s-4.878-16.108-4.878-24.522c0-8.415 1.658-16.748 4.878-24.522s7.94-14.839 13.891-20.79c5.951-5.951 13.015-10.67 20.79-13.891s16.108-4.878 24.522-4.878c8.416 0 16.749 1.658 24.524 4.878s14.838 7.94 20.788 13.891l384 384c5.961 5.946 10.689 13.007 13.916 20.783 3.226 7.775 4.887 16.11 4.887 24.529s-1.661 16.754-4.887 24.529c-3.227 7.776-7.955 14.839-13.916 20.783l-384 384c-12.017 12.017-28.316 18.769-45.312 18.769s-33.294-6.751-45.312-18.769c-12.017-12.018-18.769-28.317-18.769-45.312s6.752-33.294 18.769-45.312l274.816-274.688h-741.504c-16.974 0-33.253-6.743-45.255-18.746-12.002-12.001-18.745-28.28-18.745-45.254z" />
<glyph unicode="&#xe903;" glyph-name="bell" d="M512-85.327c33.948 0 66.505 13.485 90.509 37.491s37.491 56.563 37.491 90.509h-256c0-33.946 13.485-66.502 37.491-90.509s56.562-37.491 90.509-37.491zM512 815.921l-51.008-10.304c-57.859-11.789-109.867-43.206-147.222-88.936s-57.763-102.961-57.77-162.008c0-40.192-8.576-140.608-29.376-239.488-10.24-49.088-24.064-100.224-42.432-144.512h655.616c-18.368 44.288-32.128 95.36-42.432 144.512-20.8 98.88-29.376 199.296-29.376 239.488-0.019 59.036-20.435 116.253-57.792 161.969-37.35 45.716-89.352 77.124-147.2 88.911l-51.008 10.432v-0.064zM910.080 170.673c14.272-28.608 30.784-51.264 49.92-64h-896c19.136 12.736 35.648 35.392 49.92 64 57.6 115.2 78.080 327.68 78.080 384 0 154.88 110.080 284.16 256.32 313.664-0.893 8.899 0.088 17.886 2.882 26.383s7.337 16.313 13.337 22.945c6 6.632 13.324 11.934 21.498 15.562s17.020 5.503 25.963 5.503c8.943 0 17.788-1.875 25.963-5.503s15.498-8.929 21.498-15.562c6-6.632 10.543-14.449 13.337-22.945s3.775-17.484 2.882-26.383c72.339-14.714 137.37-53.975 184.077-111.136 46.714-57.161 72.237-128.708 72.243-202.528 0-56.32 20.48-268.8 78.080-384z" />
<glyph unicode="&#xe904;" glyph-name="caret-down" horiz-adv-x="1365" d="M594.089-9.577l-564.728 703.481c-66.646 82.77-12.481 212.763 88.666 212.763h1129.456c22.636 0.021 44.798-7.069 63.833-20.422s34.133-32.402 43.489-54.866c9.356-22.464 12.573-47.391 9.264-71.796s-13.003-47.252-27.921-65.807l-564.727-703.223c-11.052-13.785-24.682-24.83-39.975-32.399s-31.894-11.486-48.691-11.486c-16.795 0-33.398 3.917-48.689 11.486-15.293 7.569-28.923 18.615-39.975 32.399v-0.13z" />
<glyph unicode="&#xe905;" glyph-name="caret-left" horiz-adv-x="614" d="M74.537 486.457l375.19 381.191c44.144 44.986 113.474 8.425 113.474-59.85v-762.382c0.011-15.28-3.77-30.24-10.891-43.088s-17.281-23.040-29.262-29.355c-11.981-6.316-25.275-8.486-38.291-6.253s-25.202 8.777-35.098 18.846l-375.053 381.192c-7.351 7.46-13.243 16.66-17.28 26.982s-6.125 21.529-6.125 32.866 2.089 22.543 6.125 32.866c4.037 10.323 9.929 19.523 17.28 26.983h-0.068z" />
<glyph unicode="&#xe906;" glyph-name="caret-right" horiz-adv-x="614" d="M539.863 486.457l-375.19 381.191c-44.144 44.986-113.474 8.425-113.474-59.85v-762.382c-0.011-15.28 3.77-30.24 10.892-43.088s17.281-23.040 29.262-29.355c11.98-6.316 25.275-8.486 38.291-6.253s25.202 8.777 35.098 18.846l375.052 381.192c7.351 7.46 13.243 16.66 17.28 26.982s6.126 21.529 6.126 32.866-2.089 22.543-6.126 32.866c-4.037 10.323-9.929 19.523-17.28 26.983h0.069z" />
<glyph unicode="&#xe907;" glyph-name="cross-o" d="M512-21.333c-118.817 0-232.767 47.2-316.784 131.219-84.016 84.013-131.216 197.964-131.216 316.781s47.2 232.767 131.216 316.784c84.017 84.016 197.967 131.216 316.784 131.216s232.768-47.2 316.781-131.216c84.019-84.017 131.219-197.967 131.219-316.784s-47.2-232.768-131.219-316.781c-84.013-84.019-197.964-131.219-316.781-131.219zM512-85.333c135.789 0 266.022 53.946 362.042 149.958 96.013 96.019 149.958 226.253 149.958 362.042 0 135.791-53.946 266.020-149.958 362.038-96.019 96.019-226.253 149.962-362.042 149.962-135.791 0-266.020-53.943-362.038-149.962s-149.962-226.248-149.962-362.038c0-135.789 53.943-266.022 149.962-362.042 96.019-96.013 226.248-149.958 362.038-149.958zM297.344 641.323c2.973 2.98 6.504 5.345 10.392 6.957s8.055 2.444 12.264 2.444c4.209 0 8.377-0.83 12.264-2.444s7.419-3.978 10.392-6.957l169.344-169.408 169.344 169.408c2.976 2.975 6.509 5.335 10.394 6.945 3.891 1.61 8.058 2.439 12.262 2.439s8.371-0.829 12.262-2.439c3.885-1.61 7.418-3.97 10.394-6.945s5.338-6.508 6.944-10.395c1.613-3.887 2.438-8.054 2.438-12.261s-0.826-8.374-2.438-12.261c-1.606-3.887-3.968-7.42-6.944-10.395l-169.408-169.344 169.408-169.344c2.976-2.976 5.338-6.509 6.944-10.394 1.613-3.891 2.438-8.058 2.438-12.262s-0.826-8.371-2.438-12.262c-1.606-3.885-3.968-7.418-6.944-10.394s-6.509-5.338-10.394-6.944c-3.891-1.613-8.058-2.438-12.262-2.438s-8.371 0.826-12.262 2.438c-3.885 1.606-7.418 3.968-10.394 6.944l-169.344 169.408-169.344-169.408c-2.975-2.976-6.508-5.338-10.395-6.944-3.887-1.613-8.054-2.438-12.261-2.438s-8.374 0.826-12.261 2.438c-3.887 1.606-7.42 3.968-10.395 6.944s-5.335 6.509-6.945 10.394c-1.61 3.891-2.439 8.058-2.439 12.262s0.829 8.371 2.439 12.262c1.61 3.885 3.97 7.418 6.945 10.394l169.408 169.344-169.408 169.344c-2.98 2.973-5.345 6.504-6.957 10.392s-2.444 8.055-2.444 12.264c0 4.209 0.83 8.377 2.444 12.264s3.978 7.419 6.957 10.392z" />
<glyph unicode="&#xe908;" glyph-name="dots" horiz-adv-x="3584" d="M512 42.667c-101.842 0-199.516 40.458-271.529 112.471s-112.471 169.687-112.471 271.529 40.457 199.516 112.471 271.529c72.013 72.014 169.687 112.471 271.529 112.471s199.516-40.457 271.529-112.471c72.013-72.013 112.471-169.687 112.471-271.529s-40.458-199.516-112.471-271.529c-72.013-72.013-169.687-112.471-271.529-112.471zM1792 42.667c-101.842 0-199.516 40.458-271.529 112.471s-112.471 169.687-112.471 271.529c0 101.842 40.458 199.516 112.471 271.529s169.687 112.471 271.529 112.471 199.516-40.457 271.529-112.471c72.013-72.013 112.471-169.687 112.471-271.529s-40.458-199.516-112.471-271.529c-72.013-72.013-169.687-112.471-271.529-112.471zM3072 42.667c-101.837 0-199.526 40.458-271.539 112.471s-112.461 169.687-112.461 271.529c0 101.842 40.448 199.516 112.461 271.529s169.702 112.471 271.539 112.471 199.526-40.457 271.539-112.471c72.013-72.013 112.461-169.687 112.461-271.529s-40.448-199.516-112.461-271.529c-72.013-72.013-169.702-112.471-271.539-112.471z" />
<glyph unicode="&#xe909;" glyph-name="down-arrow" horiz-adv-x="768" d="M264 368.641v570.026h240v-570.026h264l-384-453.974-384 453.718 264 0.256z" />
<glyph unicode="&#xe90a;" glyph-name="eclipse" d="M1024 426.667c0-282.77-229.23-512-512-512s-512 229.23-512 512c0 282.77 229.23 512 512 512s512-229.23 512-512z" />
<glyph unicode="&#xe90b;" glyph-name="error" horiz-adv-x="1154" d="M572.43 850.978c1.413 0.775 3.003 1.172 4.615 1.154 1.588 0.006 3.15-0.391 4.543-1.154 1.648-0.989 2.996-2.41 3.894-4.11l494.477-841.339c2.596-4.327 2.524-8.942 0.144-13.197-0.914-1.747-2.254-3.234-3.894-4.327-1.428-0.875-3.086-1.302-4.759-1.226h-988.809c-1.674-0.082-3.333 0.346-4.759 1.226-1.64 1.093-2.979 2.58-3.894 4.327-1.188 2.002-1.803 4.291-1.778 6.619s0.69 4.604 1.922 6.578l494.405 841.339c0.901 1.698 2.247 3.119 3.894 4.11zM647.716 883.429c-7.139 12.435-17.431 22.766-29.84 29.95s-26.493 10.968-40.83 10.968c-14.339 0-28.422-3.783-40.832-10.968-12.408-7.184-22.701-17.515-29.839-29.95l-494.477-841.339c-32.956-56.104 6.562-127.423 70.67-127.423h988.882c64.108 0 103.698 71.392 70.67 127.423l-494.405 841.339zM504.933 131.005c0 9.47 1.865 18.847 5.489 27.596s8.936 16.698 15.631 23.395c6.696 6.696 14.646 12.008 23.396 15.633s18.126 5.489 27.596 5.489 18.847-1.865 27.596-5.489c8.749-3.624 16.698-8.936 23.395-15.633s12.008-14.645 15.633-23.395c3.623-8.749 5.489-18.126 5.489-27.596 0-19.126-7.598-37.467-21.122-50.991s-31.865-21.122-50.991-21.122c-19.126 0-37.468 7.598-50.992 21.122s-21.12 31.865-21.12 50.991zM512 564.042c-0.961 9.098 0.003 18.295 2.827 26.998 2.824 8.701 7.445 16.711 13.566 23.512 6.119 6.799 13.6 12.236 21.957 15.959 8.358 3.721 17.404 5.645 26.552 5.645s18.194-1.924 26.55-5.645c8.358-3.722 15.839-9.16 21.958-15.959 6.119-6.8 10.742-14.811 13.566-23.512 2.824-8.703 3.787-17.9 2.827-26.998l-25.239-252.899c-0.848-9.936-5.394-19.191-12.738-25.935-7.345-6.744-16.954-10.487-26.924-10.487-9.972 0-19.58 3.743-26.924 10.487s-11.89 15.999-12.738 25.935l-25.239 252.899z" />
<glyph unicode="&#xe90c;" glyph-name="box-primary" horiz-adv-x="1229" d="M1190.374-48.761v382.121h-127.995v-226.744l-106.675 67.635-106.67-67.635v226.744h-128v-382.121h469.34zM507.714-48.761v382.121h-127.997v-226.744l-106.673 67.635-106.648-67.732v226.744h-127.997v-382.024h469.315zM848.778 519.973v382.123h-128v-226.743l-106.67 67.56-106.676-67.56v226.743h-127.997v-382.123h469.343zM1194.65-85.333h-477.865c-9.047 0.026-17.715 3.461-24.11 9.554-6.395 6.098-9.994 14.356-10.015 22.968v390.221c0.020 8.612 3.62 16.87 10.015 22.968 6.395 6.093 15.063 9.528 24.11 9.554h170.67v-195.046l68.275 43.3 68.275-43.3v195.046h170.67c9.047-0.026 17.715-3.461 24.11-9.554 6.395-6.098 9.994-14.356 10.015-22.968v-390.221c-0.020-8.617-3.625-16.881-10.025-22.973-6.4-6.098-15.073-9.528-24.125-9.549zM511.989-85.333h-477.865c-9.046 0.026-17.714 3.461-24.109 9.554-6.394 6.098-9.995 14.356-10.016 22.968v390.221c0.020 8.612 3.621 16.87 10.016 22.968 6.394 6.093 15.062 9.528 24.109 9.554h170.672v-195.046l68.274 43.3 68.274-43.3v195.046h170.672c9.047-0.026 17.715-3.461 24.11-9.554 6.395-6.098 9.994-14.356 10.015-22.968v-390.221c-0.020-8.617-3.625-16.881-10.025-22.973-6.4-6.098-15.073-9.528-24.126-9.549zM853.028 483.402h-477.842c-9.047 0.026-17.714 3.461-24.109 9.556s-9.995 14.352-10.016 22.968v390.217c0.020 8.616 3.621 16.874 10.016 22.968s15.062 9.53 24.109 9.556h170.673v-195.047l68.25 43.227 68.27-43.227v195.047h170.675c9.042-0.026 17.71-3.461 24.105-9.556s9.994-14.352 10.015-22.968v-390.217c-0.020-8.62-3.625-16.881-10.025-22.977s-15.073-9.528-24.12-9.547z" />
<glyph unicode="&#xe90d;" glyph-name="box-secondary" horiz-adv-x="1229" d="M1190.4-48.761v382.121h-128v-226.744l-106.675 67.635-106.675-67.635v226.744h-128v-382.121h469.35zM507.725-48.761v382.121h-128v-226.744l-106.675 67.635-106.65-67.732v226.744h-128v-382.024h469.325zM1194.675-85.333h-477.875c-9.047 0.026-17.715 3.461-24.11 9.554-6.395 6.098-9.994 14.356-10.015 22.968v390.221c0.020 8.612 3.62 16.87 10.015 22.968 6.395 6.093 15.063 9.528 24.11 9.554h170.675v-195.046l68.275 43.3 68.275-43.3v195.046h170.675c9.047-0.026 17.715-3.461 24.11-9.554 6.395-6.098 9.994-14.356 10.015-22.968v-390.221c-0.020-8.617-3.625-16.881-10.025-22.973-6.4-6.098-15.073-9.528-24.125-9.549zM512-85.333h-477.875c-9.047 0.026-17.715 3.461-24.109 9.554-6.395 6.098-9.995 14.356-10.016 22.968v390.221c0.020 8.612 3.621 16.87 10.016 22.968 6.395 6.093 15.062 9.528 24.109 9.554h170.675v-195.046l68.275 43.3 68.275-43.3v195.046h170.675c9.047-0.026 17.715-3.461 24.11-9.554 6.395-6.098 9.994-14.356 10.015-22.968v-390.221c-0.020-8.617-3.625-16.881-10.025-22.973-6.4-6.098-15.073-9.528-24.125-9.549zM853.043 483.402h-477.85c-9.047 0.026-17.715 3.461-24.109 9.556s-9.995 14.352-10.016 22.968v390.217c0.020 8.616 3.621 16.874 10.016 22.968s15.063 9.53 24.109 9.556h170.675v-195.047l68.25 43.227 68.275-43.227v195.047h170.675c9.047-0.026 17.715-3.461 24.11-9.556s9.994-14.352 10.015-22.968v-390.217c-0.020-8.62-3.625-16.881-10.025-22.977s-15.073-9.528-24.125-9.547z" />
<glyph unicode="&#xe90e;" glyph-name="wallet" horiz-adv-x="1126" d="M0 792.381c0 38.797 14.712 76.006 40.899 103.44s61.704 42.846 98.738 42.846h942.546c9.259 0 18.137-3.853 24.684-10.712s10.225-16.161 10.225-25.86c0-9.699-3.678-19.001-10.225-25.86s-15.425-10.711-24.684-10.711h-34.91v-146.285c18.517 0 36.277-7.707 49.369-21.424 13.094-13.716 20.449-32.321 20.449-51.721v-621.713c0-29.099-11.034-57.004-30.674-77.58s-46.278-32.135-74.052-32.135h-837.818c-46.293 0-90.689 19.265-123.423 53.557-32.734 34.294-51.123 80.804-51.123 129.3v694.857zM69.818 665.698v-568.173c0-29.099 11.034-57.004 30.674-77.58s46.278-32.135 74.054-32.135h837.818c9.259 0 18.137 3.854 24.684 10.711 6.547 6.859 10.225 16.162 10.225 25.861v621.713h-907.636c-24.516-0.032-48.604 6.731-69.818 19.603zM69.818 792.381c0-19.399 7.356-38.004 20.449-51.72s30.852-21.422 49.369-21.422h837.818v146.285h-837.818c-18.517 0-36.276-7.706-49.369-21.423s-20.449-32.321-20.449-51.72z" />
<glyph unicode="&#xe90f;" glyph-name="info" d="M512-21.333c-118.817 0-232.767 47.198-316.784 131.216-84.017 84.017-131.216 197.967-131.216 316.784s47.2 232.767 131.216 316.784c84.017 84.017 197.967 131.216 316.784 131.216s232.767-47.2 316.784-131.216c84.018-84.017 131.216-197.967 131.216-316.784s-47.198-232.767-131.216-316.784c-84.017-84.018-197.967-131.216-316.784-131.216zM512-85.333c135.791 0 266.020 53.939 362.035 149.965 96.026 96.015 149.965 226.244 149.965 362.035s-53.939 266.020-149.965 362.039c-96.015 96.019-226.244 149.961-362.035 149.961s-266.020-53.943-362.039-149.961c-96.019-96.019-149.961-226.248-149.961-362.039s53.943-266.020 149.961-362.035c96.019-96.026 226.248-149.965 362.039-149.965zM448.128 234.667c0 8.404 1.655 16.727 4.872 24.492s7.931 14.821 13.873 20.763c5.943 5.943 12.998 10.657 20.763 13.873s16.087 4.872 24.492 4.872c8.404 0 16.727-1.655 24.492-4.872s14.821-7.931 20.763-13.873c5.943-5.943 10.657-12.998 13.873-20.763s4.872-16.087 4.872-24.492c0-16.974-6.743-33.253-18.745-45.255s-28.281-18.745-45.255-18.745c-16.974 0-33.253 6.743-45.255 18.745s-18.745 28.281-18.745 45.255zM454.4 618.987c-0.852 8.074 0.003 16.237 2.509 23.96s6.608 14.832 12.040 20.867c5.431 6.035 12.070 10.86 19.488 14.164s15.445 5.010 23.564 5.010c8.119 0 16.148-1.707 23.564-5.010s14.056-8.129 19.488-14.164c5.431-6.035 9.533-13.144 12.040-20.867s3.361-15.886 2.509-23.96l-22.4-224.448c-0.753-8.817-4.787-17.031-11.305-23.017s-15.046-9.306-23.895-9.306c-8.849 0-17.376 3.321-23.895 9.306s-10.552 14.199-11.305 23.017l-22.4 224.448z" />
<glyph unicode="&#xe910;" glyph-name="link" d="M76.465 51.425c-48.969 49.146-76.465 115.694-76.465 185.073s27.496 135.927 76.465 185.072l132.156 132.518c26.504 26.551 58.414 47.085 93.56 60.206s72.705 18.522 110.125 15.836c37.419-2.686 73.822-13.396 106.734-31.402s61.562-42.887 84-72.951c3.247-4.351 5.608-9.299 6.945-14.56 1.331-5.262 1.62-10.736 0.837-16.108-0.777-5.372-2.608-10.539-5.385-15.203s-6.447-8.737-10.798-11.984c-4.351-3.247-9.299-5.605-14.561-6.941s-10.735-1.62-16.108-0.84c-5.372 0.781-10.539 2.611-15.203 5.388s-8.737 6.445-11.984 10.796c-15.359 20.554-34.96 37.563-57.474 49.871s-47.411 19.628-73.004 21.462c-25.593 1.834-51.281-1.861-75.319-10.832s-45.865-23.012-63.998-41.165l-132.096-132.457c-33.524-33.635-52.349-79.185-52.349-126.674s18.825-93.039 52.349-126.675c16.6-16.631 36.317-29.829 58.022-38.828 21.705-9.005 44.973-13.637 68.472-13.637s46.766 4.632 68.472 13.637c21.705 8.999 41.422 22.197 58.022 38.828l75.294 75.415c7.832 7.282 18.184 11.252 28.88 11.059 10.696-0.187 20.9-4.518 28.468-12.083 7.568-7.56 11.909-17.757 12.111-28.455 0.201-10.692-3.753-21.052-11.031-28.889l-75.294-75.475c-24.279-24.305-53.11-43.586-84.846-56.742s-65.753-19.926-100.107-19.926c-34.354 0-68.371 6.77-100.107 19.926s-60.567 32.437-84.846 56.742h0.060zM551.42 283.632c-37.416 2.68-73.817 13.378-106.733 31.371-32.916 17.986-61.575 42.85-84.032 72.896-6.566 8.787-9.373 19.821-7.802 30.677s7.388 20.643 16.175 27.209c8.787 6.566 19.821 9.373 30.677 7.802s20.643-7.388 27.209-16.175c15.352-20.563 34.951-37.579 57.465-49.893s47.414-19.637 73.010-21.472c25.596-1.834 51.289 1.863 75.328 10.841s45.863 23.025 63.988 41.188l132.096 132.518c25.046 25.042 42.104 56.946 49.026 91.68 6.915 34.734 3.385 70.739-10.15 103.466-13.541 32.727-36.472 60.708-65.909 80.405-29.431 19.698-64.042 30.229-99.461 30.263-23.504 0.063-46.791-4.542-68.506-13.548s-41.424-22.234-57.986-38.917l-75.896-76.017c-7.809-7.51-18.255-11.652-29.088-11.534s-21.188 4.484-28.832 12.16c-7.645 7.676-11.969 18.048-12.042 28.882s4.113 21.262 11.654 29.041l75.776 75.656c49.1 49.044 115.673 76.575 185.071 76.536s135.939-27.646 184.983-76.746c49.050-49.1 76.577-115.673 76.535-185.072-0.036-69.399-27.642-135.94-76.746-184.984l-132.156-132.518c-24.257-24.328-53.079-43.628-84.811-56.795-31.732-13.173-65.753-19.95-100.109-19.944-6.204 0.361-12.469 0.542-18.733 0.964v0.060z" />
<glyph unicode="&#xe911;" glyph-name="plus-o" d="M1024 426.667c0-135.791-53.943-266.018-149.961-362.039-96.021-96.017-226.249-149.961-362.039-149.961s-266.020 53.943-362.039 149.961c-96.019 96.021-149.961 226.249-149.961 362.039s53.943 266.020 149.961 362.039c96.019 96.019 226.248 149.961 362.039 149.961s266.018-53.943 362.039-149.961c96.017-96.019 149.961-226.248 149.961-362.039zM544 650.667c0 8.487-3.371 16.626-9.374 22.627-5.999 6.001-14.14 9.373-22.626 9.373s-16.627-3.372-22.626-9.373c-6.003-6.001-9.374-14.141-9.374-22.627v-192h-192c-8.487 0-16.626-3.371-22.627-9.374-6.001-5.999-9.373-14.14-9.373-22.626s3.372-16.627 9.373-22.626c6.001-6.003 14.141-9.374 22.627-9.374h192v-192c0-8.486 3.371-16.627 9.374-22.626 5.999-6.003 14.14-9.374 22.626-9.374s16.627 3.371 22.626 9.374c6.003 5.999 9.374 14.14 9.374 22.626v192h192c8.486 0 16.627 3.371 22.626 9.374 6.003 5.999 9.374 14.14 9.374 22.626s-3.371 16.627-9.374 22.626c-5.999 6.003-14.14 9.374-22.626 9.374h-192v192z" />
<glyph unicode="&#xe912;" glyph-name="wallet-coins" horiz-adv-x="1075" d="M488.127 465.783c112.484 0 204.004 85.672 204.004 190.968s-91.52 190.953-204.004 190.953c-112.484 0-203.99-85.656-203.99-190.953s91.504-190.968 203.99-190.968zM488.127 815.705c93.638 0 169.823-71.313 169.823-158.954 0-87.655-76.186-158.968-169.823-158.968-93.624 0-169.806 71.313-169.806 158.968 0 87.641 76.182 158.954 169.806 158.954zM697.257 656.756c0-108.436-94.136-196.088-209.128-196.088s-209.111 87.65-209.111 196.088c0 108.439 94.122 196.073 209.111 196.073 114.986 0 209.128-87.636 209.128-196.073zM652.831 656.756c0 84.499-73.564 153.834-164.702 153.834-91.12 0-164.686-69.334-164.686-153.834 0-84.514 73.566-153.848 164.686-153.848 91.138 0 164.702 69.334 164.702 153.848zM692.137 656.756c0-105.295-91.52-190.968-204.008-190.968-112.487 0-203.991 85.67-203.991 190.968s91.506 190.953 203.991 190.953c112.483 0 204.008-85.658 204.008-190.953zM657.951 656.756c0 87.641-76.18 158.954-169.822 158.954-93.624 0-169.806-71.313-169.806-158.954 0-87.655 76.182-158.968 169.806-158.968 93.641 0 169.822 71.313 169.822 158.968zM1004.892 241.779c-9.385-0.952-16.159-8.842-15.14-17.638 0.097-0.829 0.067-1.577 0.067-2.422 0-0.86 0.031-1.72-0.067-2.58-1.019-8.796 5.755-16.686 15.14-17.638 0.63-0.061 1.249-0.092 1.869-0.092 8.612 0 16.020 6.077 16.973 14.264 0.236 2.017 0.266 4.029 0.266 6.047 0 2.033-0.031 3.84-0.266 5.888-1.014 8.786-9.446 15.084-18.842 14.172zM984.663 223.546v0c-1.382 11.94 7.803 22.113 19.707 23.322l0.517-5.094c-9.38-0.952-16.159-8.842-15.14-17.638 0.082-0.66 0.077-1.27 0.072-1.92 0-0.164-0.005-0.333-0.005-0.502 0-0.174 0.005-0.343 0.005-0.517 0.005-0.686 0.010-1.372-0.072-2.063-1.019-8.796 5.76-16.686 15.14-17.638 0.635-0.061 1.249-0.092 1.869-0.092 8.612 0 16.026 6.077 16.978 14.264 0.236 2.017 0.266 4.029 0.266 6.047 0 2.028-0.031 3.84-0.266 5.888-1.019 8.781-9.446 15.078-18.847 14.172l-0.492 5.094c11.827 1.147 23.045-6.789 24.422-18.678v-0.005c0.271-2.345 0.302-4.388 0.302-6.472 0-2.048-0.031-4.311-0.302-6.641v0c-1.285-11.054-11.151-18.79-22.062-18.79-0.794 0-1.577 0.036-2.371 0.118h-0.015c-11.904 1.208-21.089 11.382-19.707 23.322v0.005c0.041 0.348 0.041 0.65 0.036 1.244 0 0.205-0.005 0.451-0.005 0.742 0 0.302 0.005 0.538 0.005 0.737 0.005 0.532 0.005 0.758-0.031 1.065l-0.005 0.031zM999.567 159.587c-9.047 2.58-18.58-2.232-21.32-10.67-34.335-106.030-137.037-177.28-255.58-177.28-147.22 0-266.985 112.184-266.985 250.076 0 137.815 119.765 249.922 266.985 249.922 116.639 0 221.732-72.908 255.58-177.279 2.739-8.453 12.252-13.251 21.32-10.675 9.042 2.565 14.136 11.5 11.397 19.953-37.069 114.324-144.579 192.61-270.689 199.342 31.688 45.597 49.060 99.077 49.060 153.785 0 155.436-135.101 281.906-301.17 281.906-166.149 0-301.336-126.468-301.336-281.906 0-66.575 25.59-130.962 70.868-181.374-145.487-19.826-257.697-137.039-257.697-278.623 0-155.551 135.102-282.097 301.169-282.097 86.548 0 167.427 34.094 224.62 94.080 52.859-42.926 121.595-69.11 196.879-69.11 133.704 0 249.559 80.374 288.302 199.997 2.734 8.453-2.376 17.393-11.402 19.953zM444.905 112.78c-30.936-46.367-85.113-75.064-143.741-75.064-93.591 0-169.721 71.342-169.721 159.048 0 87.608 76.13 158.874 169.721 158.874 51.006 0 99.466-21.98 131.516-58.808-7.093-23.956-11.187-49.075-11.187-75.116 0.003-38.6 8.36-75.397 23.412-108.933zM221.011 656.761c0 137.796 119.847 249.907 267.151 249.907 147.219 0 266.986-112.109 266.986-249.907 0-56.72-19.866-109.863-57.19-154.297-79.104-6.058-149.473-40.838-199.494-93.169-54.809 44.692-124.071 69.373-197.303 69.373-0.040 0-0.076-0.006-0.116-0.006-50.817 46.655-80.035 111.115-80.035 178.099zM301.164-53.333c-147.222 0-266.984 112.189-266.984 250.092 0 137.795 119.763 249.908 266.984 249.908 65.376 0 127.177-22.191 175.911-62.337-12.472-16.456-23.295-34.068-31.812-52.859-37.939 35.441-89.824 56.166-144.1 56.166-112.435 0-203.905-85.627-203.905-190.879 0-105.344 91.47-191.048 203.905-191.048 63.656 0 123.083 28.047 161.375 74.511 10.947-17.587 23.869-33.905 38.475-48.814-50.764-53.827-122.617-84.741-199.849-84.741zM722.734 412.654c-112.486 0-203.991-85.673-203.991-190.966 0-105.298 91.505-190.956 203.991-190.956s203.991 85.658 203.991 190.956c0 105.298-91.505 190.966-203.991 190.966zM722.734 62.732c-93.624 0-169.805 71.311-169.805 158.95 0 87.66 76.18 158.971 169.805 158.971s169.805-71.311 169.805-158.971c0-87.639-76.18-158.95-169.805-158.95zM513.623 221.693c0 108.436 94.121 196.086 209.111 196.086s209.111-87.649 209.111-196.086c0-108.442-94.121-196.076-209.111-196.076s-209.111 87.639-209.111 196.076zM558.049 221.688c0-84.495 73.564-153.83 164.685-153.83s164.685 69.335 164.685 153.83c0 84.516-73.564 153.851-164.685 153.851s-164.685-69.335-164.685-153.851zM518.743 221.693c0 105.293 91.505 190.966 203.991 190.966s203.991-85.668 203.991-190.966c0-105.298-91.505-190.956-203.991-190.956s-203.991 85.658-203.991 190.956zM552.929 221.688c0-87.639 76.18-158.95 169.805-158.95s169.805 71.311 169.805 158.95c0 87.66-76.18 158.971-169.805 158.971s-169.805-71.311-169.805-158.971zM737.219 312.010c-6.241 9.344-22.733 9.344-28.974 0l-54.733-81.828c-3.471-5.187-3.471-11.781 0-16.968l54.733-81.843c6.682-9.999 22.282-10.020 28.974 0l54.733 81.843c3.471 5.187 3.471 11.781 0 16.968l-54.733 81.828zM722.734 170.012l-34.57 51.686 34.57 51.671 34.565-51.671-34.565-51.686zM450.554 669.218h75.162c9.452 0 17.091 7.155 17.091 15.999s-7.639 15.999-17.091 15.999h-75.162c-9.448 0-17.092-7.155-17.092-15.999s7.644-15.999 17.092-15.999zM525.716 664.102c11.955 0 22.216 9.135 22.216 21.12s-10.26 21.119-22.216 21.119h-75.161c-11.952 0-22.212-9.135-22.212-21.119s10.26-21.12 22.212-21.12h75.161zM525.716 669.222h-75.161c-9.448 0-17.092 7.156-17.092 16s7.644 15.999 17.092 15.999h75.161c9.452 0 17.096-7.155 17.096-15.999s-7.644-16-17.096-16zM450.554 612.305h75.162c9.452 0 17.091 7.156 17.091 16s-7.639 15.999-17.091 15.999h-75.162c-9.448 0-17.092-7.155-17.092-15.999s7.644-16 17.092-16zM525.716 607.178c11.955 0 22.216 9.135 22.216 21.119s-10.26 21.12-22.216 21.12h-75.161c-11.952 0-22.212-9.135-22.212-21.12s10.26-21.119 22.212-21.119h75.161zM525.716 612.298h-75.161c-9.448 0-17.092 7.155-17.092 15.999s7.644 16 17.092 16h75.161c9.452 0 17.096-7.156 17.096-16s-7.644-15.999-17.096-15.999zM387.522 230.187l-49.024 6.671-21.949 41.595c-5.742 10.936-24.903 10.936-30.645 0l-21.915-41.595-49.058-6.671c-6.442-0.876-11.785-5.094-13.803-10.875-2.002-5.796-0.334-12.16 4.324-16.41l35.486-32.389-8.362-45.716c-1.101-6.001 1.537-12.078 6.795-15.657 5.292-3.574 12.251-4.045 18.011-1.198l43.849 21.591 43.881-21.591c12.432-6.129 27.212 3.722 24.803 16.87l-8.396 45.722 35.487 32.374c4.656 4.25 6.326 10.609 4.324 16.389-2.023 5.796-7.366 10.015-13.808 10.89zM331.204 187.563c-4.023-3.671-5.858-8.97-4.908-14.172l4.056-22.031-21.166 10.404c-5.008 2.473-10.949 2.473-15.924 0l-21.148-10.419 4.023 22.062c0.952 5.187-0.885 10.481-4.908 14.157l-17.11 15.621 23.668 3.22c5.575 0.748 10.382 4.029 12.869 8.75l10.583 20.060 10.583-20.060c2.486-4.736 7.294-8.003 12.869-8.75l23.634-3.22-17.121-15.621z" />
<glyph unicode="&#xe913;" glyph-name="sorting-listing" horiz-adv-x="1097" d="M585.143 828.953c0 9.699-3.853 19.002-10.712 25.86s-16.16 10.712-25.86 10.712h-512c-9.699 0-19.001-3.853-25.86-10.712s-10.711-16.16-10.711-25.86v-73.143c0-9.699 3.853-19.002 10.711-25.86s16.161-10.712 25.86-10.712h512c9.699 0 19.002 3.853 25.86 10.712s10.712 16.16 10.712 25.86v73.143zM1097.143 134.096c0 58.192-23.12 114.009-64.271 155.159s-96.965 64.269-155.158 64.269c-58.192 0-114.008-23.118-155.159-64.269s-64.269-96.967-64.269-155.159c0-58.192 23.118-114.008 64.269-155.158s96.967-64.271 155.159-64.271c58.192 0 114.008 23.12 155.158 64.271s64.271 96.965 64.271 155.158zM585.143 243.81c0 9.699-3.853 19.002-10.712 25.86s-16.16 10.712-25.86 10.712h-512c-9.699 0-19.001-3.853-25.86-10.712s-10.711-16.16-10.711-25.86v-73.143c0-9.699 3.853-19.003 10.711-25.863 6.858-6.853 16.161-10.708 25.86-10.708h512c9.699 0 19.002 3.855 25.86 10.708 6.859 6.861 10.712 16.165 10.712 25.863v73.143zM585.143 609.524c0 9.699-3.853 19.002-10.712 25.86s-16.16 10.712-25.86 10.712h-365.714c-9.699 0-19.002-3.853-25.86-10.712s-10.712-16.16-10.712-25.86c0-9.699 3.853-19.002 10.712-25.86s16.16-10.712 25.86-10.712h365.714c9.699 0 19.002 3.853 25.86 10.712s10.712 16.16 10.712 25.86zM585.143 24.381c0 9.699-3.853 19.003-10.712 25.863-6.858 6.853-16.16 10.708-25.86 10.708h-365.714c-9.699 0-19.002-3.855-25.86-10.708-6.859-6.861-10.712-16.165-10.712-25.863s3.853-19.003 10.712-25.863c6.858-6.853 16.16-10.708 25.86-10.708h365.714c9.699 0 19.002 3.855 25.86 10.708 6.859 6.861 10.712 16.165 10.712 25.863zM877.714 938.667c28.818 0 57.351-5.676 83.975-16.703 26.617-11.027 50.805-27.19 71.183-47.566s36.542-44.565 47.565-71.188c11.030-26.623 16.706-55.156 16.706-83.972s-5.676-57.349-16.706-83.972c-11.023-26.623-27.187-50.812-47.565-71.188s-44.566-36.539-71.183-47.566c-26.624-11.027-55.157-16.703-83.975-16.703-58.192 0-114.008 23.118-155.159 64.269s-64.269 96.963-64.269 155.159c0 58.196 23.118 114.009 64.269 155.159s96.967 64.269 155.159 64.269zM877.714 609.524c29.096 0 57.008 11.559 77.583 32.135s32.132 48.482 32.132 77.58c0 29.098-11.557 57.005-32.132 77.58s-48.486 32.135-77.583 32.135c-29.096 0-57.008-11.559-77.583-32.135s-32.132-48.482-32.132-77.58c0-29.098 11.557-57.005 32.132-77.58s48.486-32.135 77.583-32.135z" />
<glyph unicode="&#xe914;" glyph-name="tick-o" d="M1024 426.667c0-135.789-53.946-266.022-149.958-362.042-96.019-96.013-226.253-149.958-362.042-149.958-135.791 0-266.020 53.946-362.038 149.958-96.019 96.019-149.962 226.253-149.962 362.042 0 135.791 53.943 266.020 149.962 362.038s226.248 149.962 362.038 149.962c135.789 0 266.022-53.943 362.042-149.962 96.013-96.019 149.958-226.248 149.958-362.038zM769.92 620.587c-4.57 4.556-10.016 8.143-16.006 10.546s-12.403 3.575-18.854 3.444c-6.451-0.132-12.813-1.563-18.694-4.209-5.888-2.646-11.181-6.451-15.565-11.189l-222.272-283.2-133.952 134.016c-9.099 8.479-21.134 13.094-33.569 12.875s-24.3-5.257-33.094-14.051c-8.794-8.794-13.832-20.659-14.051-33.094s4.396-24.47 12.875-33.569l169.344-169.408c4.562-4.557 9.994-8.141 15.973-10.554 5.979-2.406 12.382-3.584 18.827-3.469 6.444 0.122 12.799 1.536 18.685 4.166s11.181 6.419 15.571 11.136l255.488 319.36c8.71 9.056 13.523 21.166 13.402 33.731s-5.158 24.581-14.042 33.469h-0.064z" />
<glyph unicode="&#xe915;" glyph-name="tick" d="M512-21.333c-118.817 0-232.768 47.2-316.783 131.217-84.017 84.015-131.217 197.966-131.217 316.783s47.2 232.768 131.217 316.783c84.015 84.017 197.966 131.217 316.783 131.217s232.768-47.2 316.783-131.217c84.017-84.015 131.217-197.966 131.217-316.783s-47.2-232.768-131.217-316.783c-84.015-84.017-197.966-131.217-316.783-131.217zM512-85.333c135.791 0 266.020 53.943 362.039 149.961s149.961 226.248 149.961 362.039-53.943 266.020-149.961 362.039c-96.019 96.018-226.248 149.961-362.039 149.961s-266.020-53.943-362.039-149.961c-96.018-96.019-149.961-226.248-149.961-362.039s53.943-266.020 149.961-362.039c96.019-96.018 226.248-149.961 362.039-149.961zM702.080 620.587c-0.456-0.442-0.883-0.913-1.28-1.408l-222.272-283.2-133.952 134.016c-9.1 8.479-21.134 13.094-33.569 12.876-12.435-0.22-24.3-5.257-33.094-14.052s-13.832-20.659-14.052-33.094c-0.219-12.435 4.397-24.47 12.876-33.569l169.344-169.408c4.562-4.554 9.994-8.142 15.973-10.551s12.381-3.588 18.826-3.469 12.8 1.536 18.685 4.164c5.885 2.629 11.181 6.417 15.571 11.136l255.488 319.36c8.7 9.13 13.455 21.318 13.242 33.929-0.215 12.609-5.385 24.628-14.39 33.457s-21.125 13.76-33.736 13.724c-12.612-0.035-24.703-5.032-33.66-13.91z" />
<glyph unicode="&#xe916;" glyph-name="arrow-up" horiz-adv-x="768" d="M504 484.693v-570.026h-240v570.026h-264l384 453.974 384-453.718-264-0.256z" />
<glyph unicode="&#xe917;" glyph-name="arrow-left" horiz-adv-x="1109" d="M1109.342 426.67c0-16.974-6.741-33.253-18.739-45.255-12.006-12.002-28.288-18.745-45.261-18.745h-741.502l274.816-274.688c5.95-5.95 10.671-13.016 13.891-20.79s4.878-16.111 4.878-24.525c0-8.414-1.658-16.742-4.878-24.516-3.22-7.782-7.941-14.839-13.891-20.796-5.95-5.948-13.015-10.667-20.789-13.892-7.775-3.217-16.108-4.873-24.523-4.873s-16.748 1.655-24.523 4.873c-7.774 3.226-14.839 7.945-20.789 13.892l-384 384.003c-5.96 5.945-10.689 13.007-13.915 20.783s-4.887 16.111-4.887 24.529c0 8.418 1.661 16.753 4.887 24.529s7.956 14.838 13.915 20.783l384 384c12.017 12.017 28.317 18.769 45.312 18.769s33.295-6.751 45.312-18.769c12.017-12.017 18.769-28.317 18.769-45.312s-6.752-33.295-18.769-45.312l-274.816-274.688h741.502c16.973 0 33.254-6.743 45.261-18.745 11.998-12.002 18.739-28.281 18.739-45.255z" />
</font>
</defs>
</svg>
