<svg width="18" height="18" viewBox="0 0 18 18" fill="none" xmlns="http://www.w3.org/2000/svg">
<path d="M14.361 1.3575C13.5278 0.40725 12.021 0 10.0935 0H4.49929C4.10554 0 3.76954 0.2865 3.70804 0.67575L1.38004 15.4485C1.36919 15.5171 1.37335 15.5872 1.39223 15.654C1.41111 15.7208 1.44426 15.7828 1.48939 15.8355C1.53452 15.8883 1.59056 15.9306 1.65365 15.9596C1.71673 15.9886 1.78536 16.0036 1.85479 16.0035H5.30854L6.17554 10.5022L6.14854 10.6747C6.20929 10.2862 6.54379 9.99975 6.93679 9.999H8.57779C11.802 9.999 14.3258 8.6895 15.063 4.90125C15.0848 4.7895 15.1035 4.68 15.12 4.5735C15.339 3.17325 15.1185 2.22075 14.361 1.3575Z" fill="#003087"/>
<path d="M14.361 1.3575C13.5278 0.40725 12.021 0 10.0935 0H4.49929C4.10554 0 3.76954 0.2865 3.70804 0.67575L1.38004 15.4485C1.36919 15.5171 1.37335 15.5872 1.39223 15.654C1.41111 15.7208 1.44426 15.7828 1.48939 15.8355C1.53452 15.8883 1.59056 15.9306 1.65365 15.9596C1.71673 15.9886 1.78536 16.0036 1.85479 16.0035H5.30854L6.17554 10.5022L6.14854 10.6747C6.20929 10.2862 6.54379 9.99975 6.93679 9.999H8.57779C11.802 9.999 14.3258 8.6895 15.063 4.90125C15.0848 4.7895 15.1035 4.68 15.12 4.5735C15.339 3.17325 15.1185 2.22075 14.361 1.3575Z" fill="#003087"/>
<path d="M7.10631 4.59225C7.13237 4.42756 7.21633 4.27757 7.34308 4.16924C7.46983 4.06091 7.63107 4.00134 7.79781 4.00125H12.1831C12.7021 4.00125 13.1866 4.035 13.6298 4.1055C13.8719 4.1443 14.1113 4.1979 14.3468 4.266C14.6146 4.341 14.8733 4.4445 15.1193 4.5735C15.3391 3.17325 15.1186 2.22075 14.3611 1.35675C13.5271 0.40725 12.0211 0 10.0936 0H4.49931C4.10556 0 3.77031 0.2865 3.70881 0.67575L1.37931 15.4478C1.36847 15.5163 1.37261 15.5863 1.39145 15.6531C1.41028 15.7198 1.44336 15.7817 1.48841 15.8345C1.53346 15.8872 1.58941 15.9296 1.65241 15.9586C1.7154 15.9877 1.78394 16.0027 1.85331 16.0028H5.30706L6.17406 10.5008L7.10631 4.59225Z" fill="#003087"/>
<path d="M15.12 4.57349C15.1027 4.68299 15.084 4.79249 15.063 4.90124C14.3257 8.68874 11.8012 9.99899 8.57772 9.99899H6.93522C6.54222 9.99899 6.20772 10.2862 6.14772 10.6747L5.30697 16.0035L5.06772 17.5147C5.05829 17.5747 5.06197 17.636 5.07853 17.6945C5.09508 17.7529 5.1241 17.807 5.1636 17.8532C5.20309 17.8993 5.25212 17.9363 5.3073 17.9616C5.36248 17.987 5.4225 18.0001 5.48322 18H8.39472C8.73897 18 9.03222 17.7487 9.08622 17.409L9.11472 17.2605L9.66372 13.7835L9.69822 13.5915C9.72431 13.4267 9.80837 13.2766 9.93528 13.1682C10.0622 13.0599 10.2236 13.0004 10.3905 13.0005H10.8262C13.6462 13.0005 15.8542 11.8552 16.5 8.54099C16.7685 7.15649 16.6297 5.99999 15.9172 5.18849C15.6911 4.93667 15.4209 4.72825 15.12 4.57349Z" fill="#009CDE"/>
<path d="M14.3475 4.26596C14.2325 4.23224 14.1165 4.20247 13.9995 4.17671C13.8769 4.14988 13.7536 4.12662 13.6297 4.10696C13.1511 4.03312 12.6673 3.99776 12.183 4.00121H7.79772C7.63075 4.00087 7.46918 4.06037 7.34231 4.16894C7.21545 4.2775 7.13169 4.42793 7.10622 4.59296L6.17397 10.503L6.14697 10.6747C6.20697 10.2862 6.54147 9.99971 6.93447 9.99896H8.57622C11.8005 9.99896 14.3242 8.68946 15.0615 4.90121C15.0832 4.78946 15.102 4.68071 15.1185 4.57346C14.9235 4.47146 14.721 4.38596 14.5117 4.31771C14.4575 4.2989 14.4027 4.28164 14.3475 4.26596Z" fill="#012169"/>
</svg>
