<svg width="24" height="20" viewBox="0 0 24 20" fill="none" xmlns="http://www.w3.org/2000/svg">
<path d="M23.25 19.2857V11.8224H20.75V16.251L18.6665 14.93L16.583 16.251V11.8224H14.083V19.2857H23.25ZM9.9165 19.2857V11.8224H7.4165V16.251L5.333 14.93L3.25 16.2529V11.8243H0.75V19.2857H9.9165ZM23.3335 20H14C13.8233 19.9995 13.654 19.9324 13.5291 19.8134C13.4042 19.6943 13.3339 19.533 13.3335 19.3648V11.7433C13.3339 11.5751 13.4042 11.4138 13.5291 11.2947C13.654 11.1757 13.8233 11.1086 14 11.1081H17.3335V14.9176L18.667 14.0719L20.0005 14.9176V11.1081H23.334C23.5107 11.1086 23.68 11.1757 23.8049 11.2947C23.9298 11.4138 24.0001 11.5751 24.0005 11.7433V19.3648C24.0001 19.5331 23.9297 19.6945 23.8047 19.8135C23.6797 19.9326 23.5103 19.9996 23.3335 20ZM10 20H0.6665C0.489809 19.9995 0.320513 19.9324 0.19562 19.8134C0.0707272 19.6943 0.000395677 19.533 0 19.3648V11.7433C0.000395677 11.5751 0.0707272 11.4138 0.19562 11.2947C0.320513 11.1757 0.489809 11.1086 0.6665 11.1081H4V14.9176L5.3335 14.0719L6.667 14.9176V11.1081H10.0005C10.1772 11.1086 10.3465 11.1757 10.4714 11.2947C10.5963 11.4138 10.6666 11.5751 10.667 11.7433V19.3648C10.6666 19.5331 10.5962 19.6945 10.4712 19.8135C10.3462 19.9326 10.1768 19.9996 10 20ZM16.661 8.8919H7.328C7.15131 8.8914 6.98201 8.8243 6.85712 8.70526C6.73223 8.58623 6.6619 8.42494 6.6615 8.25667V0.635238C6.6619 0.466961 6.73223 0.305676 6.85712 0.186641C6.98201 0.0676064 7.15131 0.000503027 7.328 0L10.6615 0V3.80952L11.9945 2.96524L13.328 3.80952V0H16.6615C16.8382 0.000503027 17.0075 0.0676064 17.1324 0.186641C17.2573 0.305676 17.3276 0.466961 17.328 0.635238V8.25667C17.3276 8.42503 17.2572 8.58638 17.1322 8.70543C17.0072 8.82448 16.8378 8.89153 16.661 8.8919Z" fill="#1976D2"/>
</svg>
