<svg width="18" height="18" viewBox="0 0 18 18" fill="none" xmlns="http://www.w3.org/2000/svg">
<path d="M18.0001 9.19994C18.0001 8.58746 17.9491 7.97498 17.8471 7.375H9.18665V10.8374H14.1482C13.9441 11.9499 13.2809 12.9498 12.3115 13.5748V15.8247H15.2706C17.0052 14.2623 18.0001 11.9499 18.0001 9.19994Z" fill="#4285F4"/>
<path d="M9.18647 18C11.6609 18 13.7526 17.2 15.2704 15.8251L12.3114 13.5751C11.4823 14.1251 10.4237 14.4376 9.18647 14.4376C6.7886 14.4376 4.76061 12.8502 4.03359 10.7252H0.985229V13.0501C2.5413 16.0751 5.7172 18 9.18647 18Z" fill="#34A853"/>
<path d="M4.03365 10.7253C3.65101 9.61287 3.65101 8.40041 4.03365 7.27544V4.96301H0.985287C0.337562 6.21418 0 7.5974 0 9.00039C0 10.4034 0.337562 11.7866 0.985287 13.0378L4.03365 10.7253Z" fill="#FBBC04"/>
<path d="M9.18647 3.56293C10.5002 3.53794 11.7629 4.02542 12.7068 4.91289L15.3215 2.35047C13.6633 0.813019 11.4696 -0.0244553 9.18647 0.000543957C5.7172 0.000543957 2.5413 1.92549 0.985229 4.96289L4.03359 7.28782C4.7606 5.15039 6.78859 3.56293 9.18647 3.56293Z" fill="#EA4335"/>
</svg>
