<svg width="368" height="38" viewBox="0 0 368 38" fill="none" xmlns="http://www.w3.org/2000/svg">
<path d="M3.97017 24.5455V34H3.10689V25.4503H3.05149L0.835582 26.9229V26.0273L3.06996 24.5455H3.97017ZM7.10162 34V33.3675L10.19 29.896C10.5932 29.4405 10.9179 29.0511 11.1641 28.728C11.4103 28.4048 11.5888 28.1063 11.6996 27.8324C11.8135 27.5585 11.8704 27.2738 11.8704 26.9783C11.8704 26.6183 11.7858 26.3043 11.6165 26.0366C11.4503 25.7657 11.2211 25.5549 10.9287 25.4041C10.6363 25.2533 10.307 25.1779 9.94075 25.1779C9.55297 25.1779 9.21289 25.261 8.92051 25.4272C8.63121 25.5934 8.40654 25.8211 8.24651 26.1104C8.08647 26.3997 8.00645 26.7321 8.00645 27.1076H7.1801C7.1801 26.5844 7.30013 26.1212 7.54018 25.718C7.78332 25.3118 8.11417 24.9933 8.53273 24.7624C8.95437 24.5316 9.4314 24.4162 9.96384 24.4162C10.4901 24.4162 10.9579 24.5301 11.3672 24.7578C11.7766 24.9825 12.0982 25.2887 12.3321 25.6765C12.566 26.0643 12.6829 26.4982 12.6829 26.9783C12.6829 27.3261 12.6214 27.6631 12.4983 27.9893C12.3783 28.3156 12.1705 28.6787 11.8751 29.0788C11.5796 29.4789 11.1703 29.9683 10.6471 30.5469L8.3019 33.1644V33.2244H12.9784V34H7.10162ZM16.695 32.7074L16.6119 33.2013C16.5596 33.5337 16.4857 33.9 16.3903 34.3001C16.2949 34.7002 16.1964 35.0803 16.0948 35.4403C15.9933 35.8004 15.9056 36.0897 15.8317 36.3082H15.1992C15.2393 36.099 15.29 35.8327 15.3516 35.5096C15.4162 35.1864 15.4824 34.8279 15.5501 34.4339C15.6178 34.0431 15.6794 33.6399 15.7348 33.2244L15.7994 32.7074H16.695ZM21.6407 34.1293C20.9759 34.1293 20.4081 33.9384 19.9372 33.5568C19.4694 33.1721 19.1093 32.6166 18.857 31.8903C18.6077 31.1639 18.483 30.2914 18.483 29.2727C18.483 28.2571 18.6077 27.3877 18.857 26.6644C19.1093 25.9381 19.471 25.3826 19.9418 24.9979C20.4158 24.6101 20.9821 24.4162 21.6407 24.4162C22.2993 24.4162 22.8641 24.6101 23.335 24.9979C23.8089 25.3826 24.1705 25.9381 24.4198 26.6644C24.6722 27.3877 24.7984 28.2571 24.7984 29.2727C24.7984 30.2914 24.6722 31.1639 24.4198 31.8903C24.1705 32.6166 23.8105 33.1721 23.3396 33.5568C22.8718 33.9384 22.3055 34.1293 21.6407 34.1293ZM21.6407 33.3537C22.3701 33.3537 22.9395 32.9982 23.3488 32.2873C23.7581 31.5733 23.9628 30.5684 23.9628 29.2727C23.9628 28.411 23.8689 27.6754 23.6812 27.0661C23.4965 26.4536 23.2303 25.9858 22.8825 25.6626C22.5378 25.3395 22.1239 25.1779 21.6407 25.1779C20.9175 25.1779 20.3496 25.538 19.9372 26.2582C19.5248 26.9753 19.3186 27.9801 19.3186 29.2727C19.3186 30.1345 19.4109 30.87 19.5956 31.4794C19.7833 32.0888 20.0496 32.5535 20.3943 32.8736C20.742 33.1937 21.1575 33.3537 21.6407 33.3537ZM29.781 24.4162C30.175 24.4193 30.5566 24.4993 30.9259 24.6562C31.2983 24.8101 31.6338 25.0594 31.9323 25.4041C32.2308 25.7457 32.4678 26.2012 32.6433 26.7706C32.8187 27.3369 32.9064 28.034 32.9064 28.8619C32.9064 29.6344 32.8387 30.3422 32.7033 30.9854C32.5678 31.6287 32.3647 32.1857 32.0939 32.6566C31.8261 33.1244 31.4876 33.4876 31.0783 33.7461C30.672 34.0015 30.1965 34.1293 29.6518 34.1293C29.144 34.1293 28.6931 34.0231 28.2991 33.8107C27.9083 33.5984 27.5913 33.3045 27.3482 32.929C27.105 32.5504 26.9542 32.1134 26.8957 31.6179H27.7452C27.8283 32.1226 28.0314 32.5381 28.3545 32.8643C28.6808 33.1906 29.1132 33.3537 29.6518 33.3537C30.4243 33.3537 31.0244 32.9936 31.4522 32.2734C31.88 31.5533 32.0939 30.5284 32.0939 29.1989H32.0339C31.8861 29.4759 31.6923 29.7174 31.4522 29.9237C31.2152 30.1299 30.9444 30.2914 30.6397 30.4084C30.335 30.5223 30.0134 30.5792 29.6749 30.5792C29.1486 30.5792 28.6669 30.4469 28.2299 30.1822C27.7929 29.9144 27.4436 29.5497 27.182 29.0881C26.9204 28.6233 26.7896 28.094 26.7896 27.5C26.7896 26.9399 26.9127 26.4259 27.1589 25.9581C27.4082 25.4872 27.7559 25.1117 28.2022 24.8317C28.6515 24.5485 29.1778 24.41 29.781 24.4162ZM29.781 25.1918C29.3717 25.1918 29.0039 25.2964 28.6777 25.5057C28.3545 25.7119 28.0976 25.9904 27.9067 26.3413C27.719 26.689 27.6251 27.0753 27.6251 27.5C27.6251 27.9278 27.719 28.3171 27.9067 28.668C28.0976 29.0157 28.3545 29.2927 28.6777 29.4989C29.0039 29.7021 29.3717 29.8036 29.781 29.8036C30.095 29.8036 30.3873 29.7405 30.6582 29.6143C30.929 29.4851 31.1629 29.3097 31.3599 29.0881C31.5599 28.8665 31.7107 28.6156 31.8123 28.3356C31.9169 28.0524 31.9585 27.7554 31.9369 27.4446C31.9 27.0137 31.7846 26.629 31.5907 26.2905C31.3999 25.9489 31.1475 25.6811 30.8336 25.4872C30.5227 25.2902 30.1719 25.1918 29.781 25.1918ZM38.1891 34.1293C37.6074 34.1293 37.0873 34.0246 36.6287 33.8153C36.1702 33.603 35.807 33.3091 35.5393 32.9336C35.2715 32.5581 35.1299 32.1257 35.1145 31.6364H35.9871C36.0024 31.9811 36.1086 32.2827 36.3056 32.5412C36.5026 32.7966 36.7642 32.9967 37.0904 33.1413C37.4166 33.2829 37.7798 33.3537 38.1799 33.3537C38.6169 33.3537 39.0016 33.2721 39.334 33.109C39.6695 32.9459 39.9311 32.7228 40.1188 32.4396C40.3096 32.1534 40.405 31.8303 40.405 31.4702C40.405 31.0885 40.3081 30.7515 40.1142 30.4592C39.9203 30.1668 39.6418 29.939 39.2786 29.7759C38.9185 29.6128 38.4876 29.5312 37.986 29.5312H37.432V28.7557H37.986C38.3953 28.7557 38.7569 28.6818 39.0709 28.5341C39.3879 28.3833 39.6372 28.1725 39.8187 27.9016C40.0003 27.6308 40.0911 27.3123 40.0911 26.946C40.0911 26.5982 40.0126 26.292 39.8557 26.0273C39.6987 25.7627 39.4771 25.5549 39.1909 25.4041C38.9077 25.2533 38.5769 25.1779 38.1983 25.1779C37.8321 25.1779 37.4966 25.2487 37.192 25.3903C36.8873 25.5318 36.6411 25.7319 36.4533 25.9904C36.2687 26.2489 36.1702 26.5552 36.1579 26.9091H35.3223C35.3346 26.4167 35.47 25.9843 35.7285 25.6119C35.9901 25.2364 36.3364 24.944 36.7672 24.7347C37.2012 24.5224 37.6813 24.4162 38.2076 24.4162C38.7646 24.4162 39.2463 24.5301 39.6525 24.7578C40.0588 24.9856 40.3727 25.2887 40.5943 25.6673C40.819 26.0427 40.9313 26.4567 40.9313 26.9091C40.9313 27.4477 40.7851 27.9093 40.4927 28.294C40.2004 28.6757 39.8064 28.9403 39.3109 29.0881V29.1481C39.9141 29.2681 40.3881 29.5359 40.7328 29.9513C41.0806 30.3638 41.2545 30.87 41.2545 31.4702C41.2545 31.9749 41.1221 32.4289 40.8574 32.832C40.5928 33.2321 40.2296 33.5491 39.768 33.783C39.3094 34.0138 38.7831 34.1293 38.1891 34.1293Z" fill="#EFF2F3"/>
<rect width="12" height="12" rx="6" fill="#26B3A3"/>
<path d="M31.8206 7.45155C31.0191 10.6658 27.763 12.6218 24.548 11.8204C21.3344 11.019 19.378 7.76328 20.1797 4.54924C20.9808 1.33455 24.2367 -0.621837 27.4508 0.179554C30.6657 0.980946 32.6219 4.23703 31.8204 7.45155H31.8206Z" fill="#F68621"/>
<path d="M27.3444 5.13335C27.1588 5.8769 26.0132 5.49918 25.6414 5.40662L25.9691 4.0921C26.3409 4.18482 27.5379 4.35771 27.3444 5.13335ZM27.141 7.25432C26.9374 8.07184 25.5611 7.63008 25.1147 7.51911L25.4762 6.06983C25.9224 6.18129 27.3533 6.40176 27.1412 7.25432H27.141ZM28.6453 5.14509C28.7646 4.34679 28.1567 3.91758 27.3255 3.63128L27.5951 2.54977L26.9366 2.38568L26.6741 3.43883C26.5013 3.39565 26.3235 3.35491 26.1469 3.31466L26.4113 2.25467L25.7533 2.09074L25.4835 3.17176C25.3403 3.13917 25.1996 3.1069 25.0631 3.07301L25.0639 3.06958L24.156 2.84292L23.9809 3.54605L24.459 3.66484C24.7256 3.73149 24.774 3.90797 24.7658 4.04778L24.4577 5.28457L24.027 7.01038C23.9944 7.09137 23.9117 7.21293 23.7253 7.16681L23.2468 7.04737L22.92 7.80118L23.7769 8.01465C23.9363 8.05457 24.0925 8.09645 24.246 8.13572L23.9736 9.22977L24.6311 9.39386L24.9011 8.31171C25.0805 8.36043 25.255 8.4054 25.4255 8.44777L25.1567 9.52504L25.815 9.68896L26.0874 8.5972C27.21 8.80968 28.0543 8.72397 28.4093 7.70879C28.6956 6.89127 28.3952 6.41985 27.8046 6.11204C28.2347 6.01264 28.5586 5.72959 28.6451 5.14509H28.6453Z" fill="white"/>
<path d="M226.325 34L230.632 25.381V25.321H225.669V24.5455H231.537V25.358L227.234 34H226.325ZM233.412 32.7074L233.328 33.2013C233.276 33.5337 233.202 33.9 233.107 34.3001C233.011 34.7002 232.913 35.0803 232.811 35.4403C232.71 35.8004 232.622 36.0897 232.548 36.3082H231.916C231.956 36.099 232.007 35.8327 232.068 35.5096C232.133 35.1864 232.199 34.8279 232.267 34.4339C232.334 34.0431 232.396 33.6399 232.451 33.2244L232.516 32.7074H233.412ZM238.504 34.1293C237.922 34.1293 237.402 34.0246 236.943 33.8153C236.485 33.603 236.122 33.3091 235.854 32.9336C235.586 32.5581 235.445 32.1257 235.429 31.6364H236.302C236.317 31.9811 236.423 32.2827 236.62 32.5412C236.817 32.7966 237.079 32.9967 237.405 33.1413C237.731 33.2829 238.095 33.3537 238.495 33.3537C238.932 33.3537 239.316 33.2721 239.649 33.109C239.984 32.9459 240.246 32.7228 240.434 32.4396C240.624 32.1534 240.72 31.8303 240.72 31.4702C240.72 31.0885 240.623 30.7515 240.429 30.4592C240.235 30.1668 239.956 29.939 239.593 29.7759C239.233 29.6128 238.802 29.5312 238.301 29.5312H237.747V28.7557H238.301C238.71 28.7557 239.072 28.6818 239.386 28.5341C239.703 28.3833 239.952 28.1725 240.133 27.9016C240.315 27.6308 240.406 27.3123 240.406 26.946C240.406 26.5982 240.327 26.292 240.17 26.0273C240.013 25.7627 239.792 25.5549 239.506 25.4041C239.222 25.2533 238.892 25.1779 238.513 25.1779C238.147 25.1779 237.811 25.2487 237.507 25.3903C237.202 25.5318 236.956 25.7319 236.768 25.9904C236.583 26.2489 236.485 26.5552 236.473 26.9091H235.637C235.649 26.4167 235.785 25.9843 236.043 25.6119C236.305 25.2364 236.651 24.944 237.082 24.7347C237.516 24.5224 237.996 24.4162 238.522 24.4162C239.079 24.4162 239.561 24.5301 239.967 24.7578C240.374 24.9856 240.687 25.2887 240.909 25.6673C241.134 26.0427 241.246 26.4567 241.246 26.9091C241.246 27.4477 241.1 27.9093 240.807 28.294C240.515 28.6757 240.121 28.9403 239.626 29.0881V29.1481C240.229 29.2681 240.703 29.5359 241.048 29.9513C241.395 30.3638 241.569 30.87 241.569 31.4702C241.569 31.9749 241.437 32.4289 241.172 32.832C240.907 33.2321 240.544 33.5491 240.083 33.783C239.624 34.0138 239.098 34.1293 238.504 34.1293ZM243.87 34V33.3675L246.958 29.896C247.361 29.4405 247.686 29.0511 247.932 28.728C248.178 28.4048 248.357 28.1063 248.468 27.8324C248.582 27.5585 248.638 27.2738 248.638 26.9783C248.638 26.6183 248.554 26.3043 248.385 26.0366C248.218 25.7657 247.989 25.5549 247.697 25.4041C247.404 25.2533 247.075 25.1779 246.709 25.1779C246.321 25.1779 245.981 25.261 245.689 25.4272C245.399 25.5934 245.175 25.8211 245.015 26.1104C244.855 26.3997 244.774 26.7321 244.774 27.1076H243.948C243.948 26.5844 244.068 26.1212 244.308 25.718C244.551 25.3118 244.882 24.9933 245.301 24.7624C245.722 24.5316 246.199 24.4162 246.732 24.4162C247.258 24.4162 247.726 24.5301 248.135 24.7578C248.545 24.9825 248.866 25.2887 249.1 25.6765C249.334 26.0643 249.451 26.4982 249.451 26.9783C249.451 27.3261 249.389 27.6631 249.266 27.9893C249.146 28.3156 248.939 28.6787 248.643 29.0788C248.348 29.4789 247.938 29.9683 247.415 30.5469L245.07 33.1644V33.2244H249.746V34H243.87ZM254.83 34.1293C254.303 34.1293 253.832 34.0231 253.417 33.8107C253.004 33.5953 252.675 33.2998 252.429 32.9244C252.186 32.5489 252.057 32.1196 252.041 31.6364H252.877C252.904 32.138 253.101 32.5504 253.468 32.8736C253.834 33.1937 254.288 33.3537 254.83 33.3537C255.251 33.3537 255.627 33.2537 255.956 33.0536C256.285 32.8505 256.542 32.5735 256.727 32.2227C256.915 31.8687 257.008 31.4702 257.008 31.027C257.005 30.5653 256.905 30.1591 256.708 29.8082C256.511 29.4543 256.244 29.1773 255.905 28.9773C255.57 28.7772 255.193 28.6772 254.774 28.6772C254.457 28.6741 254.146 28.7264 253.842 28.8342C253.537 28.9419 253.283 29.0804 253.08 29.2496L252.217 29.1388L252.784 24.5455H257.456V25.321H253.509L253.131 28.4833H253.177C253.386 28.3079 253.64 28.1648 253.939 28.054C254.24 27.9432 254.559 27.8878 254.894 27.8878C255.451 27.8878 255.951 28.0217 256.394 28.2894C256.841 28.5572 257.193 28.9265 257.452 29.3974C257.713 29.8652 257.844 30.4038 257.844 31.0131C257.844 31.6102 257.713 32.1442 257.452 32.6151C257.193 33.0829 256.836 33.4522 256.381 33.723C255.928 33.9938 255.411 34.1293 254.83 34.1293Z" fill="#EFF2F3"/>
<rect x="225" width="12" height="12" rx="6" fill="#FED530"/>
<path d="M251 -3.8147e-05C254.314 -3.8147e-05 257 2.68621 257 5.99998C257 9.31375 254.314 12 251 12C247.686 12 245 9.31375 245 5.99998C245 2.68621 247.686 -3.8147e-05 251 -3.8147e-05Z" fill="#EBB219"/>
<path d="M249.447 5.35547L250.356 4.44995L250.547 4.25848L251.001 3.8045L252.547 5.35547L253.447 4.44995L251.001 1.99998L248.547 4.44995L249.447 5.35547Z" fill="white"/>
<path d="M250.099 5.99862L251.003 5.09489L251.906 5.99862L251.003 6.90234L250.099 5.99862Z" fill="white"/>
<path d="M252.547 6.64647L251.001 8.19304L250.458 7.65009L250.358 7.55004L249.447 6.64647L248.547 7.54662L251.001 9.99658L253.447 7.54662L252.547 6.64647Z" fill="white"/>
<path d="M247 6.00106L247.904 5.09733L248.807 6.00106L247.904 6.90479L247 6.00106Z" fill="white"/>
<path d="M253.193 6.00057L254.097 5.09685L255 6.00057L254.097 6.9043L253.193 6.00057Z" fill="white"/>
<path d="M329.97 24.5455V34H329.107V25.4503H329.051L326.836 26.9229V26.0273L329.07 24.5455H329.97ZM336.038 34.1293C335.373 34.1293 334.805 33.9384 334.334 33.5568C333.866 33.1721 333.506 32.6166 333.254 31.8903C333.005 31.1639 332.88 30.2914 332.88 29.2727C332.88 28.2571 333.005 27.3877 333.254 26.6644C333.506 25.9381 333.868 25.3826 334.339 24.9979C334.813 24.6101 335.379 24.4162 336.038 24.4162C336.696 24.4162 337.261 24.6101 337.732 24.9979C338.206 25.3826 338.568 25.9381 338.817 26.6644C339.069 27.3877 339.195 28.2571 339.195 29.2727C339.195 30.2914 339.069 31.1639 338.817 31.8903C338.568 32.6166 338.207 33.1721 337.737 33.5568C337.269 33.9384 336.702 34.1293 336.038 34.1293ZM336.038 33.3537C336.767 33.3537 337.336 32.9982 337.746 32.2873C338.155 31.5733 338.36 30.5684 338.36 29.2727C338.36 28.411 338.266 27.6754 338.078 27.0661C337.894 26.4536 337.627 25.9858 337.28 25.6626C336.935 25.3395 336.521 25.1779 336.038 25.1779C335.314 25.1779 334.747 25.538 334.334 26.2582C333.922 26.9753 333.716 27.9801 333.716 29.2727C333.716 30.1345 333.808 30.87 333.993 31.4794C334.18 32.0888 334.447 32.5535 334.791 32.8736C335.139 33.1937 335.555 33.3537 336.038 33.3537ZM342.34 32.7074L342.256 33.2013C342.204 33.5337 342.13 33.9 342.035 34.3001C341.939 34.7002 341.841 35.0803 341.739 35.4403C341.638 35.8004 341.55 36.0897 341.476 36.3082H340.844C340.884 36.099 340.935 35.8327 340.996 35.5096C341.061 35.1864 341.127 34.8279 341.195 34.4339C341.262 34.0431 341.324 33.6399 341.379 33.2244L341.444 32.7074H342.34ZM347.285 34.1293C346.62 34.1293 346.053 33.9384 345.582 33.5568C345.114 33.1721 344.754 32.6166 344.502 31.8903C344.252 31.1639 344.128 30.2914 344.128 29.2727C344.128 28.2571 344.252 27.3877 344.502 26.6644C344.754 25.9381 345.115 25.3826 345.586 24.9979C346.06 24.6101 346.627 24.4162 347.285 24.4162C347.944 24.4162 348.509 24.6101 348.979 24.9979C349.453 25.3826 349.815 25.9381 350.064 26.6644C350.317 27.3877 350.443 28.2571 350.443 29.2727C350.443 30.2914 350.317 31.1639 350.064 31.8903C349.815 32.6166 349.455 33.1721 348.984 33.5568C348.516 33.9384 347.95 34.1293 347.285 34.1293ZM347.285 33.3537C348.015 33.3537 348.584 32.9982 348.993 32.2873C349.403 31.5733 349.607 30.5684 349.607 29.2727C349.607 28.411 349.513 27.6754 349.326 27.0661C349.141 26.4536 348.875 25.9858 348.527 25.6626C348.182 25.3395 347.768 25.1779 347.285 25.1779C346.562 25.1779 345.994 25.538 345.582 26.2582C345.169 26.9753 344.963 27.9801 344.963 29.2727C344.963 30.1345 345.055 30.87 345.24 31.4794C345.428 32.0888 345.694 32.5535 346.039 32.8736C346.387 33.1937 346.802 33.3537 347.285 33.3537ZM355.518 34.1293C354.853 34.1293 354.285 33.9384 353.814 33.5568C353.347 33.1721 352.987 32.6166 352.734 31.8903C352.485 31.1639 352.36 30.2914 352.36 29.2727C352.36 28.2571 352.485 27.3877 352.734 26.6644C352.987 25.9381 353.348 25.3826 353.819 24.9979C354.293 24.6101 354.859 24.4162 355.518 24.4162C356.177 24.4162 356.741 24.6101 357.212 24.9979C357.686 25.3826 358.048 25.9381 358.297 26.6644C358.549 27.3877 358.676 28.2571 358.676 29.2727C358.676 30.2914 358.549 31.1639 358.297 31.8903C358.048 32.6166 357.688 33.1721 357.217 33.5568C356.749 33.9384 356.183 34.1293 355.518 34.1293ZM355.518 33.3537C356.247 33.3537 356.817 32.9982 357.226 32.2873C357.635 31.5733 357.84 30.5684 357.84 29.2727C357.84 28.411 357.746 27.6754 357.558 27.0661C357.374 26.4536 357.108 25.9858 356.76 25.6626C356.415 25.3395 356.001 25.1779 355.518 25.1779C354.795 25.1779 354.227 25.538 353.814 26.2582C353.402 26.9753 353.196 27.9801 353.196 29.2727C353.196 30.1345 353.288 30.87 353.473 31.4794C353.661 32.0888 353.927 32.5535 354.271 32.8736C354.619 33.1937 355.035 33.3537 355.518 33.3537ZM363.751 34.1293C363.086 34.1293 362.518 33.9384 362.047 33.5568C361.579 33.1721 361.219 32.6166 360.967 31.8903C360.718 31.1639 360.593 30.2914 360.593 29.2727C360.593 28.2571 360.718 27.3877 360.967 26.6644C361.219 25.9381 361.581 25.3826 362.052 24.9979C362.526 24.6101 363.092 24.4162 363.751 24.4162C364.409 24.4162 364.974 24.6101 365.445 24.9979C365.919 25.3826 366.28 25.9381 366.53 26.6644C366.782 27.3877 366.908 28.2571 366.908 29.2727C366.908 30.2914 366.782 31.1639 366.53 31.8903C366.28 32.6166 365.92 33.1721 365.449 33.5568C364.982 33.9384 364.415 34.1293 363.751 34.1293ZM363.751 33.3537C364.48 33.3537 365.049 32.9982 365.459 32.2873C365.868 31.5733 366.073 30.5684 366.073 29.2727C366.073 28.411 365.979 27.6754 365.791 27.0661C365.606 26.4536 365.34 25.9858 364.992 25.6626C364.648 25.3395 364.234 25.1779 363.751 25.1779C363.027 25.1779 362.459 25.538 362.047 26.2582C361.635 26.9753 361.428 27.9801 361.428 29.2727C361.428 30.1345 361.521 30.87 361.705 31.4794C361.893 32.0888 362.159 32.5535 362.504 32.8736C362.852 33.1937 363.267 33.3537 363.751 33.3537Z" fill="#EFF2F3"/>
<rect x="326" width="12" height="12" rx="6" fill="#FB466C"/>
<path fill-rule="evenodd" clip-rule="evenodd" d="M358 6C358 9.31376 355.314 12 352 12C348.686 12 346 9.31376 346 6C346 2.68625 348.686 9.53674e-06 352 9.53674e-06C355.314 9.53674e-06 358 2.68625 358 6Z" fill="#EF3544"/>
<path fill-rule="evenodd" clip-rule="evenodd" d="M350.3 8.3877H349.135C348.891 8.3877 348.77 8.3877 348.696 8.34044C348.616 8.28895 348.568 8.2034 348.562 8.10905C348.557 8.0222 348.618 7.91595 348.739 7.70379L351.614 2.63587C351.736 2.42078 351.798 2.31307 351.876 2.27331C351.96 2.23062 352.061 2.23062 352.144 2.27331C352.223 2.31307 352.285 2.42078 352.407 2.63587L352.998 3.66768L353.001 3.67289C353.133 3.90379 353.2 4.02095 353.229 4.14382C353.262 4.27792 353.262 4.41953 353.229 4.55364C353.2 4.67731 353.134 4.79529 352.999 5.02962L351.489 7.69939L351.485 7.70608C351.352 7.93893 351.285 8.05691 351.192 8.14588C351.09 8.24316 350.968 8.31388 350.833 8.3538C350.711 8.3877 350.574 8.3877 350.3 8.3877Z" fill="white"/>
<path fill-rule="evenodd" clip-rule="evenodd" d="M353.24 8.3877H354.909C355.155 8.3877 355.279 8.3877 355.353 8.33897C355.432 8.28748 355.482 8.20046 355.487 8.10628C355.491 8.02203 355.432 7.92003 355.316 7.72009L355.304 7.69939L354.468 6.2695L354.459 6.25353C354.341 6.0549 354.282 5.95468 354.206 5.9159C354.122 5.87305 354.023 5.87305 353.939 5.9159C353.862 5.95566 353.8 6.06028 353.678 6.27097L352.845 7.70086L352.843 7.70575C352.721 7.91628 352.66 8.02138 352.664 8.10758C352.67 8.20193 352.719 8.28895 352.798 8.34044C352.87 8.3877 352.994 8.3877 353.24 8.3877Z" fill="white"/>
<path d="M111.826 31.9688V31.267L116.041 24.5455H116.558V25.7227H116.175L112.791 31.1332V31.1932H118.317V31.9688H111.826ZM116.24 34V31.7472V31.424V24.5455H117.061V34H116.24ZM123.52 34.1293C122.939 34.1293 122.418 34.0246 121.96 33.8153C121.501 33.603 121.138 33.3091 120.87 32.9336C120.603 32.5581 120.461 32.1257 120.446 31.6364H121.318C121.334 31.9811 121.44 32.2827 121.637 32.5412C121.834 32.7966 122.095 32.9967 122.421 33.1413C122.748 33.2829 123.111 33.3537 123.511 33.3537C123.948 33.3537 124.333 33.2721 124.665 33.109C125.001 32.9459 125.262 32.7228 125.45 32.4396C125.641 32.1534 125.736 31.8303 125.736 31.4702C125.736 31.0885 125.639 30.7515 125.445 30.4592C125.251 30.1668 124.973 29.939 124.61 29.7759C124.25 29.6128 123.819 29.5312 123.317 29.5312H122.763V28.7557H123.317C123.726 28.7557 124.088 28.6818 124.402 28.5341C124.719 28.3833 124.968 28.1725 125.15 27.9016C125.331 27.6308 125.422 27.3123 125.422 26.946C125.422 26.5982 125.344 26.292 125.187 26.0273C125.03 25.7627 124.808 25.5549 124.522 25.4041C124.239 25.2533 123.908 25.1779 123.529 25.1779C123.163 25.1779 122.828 25.2487 122.523 25.3903C122.218 25.5318 121.972 25.7319 121.784 25.9904C121.6 26.2489 121.501 26.5552 121.489 26.9091H120.653C120.666 26.4167 120.801 25.9843 121.06 25.6119C121.321 25.2364 121.667 24.944 122.098 24.7347C122.532 24.5224 123.012 24.4162 123.539 24.4162C124.096 24.4162 124.577 24.5301 124.984 24.7578C125.39 24.9856 125.704 25.2887 125.925 25.6673C126.15 26.0427 126.262 26.4567 126.262 26.9091C126.262 27.4477 126.116 27.9093 125.824 28.294C125.531 28.6757 125.138 28.9403 124.642 29.0881V29.1481C125.245 29.2681 125.719 29.5359 126.064 29.9513C126.412 30.3638 126.586 30.87 126.586 31.4702C126.586 31.9749 126.453 32.4289 126.189 32.832C125.924 33.2321 125.561 33.5491 125.099 33.783C124.64 34.0138 124.114 34.1293 123.52 34.1293ZM129.942 32.7074L129.859 33.2013C129.807 33.5337 129.733 33.9 129.637 34.3001C129.542 34.7002 129.443 35.0803 129.342 35.4403C129.24 35.8004 129.153 36.0897 129.079 36.3082H128.446C128.486 36.099 128.537 35.8327 128.599 35.5096C128.663 35.1864 128.729 34.8279 128.797 34.4339C128.865 34.0431 128.926 33.6399 128.982 33.2244L129.046 32.7074H129.942ZM132.119 31.9688V31.267L136.334 24.5455H136.851V25.7227H136.468L133.084 31.1332V31.1932H138.61V31.9688H132.119ZM136.532 34V31.7472V31.424V24.5455H137.354V34H136.532ZM143.813 34.1293C143.231 34.1293 142.711 34.0246 142.253 33.8153C141.794 33.603 141.431 33.3091 141.163 32.9336C140.895 32.5581 140.754 32.1257 140.738 31.6364H141.611C141.626 31.9811 141.732 32.2827 141.929 32.5412C142.126 32.7966 142.388 32.9967 142.714 33.1413C143.04 33.2829 143.404 33.3537 143.804 33.3537C144.241 33.3537 144.625 33.2721 144.958 33.109C145.293 32.9459 145.555 32.7228 145.743 32.4396C145.933 32.1534 146.029 31.8303 146.029 31.4702C146.029 31.0885 145.932 30.7515 145.738 30.4592C145.544 30.1668 145.266 29.939 144.902 29.7759C144.542 29.6128 144.111 29.5312 143.61 29.5312H143.056V28.7557H143.61C144.019 28.7557 144.381 28.6818 144.695 28.5341C145.012 28.3833 145.261 28.1725 145.443 27.9016C145.624 27.6308 145.715 27.3123 145.715 26.946C145.715 26.5982 145.636 26.292 145.479 26.0273C145.322 25.7627 145.101 25.5549 144.815 25.4041C144.532 25.2533 144.201 25.1779 143.822 25.1779C143.456 25.1779 143.12 25.2487 142.816 25.3903C142.511 25.5318 142.265 25.7319 142.077 25.9904C141.892 26.2489 141.794 26.5552 141.782 26.9091H140.946C140.958 26.4167 141.094 25.9843 141.352 25.6119C141.614 25.2364 141.96 24.944 142.391 24.7347C142.825 24.5224 143.305 24.4162 143.831 24.4162C144.388 24.4162 144.87 24.5301 145.276 24.7578C145.683 24.9856 145.996 25.2887 146.218 25.6673C146.443 26.0427 146.555 26.4567 146.555 26.9091C146.555 27.4477 146.409 27.9093 146.117 28.294C145.824 28.6757 145.43 28.9403 144.935 29.0881V29.1481C145.538 29.2681 146.012 29.5359 146.357 29.9513C146.704 30.3638 146.878 30.87 146.878 31.4702C146.878 31.9749 146.746 32.4289 146.481 32.832C146.217 33.2321 145.853 33.5491 145.392 33.783C144.933 34.0138 144.407 34.1293 143.813 34.1293ZM152.249 34.1293C151.667 34.1293 151.147 34.0246 150.688 33.8153C150.23 33.603 149.867 33.3091 149.599 32.9336C149.331 32.5581 149.189 32.1257 149.174 31.6364H150.047C150.062 31.9811 150.168 32.2827 150.365 32.5412C150.562 32.7966 150.824 32.9967 151.15 33.1413C151.476 33.2829 151.839 33.3537 152.239 33.3537C152.676 33.3537 153.061 33.2721 153.394 33.109C153.729 32.9459 153.991 32.7228 154.178 32.4396C154.369 32.1534 154.465 31.8303 154.465 31.4702C154.465 31.0885 154.368 30.7515 154.174 30.4592C153.98 30.1668 153.701 29.939 153.338 29.7759C152.978 29.6128 152.547 29.5312 152.046 29.5312H151.492V28.7557H152.046C152.455 28.7557 152.817 28.6818 153.13 28.5341C153.447 28.3833 153.697 28.1725 153.878 27.9016C154.06 27.6308 154.151 27.3123 154.151 26.946C154.151 26.5982 154.072 26.292 153.915 26.0273C153.758 25.7627 153.537 25.5549 153.25 25.4041C152.967 25.2533 152.636 25.1779 152.258 25.1779C151.892 25.1779 151.556 25.2487 151.252 25.3903C150.947 25.5318 150.701 25.7319 150.513 25.9904C150.328 26.2489 150.23 26.5552 150.217 26.9091H149.382C149.394 26.4167 149.53 25.9843 149.788 25.6119C150.05 25.2364 150.396 24.944 150.827 24.7347C151.261 24.5224 151.741 24.4162 152.267 24.4162C152.824 24.4162 153.306 24.5301 153.712 24.7578C154.118 24.9856 154.432 25.2887 154.654 25.6673C154.879 26.0427 154.991 26.4567 154.991 26.9091C154.991 27.4477 154.845 27.9093 154.552 28.294C154.26 28.6757 153.866 28.9403 153.37 29.0881V29.1481C153.974 29.2681 154.448 29.5359 154.792 29.9513C155.14 30.3638 155.314 30.87 155.314 31.4702C155.314 31.9749 155.182 32.4289 154.917 32.832C154.652 33.2321 154.289 33.5491 153.828 33.783C153.369 34.0138 152.843 34.1293 152.249 34.1293Z" fill="#EFF2F3"/>
<rect x="111" width="12" height="12" rx="6" fill="#4391F4"/>
<path fill-rule="evenodd" clip-rule="evenodd" d="M137 0C140.314 0 143 2.68624 143 6C143 9.31376 140.314 12 137 12C133.686 12 131 9.31376 131 6C131 2.68624 133.686 0 137 0Z" fill="#5D71C0"/>
<path d="M139.998 6.08252L137.187 4.82633V1.50002L139.998 6.08252Z" fill="#B8C0E7"/>
<path d="M137.187 1.50002L134.375 6.08252L137.187 4.82633V1.50002Z" fill="white"/>
<path d="M137.187 10.498V8.23792L140 6.60598L137.187 10.498Z" fill="#B8C0E7"/>
<path d="M137.187 10.498V8.2376L134.375 6.60598L137.187 10.498Z" fill="white"/>
<path d="M137.187 7.71484V4.82687L139.998 6.08241L137.187 7.71484Z" fill="#7A8BCE"/>
<path d="M137.187 7.71484L134.375 6.08241L137.187 4.82687V7.71484Z" fill="#B8C0E7"/>
</svg>
