<svg width="66" height="36" viewBox="0 0 66 36" fill="none" xmlns="http://www.w3.org/2000/svg">
<path d="M16.8849 23V12.8182H19.0376V21.2251H23.4027V23H16.8849ZM28.2388 23.1491C27.4666 23.1491 26.7987 22.9851 26.2353 22.657C25.6751 22.3255 25.2426 21.8648 24.9377 21.2749C24.6328 20.6816 24.4803 19.9938 24.4803 19.2116C24.4803 18.4228 24.6328 17.7334 24.9377 17.1435C25.2426 16.5502 25.6751 16.0895 26.2353 15.7614C26.7987 15.4299 27.4666 15.2642 28.2388 15.2642C29.0111 15.2642 29.6773 15.4299 30.2374 15.7614C30.8008 16.0895 31.235 16.5502 31.54 17.1435C31.8449 17.7334 31.9973 18.4228 31.9973 19.2116C31.9973 19.9938 31.8449 20.6816 31.54 21.2749C31.235 21.8648 30.8008 22.3255 30.2374 22.657C29.6773 22.9851 29.0111 23.1491 28.2388 23.1491ZM28.2488 21.5085C28.6001 21.5085 28.8934 21.4091 29.1287 21.2102C29.3641 21.008 29.5414 20.733 29.6607 20.3849C29.7833 20.0369 29.8446 19.6409 29.8446 19.1967C29.8446 18.7526 29.7833 18.3565 29.6607 18.0085C29.5414 17.6605 29.3641 17.3854 29.1287 17.1832C28.8934 16.9811 28.6001 16.88 28.2488 16.88C27.8941 16.88 27.5958 16.9811 27.3539 17.1832C27.1152 17.3854 26.9346 17.6605 26.812 18.0085C26.6926 18.3565 26.633 18.7526 26.633 19.1967C26.633 19.6409 26.6926 20.0369 26.812 20.3849C26.9346 20.733 27.1152 21.008 27.3539 21.2102C27.5958 21.4091 27.8941 21.5085 28.2488 21.5085ZM36.8148 26.0227C36.1287 26.0227 35.5404 25.9283 35.0499 25.7393C34.5627 25.5537 34.1749 25.3002 33.8865 24.9787C33.5982 24.6572 33.4109 24.2959 33.3248 23.8949L35.2836 23.6314C35.3432 23.7839 35.4377 23.9264 35.5669 24.0589C35.6962 24.1915 35.8669 24.2976 36.079 24.3771C36.2944 24.46 36.5563 24.5014 36.8645 24.5014C37.3252 24.5014 37.7047 24.3887 38.003 24.1634C38.3046 23.9413 38.4554 23.5684 38.4554 23.0447V21.6477H38.3659C38.2731 21.8598 38.1339 22.0604 37.9483 22.2493C37.7627 22.4382 37.5241 22.5923 37.2324 22.7116C36.9408 22.831 36.5927 22.8906 36.1884 22.8906C35.615 22.8906 35.093 22.758 34.6223 22.4929C34.155 22.2244 33.7821 21.8151 33.5037 21.2649C33.2286 20.7114 33.0911 20.0121 33.0911 19.1669C33.0911 18.3018 33.2319 17.5793 33.5137 16.9993C33.7954 16.4193 34.1699 15.9851 34.6373 15.6967C35.1079 15.4084 35.6233 15.2642 36.1834 15.2642C36.611 15.2642 36.9689 15.3371 37.2573 15.483C37.5456 15.6255 37.7776 15.8045 37.9533 16.0199C38.1323 16.232 38.2698 16.4408 38.3659 16.6463H38.4455V15.3636H40.5485V23.0746C40.5485 23.7242 40.3894 24.2678 40.0712 24.7053C39.753 25.1428 39.3122 25.4709 38.7488 25.6896C38.1886 25.9117 37.544 26.0227 36.8148 26.0227ZM36.8596 21.2997C37.2009 21.2997 37.4893 21.2152 37.7246 21.0462C37.9632 20.8738 38.1455 20.6286 38.2715 20.3104C38.4007 19.9889 38.4654 19.6044 38.4654 19.157C38.4654 18.7095 38.4024 18.3217 38.2765 17.9936C38.1505 17.6622 37.9682 17.4053 37.7296 17.223C37.4909 17.0407 37.2009 16.9496 36.8596 16.9496C36.5115 16.9496 36.2182 17.044 35.9796 17.233C35.7409 17.4186 35.5603 17.6771 35.4377 18.0085C35.315 18.34 35.2537 18.7228 35.2537 19.157C35.2537 19.5978 35.315 19.9789 35.4377 20.3004C35.5636 20.6186 35.7443 20.8655 35.9796 21.0412C36.2182 21.2135 36.5115 21.2997 36.8596 21.2997ZM45.6841 23.1491C44.9119 23.1491 44.244 22.9851 43.6806 22.657C43.1204 22.3255 42.6879 21.8648 42.383 21.2749C42.0781 20.6816 41.9256 19.9938 41.9256 19.2116C41.9256 18.4228 42.0781 17.7334 42.383 17.1435C42.6879 16.5502 43.1204 16.0895 43.6806 15.7614C44.244 15.4299 44.9119 15.2642 45.6841 15.2642C46.4564 15.2642 47.1226 15.4299 47.6827 15.7614C48.2462 16.0895 48.6803 16.5502 48.9853 17.1435C49.2902 17.7334 49.4426 18.4228 49.4426 19.2116C49.4426 19.9938 49.2902 20.6816 48.9853 21.2749C48.6803 21.8648 48.2462 22.3255 47.6827 22.657C47.1226 22.9851 46.4564 23.1491 45.6841 23.1491ZM45.6941 21.5085C46.0454 21.5085 46.3387 21.4091 46.574 21.2102C46.8094 21.008 46.9867 20.733 47.106 20.3849C47.2286 20.0369 47.29 19.6409 47.29 19.1967C47.29 18.7526 47.2286 18.3565 47.106 18.0085C46.9867 17.6605 46.8094 17.3854 46.574 17.1832C46.3387 16.9811 46.0454 16.88 45.6941 16.88C45.3394 16.88 45.0411 16.9811 44.7992 17.1832C44.5605 17.3854 44.3799 17.6605 44.2573 18.0085C44.138 18.3565 44.0783 18.7526 44.0783 19.1967C44.0783 19.6409 44.138 20.0369 44.2573 20.3849C44.3799 20.733 44.5605 21.008 44.7992 21.2102C45.0411 21.4091 45.3394 21.5085 45.6941 21.5085Z" fill="#1976D2"/>
<rect x="0.5" y="0.5" width="65" height="35" stroke="#019371"/>
</svg>
