<svg width="46" height="40" viewBox="0 0 46 40" fill="none" xmlns="http://www.w3.org/2000/svg">
<path fill-rule="evenodd" clip-rule="evenodd" d="M13.1611 36.7657L19.188 38.3227V36.2867L19.68 35.8076H23.1239V38.2029V39.8795H19.434L14.8831 37.9633L13.1611 36.7657Z" fill="#CDBDB2"/>
<path fill-rule="evenodd" clip-rule="evenodd" d="M32.8389 36.7657L26.9351 38.3227V36.2867L26.4431 35.8076H22.9992V38.2029V39.8795H26.6891L31.2398 37.9633L32.8389 36.7657Z" fill="#CDBDB2"/>
<path fill-rule="evenodd" clip-rule="evenodd" d="M19.6795 32.335L19.1875 36.287L19.8024 35.808H26.1981L26.9361 36.287L26.4441 32.335L25.4601 31.7361L20.5403 31.856L19.6795 32.335Z" fill="#393939"/>
<path fill-rule="evenodd" clip-rule="evenodd" d="M16.3584 5.63037L19.3103 12.337L20.6633 31.8583H25.46L26.936 12.337L29.6419 5.63037H16.3584Z" fill="#F89C35"/>
<path fill-rule="evenodd" clip-rule="evenodd" d="M3.44387 20.3613L0 30.0619L8.60967 29.5829H14.1443V25.3913L13.8984 16.7685L12.6684 17.7266L3.44387 20.3613Z" fill="#F89D35"/>
<path fill-rule="evenodd" clip-rule="evenodd" d="M9.96094 21.4375L20.0465 21.677L18.9397 26.707L14.1428 25.5094L9.96094 21.4375Z" fill="#D87C30"/>
<path fill-rule="evenodd" clip-rule="evenodd" d="M9.96094 21.5586L14.1428 25.391V29.2233L9.96094 21.5586Z" fill="#EA8D3A"/>
<path fill-rule="evenodd" clip-rule="evenodd" d="M14.1445 25.5105L19.0643 26.7081L20.6634 31.858L19.5563 32.4567L14.1445 29.3429V25.5105Z" fill="#F89D35"/>
<path fill-rule="evenodd" clip-rule="evenodd" d="M14.1451 29.3413L13.1611 36.7665L19.68 32.3355L14.1451 29.3413Z" fill="#EB8F35"/>
<path fill-rule="evenodd" clip-rule="evenodd" d="M20.0493 21.6753L20.6644 31.8551L18.8193 26.6455L20.0493 21.6753Z" fill="#EA8E3A"/>
<path fill-rule="evenodd" clip-rule="evenodd" d="M8.48633 29.4612L14.1441 29.3413L13.1601 36.7665L8.48633 29.4612Z" fill="#D87C30"/>
<path fill-rule="evenodd" clip-rule="evenodd" d="M2.7059 40.0001L13.1604 36.7664L8.48656 29.4611L0 30.0598L2.7059 40.0001Z" fill="#EB8F35"/>
<path fill-rule="evenodd" clip-rule="evenodd" d="M19.3086 12.3359L14.0199 16.6474L9.96094 21.4378L20.0465 21.7972L19.3086 12.3359Z" fill="#E8821E"/>
<path fill-rule="evenodd" clip-rule="evenodd" d="M13.1611 36.767L19.68 32.3359L19.188 36.1683V38.324L14.7602 37.4856L13.1611 36.767Z" fill="#DFCEC3"/>
<path fill-rule="evenodd" clip-rule="evenodd" d="M32.8389 36.767L26.4431 32.3359L26.9351 36.1683V38.324L31.3629 37.4856L32.8389 36.767Z" fill="#DFCEC3"/>
<path fill-rule="evenodd" clip-rule="evenodd" d="M17.3413 23.8315L18.6943 26.5862L13.8974 25.3886L17.3413 23.8315Z" fill="#393939"/>
<path fill-rule="evenodd" clip-rule="evenodd" d="M2.58301 0.000488281L19.3104 12.3358L16.4816 5.62918L2.58301 0.000488281Z" fill="#E88F35"/>
<path fill-rule="evenodd" clip-rule="evenodd" d="M2.58306 0L0.369141 6.58689L1.59909 13.7726L0.738126 14.2516L1.96808 15.3295L0.984117 16.1678L2.33706 17.3654L1.4761 18.084L3.44402 20.4792L12.6687 17.7247C17.1785 14.2117 19.3924 12.4153 19.3104 12.3355C19.2284 12.2556 13.6526 8.14379 2.58306 0Z" fill="#8E5A30"/>
<path fill-rule="evenodd" clip-rule="evenodd" d="M42.5561 20.3613L46 30.0619L37.3903 29.5829H31.8557V25.3913L32.1016 16.7685L33.3316 17.7266L42.5561 20.3613Z" fill="#F89D35"/>
<path fill-rule="evenodd" clip-rule="evenodd" d="M36.0381 21.4375L25.9525 21.677L27.0593 26.707L31.8562 25.5094L36.0381 21.4375Z" fill="#D87C30"/>
<path fill-rule="evenodd" clip-rule="evenodd" d="M36.0381 21.5586L31.8562 25.391V29.2233L36.0381 21.5586Z" fill="#EA8D3A"/>
<path fill-rule="evenodd" clip-rule="evenodd" d="M31.8564 25.5105L26.9366 26.7081L25.3376 31.858L26.4447 32.4567L31.8564 29.3429V25.5105Z" fill="#F89D35"/>
<path fill-rule="evenodd" clip-rule="evenodd" d="M31.8549 29.3413L32.8389 36.7665L26.4431 32.4551L31.8549 29.3413Z" fill="#EB8F35"/>
<path fill-rule="evenodd" clip-rule="evenodd" d="M25.9517 21.6753L25.3366 31.8551L27.1816 26.6455L25.9517 21.6753Z" fill="#EA8E3A"/>
<path fill-rule="evenodd" clip-rule="evenodd" d="M37.5137 29.4612L31.8559 29.3413L32.8399 36.7665L37.5137 29.4612Z" fill="#D87C30"/>
<path fill-rule="evenodd" clip-rule="evenodd" d="M43.2941 40.0001L32.8396 36.7664L37.5134 29.4611L46 30.0598L43.2941 40.0001Z" fill="#EB8F35"/>
<path fill-rule="evenodd" clip-rule="evenodd" d="M26.6904 12.3359L31.9791 16.6474L36.0381 21.4378L25.9525 21.7972L26.6904 12.3359Z" fill="#E8821E"/>
<path fill-rule="evenodd" clip-rule="evenodd" d="M28.6587 23.8315L27.3057 26.5862L32.1026 25.3886L28.6587 23.8315Z" fill="#393939"/>
<path fill-rule="evenodd" clip-rule="evenodd" d="M43.418 0.000488281L26.6906 12.3358L29.5194 5.62918L43.418 0.000488281Z" fill="#E88F35"/>
<path fill-rule="evenodd" clip-rule="evenodd" d="M43.4169 0L45.6309 6.58689L44.4009 13.7726L45.2619 14.2516L44.0319 15.3295L45.0159 16.1678L43.6629 17.3654L44.5239 18.084L42.556 20.4792L33.3313 17.7247C28.8215 14.2117 26.6076 12.4153 26.6896 12.3355C26.7716 12.2556 32.3474 8.14379 43.4169 0Z" fill="#8E5A30"/>
</svg>
