<svg width="20" height="18" viewBox="0 0 20 18" fill="none" xmlns="http://www.w3.org/2000/svg">
<path fill-rule="evenodd" clip-rule="evenodd" d="M5.72217 16.5447L8.34255 17.2453V16.3291L8.55645 16.1135H10.0538V17.1914V17.9459H8.4495L6.47083 17.0836L5.72217 16.5447Z" fill="#CDBDB2"/>
<path fill-rule="evenodd" clip-rule="evenodd" d="M14.2778 16.5447L11.711 17.2453V16.3291L11.4971 16.1135H9.99974V17.1914V17.9459H11.604L13.5826 17.0836L14.2778 16.5447Z" fill="#CDBDB2"/>
<path fill-rule="evenodd" clip-rule="evenodd" d="M8.55619 14.5508L8.34229 16.3292L8.60962 16.1136H11.3904L11.7112 16.3292L11.4973 14.5508L11.0695 14.2812L8.93048 14.3352L8.55619 14.5508Z" fill="#393939"/>
<path fill-rule="evenodd" clip-rule="evenodd" d="M7.1123 2.53369L8.39573 5.55169L8.98402 14.3363H11.0695L11.7113 5.55169L12.8877 2.53369H7.1123Z" fill="#F89C35"/>
<path fill-rule="evenodd" clip-rule="evenodd" d="M1.49733 9.16268L0 13.5279L3.74333 13.3124H6.14971V11.4262L6.04276 7.5459L5.508 7.97704L1.49733 9.16268Z" fill="#F89D35"/>
<path fill-rule="evenodd" clip-rule="evenodd" d="M4.33057 9.64697L8.71561 9.75476L8.23438 12.0183L6.14876 11.4793L4.33057 9.64697Z" fill="#D87C30"/>
<path fill-rule="evenodd" clip-rule="evenodd" d="M4.33057 9.70142L6.14876 11.426V13.1506L4.33057 9.70142Z" fill="#EA8D3A"/>
<path fill-rule="evenodd" clip-rule="evenodd" d="M6.1499 11.4795L8.28895 12.0184L8.98419 14.3359L8.50286 14.6053L6.1499 13.2041V11.4795Z" fill="#F89D35"/>
<path fill-rule="evenodd" clip-rule="evenodd" d="M6.14998 13.2036L5.72217 16.545L8.55646 14.551L6.14998 13.2036Z" fill="#EB8F35"/>
<path fill-rule="evenodd" clip-rule="evenodd" d="M8.71738 9.75391L8.98481 14.3348L8.18262 11.9905L8.71738 9.75391Z" fill="#EA8E3A"/>
<path fill-rule="evenodd" clip-rule="evenodd" d="M3.68945 13.2576L6.14936 13.2036L5.72155 16.545L3.68945 13.2576Z" fill="#D87C30"/>
<path fill-rule="evenodd" clip-rule="evenodd" d="M1.17648 17.9999L5.72191 16.5447L3.68981 13.2573L0 13.5267L1.17648 17.9999Z" fill="#EB8F35"/>
<path fill-rule="evenodd" clip-rule="evenodd" d="M8.39476 5.55127L6.09533 7.49141L4.33057 9.64712L8.71561 9.80885L8.39476 5.55127Z" fill="#E8821E"/>
<path fill-rule="evenodd" clip-rule="evenodd" d="M5.72217 16.5453L8.55646 14.5513L8.34255 16.2758V17.2459L6.41741 16.8686L5.72217 16.5453Z" fill="#DFCEC3"/>
<path fill-rule="evenodd" clip-rule="evenodd" d="M14.2778 16.5453L11.4971 14.5513L11.711 16.2758V17.2459L13.6361 16.8686L14.2778 16.5453Z" fill="#DFCEC3"/>
<path fill-rule="evenodd" clip-rule="evenodd" d="M7.53964 10.7241L8.12793 11.9637L6.04231 11.4248L7.53964 10.7241Z" fill="#393939"/>
<path fill-rule="evenodd" clip-rule="evenodd" d="M1.12305 0.000244141L8.39581 5.55115L7.1659 2.53316L1.12305 0.000244141Z" fill="#E88F35"/>
<path fill-rule="evenodd" clip-rule="evenodd" d="M1.12273 0L0.160156 2.9641L0.694918 6.19767L0.320585 6.41324L0.855347 6.89827L0.427537 7.27552L1.01578 7.81445L0.641442 8.13781L1.49706 9.21566L5.50778 7.97613C7.46857 6.39527 8.43114 5.58688 8.39549 5.55095C8.35984 5.51502 5.93559 3.66471 1.12273 0Z" fill="#8E5A30"/>
<path fill-rule="evenodd" clip-rule="evenodd" d="M18.5027 9.16268L20 13.5279L16.2567 13.3124H13.8503V11.4262L13.9572 7.5459L14.492 7.97704L18.5027 9.16268Z" fill="#F89D35"/>
<path fill-rule="evenodd" clip-rule="evenodd" d="M15.6685 9.64697L11.2834 9.75476L11.7646 12.0183L13.8503 11.4793L15.6685 9.64697Z" fill="#D87C30"/>
<path fill-rule="evenodd" clip-rule="evenodd" d="M15.6685 9.70142L13.8503 11.426V13.1506L15.6685 9.70142Z" fill="#EA8D3A"/>
<path fill-rule="evenodd" clip-rule="evenodd" d="M13.8506 11.4795L11.7115 12.0184L11.0163 14.3359L11.4976 14.6053L13.8506 13.2041V11.4795Z" fill="#F89D35"/>
<path fill-rule="evenodd" clip-rule="evenodd" d="M13.85 13.2036L14.2778 16.545L11.4971 14.6048L13.85 13.2036Z" fill="#EB8F35"/>
<path fill-rule="evenodd" clip-rule="evenodd" d="M11.2836 9.75391L11.0162 14.3348L11.8184 11.9905L11.2836 9.75391Z" fill="#EA8E3A"/>
<path fill-rule="evenodd" clip-rule="evenodd" d="M16.3105 13.2576L13.8506 13.2036L14.2785 16.545L16.3105 13.2576Z" fill="#D87C30"/>
<path fill-rule="evenodd" clip-rule="evenodd" d="M18.8235 17.9999L14.2781 16.5447L16.3102 13.2573L20 13.5267L18.8235 17.9999Z" fill="#EB8F35"/>
<path fill-rule="evenodd" clip-rule="evenodd" d="M11.6043 5.55127L13.9037 7.49141L15.6685 9.64712L11.2834 9.80885L11.6043 5.55127Z" fill="#E8821E"/>
<path fill-rule="evenodd" clip-rule="evenodd" d="M12.4604 10.7241L11.8721 11.9637L13.9577 11.4248L12.4604 10.7241Z" fill="#393939"/>
<path fill-rule="evenodd" clip-rule="evenodd" d="M18.8774 0.000244141L11.6047 5.55115L12.8346 2.53316L18.8774 0.000244141Z" fill="#E88F35"/>
<path fill-rule="evenodd" clip-rule="evenodd" d="M18.8773 0L19.8398 2.9641L19.3051 6.19767L19.6794 6.41324L19.1447 6.89827L19.5725 7.27552L18.9842 7.81445L19.3586 8.13781L18.5029 9.21566L14.4922 7.97613C12.5314 6.39527 11.5689 5.58688 11.6045 5.55095C11.6402 5.51502 14.0644 3.66471 18.8773 0Z" fill="#8E5A30"/>
</svg>
