<svg width="636" height="293" viewBox="0 0 636 293" fill="none" xmlns="http://www.w3.org/2000/svg">
<path d="M555.782 56.2182C572.404 72.8403 583.264 94.35 586.77 117.594C590.276 140.838 586.243 164.594 575.263 185.38C564.283 206.165 546.934 222.886 525.758 233.092C504.582 243.298 480.693 246.451 457.594 242.091L463.716 209.664C479.885 212.716 496.607 210.508 511.43 203.364C526.254 196.22 538.398 184.515 546.084 169.966C553.77 155.416 556.593 138.787 554.139 122.516C551.685 106.245 544.083 91.1882 532.447 79.5528L555.782 56.2182Z" fill="#4391F4"/>
<path d="M542.63 223.011C530.22 232.022 516.063 238.338 501.068 241.554C486.073 244.77 470.571 244.815 455.558 241.686C440.544 238.557 426.351 232.324 413.889 223.385C401.427 214.447 390.972 203.002 383.194 189.784L411.636 173.049C417.08 182.301 424.399 190.313 433.122 196.57C441.846 202.827 451.781 207.19 462.29 209.38C472.8 211.571 483.651 211.539 494.148 209.288C504.644 207.037 514.554 202.615 523.241 196.308L542.63 223.011Z" fill="#FED530"/>
<path d="M385.034 192.798C376.061 178.612 370.454 162.56 368.643 145.872C366.831 129.185 368.862 112.304 374.581 96.5221C380.3 80.7406 389.555 66.4773 401.637 54.8245C413.719 43.1718 428.308 34.4386 444.286 29.2939L454.4 60.7057C443.216 64.307 433.004 70.4202 424.546 78.5772C416.089 86.7341 409.61 96.7184 405.607 107.765C401.604 118.813 400.182 130.629 401.45 142.311C402.718 153.992 406.643 165.228 412.924 175.159L385.034 192.798Z" fill="#FD4E57"/>
<path d="M440.753 30.4979C454.345 25.6066 468.768 23.4403 483.197 24.1228C497.626 24.8053 511.78 28.3232 524.85 34.4756C537.919 40.628 549.649 49.2944 559.37 59.9801C569.09 70.6657 576.611 83.1613 581.502 96.7534L550.451 107.927C547.028 98.4129 541.763 89.666 534.959 82.186C528.155 74.7061 519.944 68.6396 510.795 64.3329C501.646 60.0263 491.739 57.5637 481.638 57.086C471.538 56.6082 461.442 58.1246 451.927 61.5485L440.753 30.4979Z" fill="#26B3A3"/>
<path d="M108.942 89.1818V77.3636H109.7V89.1818H108.942ZM110.951 81.2646C110.914 80.8922 110.755 80.6029 110.475 80.3967C110.195 80.1905 109.815 80.0874 109.335 80.0874C109.009 80.0874 108.733 80.1335 108.509 80.2259C108.284 80.3151 108.112 80.4397 107.991 80.5998C107.875 80.7598 107.816 80.9414 107.816 81.1445C107.81 81.3138 107.845 81.4615 107.922 81.5877C108.002 81.7139 108.112 81.8232 108.25 81.9155C108.388 82.0047 108.549 82.0832 108.73 82.1509C108.912 82.2156 109.106 82.271 109.312 82.3171L110.161 82.5202C110.574 82.6126 110.952 82.7357 111.297 82.8896C111.642 83.0434 111.94 83.2327 112.192 83.4574C112.445 83.6821 112.64 83.9467 112.779 84.2514C112.92 84.5561 112.993 84.9054 112.996 85.2994C112.993 85.878 112.845 86.3796 112.553 86.8043C112.263 87.226 111.845 87.5537 111.297 87.7876C110.752 88.0185 110.095 88.1339 109.326 88.1339C108.562 88.1339 107.898 88.0169 107.331 87.783C106.768 87.5491 106.328 87.2029 106.011 86.7443C105.697 86.2827 105.532 85.7118 105.517 85.0316H107.451C107.473 85.3486 107.564 85.6133 107.724 85.8256C107.887 86.0349 108.104 86.1934 108.375 86.3011C108.649 86.4058 108.958 86.4581 109.303 86.4581C109.641 86.4581 109.935 86.4089 110.184 86.3104C110.437 86.2119 110.632 86.0749 110.771 85.8995C110.909 85.7241 110.978 85.5225 110.978 85.2947C110.978 85.0824 110.915 84.9039 110.789 84.7592C110.666 84.6146 110.484 84.4915 110.244 84.3899C110.007 84.2884 109.717 84.196 109.372 84.1129L108.342 83.8544C107.545 83.6605 106.916 83.3574 106.454 82.945C105.993 82.5326 105.763 81.977 105.766 81.2784C105.763 80.706 105.916 80.2058 106.223 79.7781C106.534 79.3503 106.96 79.0163 107.502 78.7763C108.044 78.5362 108.659 78.4162 109.349 78.4162C110.05 78.4162 110.663 78.5362 111.186 78.7763C111.712 79.0163 112.122 79.3503 112.414 79.7781C112.706 80.2058 112.857 80.7013 112.866 81.2646H110.951ZM118.658 78.5455V88H116.659V80.4428H116.604L114.439 81.8001V80.0273L116.779 78.5455H118.658ZM121.165 88V86.5597L124.531 83.4435C124.817 83.1665 125.057 82.9173 125.251 82.6957C125.448 82.4741 125.597 82.2571 125.699 82.0447C125.8 81.8293 125.851 81.5969 125.851 81.3477C125.851 81.0707 125.788 80.8321 125.662 80.6321C125.536 80.429 125.363 80.2736 125.145 80.1658C124.926 80.055 124.678 79.9996 124.401 79.9996C124.112 79.9996 123.86 80.0581 123.644 80.1751C123.429 80.292 123.263 80.4598 123.146 80.6783C123.029 80.8968 122.97 81.1568 122.97 81.4585H121.073C121.073 80.8398 121.213 80.3028 121.493 79.8473C121.773 79.3918 122.165 79.0394 122.67 78.7901C123.175 78.5408 123.757 78.4162 124.415 78.4162C125.092 78.4162 125.682 78.5362 126.183 78.7763C126.688 79.0133 127.08 79.3426 127.361 79.7642C127.641 80.1858 127.781 80.669 127.781 81.2138C127.781 81.5708 127.71 81.9232 127.568 82.271C127.43 82.6187 127.182 83.005 126.825 83.4297C126.468 83.8513 125.965 84.3576 125.315 84.9485L123.935 86.3011V86.3658H127.905V88H121.165ZM131.77 86.7074L131.719 87.2152C131.679 87.6214 131.602 88.0262 131.488 88.4293C131.377 88.8356 131.26 89.2034 131.137 89.5327C131.017 89.862 130.92 90.1205 130.846 90.3082H129.572C129.618 90.1267 129.681 89.8728 129.761 89.5465C129.841 89.2234 129.917 88.8602 129.988 88.457C130.058 88.0539 130.103 87.643 130.122 87.2244L130.145 86.7074H131.77ZM137.135 88.2077C136.341 88.2047 135.658 88.0092 135.086 87.6214C134.516 87.2337 134.078 86.672 133.77 85.9364C133.465 85.2009 133.315 84.3161 133.318 83.282C133.318 82.2509 133.47 81.3723 133.775 80.646C134.082 79.9196 134.521 79.3672 135.09 78.9886C135.663 78.607 136.344 78.4162 137.135 78.4162C137.926 78.4162 138.607 78.607 139.176 78.9886C139.748 79.3703 140.188 79.9242 140.496 80.6506C140.804 81.3738 140.956 82.2509 140.953 83.282C140.953 84.3191 140.799 85.2055 140.492 85.9411C140.187 86.6766 139.75 87.2383 139.181 87.6261C138.611 88.0138 137.929 88.2077 137.135 88.2077ZM137.135 86.5504C137.677 86.5504 138.11 86.2781 138.433 85.7333C138.756 85.1886 138.916 84.3714 138.913 83.282C138.913 82.5649 138.839 81.9678 138.691 81.4908C138.547 81.0137 138.34 80.6552 138.073 80.4151C137.808 80.1751 137.496 80.055 137.135 80.055C136.597 80.055 136.166 80.3243 135.843 80.8629C135.52 81.4015 135.357 82.2079 135.353 83.282C135.353 84.0083 135.426 84.6146 135.57 85.1009C135.718 85.584 135.926 85.9472 136.194 86.1903C136.461 86.4304 136.775 86.5504 137.135 86.5504ZM146.059 78.4162C146.546 78.4162 147.013 78.4978 147.463 78.6609C147.915 78.824 148.318 79.084 148.672 79.4411C149.029 79.7981 149.311 80.272 149.517 80.8629C149.726 81.4508 149.833 82.1725 149.836 83.0281C149.836 83.8313 149.745 84.5484 149.563 85.1793C149.385 85.8072 149.128 86.3411 148.792 86.7812C148.457 87.2214 148.052 87.5568 147.578 87.7876C147.104 88.0154 146.575 88.1293 145.99 88.1293C145.359 88.1293 144.802 88.0077 144.319 87.7646C143.836 87.5183 143.446 87.1844 143.151 86.7628C142.859 86.3381 142.682 85.861 142.62 85.3317H144.591C144.668 85.6764 144.83 85.9441 145.076 86.1349C145.322 86.3227 145.627 86.4165 145.99 86.4165C146.606 86.4165 147.073 86.1488 147.394 85.6133C147.714 85.0747 147.875 84.3376 147.878 83.402H147.814C147.672 83.679 147.481 83.9175 147.241 84.1175C147.001 84.3145 146.726 84.4669 146.415 84.5746C146.107 84.6823 145.779 84.7362 145.432 84.7362C144.875 84.7362 144.377 84.6054 143.94 84.3438C143.503 84.0821 143.159 83.7221 142.906 83.2635C142.654 82.8049 142.528 82.2817 142.528 81.6939C142.525 81.0599 142.671 80.4951 142.966 79.9996C143.262 79.5041 143.674 79.1164 144.204 78.8363C144.736 78.5531 145.355 78.4131 146.059 78.4162ZM146.073 79.9858C145.762 79.9858 145.485 80.0597 145.242 80.2074C145.002 80.3551 144.811 80.5536 144.67 80.8029C144.531 81.0522 144.464 81.3307 144.467 81.6385C144.467 81.9493 144.534 82.2294 144.67 82.4787C144.808 82.7249 144.996 82.9219 145.233 83.0696C145.473 83.2143 145.747 83.2866 146.055 83.2866C146.286 83.2866 146.5 83.2435 146.696 83.1573C146.893 83.0711 147.064 82.9527 147.209 82.8018C147.357 82.648 147.472 82.471 147.555 82.271C147.638 82.0709 147.68 81.8585 147.68 81.6339C147.677 81.3353 147.606 81.0614 147.467 80.8121C147.329 80.5629 147.138 80.3628 146.895 80.212C146.652 80.0612 146.378 79.9858 146.073 79.9858ZM154.975 88.1293C154.286 88.1293 153.672 88.0108 153.133 87.7738C152.598 87.5337 152.175 87.2044 151.864 86.7859C151.556 86.3642 151.398 85.878 151.388 85.3271H153.401C153.413 85.5579 153.489 85.761 153.627 85.9364C153.769 86.1088 153.957 86.2427 154.191 86.3381C154.424 86.4335 154.688 86.4812 154.98 86.4812C155.285 86.4812 155.554 86.4273 155.788 86.3196C156.022 86.2119 156.205 86.0626 156.337 85.8718C156.47 85.681 156.536 85.4609 156.536 85.2116C156.536 84.9593 156.465 84.7362 156.323 84.5423C156.185 84.3453 155.985 84.1914 155.723 84.0806C155.465 83.9698 155.157 83.9144 154.8 83.9144H153.918V82.4464H154.8C155.101 82.4464 155.368 82.3941 155.599 82.2894C155.832 82.1848 156.014 82.0401 156.143 81.8555C156.273 81.6677 156.337 81.4492 156.337 81.1999C156.337 80.9629 156.28 80.7552 156.166 80.5767C156.056 80.3951 155.899 80.2536 155.695 80.152C155.495 80.0504 155.262 79.9996 154.994 79.9996C154.723 79.9996 154.475 80.0489 154.251 80.1474C154.026 80.2428 153.846 80.3797 153.71 80.5582C153.575 80.7367 153.503 80.946 153.493 81.1861H151.578C151.587 80.6413 151.742 80.1612 152.044 79.7457C152.345 79.3303 152.752 79.0056 153.263 78.7717C153.777 78.5347 154.357 78.4162 155.003 78.4162C155.655 78.4162 156.226 78.5347 156.716 78.7717C157.205 79.0086 157.585 79.3287 157.856 79.7319C158.13 80.132 158.265 80.5813 158.262 81.0799C158.265 81.6093 158.101 82.0509 157.768 82.4048C157.439 82.7588 157.01 82.9834 156.48 83.0788V83.1527C157.176 83.242 157.705 83.4835 158.068 83.8775C158.435 84.2683 158.616 84.7577 158.613 85.3455C158.616 85.8841 158.461 86.3627 158.147 86.7812C157.836 87.1998 157.407 87.5291 156.859 87.7692C156.311 88.0092 155.683 88.1293 154.975 88.1293Z" fill="#EFF2F3"/>
<path d="M179.062 85.4533V81H180.938V85.4533H183L180 89L177 85.4553L179.062 85.4533Z" fill="#F31819"/>
<path d="M188.275 89V88.125L190.982 85.3203C191.271 85.0156 191.509 84.7487 191.697 84.5195C191.887 84.2878 192.029 84.0677 192.122 83.8594C192.216 83.651 192.263 83.4297 192.263 83.1953C192.263 82.9297 192.201 82.7005 192.076 82.5078C191.951 82.3125 191.78 82.1628 191.564 82.0586C191.348 81.9518 191.104 81.8984 190.833 81.8984C190.547 81.8984 190.297 81.957 190.083 82.0742C189.87 82.1914 189.706 82.3568 189.591 82.5703C189.477 82.7839 189.419 83.0339 189.419 83.3203H188.267C188.267 82.8333 188.379 82.4076 188.603 82.043C188.827 81.6784 189.134 81.3958 189.525 81.1953C189.915 80.9922 190.359 80.8906 190.857 80.8906C191.359 80.8906 191.802 80.9909 192.185 81.1914C192.57 81.3893 192.871 81.6602 193.087 82.0039C193.303 82.3451 193.412 82.7305 193.412 83.1602C193.412 83.457 193.356 83.7474 193.244 84.0312C193.134 84.3151 192.943 84.6315 192.669 84.9805C192.396 85.3268 192.016 85.7474 191.529 86.2422L189.939 87.9062V87.9648H193.54V89H188.275ZM198.276 81V89H197.065V82.2109H197.018L195.104 83.4609V82.3047L197.1 81H198.276ZM204.836 87.5V87.0781C204.836 86.776 204.898 86.5 205.023 86.25C205.151 85.9974 205.336 85.7956 205.578 85.6445C205.823 85.4909 206.118 85.4141 206.465 85.4141C206.819 85.4141 207.116 85.4896 207.355 85.6406C207.595 85.7917 207.776 85.9935 207.898 86.2461C208.023 86.4987 208.086 86.776 208.086 87.0781V87.5C208.086 87.8021 208.023 88.0794 207.898 88.332C207.773 88.582 207.59 88.7839 207.348 88.9375C207.108 89.0885 206.814 89.1641 206.465 89.1641C206.113 89.1641 205.816 89.0885 205.574 88.9375C205.332 88.7839 205.148 88.582 205.023 88.332C204.898 88.0794 204.836 87.8021 204.836 87.5ZM205.746 87.0781V87.5C205.746 87.724 205.799 87.9271 205.906 88.1094C206.013 88.2917 206.199 88.3828 206.465 88.3828C206.728 88.3828 206.911 88.2917 207.016 88.1094C207.12 87.9271 207.172 87.724 207.172 87.5V87.0781C207.172 86.8542 207.121 86.651 207.02 86.4687C206.921 86.2865 206.736 86.1953 206.465 86.1953C206.204 86.1953 206.02 86.2865 205.91 86.4687C205.801 86.651 205.746 86.8542 205.746 87.0781ZM200.812 82.9219V82.5C200.812 82.1979 200.875 81.9206 201 81.668C201.128 81.4154 201.312 81.2135 201.555 81.0625C201.799 80.9115 202.095 80.8359 202.441 80.8359C202.796 80.8359 203.092 80.9115 203.332 81.0625C203.572 81.2135 203.753 81.4154 203.875 81.668C203.997 81.9206 204.059 82.1979 204.059 82.5V82.9219C204.059 83.224 203.996 83.5013 203.871 83.7539C203.749 84.0039 203.566 84.2057 203.324 84.3594C203.085 84.5104 202.79 84.5859 202.441 84.5859C202.087 84.5859 201.789 84.5104 201.547 84.3594C201.307 84.2057 201.125 84.0039 201 83.7539C200.875 83.5013 200.812 83.224 200.812 82.9219ZM201.727 82.5V82.9219C201.727 83.1458 201.779 83.349 201.883 83.5312C201.99 83.7135 202.176 83.8047 202.441 83.8047C202.702 83.8047 202.884 83.7135 202.988 83.5312C203.095 83.349 203.148 83.1458 203.148 82.9219V82.5C203.148 82.276 203.098 82.0729 202.996 81.8906C202.895 81.7083 202.71 81.6172 202.441 81.6172C202.181 81.6172 201.996 81.7083 201.887 81.8906C201.78 82.0729 201.727 82.276 201.727 82.5ZM201.184 89L206.684 81H207.617L202.117 89H201.184Z" fill="#F31819"/>
<rect x="53" y="78" width="12" height="12" rx="6" fill="#26B3A3"/>
<path d="M108.942 157.182V145.364H109.7V157.182H108.942ZM110.951 149.265C110.914 148.892 110.755 148.603 110.475 148.397C110.195 148.19 109.815 148.087 109.335 148.087C109.009 148.087 108.733 148.134 108.509 148.226C108.284 148.315 108.112 148.44 107.991 148.6C107.875 148.76 107.816 148.941 107.816 149.145C107.81 149.314 107.845 149.462 107.922 149.588C108.002 149.714 108.112 149.823 108.25 149.915C108.388 150.005 108.549 150.083 108.73 150.151C108.912 150.216 109.106 150.271 109.312 150.317L110.161 150.52C110.574 150.613 110.952 150.736 111.297 150.89C111.642 151.043 111.94 151.233 112.192 151.457C112.445 151.682 112.64 151.947 112.779 152.251C112.92 152.556 112.993 152.905 112.996 153.299C112.993 153.878 112.845 154.38 112.553 154.804C112.263 155.226 111.845 155.554 111.297 155.788C110.752 156.018 110.095 156.134 109.326 156.134C108.562 156.134 107.898 156.017 107.331 155.783C106.768 155.549 106.328 155.203 106.011 154.744C105.697 154.283 105.532 153.712 105.517 153.032H107.451C107.473 153.349 107.564 153.613 107.724 153.826C107.887 154.035 108.104 154.193 108.375 154.301C108.649 154.406 108.958 154.458 109.303 154.458C109.641 154.458 109.935 154.409 110.184 154.31C110.437 154.212 110.632 154.075 110.771 153.9C110.909 153.724 110.978 153.522 110.978 153.295C110.978 153.082 110.915 152.904 110.789 152.759C110.666 152.615 110.484 152.491 110.244 152.39C110.007 152.288 109.717 152.196 109.372 152.113L108.342 151.854C107.545 151.661 106.916 151.357 106.454 150.945C105.993 150.533 105.763 149.977 105.766 149.278C105.763 148.706 105.916 148.206 106.223 147.778C106.534 147.35 106.96 147.016 107.502 146.776C108.044 146.536 108.659 146.416 109.349 146.416C110.05 146.416 110.663 146.536 111.186 146.776C111.712 147.016 112.122 147.35 112.414 147.778C112.706 148.206 112.857 148.701 112.866 149.265H110.951ZM114.919 156L118.838 148.244V148.18H114.273V146.545H120.906V148.203L116.982 156H114.919ZM123.067 154.707L123.016 155.215C122.976 155.621 122.899 156.026 122.786 156.429C122.675 156.836 122.558 157.203 122.435 157.533C122.315 157.862 122.218 158.121 122.144 158.308H120.87C120.916 158.127 120.979 157.873 121.059 157.547C121.139 157.223 121.214 156.86 121.285 156.457C121.356 156.054 121.401 155.643 121.419 155.224L121.442 154.707H123.067ZM128.297 156.129C127.607 156.129 126.993 156.011 126.455 155.774C125.919 155.534 125.496 155.204 125.185 154.786C124.878 154.364 124.719 153.878 124.71 153.327H126.723C126.735 153.558 126.81 153.761 126.949 153.936C127.09 154.109 127.278 154.243 127.512 154.338C127.746 154.433 128.009 154.481 128.301 154.481C128.606 154.481 128.875 154.427 129.109 154.32C129.343 154.212 129.526 154.063 129.659 153.872C129.791 153.681 129.857 153.461 129.857 153.212C129.857 152.959 129.786 152.736 129.645 152.542C129.506 152.345 129.306 152.191 129.045 152.081C128.786 151.97 128.478 151.914 128.121 151.914H127.24V150.446H128.121C128.423 150.446 128.689 150.394 128.92 150.289C129.154 150.185 129.336 150.04 129.465 149.855C129.594 149.668 129.659 149.449 129.659 149.2C129.659 148.963 129.602 148.755 129.488 148.577C129.377 148.395 129.22 148.254 129.017 148.152C128.817 148.05 128.583 148 128.315 148C128.045 148 127.797 148.049 127.572 148.147C127.347 148.243 127.167 148.38 127.032 148.558C126.897 148.737 126.824 148.946 126.815 149.186H124.899C124.908 148.641 125.064 148.161 125.365 147.746C125.667 147.33 126.073 147.006 126.584 146.772C127.098 146.535 127.678 146.416 128.325 146.416C128.977 146.416 129.548 146.535 130.037 146.772C130.527 147.009 130.907 147.329 131.178 147.732C131.451 148.132 131.587 148.581 131.584 149.08C131.587 149.609 131.422 150.051 131.09 150.405C130.761 150.759 130.331 150.983 129.802 151.079V151.153C130.497 151.242 131.027 151.484 131.39 151.877C131.756 152.268 131.938 152.758 131.935 153.346C131.938 153.884 131.782 154.363 131.468 154.781C131.158 155.2 130.728 155.529 130.18 155.769C129.633 156.009 129.005 156.129 128.297 156.129ZM133.632 156V154.56L136.997 151.444C137.283 151.167 137.523 150.917 137.717 150.696C137.914 150.474 138.063 150.257 138.165 150.045C138.266 149.829 138.317 149.597 138.317 149.348C138.317 149.071 138.254 148.832 138.128 148.632C138.002 148.429 137.829 148.274 137.611 148.166C137.392 148.055 137.145 148 136.868 148C136.578 148 136.326 148.058 136.111 148.175C135.895 148.292 135.729 148.46 135.612 148.678C135.495 148.897 135.437 149.157 135.437 149.458H133.539C133.539 148.84 133.679 148.303 133.959 147.847C134.239 147.392 134.632 147.039 135.137 146.79C135.641 146.541 136.223 146.416 136.882 146.416C137.559 146.416 138.148 146.536 138.65 146.776C139.154 147.013 139.547 147.343 139.827 147.764C140.107 148.186 140.247 148.669 140.247 149.214C140.247 149.571 140.176 149.923 140.035 150.271C139.896 150.619 139.648 151.005 139.291 151.43C138.934 151.851 138.431 152.358 137.782 152.949L136.401 154.301V154.366H140.372V156H133.632ZM145.533 156.129C144.881 156.129 144.299 156.009 143.788 155.769C143.28 155.529 142.877 155.198 142.579 154.777C142.28 154.355 142.125 153.872 142.112 153.327H144.051C144.073 153.693 144.227 153.99 144.513 154.218C144.799 154.446 145.139 154.56 145.533 154.56C145.847 154.56 146.124 154.49 146.364 154.352C146.607 154.21 146.797 154.015 146.932 153.766C147.07 153.513 147.14 153.224 147.14 152.898C147.14 152.565 147.069 152.273 146.927 152.021C146.789 151.768 146.596 151.571 146.35 151.43C146.104 151.288 145.822 151.216 145.505 151.213C145.228 151.213 144.959 151.27 144.698 151.384C144.439 151.497 144.237 151.653 144.093 151.85L142.315 151.531L142.763 146.545H148.543V148.18H144.411L144.167 150.548H144.222C144.388 150.314 144.639 150.12 144.975 149.966C145.31 149.812 145.685 149.735 146.101 149.735C146.67 149.735 147.178 149.869 147.624 150.137C148.071 150.405 148.423 150.773 148.682 151.24C148.94 151.705 149.068 152.241 149.065 152.847C149.068 153.484 148.92 154.05 148.622 154.546C148.326 155.038 147.912 155.426 147.38 155.709C146.85 155.989 146.235 156.129 145.533 156.129Z" fill="#EFF2F3"/>
<path d="M179.062 152.547V157H180.938V152.547H183L180 149L177 152.545L179.062 152.547Z" fill="#13D802"/>
<path d="M188.34 157L191.832 150.094V150.035H187.793V149H193.082V150.07L189.601 157H188.34ZM198.836 155.5V155.078C198.836 154.776 198.898 154.5 199.023 154.25C199.151 153.997 199.336 153.796 199.578 153.645C199.823 153.491 200.118 153.414 200.465 153.414C200.819 153.414 201.116 153.49 201.355 153.641C201.595 153.792 201.776 153.993 201.898 154.246C202.023 154.499 202.086 154.776 202.086 155.078V155.5C202.086 155.802 202.023 156.079 201.898 156.332C201.773 156.582 201.59 156.784 201.348 156.937C201.108 157.089 200.814 157.164 200.465 157.164C200.113 157.164 199.816 157.089 199.574 156.937C199.332 156.784 199.148 156.582 199.023 156.332C198.898 156.079 198.836 155.802 198.836 155.5ZM199.746 155.078V155.5C199.746 155.724 199.799 155.927 199.906 156.109C200.013 156.292 200.199 156.383 200.465 156.383C200.728 156.383 200.911 156.292 201.016 156.109C201.12 155.927 201.172 155.724 201.172 155.5V155.078C201.172 154.854 201.121 154.651 201.02 154.469C200.921 154.286 200.736 154.195 200.465 154.195C200.204 154.195 200.02 154.286 199.91 154.469C199.801 154.651 199.746 154.854 199.746 155.078ZM194.812 150.922V150.5C194.812 150.198 194.875 149.921 195 149.668C195.128 149.415 195.312 149.214 195.555 149.062C195.799 148.911 196.095 148.836 196.441 148.836C196.796 148.836 197.092 148.911 197.332 149.062C197.572 149.214 197.753 149.415 197.875 149.668C197.997 149.921 198.059 150.198 198.059 150.5V150.922C198.059 151.224 197.996 151.501 197.871 151.754C197.749 152.004 197.566 152.206 197.324 152.359C197.085 152.51 196.79 152.586 196.441 152.586C196.087 152.586 195.789 152.51 195.547 152.359C195.307 152.206 195.125 152.004 195 151.754C194.875 151.501 194.812 151.224 194.812 150.922ZM195.727 150.5V150.922C195.727 151.146 195.779 151.349 195.883 151.531C195.99 151.714 196.176 151.805 196.441 151.805C196.702 151.805 196.884 151.714 196.988 151.531C197.095 151.349 197.148 151.146 197.148 150.922V150.5C197.148 150.276 197.098 150.073 196.996 149.891C196.895 149.708 196.71 149.617 196.441 149.617C196.181 149.617 195.996 149.708 195.887 149.891C195.78 150.073 195.727 150.276 195.727 150.5ZM195.184 157L200.684 149H201.617L196.117 157H195.184Z" fill="#13D802"/>
<rect x="53" y="147" width="12" height="12" rx="6" fill="#FED530"/>
<path d="M108.942 123.182V111.364H109.7V123.182H108.942ZM110.951 115.265C110.914 114.892 110.755 114.603 110.475 114.397C110.195 114.19 109.815 114.087 109.335 114.087C109.009 114.087 108.733 114.134 108.509 114.226C108.284 114.315 108.112 114.44 107.991 114.6C107.875 114.76 107.816 114.941 107.816 115.145C107.81 115.314 107.845 115.462 107.922 115.588C108.002 115.714 108.112 115.823 108.25 115.915C108.388 116.005 108.549 116.083 108.73 116.151C108.912 116.216 109.106 116.271 109.312 116.317L110.161 116.52C110.574 116.613 110.952 116.736 111.297 116.89C111.642 117.043 111.94 117.233 112.192 117.457C112.445 117.682 112.64 117.947 112.779 118.251C112.92 118.556 112.993 118.905 112.996 119.299C112.993 119.878 112.845 120.38 112.553 120.804C112.263 121.226 111.845 121.554 111.297 121.788C110.752 122.018 110.095 122.134 109.326 122.134C108.562 122.134 107.898 122.017 107.331 121.783C106.768 121.549 106.328 121.203 106.011 120.744C105.697 120.283 105.532 119.712 105.517 119.032H107.451C107.473 119.349 107.564 119.613 107.724 119.826C107.887 120.035 108.104 120.193 108.375 120.301C108.649 120.406 108.958 120.458 109.303 120.458C109.641 120.458 109.935 120.409 110.184 120.31C110.437 120.212 110.632 120.075 110.771 119.9C110.909 119.724 110.978 119.522 110.978 119.295C110.978 119.082 110.915 118.904 110.789 118.759C110.666 118.615 110.484 118.491 110.244 118.39C110.007 118.288 109.717 118.196 109.372 118.113L108.342 117.854C107.545 117.661 106.916 117.357 106.454 116.945C105.993 116.533 105.763 115.977 105.766 115.278C105.763 114.706 105.916 114.206 106.223 113.778C106.534 113.35 106.96 113.016 107.502 112.776C108.044 112.536 108.659 112.416 109.349 112.416C110.05 112.416 110.663 112.536 111.186 112.776C111.712 113.016 112.122 113.35 112.414 113.778C112.706 114.206 112.857 114.701 112.866 115.265H110.951ZM114.402 120.338V118.764L118.349 112.545H119.706V114.724H118.903L116.415 118.662V118.736H122.024V120.338H114.402ZM118.94 122V119.858L118.977 119.161V112.545H120.851V122H118.94ZM127.11 122.129C126.421 122.129 125.807 122.011 125.268 121.774C124.733 121.534 124.309 121.204 123.999 120.786C123.691 120.364 123.532 119.878 123.523 119.327H125.536C125.548 119.558 125.624 119.761 125.762 119.936C125.904 120.109 126.091 120.243 126.325 120.338C126.559 120.433 126.822 120.481 127.115 120.481C127.419 120.481 127.689 120.427 127.923 120.32C128.157 120.212 128.34 120.063 128.472 119.872C128.604 119.681 128.67 119.461 128.67 119.212C128.67 118.959 128.6 118.736 128.458 118.542C128.32 118.345 128.12 118.191 127.858 118.081C127.599 117.97 127.292 117.914 126.935 117.914H126.053V116.446H126.935C127.236 116.446 127.503 116.394 127.733 116.289C127.967 116.185 128.149 116.04 128.278 115.855C128.407 115.668 128.472 115.449 128.472 115.2C128.472 114.963 128.415 114.755 128.301 114.577C128.19 114.395 128.033 114.254 127.83 114.152C127.63 114.05 127.396 114 127.129 114C126.858 114 126.61 114.049 126.385 114.147C126.161 114.243 125.981 114.38 125.845 114.558C125.71 114.737 125.637 114.946 125.628 115.186H123.712C123.722 114.641 123.877 114.161 124.179 113.746C124.48 113.33 124.887 113.006 125.397 112.772C125.911 112.535 126.492 112.416 127.138 112.416C127.79 112.416 128.361 112.535 128.851 112.772C129.34 113.009 129.72 113.329 129.991 113.732C130.265 114.132 130.4 114.581 130.397 115.08C130.4 115.609 130.235 116.051 129.903 116.405C129.574 116.759 129.144 116.983 128.615 117.079V117.153C129.311 117.242 129.84 117.484 130.203 117.877C130.569 118.268 130.751 118.758 130.748 119.346C130.751 119.884 130.596 120.363 130.282 120.781C129.971 121.2 129.541 121.529 128.994 121.769C128.446 122.009 127.818 122.129 127.11 122.129ZM134.334 120.707L134.283 121.215C134.243 121.621 134.166 122.026 134.052 122.429C133.942 122.836 133.825 123.203 133.702 123.533C133.582 123.862 133.485 124.121 133.411 124.308H132.137C132.183 124.127 132.246 123.873 132.326 123.547C132.406 123.223 132.481 122.86 132.552 122.457C132.623 122.054 132.668 121.643 132.686 121.224L132.709 120.707H134.334ZM136.231 120.338V118.764L140.178 112.545H141.535V114.724H140.732L138.243 118.662V118.736H143.852V120.338H136.231ZM140.769 122V119.858L140.806 119.161V112.545H142.68V122H140.769ZM148.939 122.129C148.25 122.129 147.636 122.011 147.097 121.774C146.561 121.534 146.138 121.204 145.827 120.786C145.52 120.364 145.361 119.878 145.352 119.327H147.365C147.377 119.558 147.452 119.761 147.591 119.936C147.732 120.109 147.92 120.243 148.154 120.338C148.388 120.433 148.651 120.481 148.944 120.481C149.248 120.481 149.518 120.427 149.751 120.32C149.985 120.212 150.168 120.063 150.301 119.872C150.433 119.681 150.499 119.461 150.499 119.212C150.499 118.959 150.429 118.736 150.287 118.542C150.148 118.345 149.948 118.191 149.687 118.081C149.428 117.97 149.121 117.914 148.764 117.914H147.882V116.446H148.764C149.065 116.446 149.331 116.394 149.562 116.289C149.796 116.185 149.978 116.04 150.107 115.855C150.236 115.668 150.301 115.449 150.301 115.2C150.301 114.963 150.244 114.755 150.13 114.577C150.019 114.395 149.862 114.254 149.659 114.152C149.459 114.05 149.225 114 148.957 114C148.687 114 148.439 114.049 148.214 114.147C147.989 114.243 147.809 114.38 147.674 114.558C147.539 114.737 147.466 114.946 147.457 115.186H145.541C145.55 114.641 145.706 114.161 146.007 113.746C146.309 113.33 146.715 113.006 147.226 112.772C147.74 112.535 148.32 112.416 148.967 112.416C149.619 112.416 150.19 112.535 150.679 112.772C151.169 113.009 151.549 113.329 151.82 113.732C152.094 114.132 152.229 114.581 152.226 115.08C152.229 115.609 152.064 116.051 151.732 116.405C151.403 116.759 150.973 116.983 150.444 117.079V117.153C151.139 117.242 151.669 117.484 152.032 117.877C152.398 118.268 152.58 118.758 152.577 119.346C152.58 119.884 152.424 120.363 152.11 120.781C151.8 121.2 151.37 121.529 150.822 121.769C150.275 122.009 149.647 122.129 148.939 122.129ZM157.768 122.129C157.079 122.129 156.465 122.011 155.926 121.774C155.391 121.534 154.968 121.204 154.657 120.786C154.349 120.364 154.191 119.878 154.181 119.327H156.194C156.206 119.558 156.282 119.761 156.42 119.936C156.562 120.109 156.75 120.243 156.983 120.338C157.217 120.433 157.481 120.481 157.773 120.481C158.078 120.481 158.347 120.427 158.581 120.32C158.815 120.212 158.998 120.063 159.13 119.872C159.262 119.681 159.329 119.461 159.329 119.212C159.329 118.959 159.258 118.736 159.116 118.542C158.978 118.345 158.778 118.191 158.516 118.081C158.258 117.97 157.95 117.914 157.593 117.914H156.711V116.446H157.593C157.894 116.446 158.161 116.394 158.392 116.289C158.625 116.185 158.807 116.04 158.936 115.855C159.066 115.668 159.13 115.449 159.13 115.2C159.13 114.963 159.073 114.755 158.959 114.577C158.849 114.395 158.692 114.254 158.488 114.152C158.288 114.05 158.054 114 157.787 114C157.516 114 157.268 114.049 157.043 114.147C156.819 114.243 156.639 114.38 156.503 114.558C156.368 114.737 156.296 114.946 156.286 115.186H154.371C154.38 114.641 154.535 114.161 154.837 113.746C155.138 113.33 155.545 113.006 156.056 112.772C156.57 112.535 157.15 112.416 157.796 112.416C158.448 112.416 159.019 112.535 159.509 112.772C159.998 113.009 160.378 113.329 160.649 113.732C160.923 114.132 161.058 114.581 161.055 115.08C161.058 115.609 160.894 116.051 160.561 116.405C160.232 116.759 159.803 116.983 159.273 117.079V117.153C159.969 117.242 160.498 117.484 160.861 117.877C161.228 118.268 161.409 118.758 161.406 119.346C161.409 119.884 161.254 120.363 160.94 120.781C160.629 121.2 160.2 121.529 159.652 121.769C159.104 122.009 158.476 122.129 157.768 122.129Z" fill="#EFF2F3"/>
<path d="M180.938 118.547V123H179.062V118.547H177L180 115L183 118.545L180.938 118.547Z" fill="#13D802"/>
<path d="M191.235 115V123H190.024V116.211H189.977L188.063 117.461V116.305L190.059 115H191.235ZM196.259 123.109C195.77 123.109 195.33 123.016 194.939 122.828C194.551 122.638 194.241 122.378 194.009 122.047C193.778 121.716 193.654 121.339 193.638 120.914H194.81C194.839 121.258 194.991 121.54 195.267 121.762C195.543 121.983 195.874 122.094 196.259 122.094C196.567 122.094 196.839 122.023 197.076 121.883C197.315 121.74 197.503 121.543 197.638 121.293C197.776 121.043 197.845 120.758 197.845 120.437C197.845 120.112 197.775 119.822 197.634 119.566C197.494 119.311 197.3 119.111 197.052 118.965C196.808 118.819 196.526 118.745 196.209 118.742C195.967 118.742 195.723 118.784 195.478 118.867C195.233 118.951 195.036 119.06 194.884 119.195L193.779 119.031L194.228 115H198.627V116.035H195.232L194.978 118.273H195.025C195.181 118.122 195.388 117.996 195.646 117.895C195.907 117.793 196.185 117.742 196.482 117.742C196.969 117.742 197.403 117.858 197.783 118.09C198.166 118.322 198.467 118.638 198.685 119.039C198.907 119.437 199.016 119.896 199.013 120.414C199.016 120.932 198.899 121.395 198.662 121.801C198.427 122.207 198.102 122.527 197.685 122.762C197.271 122.993 196.796 123.109 196.259 123.109ZM204.836 121.5V121.078C204.836 120.776 204.898 120.5 205.023 120.25C205.151 119.997 205.336 119.796 205.578 119.645C205.823 119.491 206.118 119.414 206.465 119.414C206.819 119.414 207.116 119.49 207.355 119.641C207.595 119.792 207.776 119.993 207.898 120.246C208.023 120.499 208.086 120.776 208.086 121.078V121.5C208.086 121.802 208.023 122.079 207.898 122.332C207.773 122.582 207.59 122.784 207.348 122.937C207.108 123.089 206.814 123.164 206.465 123.164C206.113 123.164 205.816 123.089 205.574 122.937C205.332 122.784 205.148 122.582 205.023 122.332C204.898 122.079 204.836 121.802 204.836 121.5ZM205.746 121.078V121.5C205.746 121.724 205.799 121.927 205.906 122.109C206.013 122.292 206.199 122.383 206.465 122.383C206.728 122.383 206.911 122.292 207.016 122.109C207.12 121.927 207.172 121.724 207.172 121.5V121.078C207.172 120.854 207.121 120.651 207.02 120.469C206.921 120.286 206.736 120.195 206.465 120.195C206.204 120.195 206.02 120.286 205.91 120.469C205.801 120.651 205.746 120.854 205.746 121.078ZM200.812 116.922V116.5C200.812 116.198 200.875 115.921 201 115.668C201.128 115.415 201.312 115.214 201.555 115.062C201.799 114.911 202.095 114.836 202.441 114.836C202.796 114.836 203.092 114.911 203.332 115.062C203.572 115.214 203.753 115.415 203.875 115.668C203.997 115.921 204.059 116.198 204.059 116.5V116.922C204.059 117.224 203.996 117.501 203.871 117.754C203.749 118.004 203.566 118.206 203.324 118.359C203.085 118.51 202.79 118.586 202.441 118.586C202.087 118.586 201.789 118.51 201.547 118.359C201.307 118.206 201.125 118.004 201 117.754C200.875 117.501 200.812 117.224 200.812 116.922ZM201.727 116.5V116.922C201.727 117.146 201.779 117.349 201.883 117.531C201.99 117.714 202.176 117.805 202.441 117.805C202.702 117.805 202.884 117.714 202.988 117.531C203.095 117.349 203.148 117.146 203.148 116.922V116.5C203.148 116.276 203.098 116.073 202.996 115.891C202.895 115.708 202.71 115.617 202.441 115.617C202.181 115.617 201.996 115.708 201.887 115.891C201.78 116.073 201.727 116.276 201.727 116.5ZM201.184 123L206.684 115H207.617L202.117 123H201.184Z" fill="#13D802"/>
<rect x="53" y="112" width="12" height="12" rx="6" fill="#4391F4"/>
<path d="M108.942 191.182V179.364H109.7V191.182H108.942ZM110.951 183.265C110.914 182.892 110.755 182.603 110.475 182.397C110.195 182.19 109.815 182.087 109.335 182.087C109.009 182.087 108.733 182.134 108.509 182.226C108.284 182.315 108.112 182.44 107.991 182.6C107.875 182.76 107.816 182.941 107.816 183.145C107.81 183.314 107.845 183.462 107.922 183.588C108.002 183.714 108.112 183.823 108.25 183.915C108.388 184.005 108.549 184.083 108.73 184.151C108.912 184.216 109.106 184.271 109.312 184.317L110.161 184.52C110.574 184.613 110.952 184.736 111.297 184.89C111.642 185.043 111.94 185.233 112.192 185.457C112.445 185.682 112.64 185.947 112.779 186.251C112.92 186.556 112.993 186.905 112.996 187.299C112.993 187.878 112.845 188.38 112.553 188.804C112.263 189.226 111.845 189.554 111.297 189.788C110.752 190.018 110.095 190.134 109.326 190.134C108.562 190.134 107.898 190.017 107.331 189.783C106.768 189.549 106.328 189.203 106.011 188.744C105.697 188.283 105.532 187.712 105.517 187.032H107.451C107.473 187.349 107.564 187.613 107.724 187.826C107.887 188.035 108.104 188.193 108.375 188.301C108.649 188.406 108.958 188.458 109.303 188.458C109.641 188.458 109.935 188.409 110.184 188.31C110.437 188.212 110.632 188.075 110.771 187.9C110.909 187.724 110.978 187.522 110.978 187.295C110.978 187.082 110.915 186.904 110.789 186.759C110.666 186.615 110.484 186.491 110.244 186.39C110.007 186.288 109.717 186.196 109.372 186.113L108.342 185.854C107.545 185.661 106.916 185.357 106.454 184.945C105.993 184.533 105.763 183.977 105.766 183.278C105.763 182.706 105.916 182.206 106.223 181.778C106.534 181.35 106.96 181.016 107.502 180.776C108.044 180.536 108.659 180.416 109.349 180.416C110.05 180.416 110.663 180.536 111.186 180.776C111.712 181.016 112.122 181.35 112.414 181.778C112.706 182.206 112.857 182.701 112.866 183.265H110.951ZM118.173 190.129C117.687 190.126 117.218 190.045 116.765 189.885C116.316 189.725 115.913 189.464 115.556 189.104C115.199 188.744 114.916 188.267 114.706 187.673C114.5 187.079 114.397 186.35 114.397 185.485C114.4 184.691 114.491 183.982 114.67 183.357C114.851 182.729 115.11 182.197 115.445 181.76C115.784 181.323 116.188 180.99 116.659 180.762C117.13 180.532 117.658 180.416 118.243 180.416C118.874 180.416 119.431 180.539 119.914 180.786C120.397 181.029 120.785 181.359 121.077 181.778C121.373 182.197 121.551 182.666 121.613 183.186H119.641C119.565 182.857 119.403 182.598 119.157 182.411C118.911 182.223 118.606 182.129 118.243 182.129C117.627 182.129 117.159 182.397 116.839 182.932C116.522 183.468 116.361 184.196 116.355 185.116H116.419C116.561 184.836 116.752 184.597 116.992 184.4C117.235 184.2 117.51 184.048 117.818 183.943C118.129 183.835 118.457 183.782 118.801 183.782C119.361 183.782 119.86 183.914 120.297 184.179C120.734 184.44 121.079 184.8 121.331 185.259C121.583 185.717 121.71 186.242 121.71 186.833C121.71 187.473 121.56 188.043 121.262 188.541C120.966 189.04 120.552 189.431 120.02 189.714C119.491 189.994 118.875 190.132 118.173 190.129ZM118.164 188.56C118.472 188.56 118.747 188.486 118.991 188.338C119.234 188.19 119.425 187.99 119.563 187.738C119.701 187.486 119.771 187.202 119.771 186.888C119.771 186.575 119.701 186.293 119.563 186.044C119.428 185.794 119.24 185.596 119 185.448C118.76 185.3 118.486 185.227 118.178 185.227C117.947 185.227 117.733 185.27 117.536 185.356C117.342 185.442 117.172 185.562 117.024 185.716C116.879 185.87 116.765 186.048 116.682 186.251C116.599 186.451 116.558 186.665 116.558 186.893C116.558 187.198 116.627 187.476 116.765 187.729C116.907 187.981 117.098 188.183 117.338 188.333C117.581 188.484 117.856 188.56 118.164 188.56ZM123.387 190V188.56L126.752 185.444C127.039 185.167 127.279 184.917 127.473 184.696C127.669 184.474 127.819 184.257 127.92 184.045C128.022 183.829 128.073 183.597 128.073 183.348C128.073 183.071 128.01 182.832 127.883 182.632C127.757 182.429 127.585 182.274 127.366 182.166C127.148 182.055 126.9 182 126.623 182C126.334 182 126.081 182.058 125.866 182.175C125.651 182.292 125.484 182.46 125.367 182.678C125.25 182.897 125.192 183.157 125.192 183.458H123.295C123.295 182.84 123.435 182.303 123.715 181.847C123.995 181.392 124.387 181.039 124.892 180.79C125.397 180.541 125.978 180.416 126.637 180.416C127.314 180.416 127.903 180.536 128.405 180.776C128.91 181.013 129.302 181.343 129.582 181.764C129.862 182.186 130.002 182.669 130.002 183.214C130.002 183.571 129.932 183.923 129.79 184.271C129.651 184.619 129.404 185.005 129.047 185.43C128.69 185.851 128.187 186.358 127.537 186.949L126.157 188.301V188.366H130.127V190H123.387ZM135.949 180.545V190H133.95V182.443H133.894L131.729 183.8V182.027L134.07 180.545H135.949ZM140.104 188.707L140.053 189.215C140.013 189.621 139.936 190.026 139.822 190.429C139.711 190.836 139.594 191.203 139.471 191.533C139.351 191.862 139.254 192.121 139.181 192.308H137.906C137.953 192.127 138.016 191.873 138.096 191.547C138.176 191.223 138.251 190.86 138.322 190.457C138.393 190.054 138.437 189.643 138.456 189.224L138.479 188.707H140.104ZM145.29 190.129C144.579 190.129 143.946 190.014 143.392 189.783C142.841 189.549 142.409 189.231 142.095 188.827C141.781 188.424 141.624 187.967 141.624 187.456C141.624 187.062 141.713 186.701 141.892 186.371C142.073 186.039 142.32 185.764 142.631 185.545C142.941 185.324 143.289 185.182 143.674 185.12V185.056C143.169 184.954 142.76 184.71 142.446 184.322C142.132 183.931 141.975 183.477 141.975 182.96C141.975 182.471 142.118 182.035 142.404 181.653C142.691 181.269 143.083 180.967 143.582 180.749C144.083 180.527 144.653 180.416 145.29 180.416C145.927 180.416 146.495 180.527 146.993 180.749C147.495 180.97 147.889 181.273 148.175 181.658C148.461 182.04 148.606 182.474 148.609 182.96C148.606 183.48 148.446 183.934 148.129 184.322C147.812 184.71 147.405 184.954 146.91 185.056V185.12C147.289 185.182 147.632 185.324 147.939 185.545C148.25 185.764 148.497 186.039 148.678 186.371C148.863 186.701 148.957 187.062 148.96 187.456C148.957 187.967 148.798 188.424 148.484 188.827C148.17 189.231 147.736 189.549 147.182 189.783C146.631 190.014 146.001 190.129 145.29 190.129ZM145.29 188.661C145.607 188.661 145.884 188.604 146.121 188.49C146.358 188.373 146.542 188.213 146.675 188.01C146.81 187.804 146.878 187.567 146.878 187.299C146.878 187.025 146.808 186.784 146.67 186.575C146.531 186.362 146.344 186.196 146.107 186.076C145.87 185.953 145.597 185.891 145.29 185.891C144.985 185.891 144.713 185.953 144.472 186.076C144.232 186.196 144.043 186.362 143.905 186.575C143.769 186.784 143.702 187.025 143.702 187.299C143.702 187.567 143.768 187.804 143.9 188.01C144.032 188.213 144.219 188.373 144.459 188.49C144.699 188.604 144.976 188.661 145.29 188.661ZM145.29 184.437C145.554 184.437 145.79 184.383 145.996 184.276C146.202 184.168 146.364 184.019 146.481 183.828C146.598 183.637 146.656 183.417 146.656 183.168C146.656 182.921 146.598 182.706 146.481 182.521C146.364 182.334 146.204 182.187 146.001 182.083C145.797 181.975 145.56 181.921 145.29 181.921C145.022 181.921 144.785 181.975 144.579 182.083C144.372 182.187 144.211 182.334 144.094 182.521C143.98 182.706 143.923 182.921 143.923 183.168C143.923 183.417 143.982 183.637 144.099 183.828C144.216 184.019 144.377 184.168 144.583 184.276C144.789 184.383 145.025 184.437 145.29 184.437ZM150.617 190V188.56L153.983 185.444C154.269 185.167 154.509 184.917 154.703 184.696C154.9 184.474 155.049 184.257 155.151 184.045C155.252 183.829 155.303 183.597 155.303 183.348C155.303 183.071 155.24 182.832 155.114 182.632C154.988 182.429 154.815 182.274 154.597 182.166C154.378 182.055 154.13 182 153.854 182C153.564 182 153.312 182.058 153.096 182.175C152.881 182.292 152.715 182.46 152.598 182.678C152.481 182.897 152.422 183.157 152.422 183.458H150.525C150.525 182.84 150.665 182.303 150.945 181.847C151.225 181.392 151.618 181.039 152.122 180.79C152.627 180.541 153.209 180.416 153.867 180.416C154.544 180.416 155.134 180.536 155.635 180.776C156.14 181.013 156.533 181.343 156.813 181.764C157.093 182.186 157.233 182.669 157.233 183.214C157.233 183.571 157.162 183.923 157.02 184.271C156.882 184.619 156.634 185.005 156.277 185.43C155.92 185.851 155.417 186.358 154.768 186.949L153.387 188.301V188.366H157.357V190H150.617ZM163.179 180.545V190H161.18V182.443H161.125L158.96 183.8V182.027L161.3 180.545H163.179Z" fill="#EFF2F3"/>
<path d="M179.062 187.453V183H180.938V187.453H183L180 191L177 187.455L179.062 187.453Z" fill="#F31819"/>
<path d="M191.276 183V191H190.065V184.211H190.018L188.104 185.461V184.305L190.1 183H191.276ZM197.836 189.5V189.078C197.836 188.776 197.898 188.5 198.023 188.25C198.151 187.997 198.336 187.796 198.578 187.645C198.823 187.491 199.118 187.414 199.465 187.414C199.819 187.414 200.116 187.49 200.355 187.641C200.595 187.792 200.776 187.993 200.898 188.246C201.023 188.499 201.086 188.776 201.086 189.078V189.5C201.086 189.802 201.023 190.079 200.898 190.332C200.773 190.582 200.59 190.784 200.348 190.937C200.108 191.089 199.814 191.164 199.465 191.164C199.113 191.164 198.816 191.089 198.574 190.937C198.332 190.784 198.148 190.582 198.023 190.332C197.898 190.079 197.836 189.802 197.836 189.5ZM198.746 189.078V189.5C198.746 189.724 198.799 189.927 198.906 190.109C199.013 190.292 199.199 190.383 199.465 190.383C199.728 190.383 199.911 190.292 200.016 190.109C200.12 189.927 200.172 189.724 200.172 189.5V189.078C200.172 188.854 200.121 188.651 200.02 188.469C199.921 188.286 199.736 188.195 199.465 188.195C199.204 188.195 199.02 188.286 198.91 188.469C198.801 188.651 198.746 188.854 198.746 189.078ZM193.812 184.922V184.5C193.812 184.198 193.875 183.921 194 183.668C194.128 183.415 194.312 183.214 194.555 183.062C194.799 182.911 195.095 182.836 195.441 182.836C195.796 182.836 196.092 182.911 196.332 183.062C196.572 183.214 196.753 183.415 196.875 183.668C196.997 183.921 197.059 184.198 197.059 184.5V184.922C197.059 185.224 196.996 185.501 196.871 185.754C196.749 186.004 196.566 186.206 196.324 186.359C196.085 186.51 195.79 186.586 195.441 186.586C195.087 186.586 194.789 186.51 194.547 186.359C194.307 186.206 194.125 186.004 194 185.754C193.875 185.501 193.812 185.224 193.812 184.922ZM194.727 184.5V184.922C194.727 185.146 194.779 185.349 194.883 185.531C194.99 185.714 195.176 185.805 195.441 185.805C195.702 185.805 195.884 185.714 195.988 185.531C196.095 185.349 196.148 185.146 196.148 184.922V184.5C196.148 184.276 196.098 184.073 195.996 183.891C195.895 183.708 195.71 183.617 195.441 183.617C195.181 183.617 194.996 183.708 194.887 183.891C194.78 184.073 194.727 184.276 194.727 184.5ZM194.184 191L199.684 183H200.617L195.117 191H194.184Z" fill="#F31819"/>
<rect x="53" y="180" width="12" height="12" rx="6" fill="#FD4E57"/>
<path d="M92.7608 85.9354C91.6921 90.221 87.3507 92.8291 83.064 91.7606C78.7792 90.692 76.1707 86.351 77.2396 82.0657C78.3077 77.7794 82.6489 75.1709 86.9344 76.2394C91.2209 77.3079 93.8292 81.6494 92.7605 85.9354H92.7608" fill="#F68621"/>
<path d="M86.7926 82.8446C86.5451 83.8359 85.0176 83.3323 84.5219 83.2089L84.9588 81.4562C85.4546 81.5798 87.0506 81.8104 86.7926 82.8446ZM86.5213 85.6725C86.2498 86.7625 84.4148 86.1735 83.8196 86.0256L84.3016 84.0932C84.8966 84.2418 86.8044 84.5358 86.5216 85.6725H86.5213ZM88.527 82.8602C88.6861 81.7958 87.8756 81.2235 86.7674 80.8418L87.1269 79.3998L86.2488 79.181L85.8988 80.5852C85.6684 80.5276 85.4313 80.4733 85.1958 80.4196L85.5484 79.0063L84.671 78.7877L84.3114 80.2291C84.1203 80.1856 83.9329 80.1426 83.7508 80.0974L83.7518 80.0929L82.5413 79.7906L82.3079 80.7282L82.9453 80.8865C83.3008 80.9754 83.3653 81.2107 83.3544 81.3971L82.9436 83.0462L82.3694 85.3473C82.3258 85.4552 82.2156 85.6173 81.9671 85.5558L81.3291 85.3966L80.8933 86.4017L82.0358 86.6863C82.2484 86.7395 82.4566 86.7953 82.6613 86.8477L82.2981 88.3064L83.1748 88.5252L83.5348 87.0824C83.7741 87.1473 84.0066 87.2073 84.2341 87.2638L83.8756 88.7001L84.7533 88.9187L85.1165 87.463C86.6133 87.7463 87.739 87.632 88.2124 86.2785C88.5941 85.1884 88.1936 84.5599 87.4061 84.1495C87.9796 84.0169 88.4115 83.6395 88.5268 82.8602H88.527" fill="white"/>
<path fill-rule="evenodd" clip-rule="evenodd" d="M85 110C89.4183 110 93 113.582 93 118C93 122.418 89.4183 126 85 126C80.5819 126 77 122.418 77 118C77 113.582 80.5819 110 85 110Z" fill="#5D71C0"/>
<path d="M88.9975 118.11L85.249 116.435V112L88.9975 118.11" fill="#B8C0E7"/>
<path d="M85.2489 112L81.5 118.11L85.2489 116.435V112Z" fill="white"/>
<path d="M85.249 123.998V120.984L89.0001 118.808L85.249 123.998Z" fill="#B8C0E7"/>
<path d="M85.2489 123.998V120.984L81.5 118.808L85.2489 123.998Z" fill="white"/>
<path d="M85.249 120.287V116.436L88.9975 118.11L85.249 120.287Z" fill="#7A8BCE"/>
<path d="M85.2489 120.287L81.5 118.11L85.2489 116.436V120.287Z" fill="#B8C0E7"/>
<path d="M85 145C89.4183 145 92.9999 148.582 92.9999 153C92.9999 157.418 89.4183 161 85 161C80.5818 161 77 157.418 77 153C77 148.582 80.5818 145 85 145" fill="#EBB219"/>
<path d="M82.93 152.141L84.1413 150.933L84.3966 150.678L85.0019 150.073L87.0632 152.141L88.2633 150.933L85.0019 147.667L81.73 150.933L82.93 152.141" fill="white"/>
<path d="M83.7987 152.998L85.0036 151.793L86.2085 152.998L85.0036 154.203L83.7987 152.998Z" fill="white"/>
<path d="M87.0632 153.862L85.0013 155.924L84.2773 155.2L84.144 155.067L82.93 153.862L81.73 155.062L85.0019 158.329L88.2633 155.062L87.0632 153.862Z" fill="white"/>
<path d="M79.6666 153.001L80.8715 151.796L82.0764 153.001L80.8715 154.206L79.6666 153.001" fill="white"/>
<path d="M87.9238 153.001L89.1288 151.796L90.3337 153.001L89.1288 154.206L87.9238 153.001Z" fill="white"/>
<path fill-rule="evenodd" clip-rule="evenodd" d="M93 186C93 190.418 89.4184 194 85 194C80.5817 194 77 190.418 77 186C77 181.582 80.5817 178 85 178C89.4184 178 93 181.582 93 186Z" fill="#EF3544"/>
<path fill-rule="evenodd" clip-rule="evenodd" d="M82.733 189.184H81.1804C80.8543 189.184 80.6931 189.184 80.5948 189.121C80.4886 189.052 80.4239 188.938 80.4158 188.812C80.41 188.696 80.4906 188.555 80.6518 188.272L84.4852 181.514C84.6484 181.228 84.731 181.084 84.835 181.031C84.9472 180.974 85.0808 180.974 85.1927 181.031C85.297 181.084 85.3795 181.228 85.5427 181.514L86.3307 182.89L86.3346 182.897C86.5108 183.205 86.6001 183.361 86.6392 183.525C86.6825 183.704 86.6825 183.893 86.6392 184.072C86.5999 184.236 86.5115 184.394 86.3327 184.706L84.319 188.266L84.3138 188.275C84.1365 188.585 84.0466 188.743 83.9221 188.861C83.7863 188.991 83.6233 189.085 83.4445 189.138C83.2814 189.184 83.0986 189.184 82.733 189.184" fill="white"/>
<path fill-rule="evenodd" clip-rule="evenodd" d="M86.6539 189.184H88.8785C89.2068 189.184 89.3719 189.184 89.4701 189.119C89.5764 189.05 89.6431 188.934 89.6489 188.808C89.6546 188.696 89.5759 188.56 89.4215 188.293L89.4054 188.266L88.291 186.359L88.2782 186.338C88.1218 186.073 88.0427 185.94 87.9412 185.888C87.8291 185.831 87.6974 185.831 87.5853 185.888C87.4832 185.941 87.4007 186.08 87.2375 186.361L86.1273 188.268L86.1233 188.274C85.9608 188.555 85.8796 188.695 85.8854 188.81C85.8932 188.936 85.9582 189.052 86.0642 189.121C86.1605 189.184 86.3256 189.184 86.6539 189.184" fill="white"/>
</svg>
