<svg width="40" height="40" viewBox="0 0 40 40" fill="none" xmlns="http://www.w3.org/2000/svg">
<path d="M7.38867 22.9956L8.34083 22.5803L19.9999 17.4197L32.6112 22.9956L27.8698 32.961L16.2885 34.6219L7.58299 25.0519L7.38867 22.9956Z" fill="#133444"/>
<path d="M29.988 16.8659C27.9088 14.3152 24.9552 12.6543 21.7295 12.2193C21.6517 12.2193 21.5934 12.1996 21.5157 12.1996C20.5053 12.0809 19.4948 12.0809 18.4843 12.1996C18.4066 12.1996 18.3483 12.2193 18.2706 12.2193C15.0449 12.6543 12.0913 14.3152 10.0121 16.8659L9.48741 17.7557L8.61298 19.2386L7.97172 20.3261C7.97172 20.3657 7.95229 20.3854 7.93286 20.4052V20.425L9.33195 21.2752L18.2706 26.6534L20 27.6815V14.8293L18.2706 15.6202V13.7023L20 12.9114L21.7295 13.7023L30.5127 17.7557L29.988 16.8659Z" fill="#C42370"/>
<path d="M32.9999 26.1985C32.9805 30.4101 31.115 34.3844 27.9088 37.0537C26.6846 38.0621 25.3049 38.853 23.8086 39.3671C22.5844 39.7823 21.3019 39.9998 20.0194 39.9998C12.8297 39.9998 7.01953 33.4946 7.01953 26.1985C7.01953 25.111 7.15555 24.0433 7.40817 22.9954L20.0194 30.5881L32.6307 22.9954C32.8639 24.0433 32.9999 25.111 32.9999 26.1985Z" fill="#1C4D6B"/>
<path d="M18.484 12.1799L19.9997 12.8917L18.2703 13.6826V12.1008L18.484 12.1799Z" fill="black"/>
<path d="M18.2703 15.6205L19.9997 14.8098V27.662L18.2703 26.6338V15.6205Z" fill="black"/>
<path d="M20 14.8098V27.662L32.0866 20.4055L20 14.8098Z" fill="#1D4259"/>
<path d="M20 0V14.8097L32.0866 20.4054L20 0Z" fill="#4B6B9A"/>
<path d="M20 14.8097V27.6619L18.2706 26.6337L7.93286 20.4053C7.93286 20.3658 7.95229 20.346 7.97172 20.3262L9.48741 17.7756L18.2706 13.7222V15.6599L20 14.8097Z" fill="#343535"/>
<path d="M19.9997 14.8098V27.662L18.2703 26.6338L7.93252 20.4055H7.91309L7.93252 20.3857L18.2703 15.6205L19.9997 14.8098Z" fill="#3E5578"/>
<path d="M19.9997 0V14.8097L7.91309 20.4054L19.9997 0Z" fill="#6DB2D8"/>
<path d="M15.103 38.9521C15.2779 39.0312 15.4722 39.1103 15.6471 39.1894C15.4722 39.1103 15.2973 39.0312 15.103 38.9521Z" fill="#335F8A"/>
<path d="M15.6472 39.1694C15.8221 39.2485 16.0164 39.3078 16.2107 39.3672C16.0164 39.3078 15.8415 39.2485 15.6472 39.1694Z" fill="#335F8A"/>
<path d="M16.6965 39.5254C16.852 39.5649 16.988 39.6045 17.124 39.644L16.6965 39.5254Z" fill="#335F8A"/>
<path d="M7.38864 22.9956L19.9999 30.5883C19.825 31.7351 19.5335 32.8621 19.0866 33.9496C18.0761 36.441 16.0358 39.051 12.0911 37.0539C8.88489 34.3846 7.01943 30.3906 7 26.179C7 25.1113 7.13602 24.0436 7.38864 22.9956Z" fill="#6DB2D8"/>
<path d="M27.8697 37.0738C27.792 37.1331 27.8697 37.0738 27.6171 37.2913L27.5005 37.3704L27.3256 37.489L27.1119 37.6472C27.3256 37.489 26.937 37.7658 26.8593 37.8252C26.7815 37.8647 26.7232 37.9042 26.6455 37.9636L26.5095 38.0624C26.4706 38.0822 26.4123 38.1217 26.3735 38.1613C26.3735 38.1613 26.3152 38.2206 26.2957 38.2206C26.3735 38.1613 26.1986 38.2602 26.1209 38.3195C26.0237 38.359 25.946 38.3986 25.8682 38.4579L25.5962 38.5963L25.4796 38.6556C25.4019 38.6952 25.4407 38.6556 25.363 38.7149C25.2853 38.7742 25.1881 38.794 25.091 38.8533C24.9938 38.9127 25.091 38.8533 24.7606 39.0115C25.091 38.8533 24.7606 39.0115 24.5857 39.0906C24.7606 39.0115 24.2748 39.2092 24.0611 39.2883C23.9833 39.3081 23.5558 39.4465 23.4781 39.4663C23.4004 39.4861 23.3032 39.5256 23.2255 39.5454C23.0701 39.5849 22.934 39.6245 22.798 39.664C22.7397 39.6838 22.6814 39.6838 22.6426 39.7036L22.5454 39.7233L22.3122 39.7827C22.2345 39.8024 22.1762 39.8024 22.0985 39.8222C22.0207 39.842 21.9624 39.842 21.9041 39.8617C21.8458 39.8815 21.7487 39.8815 21.6904 39.9013C21.6515 39.9013 21.6127 39.9013 21.5932 39.9211L21.4378 39.9408H21.3601C21.3018 39.9408 21.2435 39.9606 21.1852 39.9606C21.1269 39.9606 21.0297 39.9804 20.952 39.9804H18.9699C18.8922 39.9804 18.8145 39.9606 18.7368 39.9606C18.6785 39.9606 18.6202 39.9606 18.5619 39.9408H18.4841C18.4258 39.9408 18.3675 39.9211 18.3287 39.9211C18.2898 39.9211 18.251 39.9211 18.2315 39.9013C18.1538 39.9013 18.0955 39.8815 18.0178 39.8617C17.9595 39.8617 17.8818 39.842 17.8235 39.8222C17.7652 39.8024 17.6874 39.8024 17.6097 39.7827L17.3765 39.7233L17.2794 39.7036C17.2211 39.7036 17.1628 39.6838 17.1239 39.664C16.9685 39.6245 16.8324 39.5849 16.6964 39.5454L16.4438 39.4663C16.3661 39.4465 16.2883 39.4267 16.2106 39.3872C16.0163 39.3279 15.8414 39.2488 15.6471 39.1895C15.4528 39.1302 15.2779 39.0313 15.103 38.9522C15.0253 38.9127 14.9281 38.8731 14.831 38.8336C14.7338 38.794 14.6366 38.7545 14.5589 38.6952C14.4617 38.6556 14.384 38.6161 14.3063 38.5567C14.2286 38.5172 14.1314 38.4579 14.0537 38.4183C13.976 38.3788 13.9177 38.3393 13.8594 38.2997C13.665 38.1811 13.5485 38.102 13.665 38.1811L13.5485 38.102L13.3347 37.9636L13.257 37.924L13.0627 37.7856C12.9849 37.7263 12.9072 37.6868 12.8295 37.6274C12.7517 37.5681 12.6546 37.5088 12.5769 37.4495C12.4991 37.3902 12.4214 37.3111 12.3631 37.2715L12.2854 37.2122C12.2077 37.1727 12.1494 37.1133 12.0911 37.054C16.0357 39.0511 18.0566 36.4015 19.0671 33.93C19.4946 32.8425 19.8055 31.7154 19.9804 30.5686C20.1553 31.7352 20.4468 32.882 20.8937 33.9695C21.943 36.4213 23.9251 39.0511 27.8697 37.0738Z" fill="#529BBA"/>
<path d="M22.8757 39.644C23.0312 39.6045 23.1672 39.5649 23.3032 39.5254L22.8757 39.644Z" fill="#335F8A"/>
<path d="M23.7893 39.3672C23.9836 39.3078 24.1585 39.2485 24.3528 39.1694C24.1585 39.2485 23.9836 39.3078 23.7893 39.3672Z" fill="#335F8A"/>
<path d="M24.3137 39.1892C24.4886 39.1101 24.7218 39.031 24.8967 38.9321C24.7024 39.031 24.4886 39.1101 24.3137 39.1892Z" fill="#335F8A"/>
<path d="M32.9999 26.1985C32.9805 30.4101 31.115 34.3844 27.9088 37.0537C23.9641 39.0507 21.9238 36.421 20.9133 33.9494C20.4858 32.8619 20.1749 31.7349 20 30.5881L32.6113 22.9954C32.8639 24.0433 32.9999 25.111 32.9999 26.1985Z" fill="#4B6B9A"/>
</svg>
