<svg width="20" height="14" viewBox="0 0 20 14" fill="none" xmlns="http://www.w3.org/2000/svg">
<g clip-path="url(#clip0_2820_13474)">
<mask id="mask0_2820_13474" style="mask-type:alpha" maskUnits="userSpaceOnUse" x="0" y="0" width="20" height="14">
<path d="M18.0952 0H1.90476C0.852791 0 0 0.835735 0 1.86667V12.1333C0 13.1643 0.852791 14 1.90476 14H18.0952C19.1472 14 20 13.1643 20 12.1333V1.86667C20 0.835735 19.1472 0 18.0952 0Z" fill="white"/>
</mask>
<g mask="url(#mask0_2820_13474)">
<path d="M18.0952 0H1.90476C0.852791 0 0 0.835735 0 1.86667V12.1333C0 13.1643 0.852791 14 1.90476 14H18.0952C19.1472 14 20 13.1643 20 12.1333V1.86667C20 0.835735 19.1472 0 18.0952 0Z" fill="white"/>
<path fill-rule="evenodd" clip-rule="evenodd" d="M0 0H8.57143V6.53333H0V0Z" fill="#444379"/>
<path fill-rule="evenodd" clip-rule="evenodd" d="M0.952393 0.93335V1.86668H1.90477V0.93335H0.952393ZM2.85715 0.93335V1.86668H3.80954V0.93335H2.85715ZM4.76192 0.93335V1.86668H5.7143V0.93335H4.76192ZM6.66668 0.93335V1.86668H7.61906V0.93335H6.66668ZM5.7143 1.86668V2.80002H6.66668V1.86668H5.7143ZM3.80954 1.86668V2.80002H4.76192V1.86668H3.80954ZM1.90477 1.86668V2.80002H2.85715V1.86668H1.90477ZM0.952393 2.80002V3.73335H1.90477V2.80002H0.952393ZM2.85715 2.80002V3.73335H3.80954V2.80002H2.85715ZM4.76192 2.80002V3.73335H5.7143V2.80002H4.76192ZM6.66668 2.80002V3.73335H7.61906V2.80002H6.66668ZM0.952393 4.66668V5.60002H1.90477V4.66668H0.952393ZM2.85715 4.66668V5.60002H3.80954V4.66668H2.85715ZM4.76192 4.66668V5.60002H5.7143V4.66668H4.76192ZM6.66668 4.66668V5.60002H7.61906V4.66668H6.66668ZM5.7143 3.73335V4.66668H6.66668V3.73335H5.7143ZM3.80954 3.73335V4.66668H4.76192V3.73335H3.80954ZM1.90477 3.73335V4.66668H2.85715V3.73335H1.90477Z" fill="#A7B6E7"/>
<path fill-rule="evenodd" clip-rule="evenodd" d="M8.57143 0V0.933333H20V0H8.57143ZM8.57143 1.86667V2.8H20V1.86667H8.57143ZM8.57143 3.73333V4.66667H20V3.73333H8.57143ZM8.57143 5.6V6.53333H20V5.6H8.57143ZM0 7.46667V8.4H20V7.46667H0ZM0 9.33333V10.2667H20V9.33333H0ZM0 11.2V12.1333H20V11.2H0ZM0 13.0667V14H20V13.0667H0Z" fill="#ED4C49"/>
<path d="M18.0952 0.466675H1.90477C1.11579 0.466675 0.476196 1.09348 0.476196 1.86667V12.1333C0.476196 12.9065 1.11579 13.5333 1.90477 13.5333H18.0952C18.8842 13.5333 19.5238 12.9065 19.5238 12.1333V1.86667C19.5238 1.09348 18.8842 0.466675 18.0952 0.466675Z" stroke="black" stroke-opacity="0.1"/>
</g>
</g>
<defs>
<clipPath id="clip0_2820_13474">
<rect width="20" height="14" fill="white"/>
</clipPath>
</defs>
</svg>
