<svg width="40" height="40" viewBox="0 0 40 40" fill="none" xmlns="http://www.w3.org/2000/svg">
<rect width="40" height="40" rx="8" fill="#F17221"/>
<path d="M35.1853 12.8652C35.0896 12.9941 34.9899 13.1396 34.8817 13.2768C33.2227 15.4224 31.572 17.5762 29.8963 19.7093C29.6011 20.0835 29.5678 20.3288 29.8797 20.7238C31.468 22.728 33.0023 24.7737 34.5948 26.7737C34.9524 27.227 34.8901 27.4349 34.4493 27.7467C33.5429 28.387 32.6614 29.069 31.7965 29.7675C31.4722 30.0294 31.3059 29.992 31.0605 29.6677C29.73 27.9172 28.362 26.1916 27.0398 24.4328C26.7113 23.992 26.5574 24.0211 26.2373 24.4411C24.9275 26.1791 23.5678 27.8839 22.258 29.6261C21.9711 30.0087 21.784 30.0128 21.4264 29.7259C20.5449 29.0149 19.6427 28.3247 18.7237 27.6635C18.3662 27.4058 18.3495 27.2228 18.6198 26.8818C20.2123 24.8527 21.7674 22.7987 23.3682 20.7737C23.6842 20.3704 23.7092 20.1209 23.3807 19.7051C21.7133 17.597 20.0959 15.4432 18.4202 13.3392C18.0335 12.8569 18.1084 12.6365 18.5741 12.3122C19.4639 11.6885 20.3287 11.0191 21.1728 10.333C21.5304 10.0419 21.705 10.1168 21.9587 10.4494C23.3724 12.308 24.8235 14.1376 26.2248 16.0003C26.5782 16.4702 26.7404 16.4161 27.0689 15.9879C28.4618 14.1459 29.9046 12.333 31.2934 10.4868C31.6011 10.0752 31.7965 10.071 32.1749 10.3829C33.0522 11.0981 33.9711 11.7633 34.8693 12.4577C35.0023 12.5534 35.1978 12.6157 35.1853 12.8652Z" fill="#191F27"/>
<path d="M14.9232 15.8838C14.9232 18.6614 14.9482 21.4389 14.9191 24.2165C14.8692 28.4951 12.7652 31.5055 8.7777 33.0772C7.71741 33.493 6.62385 33.7757 5.49703 33.9337C5.11034 33.9878 4.91907 33.9462 4.92738 33.4888C4.95233 32.3579 4.94402 31.2227 4.93154 30.0876C4.92739 29.7591 5.03133 29.6136 5.37229 29.5762C5.78809 29.5304 6.20805 29.4431 6.61138 29.3267C8.84422 28.6822 10.2995 26.9192 10.5157 24.6032C10.549 24.2497 10.5532 23.8922 10.5532 23.5387C10.5573 17.9836 10.5656 12.4244 10.5407 6.86929C10.5365 6.25806 10.6987 6.05848 11.3182 6.08758C12.2704 6.13748 13.2309 6.1458 14.1831 6.08758C14.8318 6.05016 14.944 6.3038 14.9399 6.88176C14.9149 9.88384 14.9274 12.8818 14.9274 15.8838C14.9274 15.8838 14.9274 15.8838 14.9232 15.8838Z" fill="#191F27"/>
</svg>
