<svg width="28" height="40" viewBox="0 0 28 40" fill="none" xmlns="http://www.w3.org/2000/svg">
<path d="M14.0138 0C8.44361 0 3.92749 4.44369 3.92749 9.92509V13.636C1.97273 13.9801 0 14.4553 0 15.0627V34.5063C0 34.5063 3.38168e-07 35.0515 0.603521 35.2876C2.83203 36.1602 11.5813 39.2116 13.5893 39.9104C13.8538 40.0025 13.9096 40 14.0013 40C14.0977 40 14.1476 40.0032 14.41 39.9118C16.4142 39.2147 25.1937 36.1555 27.4083 35.2927C27.9834 35.0687 28 34.5142 28 34.5142V15.0636C28 14.4565 26.0547 13.9801 24.0997 13.6358V9.92486C24.0999 4.44369 19.584 0 14.0138 0ZM14.0138 4.7433C17.2903 4.7433 19.2836 6.70101 19.2836 9.92509V13.158C15.5842 12.8928 12.4406 12.8928 8.74077 13.158V9.92509C8.74077 6.70078 10.7369 4.7433 14.0138 4.7433ZM14.0008 17.9309C18.5843 17.9381 22.4373 18.274 22.4373 18.916C22.4373 18.916 22.4373 30.8542 22.4373 31.0307C22.4373 31.2075 22.409 31.2373 22.2385 31.3008C22.0683 31.3645 14.4022 34.0906 14.4022 34.0906C14.4022 34.0906 14.0876 34.1934 14.0011 34.1934C13.903 34.1934 13.5881 34.0864 13.5881 34.0864C13.5881 34.0864 5.92528 31.3629 5.75319 31.2989C5.58085 31.2352 5.55863 31.2022 5.55863 31.024C5.55863 30.8276 5.55863 18.9155 5.55863 18.9155C5.55863 18.2561 9.41757 17.9236 14.0008 17.9309Z" fill="#EFF2F3"/>
</svg>
