<svg width="36" height="40" viewBox="0 0 36 40" fill="none" xmlns="http://www.w3.org/2000/svg">
<path d="M17.9886 1.50879C24.6334 6.46412 32.2536 6.15832 34.4305 6.15832C33.955 34.3418 30.3261 30.5871 17.9886 38.4896C5.6511 30.5881 2.04462 34.3418 1.57129 6.15832C3.7226 6.15832 11.3439 6.46412 17.9886 1.50879Z" fill="white"/>
<path d="M17.9887 1.50892L18.9482 0.315495C18.6735 0.110967 18.336 0 17.9887 0C17.6414 0 17.304 0.110967 17.0293 0.315495L17.9887 1.50892ZM34.4306 6.15845L35.9998 6.18308C36.0031 5.98274 35.9649 5.78378 35.8875 5.59778C35.8101 5.41179 35.695 5.24247 35.5489 5.0997C35.4029 4.95693 35.2288 4.84355 35.0368 4.76617C34.8448 4.68879 34.6387 4.64895 34.4306 4.64897V6.15845ZM17.9887 38.4897L17.1199 39.7467C17.3772 39.9119 17.6795 40 17.9887 40C18.2979 40 18.6003 39.9119 18.8575 39.7467L17.9887 38.4897ZM1.57137 6.15845V4.64897C1.36331 4.64908 1.15734 4.68902 0.965462 4.76647C0.773581 4.84391 0.599614 4.9573 0.453685 5.10006C0.307756 5.24282 0.192777 5.41209 0.115439 5.59802C0.0381008 5.78395 -5.30041e-05 5.98283 0.00319805 6.18308L1.57137 6.15845ZM17.0293 2.70235C24.1473 8.01067 32.292 7.66896 34.4316 7.66896V4.64897C32.2185 4.64897 25.1217 4.91782 18.9503 0.315495L17.0293 2.70235ZM32.8635 6.13382C32.7462 13.1466 32.437 18.0937 31.8475 21.7581C31.2644 25.3846 30.4318 27.557 29.3593 29.0839C28.273 30.6693 26.9074 31.6103 24.8915 32.7719C22.8542 33.9458 20.2818 35.2111 17.1209 37.2326L18.8586 39.7467C21.866 37.8175 24.3733 36.5882 26.5023 35.363C28.6483 34.1244 30.5352 32.7617 31.9584 30.775C33.3954 28.7288 34.3293 26.0629 34.9433 22.2199C35.5531 18.4149 35.8772 13.2626 35.9977 6.18308L32.8635 6.13382ZM18.8575 37.2326C15.6967 35.2111 13.1253 33.9489 11.0913 32.7719C9.07431 31.6113 7.71402 30.6703 6.6309 29.0849C5.56484 27.559 4.73118 25.3907 4.15017 21.7592C3.56171 18.0937 3.25468 13.1466 3.13635 6.13382L0 6.18308C0.120465 13.2636 0.442415 18.4149 1.05007 22.2189C1.66519 26.0619 2.59692 28.7278 4.03504 30.774C5.45397 32.7606 7.33983 34.1244 9.48368 35.363C11.6094 36.5872 14.1157 37.8175 17.1241 39.7467L18.8575 37.2326ZM1.56818 7.66896C3.68644 7.66896 11.8311 8.01067 18.945 2.70235L17.0261 0.315495C10.8536 4.91782 3.7568 4.64897 1.56818 4.64897V7.66896Z" fill="#3375BB"/>
</svg>
